G04 DipTrace 3.3.1.3*
G04 Bottom.gbr*
%MOMM*%
G04 #@! TF.FileFunction,Copper,L2,Bot*
G04 #@! TF.Part,Single*
G04 #@! TA.AperFunction,Conductor*
%ADD13C,0.508*%
G04 #@! TA.AperFunction,ComponentPad*
%ADD14C,3.048*%
%ADD15C,2.032*%
G04 #@! TA.AperFunction,CopperBalancing*
%ADD17C,0.635*%
%ADD18C,0.762*%
%ADD20R,1.5X1.3*%
G04 #@! TA.AperFunction,ComponentPad*
%ADD21C,1.6*%
%ADD22R,1.6X1.6*%
%ADD23R,1.8X1.8*%
%ADD24C,1.8*%
%ADD25R,0.9X0.7*%
G04 #@! TA.AperFunction,ComponentPad*
%ADD26O,3.581X1.981*%
%ADD27R,3.581X1.981*%
%ADD28O,4.305X2.705*%
%ADD30R,1.05X0.65*%
G04 #@! TA.AperFunction,ComponentPad*
%ADD31R,1.9X1.9*%
%ADD32C,1.9*%
%ADD34R,0.65X1.05*%
%ADD35R,1.3X1.5*%
G04 #@! TA.AperFunction,ComponentPad*
%ADD36C,2.032*%
%ADD38R,0.95X2.15*%
%ADD39R,3.25X2.15*%
G04 #@! TA.AperFunction,ViaPad*
%ADD40C,1.0*%
%FSLAX35Y35*%
G04*
G71*
G90*
G75*
G01*
G04 Bottom*
%LPD*%
X4746500Y10366250D2*
D13*
X5127500D1*
X6207000Y7270623D2*
Y8620000D1*
X5953000Y8874000D1*
X5191000D1*
X4905250Y8588250D1*
X4746500D1*
Y8334250D2*
X5318000D1*
X6238750Y5556123D2*
Y6302250D1*
X5762500Y6778500D1*
Y7889750D1*
X5318000Y8334250D1*
X4746500Y8080250D2*
X5318000D1*
X6238750Y3873373D2*
Y5032250D1*
X5762500Y5508500D1*
Y6524500D1*
X5635500Y6651500D1*
Y7762750D1*
X5318000Y8080250D1*
X6238750Y2143000D2*
Y3476500D1*
X6016500Y3698750D1*
Y4905250D1*
X5603750Y5318000D1*
Y6429250D1*
X5508500Y6524500D1*
Y7127750D1*
X5064000Y7572250D1*
X4746500D1*
X5667250Y8556500D2*
X5254500D1*
X7032500Y1539750D2*
D14*
X9350250D1*
X9509000Y1698500D1*
X2301750Y6810250D2*
D13*
X2746250D1*
X2849250Y6707250D1*
Y6556250D1*
X2968500Y6810250D2*
X2301750D1*
X1952500D1*
X7191250Y3349500D2*
X7492873D1*
X7572210Y3428837D1*
X7845293D1*
X7159500Y5095750D2*
X7397623D1*
X7445210Y5143337D1*
X7845293D1*
X7159500Y6778500D2*
X7429373D1*
X7508707Y6857833D1*
X7845293D1*
X7159500Y8461250D2*
X7397623D1*
X7508707Y8572333D1*
X7845293D1*
X7159500Y10175750D2*
X7397627D1*
X7508710Y10286833D1*
X7845293D1*
X6534660Y1539750D2*
Y1645160D1*
X6810250Y1920750D1*
X8016750D1*
X8143750Y2047750D1*
Y3400963D1*
Y5143337D1*
Y6830990D1*
Y8572337D1*
Y9988377D1*
X7845293Y10286833D1*
Y8572333D2*
X8143750Y8572337D1*
X7845293Y5143337D2*
X8143750D1*
X6905500Y10175250D2*
X7159500D1*
Y10175750D1*
X6937000Y3349250D2*
X7191250D1*
Y3349500D1*
X6937000Y5095500D2*
X7159500D1*
Y5095750D1*
X6937250Y6778000D2*
X7159500D1*
Y6778500D1*
X6905500Y8460750D2*
X7159500D1*
Y8461250D1*
X3098500Y6810250D2*
Y6575500D1*
X3079250Y6556250D1*
X4917957Y1952540D2*
X5445040D1*
X5540250Y2047750D1*
X4917957Y3857540D2*
X5445040D1*
X5540250Y3952750D1*
Y2047750D2*
X5826000Y2333500D1*
Y3104977D1*
Y3667000D1*
X5540250Y3952750D1*
X3079250Y6556250D2*
Y6318500D1*
X4048000Y5349750D1*
Y2428750D1*
X4524210Y1952540D1*
X4917957D1*
X7845293Y6857833D2*
X8116907D1*
X8143750Y6830990D1*
X7845293Y3428837D2*
X8115877D1*
X8143750Y3400963D1*
X5826000Y2968500D2*
Y3104977D1*
X5889500Y8334250D2*
Y8659250D1*
X5897250Y8651500D1*
X2270000Y10366250D2*
X2523500D1*
X2524000Y10366750D1*
X1952500Y10715500D2*
Y10366250D1*
X2270000D1*
X7159500Y7356250D2*
X7828010D1*
X7845293Y7373533D1*
X6849750Y7365623D2*
X7150127D1*
X7159500Y7356250D1*
X6619750Y7715123D2*
X6794373D1*
X6800317Y7721067D1*
X6905500Y7826250D1*
Y8270750D1*
X6849750Y7365623D2*
Y7671633D1*
X6800317Y7721067D1*
X7159500Y5673500D2*
X7830827D1*
X7845293Y5659033D1*
X6881500Y5651123D2*
X7137123D1*
X7159500Y5673500D1*
X6651500Y6000623D2*
X6794373D1*
X6937250Y6143500D1*
Y6588000D1*
X6881500Y5651123D2*
Y5913497D1*
X6794373Y6000623D1*
X6619750Y9429623D2*
X6762623D1*
X6905500Y9572500D1*
Y9985250D1*
X7159500Y9070750D2*
X7828010D1*
X7845293Y9088033D1*
X6849750Y9080123D2*
X7150127D1*
X7159500Y9070750D1*
X6849750Y9080123D2*
Y9342497D1*
X6762623Y9429623D1*
X7159500Y3990750D2*
X7799080D1*
X7845293Y3944537D1*
X6849750Y3968373D2*
X7137123D1*
X7159500Y3990750D1*
X6651500Y4286127D2*
X6794377D1*
X6937000Y4428750D1*
Y4905500D1*
X6849750Y3968373D2*
Y4230753D1*
X6794377Y4286127D1*
X7191250Y2244500D2*
X7830830D1*
X7845293Y2230037D1*
X6818000Y2238000D2*
X7184750D1*
X7191250Y2244500D1*
X6651500Y2571627D2*
X6794377D1*
X6937000Y2714250D1*
Y3159250D1*
X6818000Y2238000D2*
Y2542593D1*
X6794377Y2571627D1*
X4333500Y3151250D2*
X4917867D1*
X4917957Y3151340D1*
X5538840D1*
X5540250Y3152750D1*
X4524000Y5056250D2*
X4917867D1*
X4917957Y5056340D1*
X5538840D1*
X5540250Y5057750D1*
X5317500Y10366250D2*
Y10112250D1*
X5730750D1*
X6270500Y9572500D1*
Y9159750D1*
X6445127Y8985123D1*
X6619750D1*
X6397000Y7270623D2*
X6619750D1*
X6428750Y5556123D2*
X6651500D1*
X6428750Y3873373D2*
X6619750D1*
X6428750Y2143000D2*
X6588000D1*
X5318000Y7826250D2*
X4746500D1*
X4429000Y5286250D2*
Y7667500D1*
X4587750Y7826250D1*
X4746500D1*
Y10112250D2*
X5127500D1*
X4238500Y3381250D2*
Y9826500D1*
X4524250Y10112250D1*
X4746500D1*
Y9604250D2*
X5318000D1*
X5699000D1*
Y9858250D2*
X5318000D1*
X4746500D1*
X5318000Y9350250D2*
X5445000D1*
X5699000Y9096250D1*
X4746500Y6810250D2*
X5349750D1*
X5699000Y9096250D2*
X5984750D1*
X4746500D2*
X4873500D1*
X5127500Y9350250D1*
X5318000D1*
D40*
X2270000Y9858250D3*
X5254500Y8556500D3*
X5413250Y8747000D3*
X5984750Y9572500D3*
X4619500Y5572000D3*
X4429000Y3635250D3*
X6467397Y11700083D2*
D17*
X8728603D1*
X9271407D2*
X9661387D1*
X6467397Y11636917D2*
X8691140D1*
X9308867D2*
X9661387D1*
X6467397Y11573750D2*
X8669903D1*
X9330103D2*
X9661387D1*
X6467397Y11510583D2*
X8661700D1*
X9338307D2*
X9661387D1*
X6467397Y11447417D2*
X8665710D1*
X9334207D2*
X9661387D1*
X6467397Y11384250D2*
X8682390D1*
X9317617D2*
X9661387D1*
X6467397Y11321083D2*
X8713927D1*
X9286080D2*
X9661387D1*
X6467397Y11257917D2*
X8766337D1*
X9233670D2*
X9661387D1*
X6467397Y11194750D2*
X8862860D1*
X9137147D2*
X9661387D1*
X6467397Y11131583D2*
X9661387D1*
X6467397Y11068417D2*
X9661387D1*
X6467397Y11005250D2*
X6540647D1*
X6825873D2*
X9661387D1*
X6887487Y10942083D2*
X9661387D1*
X6917110Y10878917D2*
X9661387D1*
X6927043Y10815750D2*
X9661387D1*
X6919843Y10752583D2*
X9661387D1*
X6893777Y10689417D2*
X9661387D1*
X6467397Y10626250D2*
X6527340D1*
X6839180D2*
X9661387D1*
X6467397Y10563083D2*
X9661387D1*
X8308177Y10499917D2*
X9661387D1*
X8308813Y10436750D2*
X8871153D1*
X9257827D2*
X9661387D1*
X8308813Y10373583D2*
X8815737D1*
X9313333D2*
X9661387D1*
X8308813Y10310417D2*
X8795503D1*
X9333477D2*
X9661387D1*
X8308813Y10247250D2*
X8798330D1*
X9330650D2*
X9661387D1*
X8308813Y10184083D2*
X8825400D1*
X9303670D2*
X9661387D1*
X8308813Y10120917D2*
X8898407D1*
X9230663D2*
X9661387D1*
X8308813Y10057750D2*
X9661387D1*
X8308813Y9994583D2*
X9661387D1*
X8308813Y9931417D2*
X8376140D1*
X8546340D2*
X9661387D1*
X8642317Y9868250D2*
X9661387D1*
X8684063Y9805083D2*
X9661387D1*
X8702563Y9741917D2*
X9661387D1*
X8703387Y9678750D2*
X9661387D1*
X8686613Y9615583D2*
X9661387D1*
X8647603Y9552417D2*
X9661387D1*
X8308813Y9489250D2*
X8361010D1*
X8561563D2*
X9661387D1*
X8308813Y9426083D2*
X8362377D1*
X8560197D2*
X9661387D1*
X8647057Y9362917D2*
X9661387D1*
X8686433Y9299750D2*
X9661387D1*
X8703293Y9236583D2*
X8869423D1*
X9259647D2*
X9661387D1*
X8702657Y9173417D2*
X8815007D1*
X9313970D2*
X9661387D1*
X8684337Y9110250D2*
X8795320D1*
X9333660D2*
X9661387D1*
X8642863Y9047083D2*
X8798603D1*
X9330377D2*
X9661387D1*
X8308813Y8983917D2*
X8374500D1*
X8548073D2*
X8826220D1*
X9302760D2*
X9661387D1*
X8308813Y8920750D2*
X8901140D1*
X9227930D2*
X9661387D1*
X8308813Y8857583D2*
X9661387D1*
X8308813Y8794417D2*
X9661387D1*
X8308813Y8731250D2*
X8885100D1*
X9243970D2*
X9661387D1*
X8308813Y8668083D2*
X8820840D1*
X9308137D2*
X9661387D1*
X8308813Y8604917D2*
X8796870D1*
X9332110D2*
X9661387D1*
X8308813Y8541750D2*
X8796597D1*
X9332383D2*
X9661387D1*
X8308813Y8478583D2*
X8819657D1*
X9309323D2*
X9661387D1*
X8308813Y8415417D2*
X8881817D1*
X9247160D2*
X9661387D1*
X8308813Y8352250D2*
X9661387D1*
X8308813Y8289083D2*
X9661387D1*
X8308813Y8225917D2*
X8409137D1*
X8513347D2*
X9661387D1*
X8633567Y8162750D2*
X9661387D1*
X8679780Y8099583D2*
X9661387D1*
X8701107Y8036417D2*
X9661387D1*
X8704297Y7973250D2*
X9661387D1*
X8690170Y7910083D2*
X9661387D1*
X8654987Y7846917D2*
X9661387D1*
X8308813Y7783750D2*
X8342327D1*
X8580157D2*
X9661387D1*
X8308813Y7720583D2*
X8387443D1*
X8535040D2*
X9661387D1*
X8638853Y7657417D2*
X9661387D1*
X8682330Y7594250D2*
X9661387D1*
X8702017Y7531083D2*
X8882913D1*
X9246067D2*
X9661387D1*
X8703750Y7467917D2*
X8820020D1*
X9308957D2*
X9661387D1*
X8688163Y7404750D2*
X8796687D1*
X9332290D2*
X9661387D1*
X8650703Y7341583D2*
X8796780D1*
X9332200D2*
X9661387D1*
X8308813Y7278417D2*
X8352900D1*
X8569583D2*
X8820477D1*
X9308503D2*
X9661387D1*
X8308813Y7215250D2*
X8884007D1*
X9244973D2*
X9661387D1*
X8308813Y7152083D2*
X9661387D1*
X8308813Y7088917D2*
X9661387D1*
X8308813Y7025750D2*
X8902507D1*
X9226470D2*
X9661387D1*
X8308813Y6962583D2*
X8826673D1*
X9302303D2*
X9661387D1*
X8308813Y6899417D2*
X8798783D1*
X9330287D2*
X9661387D1*
X8308813Y6836250D2*
X8795320D1*
X9333750D2*
X9661387D1*
X8308813Y6773083D2*
X8814733D1*
X9314337D2*
X9661387D1*
X8308813Y6709917D2*
X8868510D1*
X9260470D2*
X9661387D1*
X8308813Y6646750D2*
X9661387D1*
X8308813Y6583583D2*
X9661387D1*
X8308813Y6520417D2*
X9661387D1*
X8623813Y6457250D2*
X9661387D1*
X8675040Y6394083D2*
X9661387D1*
X8699193Y6330917D2*
X9661387D1*
X8704843Y6267750D2*
X9661387D1*
X8693360Y6204583D2*
X9661387D1*
X8661640Y6141417D2*
X9661387D1*
X8595470Y6078250D2*
X9661387D1*
X8308813Y6015083D2*
X8435660D1*
X8486913D2*
X9661387D1*
X8629740Y5951917D2*
X9661387D1*
X8677863Y5888750D2*
X9661387D1*
X8700377Y5825583D2*
X8899683D1*
X9229297D2*
X9661387D1*
X8704570Y5762417D2*
X8825763D1*
X9303217D2*
X9661387D1*
X8691537Y5699250D2*
X8798420D1*
X9330560D2*
X9661387D1*
X8657720Y5636083D2*
X8795413D1*
X9333567D2*
X9661387D1*
X8308813Y5572917D2*
X8335763D1*
X8586720D2*
X8815373D1*
X9313607D2*
X9661387D1*
X8308813Y5509750D2*
X8870333D1*
X9258737D2*
X9661387D1*
X8308813Y5446583D2*
X9661387D1*
X8308813Y5383417D2*
X9661387D1*
X8308813Y5320250D2*
X8926937D1*
X9202043D2*
X9661387D1*
X8308813Y5257083D2*
X8833330D1*
X9295650D2*
X9661387D1*
X8308813Y5193917D2*
X8801063D1*
X9327917D2*
X9661387D1*
X8308813Y5130750D2*
X8794410D1*
X9334570D2*
X9661387D1*
X8308813Y5067583D2*
X8810360D1*
X9318710D2*
X9661387D1*
X8308813Y5004417D2*
X8857300D1*
X9271680D2*
X9661387D1*
X8308813Y4941250D2*
X9661387D1*
X8308813Y4878083D2*
X9661387D1*
X8308813Y4814917D2*
X9661387D1*
X8612877Y4751750D2*
X9661387D1*
X8669753Y4688583D2*
X9661387D1*
X8697003Y4625417D2*
X9661387D1*
X8705117Y4562250D2*
X9661387D1*
X8696093Y4499083D2*
X9661387D1*
X8667657Y4435917D2*
X9661387D1*
X8608593Y4372750D2*
X9661387D1*
X8308813Y4309583D2*
X9661387D1*
X8619530Y4246417D2*
X9661387D1*
X8672943Y4183250D2*
X9661387D1*
X8698373Y4120083D2*
X8922650D1*
X9206327D2*
X9661387D1*
X8705027Y4056917D2*
X8832327D1*
X9296653D2*
X9661387D1*
X8694543Y3993750D2*
X8800697D1*
X9328280D2*
X9661387D1*
X8664193Y3930583D2*
X8794500D1*
X9334480D2*
X9661387D1*
X8601030Y3867417D2*
X8810907D1*
X9318073D2*
X9661387D1*
X8308813Y3804250D2*
X8858850D1*
X9270130D2*
X9661387D1*
X8308813Y3741083D2*
X9661387D1*
X8308813Y3677917D2*
X9661387D1*
X8308813Y3614750D2*
X9661387D1*
X8308813Y3551583D2*
X8840893D1*
X9288177D2*
X9661387D1*
X8308813Y3488417D2*
X8803887D1*
X9325090D2*
X9661387D1*
X8308813Y3425250D2*
X8794043D1*
X9334933D2*
X9661387D1*
X8308813Y3362083D2*
X8806530D1*
X9322447D2*
X9661387D1*
X8308813Y3298917D2*
X8847730D1*
X9281340D2*
X9661387D1*
X8308813Y3235750D2*
X9661387D1*
X8308813Y3172583D2*
X9661387D1*
X8308813Y3109417D2*
X9661387D1*
X8600390Y3046250D2*
X9661387D1*
X8663827Y2983083D2*
X9661387D1*
X8694363Y2919917D2*
X9661387D1*
X8704933Y2856750D2*
X9661387D1*
X8698463Y2793583D2*
X9661387D1*
X8673123Y2730417D2*
X9661387D1*
X8619987Y2667250D2*
X9661387D1*
X8308813Y2604083D2*
X9661387D1*
X8608047Y2540917D2*
X9661387D1*
X8667383Y2477750D2*
X9661387D1*
X8696003Y2414583D2*
X9661387D1*
X8705117Y2351417D2*
X8839710D1*
X9289270D2*
X9661387D1*
X8697097Y2288250D2*
X8803433D1*
X9325547D2*
X9661387D1*
X8669933Y2225083D2*
X8794043D1*
X9334933D2*
X9661387D1*
X8613423Y2161917D2*
X8807080D1*
X9321900D2*
X9661387D1*
X8308813Y2098750D2*
X8849007D1*
X9279973D2*
X9661387D1*
X8308813Y2035583D2*
X9661387D1*
X8308813Y1972417D2*
X9661387D1*
X8308813Y1909250D2*
X9661387D1*
X8308813Y1846083D2*
X9661387D1*
X8308813Y1782917D2*
X9661387D1*
X8308813Y1719750D2*
X9661387D1*
X8308813Y1656583D2*
X9661387D1*
X8308813Y1593417D2*
X9661387D1*
X8308813Y1530250D2*
X9661387D1*
X9331263Y11476687D2*
X9328810Y11453487D1*
X9324733Y11430517D1*
X9319053Y11407890D1*
X9311800Y11385720D1*
X9303007Y11364110D1*
X9292720Y11343173D1*
X9280987Y11323010D1*
X9267867Y11303720D1*
X9253427Y11285397D1*
X9237737Y11268137D1*
X9220870Y11252017D1*
X9202917Y11237123D1*
X9183960Y11223527D1*
X9164097Y11211293D1*
X9143420Y11200483D1*
X9122040Y11191153D1*
X9100057Y11183350D1*
X9077580Y11177107D1*
X9054717Y11172457D1*
X9031587Y11169423D1*
X9008300Y11168020D1*
X8984973Y11168257D1*
X8961720Y11170130D1*
X8938657Y11173630D1*
X8915893Y11178743D1*
X8893547Y11185440D1*
X8871727Y11193690D1*
X8850540Y11203453D1*
X8830090Y11214677D1*
X8810477Y11227310D1*
X8791800Y11241287D1*
X8774150Y11256543D1*
X8757617Y11273000D1*
X8742277Y11290577D1*
X8728210Y11309187D1*
X8715483Y11328740D1*
X8704163Y11349137D1*
X8694300Y11370277D1*
X8685950Y11392060D1*
X8679147Y11414373D1*
X8673927Y11437110D1*
X8670317Y11460160D1*
X8668333Y11483403D1*
X8667983Y11506730D1*
X8669277Y11530023D1*
X8672200Y11553167D1*
X8676740Y11576050D1*
X8682877Y11598557D1*
X8690580Y11620577D1*
X8699810Y11642000D1*
X8710520Y11662727D1*
X8722657Y11682647D1*
X8736163Y11701670D1*
X8750973Y11719693D1*
X8767013Y11736633D1*
X8784200Y11752407D1*
X8797817Y11763247D1*
X6460997Y11763250D1*
X6461000Y10894387D1*
X6469853Y10914980D1*
X6481107Y10935410D1*
X6494310Y10954637D1*
X6509337Y10972477D1*
X6526037Y10988757D1*
X6544257Y11003317D1*
X6563817Y11016023D1*
X6584527Y11026750D1*
X6606193Y11035390D1*
X6628600Y11041867D1*
X6651533Y11046113D1*
X6674773Y11048090D1*
X6698097Y11047777D1*
X6721273Y11045177D1*
X6744087Y11040317D1*
X6766310Y11033240D1*
X6787733Y11024020D1*
X6808150Y11012743D1*
X6827363Y10999517D1*
X6845183Y10984470D1*
X6861443Y10967750D1*
X6875983Y10949513D1*
X6888667Y10929937D1*
X6899367Y10909213D1*
X6907983Y10887540D1*
X6914433Y10865123D1*
X6918650Y10842183D1*
X6920600Y10818943D1*
X6920327Y10796757D1*
X6917810Y10773570D1*
X6913033Y10750740D1*
X6906040Y10728490D1*
X6896897Y10707033D1*
X6885690Y10686577D1*
X6872533Y10667317D1*
X6857553Y10649443D1*
X6840890Y10633123D1*
X6822703Y10618517D1*
X6803177Y10605763D1*
X6782490Y10594990D1*
X6760847Y10586293D1*
X6738457Y10579767D1*
X6715530Y10575463D1*
X6692297Y10573433D1*
X6668973Y10573690D1*
X6645790Y10576233D1*
X6622967Y10581040D1*
X6600723Y10588060D1*
X6579277Y10597230D1*
X6558833Y10608457D1*
X6539590Y10621637D1*
X6521733Y10636640D1*
X6505433Y10653323D1*
X6490850Y10671527D1*
X6478120Y10691070D1*
X6467370Y10711770D1*
X6461007Y10727063D1*
X6461000Y10525067D1*
X8273240Y10524903D1*
X8280560Y10523447D1*
X8287340Y10520320D1*
X8293200Y10515700D1*
X8297820Y10509840D1*
X8300947Y10503060D1*
X8302403Y10495740D1*
X8302500Y9883940D1*
X8321657Y9899507D1*
X8337163Y9909867D1*
X8353433Y9918980D1*
X8370367Y9926787D1*
X8387860Y9933240D1*
X8405810Y9938300D1*
X8424100Y9941940D1*
X8442617Y9944130D1*
X8461250Y9944863D1*
X8479883Y9944130D1*
X8498400Y9941940D1*
X8516690Y9938300D1*
X8534640Y9933240D1*
X8552133Y9926787D1*
X8569067Y9918980D1*
X8585337Y9909867D1*
X8600843Y9899507D1*
X8615487Y9887963D1*
X8629180Y9875303D1*
X8641840Y9861610D1*
X8653383Y9846967D1*
X8663743Y9831460D1*
X8672857Y9815190D1*
X8680663Y9798257D1*
X8687117Y9780763D1*
X8692177Y9762813D1*
X8695817Y9744523D1*
X8698007Y9726007D1*
X8698740Y9707373D1*
X8698007Y9688740D1*
X8695817Y9670223D1*
X8692177Y9651933D1*
X8687117Y9633983D1*
X8680663Y9616490D1*
X8672857Y9599557D1*
X8663743Y9583287D1*
X8653383Y9567780D1*
X8641840Y9553137D1*
X8629180Y9539443D1*
X8615487Y9526783D1*
X8600843Y9515240D1*
X8585337Y9504880D1*
X8569067Y9495767D1*
X8552133Y9487960D1*
X8534640Y9481507D1*
X8516690Y9476447D1*
X8498400Y9472807D1*
X8479883Y9470617D1*
X8461250Y9469883D1*
X8442617Y9470617D1*
X8424100Y9472807D1*
X8405810Y9476447D1*
X8387860Y9481507D1*
X8370367Y9487960D1*
X8353433Y9495767D1*
X8337163Y9504880D1*
X8321657Y9515240D1*
X8302467Y9530987D1*
X8302500Y9384097D1*
X8322257Y9399940D1*
X8341817Y9412647D1*
X8362527Y9423373D1*
X8384193Y9432013D1*
X8406600Y9438490D1*
X8429533Y9442737D1*
X8452773Y9444713D1*
X8476097Y9444400D1*
X8499273Y9441800D1*
X8522087Y9436940D1*
X8544310Y9429863D1*
X8565733Y9420643D1*
X8586150Y9409367D1*
X8605363Y9396140D1*
X8623183Y9381093D1*
X8639443Y9364373D1*
X8653983Y9346137D1*
X8666667Y9326560D1*
X8677367Y9305837D1*
X8685983Y9284163D1*
X8692433Y9261747D1*
X8696650Y9238807D1*
X8698600Y9215567D1*
X8698327Y9193380D1*
X8695810Y9170193D1*
X8691033Y9147363D1*
X8684040Y9125113D1*
X8674897Y9103657D1*
X8663690Y9083200D1*
X8650533Y9063940D1*
X8635553Y9046067D1*
X8618890Y9029747D1*
X8600703Y9015140D1*
X8581177Y9002387D1*
X8560490Y8991613D1*
X8538847Y8982917D1*
X8516457Y8976390D1*
X8493530Y8972087D1*
X8470297Y8970057D1*
X8446973Y8970313D1*
X8423790Y8972857D1*
X8400967Y8977663D1*
X8378723Y8984683D1*
X8357277Y8993853D1*
X8336833Y9005080D1*
X8317590Y9018260D1*
X8302497Y9030750D1*
X8302500Y8169487D1*
X8321657Y8185010D1*
X8337163Y8195370D1*
X8353433Y8204483D1*
X8370367Y8212290D1*
X8387860Y8218743D1*
X8405810Y8223803D1*
X8424100Y8227443D1*
X8442617Y8229633D1*
X8461250Y8230367D1*
X8479883Y8229633D1*
X8498400Y8227443D1*
X8516690Y8223803D1*
X8534640Y8218743D1*
X8552133Y8212290D1*
X8569067Y8204483D1*
X8585337Y8195370D1*
X8600843Y8185010D1*
X8615487Y8173467D1*
X8629180Y8160807D1*
X8641840Y8147113D1*
X8653383Y8132470D1*
X8663743Y8116963D1*
X8672857Y8100693D1*
X8680663Y8083760D1*
X8687117Y8066267D1*
X8692177Y8048317D1*
X8695817Y8030027D1*
X8698007Y8011510D1*
X8698740Y7992877D1*
X8698007Y7974243D1*
X8695817Y7955727D1*
X8692177Y7937437D1*
X8687117Y7919487D1*
X8680663Y7901993D1*
X8672857Y7885060D1*
X8663743Y7868790D1*
X8653383Y7853283D1*
X8641840Y7838640D1*
X8629180Y7824947D1*
X8615487Y7812287D1*
X8600843Y7800743D1*
X8585337Y7790383D1*
X8569067Y7781270D1*
X8552133Y7773463D1*
X8534640Y7767010D1*
X8516690Y7761950D1*
X8498400Y7758310D1*
X8479883Y7756120D1*
X8461250Y7755387D1*
X8442617Y7756120D1*
X8424100Y7758310D1*
X8405810Y7761950D1*
X8387860Y7767010D1*
X8370367Y7773463D1*
X8353433Y7781270D1*
X8337163Y7790383D1*
X8321657Y7800743D1*
X8302467Y7816490D1*
X8302500Y7669460D1*
X8318500Y7682677D1*
X8337807Y7695763D1*
X8358303Y7706893D1*
X8379793Y7715960D1*
X8402070Y7722873D1*
X8424913Y7727570D1*
X8448110Y7730003D1*
X8471433Y7730147D1*
X8494660Y7728003D1*
X8517563Y7723593D1*
X8539923Y7716957D1*
X8561523Y7708160D1*
X8582157Y7697283D1*
X8601627Y7684440D1*
X8619740Y7669747D1*
X8636323Y7653347D1*
X8651220Y7635400D1*
X8664283Y7616077D1*
X8675390Y7595567D1*
X8684430Y7574067D1*
X8691320Y7551783D1*
X8695987Y7528930D1*
X8698393Y7505730D1*
X8698557Y7483547D1*
X8696497Y7460313D1*
X8692167Y7437393D1*
X8685613Y7415010D1*
X8676893Y7393377D1*
X8666093Y7372707D1*
X8653317Y7353190D1*
X8638687Y7335023D1*
X8622350Y7318380D1*
X8604457Y7303420D1*
X8585180Y7290287D1*
X8564710Y7279107D1*
X8543243Y7269990D1*
X8520983Y7263020D1*
X8498150Y7258270D1*
X8474957Y7255783D1*
X8451633Y7255580D1*
X8428403Y7257670D1*
X8405490Y7262027D1*
X8383113Y7268607D1*
X8361493Y7277353D1*
X8340833Y7288180D1*
X8321333Y7300977D1*
X8302497Y7316253D1*
X8302500Y6455033D1*
X8321657Y6470510D1*
X8337163Y6480870D1*
X8353433Y6489983D1*
X8370367Y6497790D1*
X8387860Y6504243D1*
X8405810Y6509303D1*
X8424100Y6512943D1*
X8442617Y6515133D1*
X8461250Y6515867D1*
X8479883Y6515133D1*
X8498400Y6512943D1*
X8516690Y6509303D1*
X8534640Y6504243D1*
X8552133Y6497790D1*
X8569067Y6489983D1*
X8585337Y6480870D1*
X8600843Y6470510D1*
X8615487Y6458967D1*
X8629180Y6446307D1*
X8641840Y6432613D1*
X8653383Y6417970D1*
X8663743Y6402463D1*
X8672857Y6386193D1*
X8680663Y6369260D1*
X8687117Y6351767D1*
X8692177Y6333817D1*
X8695817Y6315527D1*
X8698007Y6297010D1*
X8698740Y6278377D1*
X8698007Y6259743D1*
X8695817Y6241227D1*
X8692177Y6222937D1*
X8687117Y6204987D1*
X8680663Y6187493D1*
X8672857Y6170560D1*
X8663743Y6154290D1*
X8653383Y6138783D1*
X8641840Y6124140D1*
X8629180Y6110447D1*
X8615487Y6097787D1*
X8600843Y6086243D1*
X8585337Y6075883D1*
X8569067Y6066770D1*
X8552133Y6058963D1*
X8534640Y6052510D1*
X8516690Y6047450D1*
X8498400Y6043810D1*
X8479883Y6041620D1*
X8461250Y6040887D1*
X8442617Y6041620D1*
X8424100Y6043810D1*
X8405810Y6047450D1*
X8387860Y6052510D1*
X8370367Y6058963D1*
X8353433Y6066770D1*
X8337163Y6075883D1*
X8321657Y6086243D1*
X8302467Y6101990D1*
X8302500Y5955007D1*
X8322257Y5970943D1*
X8341817Y5983650D1*
X8362527Y5994377D1*
X8384193Y6003017D1*
X8406600Y6009493D1*
X8429533Y6013740D1*
X8452773Y6015717D1*
X8476097Y6015403D1*
X8499273Y6012803D1*
X8522087Y6007943D1*
X8544310Y6000867D1*
X8565733Y5991647D1*
X8586150Y5980370D1*
X8605363Y5967143D1*
X8623183Y5952097D1*
X8639443Y5935377D1*
X8653983Y5917140D1*
X8666667Y5897563D1*
X8677367Y5876840D1*
X8685983Y5855167D1*
X8692433Y5832750D1*
X8696650Y5809810D1*
X8698600Y5786570D1*
X8698327Y5764383D1*
X8695810Y5741197D1*
X8691033Y5718367D1*
X8684040Y5696117D1*
X8674897Y5674660D1*
X8663690Y5654203D1*
X8650533Y5634943D1*
X8635553Y5617070D1*
X8618890Y5600750D1*
X8600703Y5586143D1*
X8581177Y5573390D1*
X8560490Y5562617D1*
X8538847Y5553920D1*
X8516457Y5547393D1*
X8493530Y5543090D1*
X8470297Y5541060D1*
X8446973Y5541317D1*
X8423790Y5543860D1*
X8400967Y5548667D1*
X8378723Y5555687D1*
X8357277Y5564857D1*
X8336833Y5576083D1*
X8317590Y5589263D1*
X8302497Y5601753D1*
X8302500Y4740580D1*
X8321657Y4756010D1*
X8337163Y4766370D1*
X8353433Y4775483D1*
X8370367Y4783290D1*
X8387860Y4789743D1*
X8405810Y4794803D1*
X8424100Y4798443D1*
X8442617Y4800633D1*
X8461250Y4801367D1*
X8479883Y4800633D1*
X8498400Y4798443D1*
X8516690Y4794803D1*
X8534640Y4789743D1*
X8552133Y4783290D1*
X8569067Y4775483D1*
X8585337Y4766370D1*
X8600843Y4756010D1*
X8615487Y4744467D1*
X8629180Y4731807D1*
X8641840Y4718113D1*
X8653383Y4703470D1*
X8663743Y4687963D1*
X8672857Y4671693D1*
X8680663Y4654760D1*
X8687117Y4637267D1*
X8692177Y4619317D1*
X8695817Y4601027D1*
X8698007Y4582510D1*
X8698740Y4563877D1*
X8698007Y4545243D1*
X8695817Y4526727D1*
X8692177Y4508437D1*
X8687117Y4490487D1*
X8680663Y4472993D1*
X8672857Y4456060D1*
X8663743Y4439790D1*
X8653383Y4424283D1*
X8641840Y4409640D1*
X8629180Y4395947D1*
X8615487Y4383287D1*
X8600843Y4371743D1*
X8585337Y4361383D1*
X8569067Y4352270D1*
X8552133Y4344463D1*
X8534640Y4338010D1*
X8516690Y4332950D1*
X8498400Y4329310D1*
X8479883Y4327120D1*
X8461250Y4326387D1*
X8442617Y4327120D1*
X8424100Y4329310D1*
X8405810Y4332950D1*
X8387860Y4338010D1*
X8370367Y4344463D1*
X8353433Y4352270D1*
X8337163Y4361383D1*
X8321657Y4371743D1*
X8302467Y4387490D1*
X8302500Y4240553D1*
X8322257Y4256443D1*
X8341817Y4269150D1*
X8362527Y4279877D1*
X8384193Y4288517D1*
X8406600Y4294993D1*
X8429533Y4299240D1*
X8452773Y4301217D1*
X8476097Y4300903D1*
X8499273Y4298303D1*
X8522087Y4293443D1*
X8544310Y4286367D1*
X8565733Y4277147D1*
X8586150Y4265870D1*
X8605363Y4252643D1*
X8623183Y4237597D1*
X8639443Y4220877D1*
X8653983Y4202640D1*
X8666667Y4183063D1*
X8677367Y4162340D1*
X8685983Y4140667D1*
X8692433Y4118250D1*
X8696650Y4095310D1*
X8698600Y4072070D1*
X8698327Y4049883D1*
X8695810Y4026697D1*
X8691033Y4003867D1*
X8684040Y3981617D1*
X8674897Y3960160D1*
X8663690Y3939703D1*
X8650533Y3920443D1*
X8635553Y3902570D1*
X8618890Y3886250D1*
X8600703Y3871643D1*
X8581177Y3858890D1*
X8560490Y3848117D1*
X8538847Y3839420D1*
X8516457Y3832893D1*
X8493530Y3828590D1*
X8470297Y3826560D1*
X8446973Y3826817D1*
X8423790Y3829360D1*
X8400967Y3834167D1*
X8378723Y3841187D1*
X8357277Y3850357D1*
X8336833Y3861583D1*
X8317590Y3874763D1*
X8302497Y3887253D1*
X8302500Y3025947D1*
X8321657Y3041507D1*
X8337163Y3051867D1*
X8353433Y3060980D1*
X8370367Y3068787D1*
X8387860Y3075240D1*
X8405810Y3080300D1*
X8424100Y3083940D1*
X8442617Y3086130D1*
X8461250Y3086863D1*
X8479883Y3086130D1*
X8498400Y3083940D1*
X8516690Y3080300D1*
X8534640Y3075240D1*
X8552133Y3068787D1*
X8569067Y3060980D1*
X8585337Y3051867D1*
X8600843Y3041507D1*
X8615487Y3029963D1*
X8629180Y3017303D1*
X8641840Y3003610D1*
X8653383Y2988967D1*
X8663743Y2973460D1*
X8672857Y2957190D1*
X8680663Y2940257D1*
X8687117Y2922763D1*
X8692177Y2904813D1*
X8695817Y2886523D1*
X8698007Y2868007D1*
X8698740Y2849373D1*
X8698007Y2830740D1*
X8695817Y2812223D1*
X8692177Y2793933D1*
X8687117Y2775983D1*
X8680663Y2758490D1*
X8672857Y2741557D1*
X8663743Y2725287D1*
X8653383Y2709780D1*
X8641840Y2695137D1*
X8629180Y2681443D1*
X8615487Y2668783D1*
X8600843Y2657240D1*
X8585337Y2646880D1*
X8569067Y2637767D1*
X8552133Y2629960D1*
X8534640Y2623507D1*
X8516690Y2618447D1*
X8498400Y2614807D1*
X8479883Y2612617D1*
X8461250Y2611883D1*
X8442617Y2612617D1*
X8424100Y2614807D1*
X8405810Y2618447D1*
X8387860Y2623507D1*
X8370367Y2629960D1*
X8353433Y2637767D1*
X8337163Y2646880D1*
X8321657Y2657240D1*
X8302467Y2672987D1*
X8302500Y2525920D1*
X8318500Y2539173D1*
X8337807Y2552260D1*
X8358303Y2563390D1*
X8379793Y2572457D1*
X8402070Y2579370D1*
X8424913Y2584067D1*
X8448110Y2586500D1*
X8471433Y2586643D1*
X8494660Y2584500D1*
X8517563Y2580090D1*
X8539923Y2573453D1*
X8561523Y2564657D1*
X8582157Y2553780D1*
X8601627Y2540937D1*
X8619740Y2526243D1*
X8636323Y2509843D1*
X8651220Y2491897D1*
X8664283Y2472573D1*
X8675390Y2452063D1*
X8684430Y2430563D1*
X8691320Y2408280D1*
X8695987Y2385427D1*
X8698393Y2362227D1*
X8698557Y2340043D1*
X8696497Y2316810D1*
X8692167Y2293890D1*
X8685613Y2271507D1*
X8676893Y2249873D1*
X8666093Y2229203D1*
X8653317Y2209687D1*
X8638687Y2191520D1*
X8622350Y2174877D1*
X8604457Y2159917D1*
X8585180Y2146783D1*
X8564710Y2135603D1*
X8543243Y2126487D1*
X8520983Y2119517D1*
X8498150Y2114767D1*
X8474957Y2112280D1*
X8451633Y2112077D1*
X8428403Y2114167D1*
X8405490Y2118523D1*
X8383113Y2125103D1*
X8361493Y2133850D1*
X8340833Y2144677D1*
X8321333Y2157473D1*
X8302497Y2172750D1*
X8302500Y1508003D1*
X9667743Y1508000D1*
X9667750Y11763243D1*
X9202483Y11763250D1*
X9230737Y11738830D1*
X9246933Y11722043D1*
X9261913Y11704157D1*
X9275600Y11685267D1*
X9287927Y11665460D1*
X9298833Y11644837D1*
X9308263Y11623500D1*
X9316173Y11601553D1*
X9322523Y11579107D1*
X9327280Y11556270D1*
X9330423Y11533153D1*
X9332083Y11500000D1*
X9331263Y11476687D1*
X8984557Y10102737D2*
X8955693Y10105000D1*
X8927597Y10111747D1*
X8900903Y10122803D1*
X8876267Y10137900D1*
X8854293Y10156667D1*
X8835527Y10178640D1*
X8820430Y10203277D1*
X8809373Y10229970D1*
X8802627Y10258067D1*
X8800360Y10286873D1*
X8802627Y10315680D1*
X8809373Y10343777D1*
X8820430Y10370470D1*
X8835527Y10395107D1*
X8854293Y10417080D1*
X8876267Y10435847D1*
X8900903Y10450943D1*
X8927597Y10462000D1*
X8955693Y10468747D1*
X8984557Y10471010D1*
X9158947Y10470447D1*
X9187487Y10465927D1*
X9214967Y10456997D1*
X9240713Y10443880D1*
X9264090Y10426893D1*
X9284520Y10406463D1*
X9301507Y10383087D1*
X9314623Y10357340D1*
X9323553Y10329860D1*
X9328073Y10301320D1*
Y10272427D1*
X9323553Y10243887D1*
X9314623Y10216407D1*
X9301507Y10190660D1*
X9284520Y10167283D1*
X9264090Y10146853D1*
X9240713Y10129867D1*
X9214967Y10116750D1*
X9187487Y10107820D1*
X9158947Y10103300D1*
X9097833Y10102733D1*
X8984500Y10102823D1*
X8984557Y8903857D2*
X8955693Y8906120D1*
X8927597Y8912867D1*
X8900903Y8923923D1*
X8876267Y8939020D1*
X8854293Y8957787D1*
X8835527Y8979760D1*
X8820430Y9004397D1*
X8809373Y9031090D1*
X8802627Y9059187D1*
X8800360Y9087993D1*
X8802627Y9116800D1*
X8809373Y9144897D1*
X8820430Y9171590D1*
X8835527Y9196227D1*
X8854293Y9218200D1*
X8876267Y9236967D1*
X8900903Y9252063D1*
X8927597Y9263120D1*
X8955693Y9269867D1*
X8984557Y9272130D1*
X9158947Y9271567D1*
X9187487Y9267047D1*
X9214967Y9258117D1*
X9240713Y9245000D1*
X9264090Y9228013D1*
X9284520Y9207583D1*
X9301507Y9184207D1*
X9314623Y9158460D1*
X9323553Y9130980D1*
X9328073Y9102440D1*
Y9073547D1*
X9323553Y9045007D1*
X9314623Y9017527D1*
X9301507Y8991780D1*
X9284520Y8968403D1*
X9264090Y8947973D1*
X9240713Y8930987D1*
X9214967Y8917870D1*
X9187487Y8908940D1*
X9158947Y8904420D1*
X9097833Y8903853D1*
X8984500Y8903943D1*
X8984557Y8388237D2*
X8955693Y8390500D1*
X8927597Y8397247D1*
X8900903Y8408303D1*
X8876267Y8423400D1*
X8854293Y8442167D1*
X8835527Y8464140D1*
X8820430Y8488777D1*
X8809373Y8515470D1*
X8802627Y8543567D1*
X8800360Y8572373D1*
X8802627Y8601180D1*
X8809373Y8629277D1*
X8820430Y8655970D1*
X8835527Y8680607D1*
X8854293Y8702580D1*
X8876267Y8721347D1*
X8900903Y8736443D1*
X8927597Y8747500D1*
X8955693Y8754247D1*
X8984557Y8756510D1*
X9158947Y8755947D1*
X9187487Y8751427D1*
X9214967Y8742497D1*
X9240713Y8729380D1*
X9264090Y8712393D1*
X9284520Y8691963D1*
X9301507Y8668587D1*
X9314623Y8642840D1*
X9323553Y8615360D1*
X9328073Y8586820D1*
Y8557927D1*
X9323553Y8529387D1*
X9314623Y8501907D1*
X9301507Y8476160D1*
X9284520Y8452783D1*
X9264090Y8432353D1*
X9240713Y8415367D1*
X9214967Y8402250D1*
X9187487Y8393320D1*
X9158947Y8388800D1*
X9097833Y8388233D1*
X8984500Y8388323D1*
X8984557Y7189357D2*
X8955693Y7191620D1*
X8927597Y7198367D1*
X8900903Y7209423D1*
X8876267Y7224520D1*
X8854293Y7243287D1*
X8835527Y7265260D1*
X8820430Y7289897D1*
X8809373Y7316590D1*
X8802627Y7344687D1*
X8800360Y7373493D1*
X8802627Y7402300D1*
X8809373Y7430397D1*
X8820430Y7457090D1*
X8835527Y7481727D1*
X8854293Y7503700D1*
X8876267Y7522467D1*
X8900903Y7537563D1*
X8927597Y7548620D1*
X8955693Y7555367D1*
X8984557Y7557630D1*
X9158947Y7557067D1*
X9187487Y7552547D1*
X9214967Y7543617D1*
X9240713Y7530500D1*
X9264090Y7513513D1*
X9284520Y7493083D1*
X9301507Y7469707D1*
X9314623Y7443960D1*
X9323553Y7416480D1*
X9328073Y7387940D1*
Y7359047D1*
X9323553Y7330507D1*
X9314623Y7303027D1*
X9301507Y7277280D1*
X9284520Y7253903D1*
X9264090Y7233473D1*
X9240713Y7216487D1*
X9214967Y7203370D1*
X9187487Y7194440D1*
X9158947Y7189920D1*
X9097833Y7189353D1*
X8984500Y7189443D1*
X8984557Y6673737D2*
X8955693Y6676000D1*
X8927597Y6682747D1*
X8900903Y6693803D1*
X8876267Y6708900D1*
X8854293Y6727667D1*
X8835527Y6749640D1*
X8820430Y6774277D1*
X8809373Y6800970D1*
X8802627Y6829067D1*
X8800360Y6857873D1*
X8802627Y6886680D1*
X8809373Y6914777D1*
X8820430Y6941470D1*
X8835527Y6966107D1*
X8854293Y6988080D1*
X8876267Y7006847D1*
X8900903Y7021943D1*
X8927597Y7033000D1*
X8955693Y7039747D1*
X8984557Y7042010D1*
X9158947Y7041447D1*
X9187487Y7036927D1*
X9214967Y7027997D1*
X9240713Y7014880D1*
X9264090Y6997893D1*
X9284520Y6977463D1*
X9301507Y6954087D1*
X9314623Y6928340D1*
X9323553Y6900860D1*
X9328073Y6872320D1*
Y6843427D1*
X9323553Y6814887D1*
X9314623Y6787407D1*
X9301507Y6761660D1*
X9284520Y6738283D1*
X9264090Y6717853D1*
X9240713Y6700867D1*
X9214967Y6687750D1*
X9187487Y6678820D1*
X9158947Y6674300D1*
X9097833Y6673733D1*
X8984500Y6673823D1*
X8984557Y5474857D2*
X8955693Y5477120D1*
X8927597Y5483867D1*
X8900903Y5494923D1*
X8876267Y5510020D1*
X8854293Y5528787D1*
X8835527Y5550760D1*
X8820430Y5575397D1*
X8809373Y5602090D1*
X8802627Y5630187D1*
X8800360Y5658993D1*
X8802627Y5687800D1*
X8809373Y5715897D1*
X8820430Y5742590D1*
X8835527Y5767227D1*
X8854293Y5789200D1*
X8876267Y5807967D1*
X8900903Y5823063D1*
X8927597Y5834120D1*
X8955693Y5840867D1*
X8984557Y5843130D1*
X9158947Y5842567D1*
X9187487Y5838047D1*
X9214967Y5829117D1*
X9240713Y5816000D1*
X9264090Y5799013D1*
X9284520Y5778583D1*
X9301507Y5755207D1*
X9314623Y5729460D1*
X9323553Y5701980D1*
X9328073Y5673440D1*
Y5644547D1*
X9323553Y5616007D1*
X9314623Y5588527D1*
X9301507Y5562780D1*
X9284520Y5539403D1*
X9264090Y5518973D1*
X9240713Y5501987D1*
X9214967Y5488870D1*
X9187487Y5479940D1*
X9158947Y5475420D1*
X9097833Y5474853D1*
X8984500Y5474943D1*
X8984557Y4959240D2*
X8955693Y4961503D1*
X8927597Y4968250D1*
X8900903Y4979307D1*
X8876267Y4994403D1*
X8854293Y5013170D1*
X8835527Y5035143D1*
X8820430Y5059780D1*
X8809373Y5086473D1*
X8802627Y5114570D1*
X8800360Y5143377D1*
X8802627Y5172183D1*
X8809373Y5200280D1*
X8820430Y5226973D1*
X8835527Y5251610D1*
X8854293Y5273583D1*
X8876267Y5292350D1*
X8900903Y5307447D1*
X8927597Y5318503D1*
X8955693Y5325250D1*
X8984500Y5327517D1*
X9144500D1*
X9173307Y5325250D1*
X9201403Y5318503D1*
X9228097Y5307447D1*
X9252733Y5292350D1*
X9274707Y5273583D1*
X9293473Y5251610D1*
X9308570Y5226973D1*
X9319627Y5200280D1*
X9326373Y5172183D1*
X9328640Y5143377D1*
X9326373Y5114570D1*
X9319627Y5086473D1*
X9308570Y5059780D1*
X9293473Y5035143D1*
X9274707Y5013170D1*
X9252733Y4994403D1*
X9228097Y4979307D1*
X9201403Y4968250D1*
X9173307Y4961503D1*
X9144500Y4959237D1*
X8984500Y4959327D1*
X8984557Y3760360D2*
X8955693Y3762623D1*
X8927597Y3769370D1*
X8900903Y3780427D1*
X8876267Y3795523D1*
X8854293Y3814290D1*
X8835527Y3836263D1*
X8820430Y3860900D1*
X8809373Y3887593D1*
X8802627Y3915690D1*
X8800360Y3944497D1*
X8802627Y3973303D1*
X8809373Y4001400D1*
X8820430Y4028093D1*
X8835527Y4052730D1*
X8854293Y4074703D1*
X8876267Y4093470D1*
X8900903Y4108567D1*
X8927597Y4119623D1*
X8955693Y4126370D1*
X8984557Y4128633D1*
X9158947Y4128070D1*
X9187487Y4123550D1*
X9214967Y4114620D1*
X9240713Y4101503D1*
X9264090Y4084517D1*
X9284520Y4064087D1*
X9301507Y4040710D1*
X9314623Y4014963D1*
X9323553Y3987483D1*
X9328073Y3958943D1*
Y3930050D1*
X9323553Y3901510D1*
X9314623Y3874030D1*
X9301507Y3848283D1*
X9284520Y3824907D1*
X9264090Y3804477D1*
X9240713Y3787490D1*
X9214967Y3774373D1*
X9187487Y3765443D1*
X9158947Y3760923D1*
X9097833Y3760357D1*
X8984500Y3760447D1*
X8984557Y3244740D2*
X8955693Y3247003D1*
X8927597Y3253750D1*
X8900903Y3264807D1*
X8876267Y3279903D1*
X8854293Y3298670D1*
X8835527Y3320643D1*
X8820430Y3345280D1*
X8809373Y3371973D1*
X8802627Y3400070D1*
X8800360Y3428877D1*
X8802627Y3457683D1*
X8809373Y3485780D1*
X8820430Y3512473D1*
X8835527Y3537110D1*
X8854293Y3559083D1*
X8876267Y3577850D1*
X8900903Y3592947D1*
X8927597Y3604003D1*
X8955693Y3610750D1*
X8984557Y3613013D1*
X9158947Y3612450D1*
X9187487Y3607930D1*
X9214967Y3599000D1*
X9240713Y3585883D1*
X9264090Y3568897D1*
X9284520Y3548467D1*
X9301507Y3525090D1*
X9314623Y3499343D1*
X9323553Y3471863D1*
X9328073Y3443323D1*
Y3414430D1*
X9323553Y3385890D1*
X9314623Y3358410D1*
X9301507Y3332663D1*
X9284520Y3309287D1*
X9264090Y3288857D1*
X9240713Y3271870D1*
X9214967Y3258753D1*
X9187487Y3249823D1*
X9158947Y3245303D1*
X9097833Y3244737D1*
X8984500Y3244827D1*
X8984557Y2045860D2*
X8955693Y2048123D1*
X8927597Y2054870D1*
X8900903Y2065927D1*
X8876267Y2081023D1*
X8854293Y2099790D1*
X8835527Y2121763D1*
X8820430Y2146400D1*
X8809373Y2173093D1*
X8802627Y2201190D1*
X8800360Y2229997D1*
X8802627Y2258803D1*
X8809373Y2286900D1*
X8820430Y2313593D1*
X8835527Y2338230D1*
X8854293Y2360203D1*
X8876267Y2378970D1*
X8900903Y2394067D1*
X8927597Y2405123D1*
X8955693Y2411870D1*
X8984557Y2414133D1*
X9158947Y2413570D1*
X9187487Y2409050D1*
X9214967Y2400120D1*
X9240713Y2387003D1*
X9264090Y2370017D1*
X9284520Y2349587D1*
X9301507Y2326210D1*
X9314623Y2300463D1*
X9323553Y2272983D1*
X9328073Y2244443D1*
Y2215550D1*
X9323553Y2187010D1*
X9314623Y2159530D1*
X9301507Y2133783D1*
X9284520Y2110407D1*
X9264090Y2089977D1*
X9240713Y2072990D1*
X9214967Y2059873D1*
X9187487Y2050943D1*
X9158947Y2046423D1*
X9097833Y2045857D1*
X8984500Y2045947D1*
X6683250Y11048150D2*
D18*
Y10573350D1*
Y10810750D2*
X6920650D1*
X8461250Y9444773D2*
Y8969973D1*
Y9207373D2*
X8698650D1*
X8461250Y7730277D2*
Y7255477D1*
Y7492877D2*
X8698650D1*
X8461250Y6015777D2*
Y5540977D1*
Y5778377D2*
X8698650D1*
X8461250Y4301277D2*
Y3826477D1*
Y4063877D2*
X8698650D1*
X8461250Y2586773D2*
Y2111973D1*
Y2349373D2*
X8698650D1*
X5070317Y11700083D2*
D17*
X6295923D1*
X5070317Y11636917D2*
X6295923D1*
X5070317Y11573750D2*
X6295923D1*
X5070317Y11510583D2*
X6295923D1*
X5070317Y11447417D2*
X6295923D1*
X5070317Y11384250D2*
X6295923D1*
X5070317Y11321083D2*
X6295923D1*
X5070317Y11257917D2*
X6295923D1*
X5070317Y11194750D2*
X6295923D1*
X5070317Y11131583D2*
X6295923D1*
X5070317Y11068417D2*
X6295923D1*
X5070317Y11005250D2*
X5778580D1*
X6063897D2*
X6295923D1*
X5070317Y10942083D2*
X5717057D1*
X6125513D2*
X6295923D1*
X5070317Y10878917D2*
X5687437D1*
X6155137D2*
X6295923D1*
X5070317Y10815750D2*
X5677500D1*
X6165070D2*
X6295923D1*
X5070317Y10752583D2*
X5684610D1*
X6157870D2*
X6295923D1*
X5070317Y10689417D2*
X5710770D1*
X6131710D2*
X6295923D1*
X5070317Y10626250D2*
X5765363D1*
X6077113D2*
X6295923D1*
X5070317Y10563083D2*
X6295923D1*
X5473910Y10499917D2*
X6295923D1*
X1101647Y10436750D2*
X1773270D1*
X2690410D2*
X4567253D1*
X5473910D2*
X6295923D1*
X1101647Y10373583D2*
X1759597D1*
X2690410D2*
X4553580D1*
X5473910D2*
X6307317D1*
X1101647Y10310417D2*
X1767983D1*
X2690410D2*
X4561967D1*
X5473910D2*
X6739077D1*
X7340943D2*
X7369713D1*
X8115773D2*
X8137437D1*
X1101647Y10247250D2*
X1802343D1*
X2690410D2*
X4596330D1*
X4896683D2*
X4971030D1*
X5473910D2*
X6739077D1*
X8115773D2*
X8137437D1*
X1101647Y10184083D2*
X1773817D1*
X2690410D2*
X4433450D1*
X5821540D2*
X6739077D1*
X8115773D2*
X8137437D1*
X1101647Y10120917D2*
X1759687D1*
X2690410D2*
X4370287D1*
X5884707D2*
X6739077D1*
X7505370D2*
X7574793D1*
X1101647Y10057750D2*
X1767617D1*
X2690410D2*
X4307123D1*
X5947870D2*
X6479220D1*
X7340943D2*
X7911757D1*
X1101647Y9994583D2*
X1801250D1*
X2103793D2*
X4243960D1*
X4569197D2*
X4595233D1*
X4897780D2*
X4971030D1*
X5473910D2*
X5565117D1*
X6011033D2*
X6442580D1*
X7071970D2*
X7974923D1*
X1101647Y9931417D2*
X1774363D1*
X2130590D2*
X4180793D1*
X4506033D2*
X4568437D1*
X6074197D2*
X6433373D1*
X7071970D2*
X8026877D1*
X1101647Y9868250D2*
X1759687D1*
X2145267D2*
X4129843D1*
X4442870D2*
X4553763D1*
X6137363D2*
X6447227D1*
X7071970D2*
X7422213D1*
X7846803D2*
X8026877D1*
X1101647Y9805083D2*
X1767163D1*
X2137790D2*
X4121640D1*
X4379707D2*
X4561147D1*
X6200527D2*
X6480403D1*
X6759067D2*
X6788660D1*
X7022297D2*
X7361877D1*
X7907140D2*
X8026877D1*
X1101647Y9741917D2*
X1800157D1*
X2104887D2*
X4121640D1*
X4355370D2*
X4594140D1*
X4898873D2*
X5165627D1*
X5470357D2*
X5546613D1*
X5851347D2*
X5938450D1*
X6263690D2*
X6443033D1*
X7022297D2*
X7334623D1*
X7934303D2*
X8026877D1*
X1101647Y9678750D2*
X1775000D1*
X2130043D2*
X4121640D1*
X4355370D2*
X4568983D1*
X5876503D2*
X6001613D1*
X6326853D2*
X6433373D1*
X7022297D2*
X7327970D1*
X7941047D2*
X8026877D1*
X1101647Y9615583D2*
X1759780D1*
X2145173D2*
X4121640D1*
X4355370D2*
X4553763D1*
X5891723D2*
X6064780D1*
X6378623D2*
X6446680D1*
X7022297D2*
X7339817D1*
X7929107D2*
X8026877D1*
X1101647Y9552417D2*
X1766797D1*
X2138157D2*
X4121640D1*
X4355370D2*
X4560780D1*
X5884707D2*
X6127943D1*
X6387373D2*
X6433280D1*
X7020473D2*
X7373997D1*
X7894927D2*
X8026877D1*
X1101647Y9489250D2*
X1799063D1*
X2105890D2*
X4121640D1*
X4355370D2*
X4593047D1*
X4899873D2*
X5164623D1*
X5471450D2*
X5545613D1*
X5852440D2*
X6153647D1*
X6387373D2*
X6433280D1*
X6984837D2*
X7451837D1*
X7817180D2*
X8026877D1*
X1101647Y9426083D2*
X1775547D1*
X2129407D2*
X4121640D1*
X4355370D2*
X4569530D1*
X4923480D2*
X5040757D1*
X6387373D2*
X6433280D1*
X6928780D2*
X8026877D1*
X1101647Y9362917D2*
X1759870D1*
X2145083D2*
X4121640D1*
X4355370D2*
X4553853D1*
X4939067D2*
X4977590D1*
X6387373D2*
X6433280D1*
X6964693D2*
X8026877D1*
X1101647Y9299750D2*
X1766433D1*
X2138613D2*
X4121640D1*
X4355370D2*
X4560417D1*
X6387373D2*
X6433280D1*
X6966607D2*
X8026877D1*
X1101647Y9236583D2*
X1798060D1*
X2106983D2*
X4121640D1*
X4355370D2*
X4592043D1*
X6387373D2*
X6475847D1*
X6966607D2*
X7097007D1*
X7221997D2*
X7650170D1*
X1101647Y9173417D2*
X1776187D1*
X2128860D2*
X4121640D1*
X4355370D2*
X4570170D1*
X5113247D2*
X5141653D1*
X6419457D2*
X6475847D1*
X1101647Y9110250D2*
X1759960D1*
X2144993D2*
X4121640D1*
X4355370D2*
X4553947D1*
X5050083D2*
X5125520D1*
X1101647Y9047083D2*
X1766067D1*
X2138977D2*
X4121640D1*
X4355370D2*
X4560053D1*
X4986920D2*
X5131537D1*
X6151217D2*
X6220547D1*
X1101647Y8983917D2*
X1797057D1*
X2107987D2*
X4121640D1*
X4355370D2*
X4591043D1*
X4901970D2*
X5162527D1*
X6151217D2*
X6283710D1*
X1101647Y8920750D2*
X1776733D1*
X2128220D2*
X4121640D1*
X4355370D2*
X4570807D1*
X4922207D2*
X5075117D1*
X6068820D2*
X6346877D1*
X6763717D2*
X7062827D1*
X7256177D2*
X7681980D1*
X1101647Y8857583D2*
X1760053D1*
X2144900D2*
X4121640D1*
X4355370D2*
X4554127D1*
X4938887D2*
X5011953D1*
X6131983D2*
X8026877D1*
X1101647Y8794417D2*
X1765703D1*
X2139340D2*
X4121640D1*
X4355370D2*
X4559687D1*
X6195147D2*
X8026877D1*
X1101647Y8731250D2*
X1796053D1*
X2108990D2*
X4121640D1*
X4355370D2*
X4590040D1*
X5210863D2*
X5523280D1*
X6258313D2*
X7574793D1*
X1101647Y8668083D2*
X1777370D1*
X2127583D2*
X4121640D1*
X4355370D2*
X4571353D1*
X5147700D2*
X5172017D1*
X5337010D2*
X5523280D1*
X6312817D2*
X7447187D1*
X1101647Y8604917D2*
X1760233D1*
X2144810D2*
X4121640D1*
X4355370D2*
X4554220D1*
X5084537D2*
X5122057D1*
X6323847D2*
X6739077D1*
X7340943D2*
X7378647D1*
X1101647Y8541750D2*
X1765340D1*
X2139613D2*
X4121640D1*
X4355370D2*
X4559323D1*
X5021373D2*
X5113853D1*
X6041203D2*
X6090117D1*
X6323847D2*
X6739077D1*
X1101647Y8478583D2*
X1795053D1*
X2109900D2*
X4121640D1*
X4355370D2*
X4589037D1*
X4925030D2*
X5137827D1*
X6014223D2*
X6090117D1*
X6323847D2*
X6739077D1*
X1101647Y8415417D2*
X1778007D1*
X2126947D2*
X4121640D1*
X4355370D2*
X4571993D1*
X5492503D2*
X5715053D1*
X6063990D2*
X6090117D1*
X6323847D2*
X6739077D1*
X7514393D2*
X7574793D1*
X1101647Y8352250D2*
X1760327D1*
X2144627D2*
X4121640D1*
X4355370D2*
X4554310D1*
X5510187D2*
X5697370D1*
X6323847D2*
X6487877D1*
X7422063D2*
X8026877D1*
X1101647Y8289083D2*
X1764973D1*
X2139980D2*
X4121640D1*
X4355370D2*
X4559050D1*
X5525773D2*
X5702020D1*
X6323847D2*
X6445860D1*
X7340943D2*
X8026877D1*
X1101647Y8225917D2*
X1794140D1*
X2110903D2*
X4121640D1*
X4355370D2*
X4588127D1*
X5588937D2*
X5731093D1*
X6047857D2*
X6090117D1*
X6323847D2*
X6433373D1*
X7071970D2*
X8026877D1*
X1101647Y8162750D2*
X1778647D1*
X2126307D2*
X4121640D1*
X4355370D2*
X4572720D1*
X5652100D2*
X5715690D1*
X6063350D2*
X6090117D1*
X6323847D2*
X6443763D1*
X7071970D2*
X7436250D1*
X7832767D2*
X8026877D1*
X1101647Y8099583D2*
X1760507D1*
X2144537D2*
X4121640D1*
X4355370D2*
X4554493D1*
X6323847D2*
X6482410D1*
X6757153D2*
X6788660D1*
X7022297D2*
X7367800D1*
X7901123D2*
X8026877D1*
X1101647Y8036417D2*
X1764700D1*
X2140343D2*
X4121640D1*
X4355370D2*
X4558687D1*
X6323847D2*
X6446317D1*
X7022297D2*
X7337173D1*
X7931840D2*
X8026877D1*
X1101647Y7973250D2*
X1793137D1*
X2111813D2*
X4121640D1*
X4355370D2*
X4587123D1*
X6048860D2*
X6090117D1*
X6323847D2*
X6433373D1*
X7022297D2*
X7327787D1*
X7941137D2*
X8026877D1*
X1101647Y7910083D2*
X1779377D1*
X2125670D2*
X4121640D1*
X4355370D2*
X4509467D1*
X5972660D2*
X6090117D1*
X6323847D2*
X6443307D1*
X7022297D2*
X7336993D1*
X7932023D2*
X8026877D1*
X1101647Y7846917D2*
X1760600D1*
X2144353D2*
X4121640D1*
X4355370D2*
X4445847D1*
X5879327D2*
X6090117D1*
X6323847D2*
X6433280D1*
X7022297D2*
X7367437D1*
X7901580D2*
X8026877D1*
X1101647Y7783750D2*
X1764337D1*
X2140617D2*
X4121640D1*
X4355370D2*
X4382683D1*
X5879327D2*
X6090117D1*
X6323847D2*
X6433280D1*
X7013820D2*
X7435157D1*
X7833767D2*
X8026877D1*
X1101647Y7720583D2*
X1792227D1*
X2112727D2*
X4121640D1*
X5478287D2*
X5515080D1*
X5879327D2*
X6090117D1*
X6323847D2*
X6433280D1*
X6962413D2*
X8026877D1*
X1101647Y7657417D2*
X1780013D1*
X2124940D2*
X4121640D1*
X5490500D2*
X5518677D1*
X5879327D2*
X6090117D1*
X6323847D2*
X6433280D1*
X6966607D2*
X8026877D1*
X1101647Y7594250D2*
X1760780D1*
X2144263D2*
X4121640D1*
X5879327D2*
X6090117D1*
X6323847D2*
X6433280D1*
X6966607D2*
X8026877D1*
X1101647Y7531083D2*
X1764063D1*
X2140980D2*
X4121640D1*
X5879327D2*
X6090117D1*
X6323847D2*
X6475847D1*
X6966607D2*
X7143673D1*
X7175293D2*
X7663660D1*
X1101647Y7467917D2*
X1791317D1*
X2113637D2*
X4121640D1*
X4545863D2*
X4585300D1*
X5479197D2*
X5518633D1*
X5879327D2*
X6090117D1*
X6323847D2*
X6475847D1*
X7300747D2*
X7600860D1*
X1101647Y7404750D2*
X1780743D1*
X2124303D2*
X4121640D1*
X4545863D2*
X4574727D1*
X4918287D2*
X5068920D1*
X5406827D2*
X5518633D1*
X5879327D2*
X6050560D1*
X1101647Y7341583D2*
X1760963D1*
X2144080D2*
X4121640D1*
X4938063D2*
X5132083D1*
X5457230D2*
X5518633D1*
X5879327D2*
X6050560D1*
X1101647Y7278417D2*
X1763790D1*
X2141253D2*
X4121640D1*
X4935240D2*
X5195247D1*
X5879327D2*
X6050560D1*
X1101647Y7215250D2*
X1790403D1*
X2114550D2*
X4121640D1*
X4545863D2*
X4584480D1*
X4908533D2*
X5258413D1*
X5879327D2*
X6050560D1*
X6763717D2*
X7049337D1*
X7269667D2*
X7664843D1*
X1101647Y7152083D2*
X1781380D1*
X2123573D2*
X4121640D1*
X4545863D2*
X4575457D1*
X4917557D2*
X5203633D1*
X5879327D2*
X6050560D1*
X6553443D2*
X8026877D1*
X1101647Y7088917D2*
X1761053D1*
X2143897D2*
X4121640D1*
X4937883D2*
X5180210D1*
X5879327D2*
X8026877D1*
X1101647Y7025750D2*
X1763517D1*
X2141530D2*
X4121640D1*
X4935513D2*
X5182853D1*
X5879327D2*
X7574793D1*
X1101647Y6962583D2*
X1789583D1*
X2115460D2*
X4121640D1*
X4545863D2*
X4583567D1*
X4909447D2*
X5178293D1*
X5879327D2*
X7467240D1*
X1101647Y6899417D2*
X1782110D1*
X3234913D2*
X4121640D1*
X4545863D2*
X4576093D1*
X5879327D2*
X6770793D1*
X7340943D2*
X7387670D1*
X1101647Y6836250D2*
X1761237D1*
X3234913D2*
X4121640D1*
X5879327D2*
X6770793D1*
X1101647Y6773083D2*
X1763243D1*
X3234913D2*
X4121640D1*
X5930553D2*
X6770793D1*
X1101647Y6709917D2*
X1788673D1*
X3234913D2*
X4121640D1*
X4545863D2*
X4582747D1*
X5993717D2*
X6770793D1*
X7523417D2*
X7574793D1*
X1101647Y6646750D2*
X1856030D1*
X2048923D2*
X2135300D1*
X3218233D2*
X4121640D1*
X4545863D2*
X4650013D1*
X4843000D2*
X5178293D1*
X6056880D2*
X6529623D1*
X7340943D2*
X8026877D1*
X1101647Y6583583D2*
X2135300D1*
X3218233D2*
X4121640D1*
X4545863D2*
X5391667D1*
X6120043D2*
X6481407D1*
X7103690D2*
X8026877D1*
X1101647Y6520417D2*
X2135300D1*
X3218233D2*
X4121640D1*
X4545863D2*
X5391757D1*
X6183207D2*
X6465457D1*
X7103690D2*
X8026877D1*
X1101647Y6457250D2*
X2480287D1*
X3218233D2*
X4121640D1*
X4545863D2*
X5414453D1*
X5879327D2*
X5921133D1*
X6246373D2*
X6472567D1*
X7103690D2*
X7453203D1*
X7815813D2*
X8026877D1*
X1101647Y6394083D2*
X2480287D1*
X3218233D2*
X4121640D1*
X4545863D2*
X5273543D1*
X6309537D2*
X6506197D1*
X6796803D2*
X6820413D1*
X7054107D2*
X7374543D1*
X7894470D2*
X8026877D1*
X1101647Y6330917D2*
X2962447D1*
X3229447D2*
X4121640D1*
X4545863D2*
X5273543D1*
X6351827D2*
X6482043D1*
X7054107D2*
X7340090D1*
X7928923D2*
X8026877D1*
X1101647Y6267750D2*
X2974753D1*
X3292610D2*
X4121640D1*
X4545863D2*
X5273543D1*
X6355563D2*
X6465547D1*
X7054107D2*
X7327970D1*
X7940957D2*
X8026877D1*
X1101647Y6204583D2*
X3030533D1*
X3355773D2*
X4121640D1*
X4545863D2*
X5273543D1*
X6355563D2*
X6472110D1*
X7054107D2*
X7334440D1*
X7934483D2*
X8026877D1*
X1101647Y6141417D2*
X2595313D1*
X3418937D2*
X4121640D1*
X4545863D2*
X5273543D1*
X6062257D2*
X6121927D1*
X6355563D2*
X6465090D1*
X7054107D2*
X7361420D1*
X7907503D2*
X8026877D1*
X1101647Y6078250D2*
X2595313D1*
X3103207D2*
X3156863D1*
X3482100D2*
X4121640D1*
X4545863D2*
X5486913D1*
X5879327D2*
X6121927D1*
X6355563D2*
X6465090D1*
X7032780D2*
X7421303D1*
X7847623D2*
X8026877D1*
X1101647Y6015083D2*
X2595313D1*
X3103207D2*
X3220027D1*
X3545267D2*
X4121640D1*
X4545863D2*
X5486913D1*
X5879327D2*
X6121927D1*
X6355563D2*
X6465090D1*
X6971437D2*
X8026877D1*
X1101647Y5951917D2*
X2595313D1*
X3103207D2*
X3283190D1*
X3608430D2*
X4121640D1*
X4545863D2*
X5486913D1*
X5879327D2*
X6121927D1*
X6355563D2*
X6465090D1*
X6991490D2*
X8026877D1*
X1101647Y5888750D2*
X2595313D1*
X3103207D2*
X3346353D1*
X3671593D2*
X4121640D1*
X4545863D2*
X5486913D1*
X5879327D2*
X6121927D1*
X6355563D2*
X6465090D1*
X6998327D2*
X8026877D1*
X1101647Y5825583D2*
X2595313D1*
X3103207D2*
X3409520D1*
X3734757D2*
X4121640D1*
X4545863D2*
X5486913D1*
X5879327D2*
X6121927D1*
X6355563D2*
X6465090D1*
X6998327D2*
X7066380D1*
X7252623D2*
X7680430D1*
X1101647Y5762417D2*
X3472683D1*
X3797920D2*
X4121640D1*
X4545863D2*
X5486913D1*
X5879327D2*
X6121927D1*
X6355563D2*
X6507567D1*
X1101647Y5699250D2*
X3535937D1*
X3861087D2*
X4121640D1*
X4545863D2*
X5486913D1*
X5879327D2*
X6082280D1*
X1101647Y5636083D2*
X3599103D1*
X3924250D2*
X4121640D1*
X4545863D2*
X5486913D1*
X5879327D2*
X6082280D1*
X1101647Y5572917D2*
X3662267D1*
X3987413D2*
X4121640D1*
X4545863D2*
X5486913D1*
X5879327D2*
X6082280D1*
X1101647Y5509750D2*
X3725430D1*
X4050577D2*
X4121640D1*
X4545863D2*
X5486913D1*
X5923897D2*
X6082280D1*
X6795433D2*
X7091173D1*
X7227830D2*
X7651173D1*
X1101647Y5446583D2*
X3788593D1*
X4545863D2*
X5486913D1*
X5987063D2*
X6082280D1*
X6795433D2*
X8026877D1*
X1101647Y5383417D2*
X3851757D1*
X4742920D2*
X5486913D1*
X6050227D2*
X8026877D1*
X1101647Y5320250D2*
X3914923D1*
X4742920D2*
X5486913D1*
X5764120D2*
X5788150D1*
X6113390D2*
X7574793D1*
X1101647Y5257083D2*
X3931147D1*
X4742920D2*
X5505233D1*
X5827283D2*
X5851317D1*
X6176553D2*
X6978060D1*
X7340943D2*
X7574793D1*
X1101647Y5193917D2*
X3490000D1*
X3907570D2*
X3931193D1*
X5126737D2*
X5423840D1*
X5890447D2*
X5914480D1*
X6239720D2*
X6770520D1*
X1101647Y5130750D2*
X3443970D1*
X4355370D2*
X4400090D1*
X5953613D2*
X5977643D1*
X6302883D2*
X6770520D1*
X1101647Y5067583D2*
X3428567D1*
X4355370D2*
X4400090D1*
X6016777D2*
X6040807D1*
X6349823D2*
X6770520D1*
X1101647Y5004417D2*
X2381667D1*
X2539290D2*
X3435770D1*
X4355370D2*
X4400090D1*
X5713350D2*
X5754700D1*
X6079940D2*
X6103993D1*
X6355563D2*
X6770520D1*
X7466177D2*
X7574793D1*
X1101647Y4941250D2*
X2281407D1*
X2639550D2*
X3468673D1*
X4355370D2*
X4400090D1*
X4647947D2*
X4687840D1*
X5148063D2*
X5403150D1*
X5677350D2*
X5817863D1*
X6355563D2*
X6541290D1*
X7340943D2*
X8026877D1*
X1101647Y4878083D2*
X2238660D1*
X2682297D2*
X3566380D1*
X3831100D2*
X3931147D1*
X4355370D2*
X4785457D1*
X5050447D2*
X5881030D1*
X6355563D2*
X6485873D1*
X7103417D2*
X8026877D1*
X1101647Y4814917D2*
X2219520D1*
X2701530D2*
X3931147D1*
X4355370D2*
X5899623D1*
X6355563D2*
X6466277D1*
X7103417D2*
X8026877D1*
X1101647Y4751750D2*
X2218150D1*
X2702897D2*
X3931147D1*
X4355370D2*
X5899623D1*
X6355563D2*
X6470103D1*
X7053833D2*
X7474897D1*
X7794120D2*
X8026877D1*
X1101647Y4688583D2*
X2234193D1*
X2686763D2*
X3931147D1*
X4355370D2*
X5899623D1*
X6355563D2*
X6499270D1*
X7053833D2*
X7381927D1*
X7887087D2*
X8026877D1*
X1101647Y4625417D2*
X2272383D1*
X2648663D2*
X3931147D1*
X4355370D2*
X4900390D1*
X5357153D2*
X5899623D1*
X6355563D2*
X6486510D1*
X7053833D2*
X7343463D1*
X7925553D2*
X8026877D1*
X1101647Y4562250D2*
X2355417D1*
X2565540D2*
X3931147D1*
X4355370D2*
X4848893D1*
X5408650D2*
X5899623D1*
X6355563D2*
X6466460D1*
X7053833D2*
X7328607D1*
X7940410D2*
X8026877D1*
X1101647Y4499083D2*
X3931147D1*
X4355370D2*
X4826107D1*
X5431347D2*
X5899623D1*
X6355563D2*
X6469830D1*
X7053833D2*
X7332437D1*
X7936580D2*
X8026877D1*
X1101647Y4435917D2*
X3931147D1*
X4355370D2*
X4823100D1*
X5434447D2*
X5899623D1*
X6355563D2*
X6465090D1*
X7053833D2*
X7356133D1*
X7912883D2*
X8026877D1*
X1101647Y4372750D2*
X3931147D1*
X4355370D2*
X4838777D1*
X5418767D2*
X5899623D1*
X6355563D2*
X6465090D1*
X7038613D2*
X7409453D1*
X7859563D2*
X8026877D1*
X1101647Y4309583D2*
X1626160D1*
X1961333D2*
X3931147D1*
X4355370D2*
X4878607D1*
X5378937D2*
X5899623D1*
X6355563D2*
X6465090D1*
X6980460D2*
X8026877D1*
X1101647Y4246417D2*
X1577580D1*
X2010003D2*
X3931147D1*
X4355370D2*
X4977410D1*
X5280137D2*
X5899623D1*
X6355563D2*
X6465090D1*
X6965513D2*
X8026877D1*
X1101647Y4183250D2*
X1554793D1*
X2032700D2*
X3931147D1*
X4355370D2*
X5899623D1*
X6355563D2*
X6465090D1*
X6966607D2*
X8026877D1*
X1101647Y4120083D2*
X1550417D1*
X2037077D2*
X3931147D1*
X4355370D2*
X5358853D1*
X5721647D2*
X5899623D1*
X6355563D2*
X6465090D1*
X6966607D2*
X7035117D1*
X7283887D2*
X7703307D1*
X7987257D2*
X8026877D1*
X1101647Y4056917D2*
X1563177D1*
X2024313D2*
X2390053D1*
X2530993D2*
X3931147D1*
X4355370D2*
X5358853D1*
X5721647D2*
X5899623D1*
X6355563D2*
X6475847D1*
X1101647Y3993750D2*
X1596627D1*
X1990863D2*
X2283867D1*
X2637180D2*
X3488543D1*
X3908937D2*
X3931187D1*
X4355370D2*
X4647460D1*
X5188443D2*
X5358853D1*
X5721647D2*
X5899623D1*
X1101647Y3930583D2*
X1666900D1*
X1920590D2*
X2239843D1*
X2681203D2*
X3443423D1*
X4355370D2*
X4647460D1*
X5725017D2*
X5899623D1*
X1101647Y3867417D2*
X1737357D1*
X1850137D2*
X2219883D1*
X2701073D2*
X3428567D1*
X4355370D2*
X4647460D1*
X5788183D2*
X5899623D1*
X7290173D2*
X7591747D1*
X1101647Y3804250D2*
X1620507D1*
X1966983D2*
X2217877D1*
X2703170D2*
X3436133D1*
X4355370D2*
X4647460D1*
X5851347D2*
X5899623D1*
X6763717D2*
X7639687D1*
X1101647Y3741083D2*
X1574753D1*
X2012740D2*
X2233190D1*
X2687767D2*
X3469767D1*
X4355370D2*
X4647460D1*
X5188443D2*
X5589270D1*
X6585160D2*
X8026877D1*
X1101647Y3677917D2*
X1553790D1*
X2033703D2*
X2270287D1*
X2650670D2*
X3571667D1*
X3825813D2*
X3931147D1*
X4355370D2*
X4647460D1*
X5188443D2*
X5652437D1*
X6199980D2*
X8026877D1*
X1101647Y3614750D2*
X1550780D1*
X2036710D2*
X2350130D1*
X2570827D2*
X3931147D1*
X4355370D2*
X5709127D1*
X6263143D2*
X8026877D1*
X1101647Y3551583D2*
X1565090D1*
X2022400D2*
X3931147D1*
X4355370D2*
X5709127D1*
X5942857D2*
X6001067D1*
X6326123D2*
X7574793D1*
X1101647Y3488417D2*
X1600730D1*
X1986763D2*
X3931147D1*
X4552427D2*
X5709127D1*
X5942857D2*
X6064233D1*
X6354927D2*
X6770520D1*
X7372660D2*
X7469153D1*
X1101647Y3425250D2*
X1676470D1*
X1911020D2*
X3931147D1*
X4552427D2*
X5709127D1*
X5942857D2*
X6121927D1*
X6355563D2*
X6770520D1*
X1101647Y3362083D2*
X3931147D1*
X4552427D2*
X5709127D1*
X5942857D2*
X6121927D1*
X6355563D2*
X6770520D1*
X1101647Y3298917D2*
X1632083D1*
X1955410D2*
X3502213D1*
X3895267D2*
X3931147D1*
X4552427D2*
X4721470D1*
X5114433D2*
X5437513D1*
X5642987D2*
X5709127D1*
X5942857D2*
X6121927D1*
X6355563D2*
X6770520D1*
X1101647Y3235750D2*
X1580403D1*
X2007087D2*
X3448710D1*
X4164873D2*
X4209597D1*
X5942857D2*
X6121927D1*
X6355563D2*
X6555417D1*
X6747583D2*
X6770520D1*
X7372660D2*
X8026877D1*
X1101647Y3172583D2*
X1555977D1*
X2031517D2*
X3429480D1*
X4164873D2*
X4209597D1*
X5942857D2*
X6121927D1*
X6355563D2*
X6490887D1*
X7103417D2*
X8026877D1*
X1101647Y3109417D2*
X1550143D1*
X2037350D2*
X2399713D1*
X2521333D2*
X3433127D1*
X4164873D2*
X4209597D1*
X6355563D2*
X6467553D1*
X7103417D2*
X8026877D1*
X1101647Y3046250D2*
X1561447D1*
X2026137D2*
X2286330D1*
X2634720D2*
X3461197D1*
X4164873D2*
X4209597D1*
X6355563D2*
X6468190D1*
X7103417D2*
X7508893D1*
X7760123D2*
X8026877D1*
X1101647Y2983083D2*
X1592800D1*
X1994693D2*
X2241030D1*
X2679927D2*
X3537670D1*
X3859810D2*
X3931147D1*
X4164873D2*
X4756837D1*
X5079160D2*
X5490650D1*
X5589850D2*
X5654530D1*
X6355563D2*
X6493163D1*
X7053833D2*
X7390220D1*
X7878793D2*
X8026877D1*
X1101647Y2919917D2*
X1658333D1*
X1929160D2*
X2220340D1*
X2700617D2*
X3931147D1*
X4164873D2*
X5654530D1*
X6355563D2*
X6491707D1*
X7053833D2*
X7347200D1*
X7921723D2*
X8026877D1*
X1101647Y2856750D2*
X2217603D1*
X2703350D2*
X3931147D1*
X4164873D2*
X5654530D1*
X6355563D2*
X6467733D1*
X7053833D2*
X7329520D1*
X7939497D2*
X8026877D1*
X1101647Y2793583D2*
X1626160D1*
X1961333D2*
X2232280D1*
X2688767D2*
X3931147D1*
X4164873D2*
X5709127D1*
X5942857D2*
X6121927D1*
X6355563D2*
X6467917D1*
X7053833D2*
X7330703D1*
X7938220D2*
X8026877D1*
X1101647Y2730417D2*
X1577580D1*
X2010003D2*
X2268280D1*
X2652673D2*
X3931147D1*
X4164873D2*
X4913150D1*
X5344303D2*
X5709127D1*
X5942857D2*
X6121927D1*
X6355563D2*
X6465090D1*
X7053833D2*
X7351303D1*
X7917713D2*
X8026877D1*
X1101647Y2667250D2*
X1554793D1*
X2032700D2*
X2345117D1*
X2575837D2*
X3931147D1*
X4164873D2*
X4854637D1*
X5402910D2*
X5709127D1*
X5942857D2*
X6121927D1*
X6355563D2*
X6465090D1*
X7043350D2*
X7398970D1*
X7869953D2*
X8026877D1*
X1101647Y2604083D2*
X1550417D1*
X2037077D2*
X3931147D1*
X4164873D2*
X4828293D1*
X5429160D2*
X5709127D1*
X5942857D2*
X6121927D1*
X6355563D2*
X6465090D1*
X6989483D2*
X8026877D1*
X1101647Y2540917D2*
X1563177D1*
X2024313D2*
X3931147D1*
X4164873D2*
X4822370D1*
X5435173D2*
X5709127D1*
X5942857D2*
X6121927D1*
X6355563D2*
X6465090D1*
X6934797D2*
X8026877D1*
X1101647Y2477750D2*
X1596627D1*
X1990863D2*
X3931147D1*
X4164873D2*
X4834947D1*
X5422597D2*
X5709127D1*
X5942857D2*
X6121927D1*
X6355563D2*
X6465090D1*
X6934797D2*
X8026877D1*
X1101647Y2414583D2*
X1666900D1*
X1920590D2*
X3932057D1*
X4224757D2*
X4870130D1*
X5387413D2*
X5709127D1*
X5942857D2*
X6121927D1*
X6355563D2*
X6444037D1*
X6934797D2*
X7143307D1*
X7239133D2*
X8026877D1*
X1101647Y2351417D2*
X3962773D1*
X4287920D2*
X4951067D1*
X5306477D2*
X5681330D1*
X5942857D2*
X6121927D1*
X6355563D2*
X6444037D1*
X6961957D2*
X7046237D1*
X1101647Y2288250D2*
X4025937D1*
X4351087D2*
X5618163D1*
X5933197D2*
X6082280D1*
X1101647Y2225083D2*
X4089103D1*
X4414250D2*
X5555000D1*
X5880147D2*
X6082280D1*
X1101647Y2161917D2*
X2411747D1*
X2509303D2*
X4152267D1*
X4477413D2*
X5358853D1*
X5816983D2*
X6082280D1*
X1101647Y2098750D2*
X2288790D1*
X2632167D2*
X3500483D1*
X3896997D2*
X4215430D1*
X4540577D2*
X4647460D1*
X5188443D2*
X5358853D1*
X5753820D2*
X6082280D1*
X6731907D2*
X7087890D1*
X7294640D2*
X7629843D1*
X1101647Y2035583D2*
X2242303D1*
X2678743D2*
X3448073D1*
X3949407D2*
X4278593D1*
X5721647D2*
X6082280D1*
X6731907D2*
X7968997D1*
X1101647Y1972417D2*
X2220793D1*
X2700160D2*
X3429297D1*
X3968183D2*
X4341757D1*
X5721647D2*
X6699337D1*
X1101647Y1909250D2*
X2217423D1*
X2703533D2*
X3433400D1*
X3964080D2*
X4404923D1*
X5721647D2*
X6636173D1*
X1101647Y1846083D2*
X2231367D1*
X2689680D2*
X3462110D1*
X3935370D2*
X4488320D1*
X5480930D2*
X6573007D1*
X1101647Y1782917D2*
X2266277D1*
X2654680D2*
X3540677D1*
X3856893D2*
X4647460D1*
X5188443D2*
X6509843D1*
X1101647Y1719750D2*
X2340470D1*
X2580577D2*
X5873007D1*
X6195513D2*
X6373400D1*
X1101647Y1656583D2*
X3366043D1*
X3633950D2*
X5821147D1*
X6247373D2*
X6321537D1*
X6747767D2*
X6772163D1*
X1101647Y1593417D2*
X3267787D1*
X3732207D2*
X5796627D1*
X6271983D2*
X6296927D1*
X1101647Y1530250D2*
X3214740D1*
X3785253D2*
X5790613D1*
X1101647Y1467083D2*
X3182930D1*
X3817153D2*
X5801823D1*
X6266697D2*
X6302213D1*
X1101647Y1403917D2*
X3165977D1*
X3834017D2*
X5833087D1*
X6235433D2*
X6333477D1*
X6735827D2*
X6772163D1*
X1101647Y1340750D2*
X3161693D1*
X3838300D2*
X5898347D1*
X6170267D2*
X6398737D1*
X6670657D2*
X6772163D1*
X1101647Y1277583D2*
X3169530D1*
X3830460D2*
X6772163D1*
X1101647Y1214417D2*
X3190497D1*
X3809497D2*
X6772163D1*
X1101647Y1151250D2*
X3227590D1*
X3772400D2*
X6772163D1*
X6771417Y1521117D2*
X6769227Y1502600D1*
X6765587Y1484310D1*
X6760527Y1466360D1*
X6754073Y1448867D1*
X6746267Y1431933D1*
X6737153Y1415663D1*
X6726793Y1400157D1*
X6715250Y1385513D1*
X6702590Y1371820D1*
X6688897Y1359160D1*
X6674253Y1347617D1*
X6658747Y1337257D1*
X6642477Y1328143D1*
X6625543Y1320337D1*
X6608050Y1313883D1*
X6590100Y1308823D1*
X6571810Y1305183D1*
X6553293Y1302993D1*
X6534660Y1302260D1*
X6516027Y1302993D1*
X6497510Y1305183D1*
X6479220Y1308823D1*
X6461270Y1313883D1*
X6443777Y1320337D1*
X6426843Y1328143D1*
X6410573Y1337257D1*
X6395067Y1347617D1*
X6380423Y1359160D1*
X6366730Y1371820D1*
X6354070Y1385513D1*
X6342527Y1400157D1*
X6332167Y1415663D1*
X6323053Y1431933D1*
X6315247Y1448867D1*
X6308793Y1466360D1*
X6303733Y1484310D1*
X6300093Y1502600D1*
X6297903Y1521117D1*
X6297170Y1539750D1*
X6297903Y1558383D1*
X6300093Y1576900D1*
X6303733Y1595190D1*
X6308793Y1613140D1*
X6315247Y1630633D1*
X6323053Y1647567D1*
X6332167Y1663837D1*
X6342527Y1679343D1*
X6354070Y1693987D1*
X6366730Y1707680D1*
X6380423Y1720340D1*
X6395067Y1731883D1*
X6410573Y1742243D1*
X6426843Y1751357D1*
X6443777Y1759163D1*
X6461270Y1765617D1*
X6479220Y1770677D1*
X6508867Y1775660D1*
X6738493Y2004767D1*
X6752520Y2014960D1*
X6767967Y2022830D1*
X6784457Y2028187D1*
X6801580Y2030900D1*
X6903583Y2031240D1*
X7970993D1*
X8002750Y2063007D1*
X7982197Y2054910D1*
X7954100Y2048163D1*
X7925293Y2045897D1*
X7765293D1*
X7736487Y2048163D1*
X7708390Y2054910D1*
X7681697Y2065967D1*
X7657060Y2081063D1*
X7635087Y2099830D1*
X7616320Y2121803D1*
X7608207Y2133970D1*
X7327067Y2134010D1*
X7315057Y2120693D1*
X7294167Y2102850D1*
X7270740Y2088493D1*
X7245357Y2077980D1*
X7218640Y2071567D1*
X7191250Y2069410D1*
X7163860Y2071567D1*
X7137143Y2077980D1*
X7111760Y2088493D1*
X7088333Y2102850D1*
X7067443Y2120693D1*
X7061137Y2127517D1*
X6955517Y2127510D1*
X6955590Y2120410D1*
X6725630D1*
X6725590Y2025410D1*
X6578753D1*
X6578840Y1982910D1*
X6088660D1*
Y2303090D1*
X6128310D1*
X6128260Y2810643D1*
X6110480Y2806247D1*
X6091980Y2803847D1*
X6073323Y2803547D1*
X6054757Y2805350D1*
X6036510Y2809240D1*
X6018817Y2815167D1*
X6001907Y2823047D1*
X5991087Y2829417D1*
X5991090Y2803410D1*
X5936493D1*
X5936150Y2324830D1*
X5933437Y2307707D1*
X5928080Y2291217D1*
X5920210Y2275770D1*
X5910017Y2261743D1*
X5838133Y2189373D1*
X5715353Y2066597D1*
X5715340Y1872660D1*
X5521290D1*
X5509983Y1863150D1*
X5495200Y1854093D1*
X5479183Y1847457D1*
X5462323Y1843410D1*
X5445007Y1842050D1*
X5182083D1*
X5182097Y1768400D1*
X4653817D1*
Y1842137D1*
X4515540Y1842390D1*
X4498417Y1845103D1*
X4481927Y1850460D1*
X4466480Y1858330D1*
X4452453Y1868523D1*
X4380083Y1940407D1*
X3963983Y2356993D1*
X3953790Y2371020D1*
X3945920Y2386467D1*
X3940563Y2402957D1*
X3937850Y2420080D1*
X3937510Y2522083D1*
Y3058113D1*
X3927723Y3043147D1*
X3908957Y3021173D1*
X3886983Y3002407D1*
X3862347Y2987310D1*
X3835653Y2976253D1*
X3807557Y2969507D1*
X3778750Y2967240D1*
X3618750D1*
X3589943Y2969507D1*
X3561847Y2976253D1*
X3535153Y2987310D1*
X3510517Y3002407D1*
X3488543Y3021173D1*
X3469777Y3043147D1*
X3454680Y3067783D1*
X3443623Y3094477D1*
X3436877Y3122573D1*
X3434610Y3151380D1*
X3436877Y3180187D1*
X3443623Y3208283D1*
X3454680Y3234977D1*
X3469777Y3259613D1*
X3488543Y3281587D1*
X3510517Y3300353D1*
X3535153Y3315450D1*
X3561847Y3326507D1*
X3589943Y3333253D1*
X3618807Y3335517D1*
X3793197Y3334953D1*
X3821737Y3330433D1*
X3849217Y3321503D1*
X3874963Y3308387D1*
X3898340Y3291400D1*
X3918770Y3270970D1*
X3935757Y3247593D1*
X3937493Y3244490D1*
X3937510Y3764127D1*
X3927723Y3749267D1*
X3908957Y3727293D1*
X3886983Y3708527D1*
X3862347Y3693430D1*
X3835653Y3682373D1*
X3807557Y3675627D1*
X3778750Y3673360D1*
X3618750D1*
X3589943Y3675627D1*
X3561847Y3682373D1*
X3535153Y3693430D1*
X3510517Y3708527D1*
X3488543Y3727293D1*
X3469777Y3749267D1*
X3454680Y3773903D1*
X3443623Y3800597D1*
X3436877Y3828693D1*
X3434610Y3857500D1*
X3436877Y3886307D1*
X3443623Y3914403D1*
X3454680Y3941097D1*
X3469777Y3965733D1*
X3488543Y3987707D1*
X3510517Y4006473D1*
X3535153Y4021570D1*
X3561847Y4032627D1*
X3589943Y4039373D1*
X3618807Y4041637D1*
X3793197Y4041073D1*
X3821737Y4036553D1*
X3849217Y4027623D1*
X3874963Y4014507D1*
X3898340Y3997520D1*
X3918770Y3977090D1*
X3935757Y3953713D1*
X3937493Y3950610D1*
X3937510Y4963060D1*
X3927723Y4948147D1*
X3908957Y4926173D1*
X3886983Y4907407D1*
X3862347Y4892310D1*
X3835653Y4881253D1*
X3807557Y4874507D1*
X3778750Y4872240D1*
X3618750D1*
X3589943Y4874507D1*
X3561847Y4881253D1*
X3535153Y4892310D1*
X3510517Y4907407D1*
X3488543Y4926173D1*
X3469777Y4948147D1*
X3454680Y4972783D1*
X3443623Y4999477D1*
X3436877Y5027573D1*
X3434610Y5056380D1*
X3436877Y5085187D1*
X3443623Y5113283D1*
X3454680Y5139977D1*
X3469777Y5164613D1*
X3488543Y5186587D1*
X3510517Y5205353D1*
X3535153Y5220450D1*
X3561847Y5231507D1*
X3589943Y5238253D1*
X3618807Y5240517D1*
X3793197Y5239953D1*
X3821737Y5235433D1*
X3849217Y5226503D1*
X3874963Y5213387D1*
X3898340Y5196400D1*
X3918770Y5175970D1*
X3935757Y5152593D1*
X3937493Y5149490D1*
X3937510Y5303947D1*
X3096900Y6144593D1*
X3068327Y6168840D1*
X3072610D1*
X2995233Y6246743D1*
X2985040Y6260770D1*
X2977170Y6276217D1*
X2971813Y6292707D1*
X2969100Y6309830D1*
X2968760Y6363617D1*
X2486660Y6363660D1*
Y6699750D1*
X2461820Y6699760D1*
X2461840Y6470160D1*
X2141660D1*
Y6699807D1*
X2102960Y6699760D1*
X2084510Y6678240D1*
X2062233Y6659213D1*
X2037257Y6643907D1*
X2010190Y6632697D1*
X1981703Y6625860D1*
X1952500Y6623560D1*
X1923297Y6625860D1*
X1894810Y6632697D1*
X1867743Y6643907D1*
X1842767Y6659213D1*
X1820490Y6678240D1*
X1801463Y6700517D1*
X1786157Y6725493D1*
X1774947Y6752560D1*
X1768110Y6781047D1*
X1765810Y6810250D1*
X1768110Y6839453D1*
X1774947Y6867940D1*
X1786157Y6895007D1*
X1801463Y6919983D1*
X1815787Y6937173D1*
X1801463Y6954517D1*
X1786157Y6979493D1*
X1774947Y7006560D1*
X1768110Y7035047D1*
X1765810Y7064250D1*
X1768110Y7093453D1*
X1774947Y7121940D1*
X1786157Y7149007D1*
X1801463Y7173983D1*
X1815787Y7191173D1*
X1801463Y7208517D1*
X1786157Y7233493D1*
X1774947Y7260560D1*
X1768110Y7289047D1*
X1765810Y7318250D1*
X1768110Y7347453D1*
X1774947Y7375940D1*
X1786157Y7403007D1*
X1801463Y7427983D1*
X1815787Y7445173D1*
X1801463Y7462517D1*
X1786157Y7487493D1*
X1774947Y7514560D1*
X1768110Y7543047D1*
X1765810Y7572250D1*
X1768110Y7601453D1*
X1774947Y7629940D1*
X1786157Y7657007D1*
X1801463Y7681983D1*
X1815787Y7699173D1*
X1801463Y7716517D1*
X1786157Y7741493D1*
X1774947Y7768560D1*
X1768110Y7797047D1*
X1765810Y7826250D1*
X1768110Y7855453D1*
X1774947Y7883940D1*
X1786157Y7911007D1*
X1801463Y7935983D1*
X1815787Y7953173D1*
X1801463Y7970517D1*
X1786157Y7995493D1*
X1774947Y8022560D1*
X1768110Y8051047D1*
X1765810Y8080250D1*
X1768110Y8109453D1*
X1774947Y8137940D1*
X1786157Y8165007D1*
X1801463Y8189983D1*
X1815787Y8207173D1*
X1801463Y8224517D1*
X1786157Y8249493D1*
X1774947Y8276560D1*
X1768110Y8305047D1*
X1765810Y8334250D1*
X1768110Y8363453D1*
X1774947Y8391940D1*
X1786157Y8419007D1*
X1801463Y8443983D1*
X1815787Y8461173D1*
X1801463Y8478517D1*
X1786157Y8503493D1*
X1774947Y8530560D1*
X1768110Y8559047D1*
X1765810Y8588250D1*
X1768110Y8617453D1*
X1774947Y8645940D1*
X1786157Y8673007D1*
X1801463Y8697983D1*
X1815787Y8715173D1*
X1801463Y8732517D1*
X1786157Y8757493D1*
X1774947Y8784560D1*
X1768110Y8813047D1*
X1765810Y8842250D1*
X1768110Y8871453D1*
X1774947Y8899940D1*
X1786157Y8927007D1*
X1801463Y8951983D1*
X1815787Y8969173D1*
X1801463Y8986517D1*
X1786157Y9011493D1*
X1774947Y9038560D1*
X1768110Y9067047D1*
X1765810Y9096250D1*
X1768110Y9125453D1*
X1774947Y9153940D1*
X1786157Y9181007D1*
X1801463Y9205983D1*
X1815787Y9223173D1*
X1801463Y9240517D1*
X1786157Y9265493D1*
X1774947Y9292560D1*
X1768110Y9321047D1*
X1765810Y9350250D1*
X1768110Y9379453D1*
X1774947Y9407940D1*
X1786157Y9435007D1*
X1801463Y9459983D1*
X1815787Y9477173D1*
X1801463Y9494517D1*
X1786157Y9519493D1*
X1774947Y9546560D1*
X1768110Y9575047D1*
X1765810Y9604250D1*
X1768110Y9633453D1*
X1774947Y9661940D1*
X1786157Y9689007D1*
X1801463Y9713983D1*
X1815787Y9731173D1*
X1801463Y9748517D1*
X1786157Y9773493D1*
X1774947Y9800560D1*
X1768110Y9829047D1*
X1765810Y9858250D1*
X1768110Y9887453D1*
X1774947Y9915940D1*
X1786157Y9943007D1*
X1801463Y9967983D1*
X1815787Y9985173D1*
X1801463Y10002517D1*
X1786157Y10027493D1*
X1774947Y10054560D1*
X1768110Y10083047D1*
X1765810Y10112250D1*
X1768110Y10141453D1*
X1774947Y10169940D1*
X1786157Y10197007D1*
X1801463Y10221983D1*
X1815787Y10239173D1*
X1801463Y10256517D1*
X1786157Y10281493D1*
X1774947Y10308560D1*
X1768110Y10337047D1*
X1765810Y10366250D1*
X1768110Y10395453D1*
X1774947Y10423940D1*
X1786157Y10451007D1*
X1801463Y10475983D1*
X1815863Y10493257D1*
X1095207Y10493250D1*
X1095250Y1095327D1*
X3287003Y1095250D1*
X3274150Y1106543D1*
X3257617Y1123000D1*
X3242277Y1140577D1*
X3228210Y1159187D1*
X3215483Y1178740D1*
X3204163Y1199137D1*
X3194300Y1220277D1*
X3185950Y1242060D1*
X3179147Y1264373D1*
X3173927Y1287110D1*
X3170317Y1310160D1*
X3168333Y1333403D1*
X3167983Y1356730D1*
X3169277Y1380023D1*
X3172200Y1403167D1*
X3176740Y1426050D1*
X3182877Y1448557D1*
X3190580Y1470577D1*
X3199810Y1492000D1*
X3210520Y1512727D1*
X3222657Y1532647D1*
X3236163Y1551670D1*
X3250973Y1569693D1*
X3267013Y1586633D1*
X3284200Y1602407D1*
X3302453Y1616937D1*
X3321680Y1630147D1*
X3341790Y1641973D1*
X3362677Y1652360D1*
X3384243Y1661257D1*
X3406380Y1668613D1*
X3428980Y1674400D1*
X3451930Y1678587D1*
X3475117Y1681150D1*
X3498427Y1682080D1*
X3521747Y1681370D1*
X3544957Y1679027D1*
X3567943Y1675057D1*
X3590597Y1669487D1*
X3612803Y1662337D1*
X3634453Y1653647D1*
X3655440Y1643460D1*
X3675657Y1631823D1*
X3695010Y1618793D1*
X3713400Y1604440D1*
X3730737Y1588830D1*
X3746933Y1572043D1*
X3761913Y1554157D1*
X3775600Y1535267D1*
X3787927Y1515460D1*
X3798833Y1494837D1*
X3808263Y1473500D1*
X3816173Y1451553D1*
X3822523Y1429107D1*
X3827280Y1406270D1*
X3830423Y1383153D1*
X3832083Y1350000D1*
X3831263Y1326687D1*
X3828810Y1303487D1*
X3824733Y1280517D1*
X3819053Y1257890D1*
X3811800Y1235720D1*
X3803007Y1214110D1*
X3792720Y1193173D1*
X3780987Y1173010D1*
X3767867Y1153720D1*
X3753427Y1135397D1*
X3737737Y1118137D1*
X3712663Y1095210D1*
X6778433Y1095250D1*
X6778500Y1732783D1*
X6726030Y1680273D1*
X6737153Y1663837D1*
X6746267Y1647567D1*
X6754073Y1630633D1*
X6760527Y1613140D1*
X6765587Y1595190D1*
X6769227Y1576900D1*
X6771417Y1558383D1*
X6772150Y1539750D1*
X6771417Y1521117D1*
X6271723Y1535083D2*
X6270120Y1511813D1*
X6266243Y1488817D1*
X6260130Y1466307D1*
X6251837Y1444507D1*
X6241443Y1423627D1*
X6229053Y1403867D1*
X6214787Y1385417D1*
X6198777Y1368453D1*
X6181180Y1353143D1*
X6162167Y1339633D1*
X6141920Y1328053D1*
X6120637Y1318517D1*
X6098517Y1311113D1*
X6075780Y1305913D1*
X6052643Y1302970D1*
X6029330Y1302310D1*
X6006063Y1303943D1*
X5983067Y1307847D1*
X5960567Y1313990D1*
X5938777Y1322310D1*
X5917907Y1332727D1*
X5898163Y1345140D1*
X5879730Y1359430D1*
X5862787Y1375460D1*
X5847497Y1393073D1*
X5834010Y1412103D1*
X5822457Y1432363D1*
X5812943Y1453660D1*
X5805567Y1475787D1*
X5800393Y1498530D1*
X5797480Y1521670D1*
X5796847Y1544987D1*
X5798507Y1568250D1*
X5802440Y1591240D1*
X5808607Y1613733D1*
X5816953Y1635513D1*
X5827397Y1656370D1*
X5839833Y1676100D1*
X5854147Y1694517D1*
X5870197Y1711440D1*
X5887827Y1726707D1*
X5906873Y1740173D1*
X5927147Y1751703D1*
X5948457Y1761190D1*
X5970590Y1768540D1*
X5993340Y1773683D1*
X6016483Y1776573D1*
X6039800Y1777177D1*
X6063063Y1775490D1*
X6086050Y1771530D1*
X6108537Y1765333D1*
X6130303Y1756960D1*
X6151147Y1746493D1*
X6170863Y1734033D1*
X6189263Y1719700D1*
X6206167Y1703630D1*
X6221413Y1685977D1*
X6234857Y1666917D1*
X6246360Y1646627D1*
X6255823Y1625310D1*
X6263147Y1603163D1*
X6268263Y1580410D1*
X6271123Y1557260D1*
X6271723Y1535083D1*
X2430090Y10026663D2*
X2425423Y10026160D1*
X2118170D1*
X2103537Y10002517D1*
X2089213Y9985327D1*
X2103537Y9967983D1*
X2118843Y9943007D1*
X2130053Y9915940D1*
X2136890Y9887453D1*
X2139190Y9858250D1*
X2136890Y9829047D1*
X2130053Y9800560D1*
X2118843Y9773493D1*
X2103537Y9748517D1*
X2089213Y9731327D1*
X2103537Y9713983D1*
X2118843Y9689007D1*
X2130053Y9661940D1*
X2136890Y9633453D1*
X2139190Y9604250D1*
X2136890Y9575047D1*
X2130053Y9546560D1*
X2118843Y9519493D1*
X2103537Y9494517D1*
X2089213Y9477327D1*
X2103537Y9459983D1*
X2118843Y9435007D1*
X2130053Y9407940D1*
X2136890Y9379453D1*
X2139190Y9350250D1*
X2136890Y9321047D1*
X2130053Y9292560D1*
X2118843Y9265493D1*
X2103537Y9240517D1*
X2089213Y9223327D1*
X2103537Y9205983D1*
X2118843Y9181007D1*
X2130053Y9153940D1*
X2136890Y9125453D1*
X2139190Y9096250D1*
X2136890Y9067047D1*
X2130053Y9038560D1*
X2118843Y9011493D1*
X2103537Y8986517D1*
X2089213Y8969327D1*
X2103537Y8951983D1*
X2118843Y8927007D1*
X2130053Y8899940D1*
X2136890Y8871453D1*
X2139190Y8842250D1*
X2136890Y8813047D1*
X2130053Y8784560D1*
X2118843Y8757493D1*
X2103537Y8732517D1*
X2089213Y8715327D1*
X2103537Y8697983D1*
X2118843Y8673007D1*
X2130053Y8645940D1*
X2136890Y8617453D1*
X2139190Y8588250D1*
X2136890Y8559047D1*
X2130053Y8530560D1*
X2118843Y8503493D1*
X2103537Y8478517D1*
X2089213Y8461327D1*
X2103537Y8443983D1*
X2118843Y8419007D1*
X2130053Y8391940D1*
X2136890Y8363453D1*
X2139190Y8334250D1*
X2136890Y8305047D1*
X2130053Y8276560D1*
X2118843Y8249493D1*
X2103537Y8224517D1*
X2089213Y8207327D1*
X2103537Y8189983D1*
X2118843Y8165007D1*
X2130053Y8137940D1*
X2136890Y8109453D1*
X2139190Y8080250D1*
X2136890Y8051047D1*
X2130053Y8022560D1*
X2118843Y7995493D1*
X2103537Y7970517D1*
X2089213Y7953327D1*
X2103537Y7935983D1*
X2118843Y7911007D1*
X2130053Y7883940D1*
X2136890Y7855453D1*
X2139190Y7826250D1*
X2136890Y7797047D1*
X2130053Y7768560D1*
X2118843Y7741493D1*
X2103537Y7716517D1*
X2089213Y7699327D1*
X2103537Y7681983D1*
X2118843Y7657007D1*
X2130053Y7629940D1*
X2136890Y7601453D1*
X2139190Y7572250D1*
X2136890Y7543047D1*
X2130053Y7514560D1*
X2118843Y7487493D1*
X2103537Y7462517D1*
X2089213Y7445327D1*
X2103537Y7427983D1*
X2118843Y7403007D1*
X2130053Y7375940D1*
X2136890Y7347453D1*
X2139190Y7318250D1*
X2136890Y7289047D1*
X2130053Y7260560D1*
X2118843Y7233493D1*
X2103537Y7208517D1*
X2089213Y7191327D1*
X2103537Y7173983D1*
X2118843Y7149007D1*
X2130053Y7121940D1*
X2136890Y7093453D1*
X2139190Y7064250D1*
X2136890Y7035047D1*
X2130053Y7006560D1*
X2118843Y6979493D1*
X2103537Y6954517D1*
X2089213Y6937327D1*
X2102933Y6920747D1*
X2141627Y6920740D1*
X2141660Y6960340D1*
X2461840D1*
Y6920690D1*
X2838327Y6920740D1*
X2838410Y6930340D1*
X3228590D1*
Y6690160D1*
X3211910D1*
X3211840Y6363660D1*
X3190377Y6363630D1*
X4126150Y5427853D1*
X4128010Y5434583D1*
X4128350Y9835170D1*
X4131063Y9852293D1*
X4136420Y9868783D1*
X4144290Y9884230D1*
X4154483Y9898257D1*
X4226367Y9970627D1*
X4452493Y10196267D1*
X4466520Y10206460D1*
X4481967Y10214330D1*
X4498457Y10219687D1*
X4515580Y10222400D1*
X4595983Y10222740D1*
X4609787Y10239173D1*
X4595463Y10256517D1*
X4580157Y10281493D1*
X4568947Y10308560D1*
X4562110Y10337047D1*
X4559810Y10366250D1*
X4562110Y10395453D1*
X4568947Y10423940D1*
X4580157Y10451007D1*
X4595463Y10475983D1*
X4609863Y10493257D1*
X2684060Y10493250D1*
X2684090Y10026660D1*
X2430103D1*
X6144840Y9136143D2*
Y8946160D1*
X6037013D1*
X6291017Y8691757D1*
X6301207Y8677730D1*
X6309080Y8662283D1*
X6314437Y8645793D1*
X6317150Y8628670D1*
X6317490Y8526667D1*
Y7430637D1*
X6482157Y7430713D1*
X6482160Y7535040D1*
X6439660Y7535033D1*
Y7895213D1*
X6455610D1*
X6448473Y7913473D1*
X6441877Y7940950D1*
X6439660Y7969123D1*
X6441877Y7997297D1*
X6448473Y8024773D1*
X6459290Y8050883D1*
X6474053Y8074977D1*
X6492070Y8096100D1*
X6476813Y8113570D1*
X6466247Y8128947D1*
X6457327Y8145337D1*
X6450150Y8162557D1*
X6444793Y8180430D1*
X6441317Y8198763D1*
X6439753Y8217353D1*
X6440120Y8236010D1*
X6442420Y8254527D1*
X6446620Y8272707D1*
X6452680Y8290353D1*
X6460533Y8307277D1*
X6470093Y8323300D1*
X6481260Y8338247D1*
X6493917Y8351957D1*
X6507920Y8364287D1*
X6523127Y8375100D1*
X6539370Y8384280D1*
X6556477Y8391733D1*
X6574260Y8397373D1*
X6592533Y8401143D1*
X6611100Y8403007D1*
X6629757Y8402937D1*
X6648307Y8400933D1*
X6666553Y8397027D1*
X6684293Y8391250D1*
X6701343Y8383670D1*
X6717517Y8374367D1*
X6732640Y8363437D1*
X6745410Y8352107D1*
Y8610840D1*
X6984487D1*
X6984410Y8636340D1*
X7334590D1*
Y8571717D1*
X7351910Y8571740D1*
X7436950Y8656350D1*
X7450977Y8666540D1*
X7466423Y8674413D1*
X7482913Y8679770D1*
X7500037Y8682483D1*
X7581167Y8682823D1*
X7581153Y8756473D1*
X8033327D1*
X8033260Y8938833D1*
X8008890Y8923963D1*
X7982197Y8912907D1*
X7954100Y8906160D1*
X7925293Y8903893D1*
X7765293D1*
X7736487Y8906160D1*
X7708390Y8912907D1*
X7681697Y8923963D1*
X7657060Y8939060D1*
X7635087Y8957827D1*
X7632823Y8960273D1*
X7295263Y8960260D1*
X7283307Y8946943D1*
X7262417Y8929100D1*
X7238990Y8914743D1*
X7213607Y8904230D1*
X7186890Y8897817D1*
X7159500Y8895660D1*
X7132110Y8897817D1*
X7105393Y8904230D1*
X7080010Y8914743D1*
X7056583Y8929100D1*
X7035693Y8946943D1*
X7017850Y8967833D1*
X7016627Y8969667D1*
X6987250Y8969633D1*
X6987340Y8962533D1*
X6757380D1*
X6757340Y8867533D1*
X6482160D1*
Y8874550D1*
X6436457Y8874973D1*
X6419333Y8877687D1*
X6402843Y8883043D1*
X6387397Y8890917D1*
X6373370Y8901107D1*
X6301003Y8972993D1*
X6186483Y9087993D1*
X6176293Y9102020D1*
X6168420Y9117467D1*
X6163063Y9133957D1*
X6160350Y9151080D1*
X6160010Y9253083D1*
Y9526793D1*
X5878823Y9807920D1*
X5871480Y9786807D1*
X5858180Y9760703D1*
X5840960Y9737003D1*
X5835713Y9731327D1*
X5850037Y9713983D1*
X5865343Y9689007D1*
X5876553Y9661940D1*
X5883390Y9633453D1*
X5885690Y9604250D1*
X5883390Y9575047D1*
X5876553Y9546560D1*
X5865343Y9519493D1*
X5850037Y9494517D1*
X5835713Y9477327D1*
X5849420Y9460823D1*
X5862033Y9441210D1*
X5864643Y9436343D1*
X6144840Y9436340D1*
X6144823Y9136160D1*
X6118037Y6266690D2*
X6116443Y6247243D1*
X6112777Y6228950D1*
X6107067Y6211190D1*
X6099393Y6194183D1*
X6089847Y6178153D1*
X6078553Y6163303D1*
X6065657Y6149823D1*
X6051323Y6137883D1*
X6035730Y6127637D1*
X6019083Y6119213D1*
X6001593Y6112723D1*
X5983480Y6108247D1*
X5964980Y6105847D1*
X5946323Y6105547D1*
X5927757Y6107350D1*
X5909510Y6111240D1*
X5891817Y6117167D1*
X5872980Y6126120D1*
X5872990Y5554253D1*
X6322767Y5104007D1*
X6332960Y5089980D1*
X6340830Y5074533D1*
X6346187Y5058043D1*
X6348900Y5040920D1*
X6349240Y4938917D1*
Y4033383D1*
X6482190Y4033463D1*
X6482160Y4106037D1*
X6471410D1*
Y4466217D1*
X6487360D1*
X6480223Y4484477D1*
X6473627Y4511953D1*
X6471410Y4540127D1*
X6473627Y4568300D1*
X6480223Y4595777D1*
X6491040Y4621887D1*
X6505803Y4645980D1*
X6523820Y4667103D1*
X6508563Y4684573D1*
X6497997Y4699950D1*
X6489077Y4716340D1*
X6481900Y4733560D1*
X6476543Y4751433D1*
X6473067Y4769767D1*
X6471503Y4788357D1*
X6471870Y4807013D1*
X6474170Y4825530D1*
X6478370Y4843710D1*
X6484430Y4861357D1*
X6492283Y4878280D1*
X6501843Y4894303D1*
X6513010Y4909250D1*
X6525667Y4922960D1*
X6539670Y4935290D1*
X6554877Y4946103D1*
X6571120Y4955283D1*
X6588227Y4962737D1*
X6606010Y4968377D1*
X6624283Y4972147D1*
X6642850Y4974010D1*
X6661507Y4973940D1*
X6680057Y4971937D1*
X6698303Y4968030D1*
X6716043Y4962253D1*
X6733093Y4954673D1*
X6749267Y4945370D1*
X6764390Y4934440D1*
X6776900Y4923363D1*
X6776910Y5245590D1*
X6984450D1*
X6984410Y5270840D1*
X7334590D1*
Y5206217D1*
X7351910Y5206240D1*
X7373453Y5227353D1*
X7387480Y5237543D1*
X7402927Y5245417D1*
X7419417Y5250773D1*
X7436540Y5253487D1*
X7538543Y5253827D1*
X7581110D1*
X7581153Y5327477D1*
X8033327D1*
X8033260Y5509833D1*
X8008890Y5494963D1*
X7982197Y5483907D1*
X7954100Y5477160D1*
X7925293Y5474893D1*
X7765293D1*
X7736487Y5477160D1*
X7708390Y5483907D1*
X7681697Y5494963D1*
X7657060Y5510060D1*
X7635087Y5528827D1*
X7616320Y5550800D1*
X7608207Y5562967D1*
X7295343Y5563010D1*
X7283307Y5549693D1*
X7262417Y5531850D1*
X7238990Y5517493D1*
X7213607Y5506980D1*
X7186890Y5500567D1*
X7159500Y5498410D1*
X7132110Y5500567D1*
X7105393Y5506980D1*
X7080010Y5517493D1*
X7056583Y5531850D1*
X7045513Y5540617D1*
X7019090Y5540633D1*
Y5533533D1*
X6789130D1*
X6789090Y5438533D1*
X6578817D1*
X6578840Y5396033D1*
X6088660D1*
Y5716213D1*
X6128310D1*
X6128260Y6256397D1*
X6118020Y6266723D1*
X5872997Y6414897D2*
X5890620Y6423350D1*
X5908263Y6429413D1*
X5926480Y6433447D1*
X5945033Y6435397D1*
X5949207Y6435540D1*
X5872983Y6511760D1*
X5872990Y6414850D1*
X5303243Y6435590D2*
X5441147D1*
X5424483Y6452743D1*
X5414293Y6466770D1*
X5406420Y6482217D1*
X5401063Y6498707D1*
X5398350Y6515830D1*
X5398010Y6617833D1*
Y6645087D1*
X5184660Y6645160D1*
Y6699757D1*
X4897030Y6699760D1*
X4878510Y6678240D1*
X4856233Y6659213D1*
X4831257Y6643907D1*
X4804190Y6632697D1*
X4775703Y6625860D1*
X4746500Y6623560D1*
X4717297Y6625860D1*
X4688810Y6632697D1*
X4661743Y6643907D1*
X4636767Y6659213D1*
X4614490Y6678240D1*
X4595463Y6700517D1*
X4580157Y6725493D1*
X4568947Y6752560D1*
X4562110Y6781047D1*
X4559810Y6810250D1*
X4562110Y6839453D1*
X4568947Y6867940D1*
X4580157Y6895007D1*
X4595463Y6919983D1*
X4609787Y6937173D1*
X4596970Y6952473D1*
X4584203Y6971987D1*
X4573967Y6992940D1*
X4566423Y7015003D1*
X4561687Y7037837D1*
X4559837Y7061080D1*
X4560897Y7084373D1*
X4564853Y7107353D1*
X4571643Y7129660D1*
X4581163Y7150950D1*
X4593260Y7170883D1*
X4607747Y7189153D1*
X4609663Y7191230D1*
X4595463Y7208517D1*
X4580157Y7233493D1*
X4568947Y7260560D1*
X4562110Y7289047D1*
X4559810Y7318250D1*
X4562110Y7347453D1*
X4568947Y7375940D1*
X4580157Y7403007D1*
X4595463Y7427983D1*
X4609787Y7445173D1*
X4595463Y7462517D1*
X4580157Y7487493D1*
X4568947Y7514560D1*
X4562110Y7543047D1*
X4559810Y7572250D1*
X4562110Y7601453D1*
X4568947Y7629940D1*
X4580157Y7657007D1*
X4587013Y7669247D1*
X4539493Y7621737D1*
X4539490Y5423763D1*
X4736590Y5423840D1*
Y5210067D1*
X4754360Y5220410D1*
X4781053Y5231467D1*
X4809150Y5238213D1*
X4838013Y5240477D1*
X5012403Y5239913D1*
X5040943Y5235393D1*
X5068423Y5226463D1*
X5094170Y5213347D1*
X5117547Y5196360D1*
X5137977Y5175930D1*
X5145147Y5166837D1*
X5403307Y5166830D1*
X5416443Y5181557D1*
X5437333Y5199400D1*
X5460760Y5213757D1*
X5486143Y5224270D1*
X5512860Y5230683D1*
X5532900Y5232550D1*
X5519733Y5246243D1*
X5509543Y5260270D1*
X5501670Y5275717D1*
X5496313Y5292207D1*
X5493600Y5309330D1*
X5493260Y5411333D1*
Y6105410D1*
X5279910D1*
Y6435590D1*
X5303243D1*
X5207993Y6975340D2*
X5210637D1*
X5201543Y6991523D1*
X5194283Y7008710D1*
X5189010Y7026607D1*
X5185787Y7044983D1*
X5184660Y7063603D1*
X5185643Y7082237D1*
X5188720Y7100637D1*
X5193853Y7118573D1*
X5200977Y7135817D1*
X5210003Y7152143D1*
X5220813Y7167350D1*
X5233270Y7181240D1*
X5247213Y7193637D1*
X5262467Y7204380D1*
X5270763Y7209213D1*
X5018213Y7461780D1*
X4896930Y7461760D1*
X4883213Y7445327D1*
X4897537Y7427983D1*
X4912843Y7403007D1*
X4924053Y7375940D1*
X4930890Y7347453D1*
X4933190Y7318250D1*
X4930890Y7289047D1*
X4924053Y7260560D1*
X4912843Y7233493D1*
X4897537Y7208517D1*
X4883213Y7191327D1*
X4896920Y7174823D1*
X4909533Y7155210D1*
X4919600Y7134177D1*
X4926967Y7112053D1*
X4931517Y7089183D1*
X4933183Y7065923D1*
X4932257Y7045613D1*
X4928487Y7022603D1*
X4921873Y7000243D1*
X4912527Y6978880D1*
X4900590Y6958850D1*
X4886250Y6940463D1*
X4883343Y6937263D1*
X4896933Y6920747D1*
X5184637Y6920740D1*
X5184660Y6975340D1*
X5207993D1*
X5936443Y3133590D2*
X5991090D1*
Y3107613D1*
X6009083Y3117583D1*
X6026357Y3124633D1*
X6044317Y3129687D1*
X6062730Y3132683D1*
X6081367Y3133583D1*
X6099983Y3132377D1*
X6118343Y3129077D1*
X6128243Y3126373D1*
X6128260Y3430800D1*
X5938350Y3620647D1*
X5936490Y3620333D1*
Y3133523D1*
X5715557Y2803410D2*
X5660910D1*
Y3025897D1*
X5643167Y3011100D1*
X5619740Y2996743D1*
X5594357Y2986230D1*
X5567640Y2979817D1*
X5540250Y2977660D1*
X5512860Y2979817D1*
X5486143Y2986230D1*
X5460760Y2996743D1*
X5437333Y3011100D1*
X5416443Y3028943D1*
X5405680Y3040850D1*
X5145180D1*
X5128163Y3021133D1*
X5106190Y3002367D1*
X5081553Y2987270D1*
X5054860Y2976213D1*
X5026763Y2969467D1*
X4997957Y2967200D1*
X4837957D1*
X4809150Y2969467D1*
X4781053Y2976213D1*
X4754360Y2987270D1*
X4729723Y3002367D1*
X4707750Y3021133D1*
X4690837Y3040753D1*
X4451110Y3040760D1*
X4451090Y3013660D1*
X4215910D1*
Y3243620D1*
X4158577Y3243660D1*
X4158490Y2474553D1*
X4569993Y2063013D1*
X4653727Y2063030D1*
X4653817Y2136680D1*
X5182097D1*
Y2062943D1*
X5365210Y2063030D1*
X5365160Y2222840D1*
X5559027D1*
X5715473Y2379230D1*
X5715510Y2803357D1*
X7007743Y10350840D2*
X7334590D1*
Y10286217D1*
X7351910Y10286240D1*
X7430607Y10364983D1*
X7428833Y10366250D1*
X6329033Y10366640D1*
X6321850Y10368667D1*
X6315337Y10372313D1*
X6309857Y10377380D1*
X6305710Y10383587D1*
X6303127Y10390587D1*
X6302250Y10398010D1*
Y11763273D1*
X5064067Y11763250D1*
X5064000Y10526367D1*
X5467590Y10526340D1*
Y10222667D1*
X5739420Y10222400D1*
X5756543Y10219687D1*
X5773033Y10214330D1*
X5788480Y10206457D1*
X5802507Y10196267D1*
X5874873Y10124380D1*
X6354517Y9644257D1*
X6364707Y9630230D1*
X6372580Y9614783D1*
X6377937Y9598293D1*
X6380650Y9581170D1*
X6380990Y9479167D1*
Y9205457D1*
X6482103Y9104403D1*
X6482160Y9249540D1*
X6439660Y9249533D1*
Y9609713D1*
X6455610D1*
X6448473Y9627973D1*
X6441877Y9655450D1*
X6439660Y9683623D1*
X6441877Y9711797D1*
X6448473Y9739273D1*
X6459290Y9765383D1*
X6474053Y9789477D1*
X6492070Y9810600D1*
X6476813Y9828070D1*
X6466247Y9843447D1*
X6457327Y9859837D1*
X6450150Y9877057D1*
X6444793Y9894930D1*
X6441317Y9913263D1*
X6439753Y9931853D1*
X6440120Y9950510D1*
X6442420Y9969027D1*
X6446620Y9987207D1*
X6452680Y10004853D1*
X6460533Y10021777D1*
X6470093Y10037800D1*
X6481260Y10052747D1*
X6493917Y10066457D1*
X6507920Y10078787D1*
X6523127Y10089600D1*
X6539370Y10098780D1*
X6556477Y10106233D1*
X6574260Y10111873D1*
X6592533Y10115643D1*
X6611100Y10117507D1*
X6629757Y10117437D1*
X6648307Y10115433D1*
X6666553Y10111527D1*
X6684293Y10105750D1*
X6701343Y10098170D1*
X6717517Y10088867D1*
X6732640Y10077937D1*
X6745410Y10066607D1*
Y10325340D1*
X6984487D1*
X6984410Y10350840D1*
X7007743D1*
X7334590Y10065280D2*
Y10000660D1*
X7065620D1*
X7065590Y9835160D1*
X7015917D1*
X7015650Y9563830D1*
X7012937Y9546707D1*
X7007580Y9530217D1*
X6999710Y9514770D1*
X6989517Y9500743D1*
X6918857Y9429600D1*
X6933767Y9414253D1*
X6943960Y9400227D1*
X6951830Y9384780D1*
X6957187Y9368290D1*
X6959900Y9351167D1*
X6960240Y9249163D1*
Y9197667D1*
X6987340Y9197713D1*
Y9190693D1*
X7031950Y9190613D1*
X7045787Y9203890D1*
X7068017Y9220040D1*
X7092497Y9232513D1*
X7118627Y9241003D1*
X7145763Y9245300D1*
X7173237D1*
X7200373Y9241003D1*
X7226503Y9232513D1*
X7250983Y9220040D1*
X7273213Y9203890D1*
X7292640Y9184463D1*
X7295200Y9181213D1*
X7606570Y9181240D1*
X7616320Y9196267D1*
X7635087Y9218240D1*
X7657060Y9237007D1*
X7681697Y9252103D1*
X7708390Y9263160D1*
X7736487Y9269907D1*
X7765350Y9272170D1*
X7939740Y9271607D1*
X7968280Y9267087D1*
X7995760Y9258157D1*
X8021507Y9245040D1*
X8033293Y9237163D1*
X8033260Y9942533D1*
X7873240Y10102630D1*
X7581153Y10102693D1*
Y10176430D1*
X7554447Y10176343D1*
X7469383Y10091733D1*
X7455357Y10081540D1*
X7439910Y10073670D1*
X7423420Y10068313D1*
X7406297Y10065600D1*
X7334643Y10065260D1*
X7334590Y8350780D2*
Y8286160D1*
X7065620D1*
X7065590Y8120660D1*
X7015917D1*
X7015650Y7817580D1*
X7012937Y7800457D1*
X7007580Y7783967D1*
X6999710Y7768520D1*
X6989517Y7754493D1*
X6951080Y7715573D1*
X6957187Y7697427D1*
X6959900Y7680303D1*
X6960240Y7578300D1*
Y7483233D1*
X6987340Y7483213D1*
Y7476193D1*
X7031950Y7476113D1*
X7045787Y7489390D1*
X7068017Y7505540D1*
X7092497Y7518013D1*
X7118627Y7526503D1*
X7145763Y7530800D1*
X7173237D1*
X7200373Y7526503D1*
X7226503Y7518013D1*
X7250983Y7505540D1*
X7273213Y7489390D1*
X7292640Y7469963D1*
X7295200Y7466713D1*
X7606570Y7466740D1*
X7616320Y7481767D1*
X7635087Y7503740D1*
X7657060Y7522507D1*
X7681697Y7537603D1*
X7708390Y7548660D1*
X7736487Y7555407D1*
X7765350Y7557670D1*
X7939740Y7557107D1*
X7968280Y7552587D1*
X7995760Y7543657D1*
X8021507Y7530540D1*
X8033293Y7522663D1*
X8033260Y8388217D1*
X7581153Y8388193D1*
Y8461930D1*
X7554447Y8461843D1*
X7469380Y8377233D1*
X7455353Y8367043D1*
X7439907Y8359170D1*
X7423417Y8353813D1*
X7406293Y8351100D1*
X7334640Y8350760D1*
X7295200Y7245787D2*
X7283307Y7232443D1*
X7262417Y7214600D1*
X7238990Y7200243D1*
X7213607Y7189730D1*
X7186890Y7183317D1*
X7159500Y7181160D1*
X7132110Y7183317D1*
X7105393Y7189730D1*
X7080010Y7200243D1*
X7056583Y7214600D1*
X7035693Y7232443D1*
X7017850Y7253333D1*
X7016627Y7255167D1*
X6987430Y7255133D1*
X6987340Y7248033D1*
X6757380D1*
X6757340Y7153033D1*
X6547067D1*
X6547090Y7110533D1*
X6056910D1*
Y7430713D1*
X6096560D1*
X6096510Y8574283D1*
X6034840Y8635903D1*
Y8533910D1*
X5999930D1*
X5999990Y8484707D1*
X6021510Y8466260D1*
X6040537Y8443983D1*
X6055843Y8419007D1*
X6067053Y8391940D1*
X6073890Y8363453D1*
X6076190Y8334250D1*
X6073890Y8305047D1*
X6067053Y8276560D1*
X6055843Y8249493D1*
X6040537Y8224517D1*
X6026213Y8207327D1*
X6040537Y8189983D1*
X6055843Y8165007D1*
X6067053Y8137940D1*
X6073890Y8109453D1*
X6076190Y8080250D1*
X6073890Y8051047D1*
X6067053Y8022560D1*
X6055843Y7995493D1*
X6040537Y7970517D1*
X6021510Y7948240D1*
X5999233Y7929213D1*
X5974257Y7913907D1*
X5947190Y7902697D1*
X5918703Y7895860D1*
X5889500Y7893560D1*
X5872863Y7894370D1*
X5872990Y6824347D1*
X6322767Y6374007D1*
X6332960Y6359980D1*
X6340830Y6344533D1*
X6346187Y6328043D1*
X6348900Y6310920D1*
X6349240Y6208917D1*
Y5716273D1*
X6513907Y5716213D1*
X6513910Y5820540D1*
X6471410Y5820533D1*
Y6180713D1*
X6487360D1*
X6480223Y6198973D1*
X6473627Y6226450D1*
X6471410Y6254623D1*
X6473627Y6282797D1*
X6480223Y6310273D1*
X6491040Y6336383D1*
X6505803Y6360477D1*
X6523820Y6381600D1*
X6508563Y6399070D1*
X6497997Y6414447D1*
X6489077Y6430837D1*
X6481900Y6448057D1*
X6476543Y6465930D1*
X6473067Y6484263D1*
X6471503Y6502853D1*
X6471870Y6521510D1*
X6474170Y6540027D1*
X6478370Y6558207D1*
X6484430Y6575853D1*
X6492283Y6592777D1*
X6501843Y6608800D1*
X6513010Y6623747D1*
X6525667Y6637457D1*
X6539670Y6649787D1*
X6554877Y6660600D1*
X6571120Y6669780D1*
X6588227Y6677233D1*
X6606010Y6682873D1*
X6624283Y6686643D1*
X6642850Y6688507D1*
X6661507Y6688437D1*
X6680057Y6686433D1*
X6698303Y6682527D1*
X6716043Y6676750D1*
X6733093Y6669170D1*
X6749267Y6659867D1*
X6764390Y6648937D1*
X6777160Y6637607D1*
Y6928090D1*
X6984337D1*
X6984410Y6953590D1*
X7334590D1*
Y6888967D1*
X7383627Y6888990D1*
X7436950Y6941850D1*
X7450977Y6952040D1*
X7466423Y6959913D1*
X7482913Y6965270D1*
X7500037Y6967983D1*
X7581167Y6968323D1*
X7581153Y7041973D1*
X8033327D1*
X8033260Y7224283D1*
X8008890Y7209463D1*
X7982197Y7198407D1*
X7954100Y7191660D1*
X7925293Y7189393D1*
X7765293D1*
X7736487Y7191660D1*
X7708390Y7198407D1*
X7681697Y7209463D1*
X7657060Y7224560D1*
X7635087Y7243327D1*
X7632823Y7245773D1*
X7295263Y7245760D1*
X7334590Y6668030D2*
Y6603410D1*
X7097337D1*
X7097340Y6437910D1*
X7047667D1*
X7047400Y6134830D1*
X7044687Y6117707D1*
X7039330Y6101217D1*
X7031457Y6085770D1*
X7021267Y6071743D1*
X6950607Y6000600D1*
X6965517Y5985253D1*
X6975710Y5971227D1*
X6983580Y5955780D1*
X6988937Y5939290D1*
X6991650Y5922167D1*
X6991990Y5820163D1*
Y5768667D1*
X7012510Y5768713D1*
X7026360Y5787213D1*
X7045787Y5806640D1*
X7068017Y5822790D1*
X7092497Y5835263D1*
X7118627Y5843753D1*
X7145763Y5848050D1*
X7173237D1*
X7200373Y5843753D1*
X7226503Y5835263D1*
X7250983Y5822790D1*
X7273213Y5806640D1*
X7292640Y5787213D1*
X7295200Y5783963D1*
X7630087Y5783990D1*
X7645703Y5799053D1*
X7669080Y5816040D1*
X7694827Y5829157D1*
X7722307Y5838087D1*
X7750847Y5842607D1*
X7811960Y5843173D1*
X7939740Y5842607D1*
X7968280Y5838087D1*
X7995760Y5829157D1*
X8021507Y5816040D1*
X8033293Y5808163D1*
X8033260Y6673767D1*
X7581153Y6673693D1*
Y6747430D1*
X7554447Y6747343D1*
X7501130Y6694483D1*
X7487103Y6684293D1*
X7471657Y6676420D1*
X7455167Y6671063D1*
X7438043Y6668350D1*
X7334673Y6668010D1*
X7334590Y4985280D2*
Y4920660D1*
X7097157D1*
X7097090Y4755410D1*
X7047417D1*
X7047150Y4420080D1*
X7044437Y4402957D1*
X7039080Y4386467D1*
X7031207Y4371020D1*
X7021017Y4356993D1*
X6947263Y4282757D1*
X6954833Y4264897D1*
X6958880Y4248037D1*
X6960240Y4230720D1*
Y4085923D1*
X6987340Y4085963D1*
Y4078943D1*
X7008253Y4078863D1*
X7017850Y4093667D1*
X7035693Y4114557D1*
X7056583Y4132400D1*
X7080010Y4146757D1*
X7105393Y4157270D1*
X7132110Y4163683D1*
X7159500Y4165840D1*
X7186890Y4163683D1*
X7213607Y4157270D1*
X7238990Y4146757D1*
X7262417Y4132400D1*
X7283307Y4114557D1*
X7295200Y4101213D1*
X7669080Y4101543D1*
X7694827Y4114660D1*
X7722307Y4123590D1*
X7750847Y4128110D1*
X7811960Y4128677D1*
X7939740Y4128110D1*
X7968280Y4123590D1*
X7995760Y4114660D1*
X8021507Y4101543D1*
X8033293Y4093667D1*
X8033260Y4959283D1*
X7581153Y4959197D1*
Y5032933D1*
X7491010Y5032847D1*
X7469380Y5011733D1*
X7455353Y5001540D1*
X7439907Y4993670D1*
X7423417Y4988313D1*
X7406293Y4985600D1*
X7334640Y4985260D1*
X7295200Y3880287D2*
X7283307Y3866943D1*
X7262417Y3849100D1*
X7238990Y3834743D1*
X7213607Y3824230D1*
X7186890Y3817817D1*
X7159500Y3815660D1*
X7132110Y3817817D1*
X7105393Y3824230D1*
X7080010Y3834743D1*
X7056583Y3849100D1*
X7045513Y3857867D1*
X6987370Y3857883D1*
X6987340Y3850783D1*
X6757380D1*
X6757340Y3755783D1*
X6578787D1*
X6578840Y3713283D1*
X6158150D1*
X6322767Y3548257D1*
X6332957Y3534230D1*
X6340830Y3518783D1*
X6346187Y3502293D1*
X6348900Y3485170D1*
X6349240Y3383167D1*
Y2303180D1*
X6450470Y2303090D1*
X6450410Y2450590D1*
X6471427D1*
X6471410Y2751717D1*
X6487360D1*
X6480223Y2769977D1*
X6473627Y2797453D1*
X6471410Y2825627D1*
X6473627Y2853800D1*
X6480223Y2881277D1*
X6491040Y2907387D1*
X6505803Y2931480D1*
X6523820Y2952603D1*
X6508563Y2970073D1*
X6497997Y2985450D1*
X6489077Y3001840D1*
X6481900Y3019060D1*
X6476543Y3036933D1*
X6473067Y3055267D1*
X6471503Y3073857D1*
X6471870Y3092513D1*
X6474170Y3111030D1*
X6478370Y3129210D1*
X6484430Y3146857D1*
X6492283Y3163780D1*
X6501843Y3179803D1*
X6513010Y3194750D1*
X6525667Y3208460D1*
X6539670Y3220790D1*
X6554877Y3231603D1*
X6571120Y3240783D1*
X6588227Y3248237D1*
X6606010Y3253877D1*
X6624283Y3257647D1*
X6642850Y3259510D1*
X6661507Y3259440D1*
X6680057Y3257437D1*
X6698303Y3253530D1*
X6716043Y3247753D1*
X6733093Y3240173D1*
X6749267Y3230870D1*
X6764390Y3219940D1*
X6776900Y3208863D1*
X6776910Y3499340D1*
X7016167D1*
X7016160Y3524590D1*
X7366340D1*
Y3459967D1*
X7447097Y3459990D1*
X7500453Y3512853D1*
X7514480Y3523047D1*
X7529927Y3530917D1*
X7546417Y3536273D1*
X7563540Y3538987D1*
X7581233Y3539327D1*
X7581153Y3612977D1*
X8033327D1*
X8033260Y3795350D1*
X8008890Y3780467D1*
X7982197Y3769410D1*
X7954100Y3762663D1*
X7925293Y3760397D1*
X7765293D1*
X7736487Y3762663D1*
X7708390Y3769410D1*
X7681697Y3780467D1*
X7657060Y3795563D1*
X7635087Y3814330D1*
X7616320Y3836303D1*
X7601223Y3860940D1*
X7592883Y3880270D1*
X7295317Y3880260D1*
X7366340Y3239030D2*
Y3174410D1*
X7097003D1*
X7097090Y3009160D1*
X7047417D1*
X7047150Y2705580D1*
X7044437Y2688457D1*
X7039080Y2671967D1*
X7031210Y2656520D1*
X7021017Y2642493D1*
X6949133Y2570123D1*
X6928327Y2548600D1*
X6928490Y2355653D1*
X6955590Y2355590D1*
Y2348573D1*
X7050330Y2348490D1*
X7067443Y2368307D1*
X7088333Y2386150D1*
X7111760Y2400507D1*
X7137143Y2411020D1*
X7163860Y2417433D1*
X7191250Y2419590D1*
X7218640Y2417433D1*
X7245357Y2411020D1*
X7270740Y2400507D1*
X7294167Y2386150D1*
X7315057Y2368307D1*
X7326950Y2354963D1*
X7630117Y2354990D1*
X7645703Y2370057D1*
X7669080Y2387043D1*
X7694827Y2400160D1*
X7722307Y2409090D1*
X7750847Y2413610D1*
X7811960Y2414177D1*
X7939740Y2413610D1*
X7968280Y2409090D1*
X7995760Y2400160D1*
X8021507Y2387043D1*
X8033293Y2379167D1*
X8033260Y3244767D1*
X7581153Y3244697D1*
Y3281610D1*
X7564630Y3265483D1*
X7550603Y3255290D1*
X7535157Y3247420D1*
X7518667Y3242063D1*
X7501543Y3239350D1*
X7399540Y3239010D1*
X7366273D1*
X5388493Y4127840D2*
X5715340D1*
Y3933973D1*
X5904150Y3745103D1*
X5906010Y3745417D1*
Y4859493D1*
X5715183Y5050310D1*
X5713183Y5030360D1*
X5706770Y5003643D1*
X5696257Y4978260D1*
X5681900Y4954833D1*
X5664057Y4933943D1*
X5643167Y4916100D1*
X5619740Y4901743D1*
X5594357Y4891230D1*
X5567640Y4884817D1*
X5540250Y4882660D1*
X5512860Y4884817D1*
X5486143Y4891230D1*
X5460760Y4901743D1*
X5437333Y4916100D1*
X5416443Y4933943D1*
X5405680Y4945850D1*
X5145180D1*
X5128163Y4926133D1*
X5106190Y4907367D1*
X5081553Y4892270D1*
X5054860Y4881213D1*
X5026763Y4874467D1*
X4997957Y4872200D1*
X4837957D1*
X4809150Y4874467D1*
X4781053Y4881213D1*
X4754360Y4892270D1*
X4729723Y4907367D1*
X4707750Y4926133D1*
X4690837Y4945753D1*
X4641603Y4945760D1*
X4641590Y4918660D1*
X4406410D1*
Y5148620D1*
X4349077Y5148660D1*
X4348990Y3518753D1*
X4546090Y3518840D1*
Y3261753D1*
X4690517Y3261740D1*
X4707750Y3281547D1*
X4729723Y3300313D1*
X4754360Y3315410D1*
X4781053Y3326467D1*
X4809150Y3333213D1*
X4837957Y3335480D1*
X4997957D1*
X5026763Y3333213D1*
X5054860Y3326467D1*
X5081553Y3315410D1*
X5106190Y3300313D1*
X5128163Y3281547D1*
X5145147Y3261837D1*
X5403307Y3261830D1*
X5416443Y3276557D1*
X5437333Y3294400D1*
X5460760Y3308757D1*
X5486143Y3319270D1*
X5512860Y3325683D1*
X5540250Y3327840D1*
X5567640Y3325683D1*
X5594357Y3319270D1*
X5619740Y3308757D1*
X5643167Y3294400D1*
X5664057Y3276557D1*
X5681900Y3255667D1*
X5696257Y3232240D1*
X5706770Y3206857D1*
X5713183Y3180140D1*
X5715340Y3152750D1*
X5714163Y3133627D1*
X5715510Y3151643D1*
Y3621317D1*
X5559097Y3777647D1*
X5521290Y3777660D1*
X5509983Y3768150D1*
X5495200Y3759093D1*
X5479183Y3752457D1*
X5462323Y3748410D1*
X5445007Y3747050D1*
X5182083D1*
X5182097Y3673400D1*
X4653817D1*
Y4041680D1*
X5182097D1*
Y3967943D1*
X5365210Y3968030D1*
X5365160Y4127840D1*
X5388493D1*
X5504113Y8319603D2*
X5502507Y8306013D1*
X5704393Y8104113D1*
X5707967Y8123833D1*
X5717020Y8151693D1*
X5730320Y8177797D1*
X5747540Y8201497D1*
X5752787Y8207173D1*
X5738463Y8224517D1*
X5723157Y8249493D1*
X5711947Y8276560D1*
X5705110Y8305047D1*
X5702810Y8334250D1*
X5705110Y8363453D1*
X5711947Y8391940D1*
X5723157Y8419007D1*
X5735060Y8438890D1*
X5529660Y8438910D1*
Y8445927D1*
X5467550Y8446010D1*
X5477180Y8431797D1*
X5490480Y8405693D1*
X5499533Y8377833D1*
X5504113Y8348897D1*
Y8319603D1*
X5181287Y8207327D2*
X5167567Y8223753D1*
X4896997Y8223760D1*
X4883213Y8207327D1*
X4896933Y8190747D1*
X5167503Y8190740D1*
X5181287Y8207173D1*
Y7953327D2*
X5167567Y7969753D1*
X4896997Y7969760D1*
X4883213Y7953327D1*
X4896933Y7936747D1*
X5167503Y7936740D1*
X5181287Y7953173D1*
X5489447Y7752570D2*
X5477180Y7728703D1*
X5459960Y7705003D1*
X5454713Y7699327D1*
X5468420Y7682823D1*
X5481033Y7663210D1*
X5491100Y7642177D1*
X5498467Y7620053D1*
X5503017Y7597183D1*
X5504683Y7573923D1*
X5503757Y7553613D1*
X5499987Y7530603D1*
X5493373Y7508243D1*
X5484027Y7486880D1*
X5472090Y7466850D1*
X5457750Y7448463D1*
X5441227Y7432007D1*
X5422783Y7417740D1*
X5402703Y7405883D1*
X5391760Y7400763D1*
X5525023Y7267483D1*
X5525010Y7716903D1*
X5489507Y7752487D1*
X5181287Y7699327D2*
X5167567Y7715753D1*
X4896997Y7715760D1*
X4883213Y7699327D1*
X4896933Y7682747D1*
X5072670Y7682400D1*
X5089793Y7679687D1*
X5106283Y7674330D1*
X5121730Y7666460D1*
X5135757Y7656267D1*
X5146630Y7646317D1*
X5157200Y7667103D1*
X5170280Y7686407D1*
X5181163Y7699230D1*
X5562287Y9731327D2*
X5548567Y9747753D1*
X5468493Y9747760D1*
X5454713Y9731327D1*
X5468433Y9714747D1*
X5548507Y9714740D1*
X5562287Y9731173D1*
X5548567Y9968747D2*
X5566990Y9990260D1*
X5579687Y10001733D1*
X5467613Y10001760D1*
X5467590Y9970010D1*
X5481333Y9968740D1*
X5548507D1*
X5562287Y9477327D2*
X5548567Y9493753D1*
X5468493Y9493760D1*
X5454713Y9477327D1*
X5470530Y9457747D1*
X5487283Y9452330D1*
X5502730Y9444457D1*
X5516757Y9434267D1*
X5527630Y9424317D1*
X5538200Y9445103D1*
X5551280Y9464407D1*
X5562163Y9477230D1*
X5549560Y8984493D2*
X5539820Y8998703D1*
X5526520Y9024807D1*
X5517467Y9052667D1*
X5512887Y9081603D1*
Y9110897D1*
X5514493Y9124487D1*
X5499640Y9139353D1*
X5503583Y9116550D1*
X5504690Y9096250D1*
X5503233Y9072977D1*
X5498887Y9050067D1*
X5491720Y9027880D1*
X5481840Y9006757D1*
X5469407Y8987030D1*
X5467530Y8984497D1*
X5549477Y8984490D1*
X8109433Y10366247D2*
Y10179033D1*
X8143777Y10144607D1*
X8143750Y10366290D1*
X8109420Y10366250D1*
X7554560Y9467097D2*
X7537207Y9467773D1*
X7520023Y9469807D1*
X7503057Y9473180D1*
X7486403Y9477877D1*
X7470173Y9483867D1*
X7454460Y9491110D1*
X7439367Y9499563D1*
X7424980Y9509173D1*
X7411393Y9519887D1*
X7398690Y9531630D1*
X7386947Y9544333D1*
X7376233Y9557920D1*
X7366623Y9572307D1*
X7358170Y9587400D1*
X7350927Y9603113D1*
X7344937Y9619343D1*
X7340240Y9635997D1*
X7336867Y9652963D1*
X7334833Y9670147D1*
X7334153Y9687433D1*
X7334833Y9704720D1*
X7336867Y9721903D1*
X7340240Y9738870D1*
X7344937Y9755523D1*
X7350927Y9771753D1*
X7358170Y9787467D1*
X7366623Y9802560D1*
X7376233Y9816947D1*
X7386947Y9830533D1*
X7398690Y9843237D1*
X7411393Y9854980D1*
X7424980Y9865693D1*
X7439367Y9875303D1*
X7454460Y9883757D1*
X7470173Y9891000D1*
X7486403Y9896990D1*
X7503057Y9901687D1*
X7520023Y9905060D1*
X7537207Y9907093D1*
X7577827Y9907773D1*
X7714493D1*
X7731780Y9907093D1*
X7748963Y9905060D1*
X7765930Y9901687D1*
X7782583Y9896990D1*
X7798813Y9891000D1*
X7814527Y9883757D1*
X7829620Y9875303D1*
X7844007Y9865693D1*
X7857593Y9854980D1*
X7870297Y9843237D1*
X7882040Y9830533D1*
X7892753Y9816947D1*
X7902363Y9802560D1*
X7910817Y9787467D1*
X7918060Y9771753D1*
X7924050Y9755523D1*
X7928747Y9738870D1*
X7932120Y9721903D1*
X7934153Y9704720D1*
X7934833Y9687433D1*
X7934153Y9670147D1*
X7932120Y9652963D1*
X7928747Y9635997D1*
X7924050Y9619343D1*
X7918060Y9603113D1*
X7910817Y9587400D1*
X7902363Y9572307D1*
X7892753Y9557920D1*
X7882040Y9544333D1*
X7870297Y9531630D1*
X7857593Y9519887D1*
X7844007Y9509173D1*
X7829620Y9499563D1*
X7814527Y9491110D1*
X7798813Y9483867D1*
X7782583Y9477877D1*
X7765930Y9473180D1*
X7748963Y9469807D1*
X7731780Y9467773D1*
X7691160Y9467093D1*
X7554493Y9467183D1*
X7554560Y7752597D2*
X7537207Y7753273D1*
X7520023Y7755307D1*
X7503057Y7758680D1*
X7486403Y7763377D1*
X7470173Y7769367D1*
X7454460Y7776610D1*
X7439367Y7785063D1*
X7424980Y7794673D1*
X7411393Y7805387D1*
X7398690Y7817130D1*
X7386947Y7829833D1*
X7376233Y7843420D1*
X7366623Y7857807D1*
X7358170Y7872900D1*
X7350927Y7888613D1*
X7344937Y7904843D1*
X7340240Y7921497D1*
X7336867Y7938463D1*
X7334833Y7955647D1*
X7334153Y7972933D1*
X7334833Y7990220D1*
X7336867Y8007403D1*
X7340240Y8024370D1*
X7344937Y8041023D1*
X7350927Y8057253D1*
X7358170Y8072967D1*
X7366623Y8088060D1*
X7376233Y8102447D1*
X7386947Y8116033D1*
X7398690Y8128737D1*
X7411393Y8140480D1*
X7424980Y8151193D1*
X7439367Y8160803D1*
X7454460Y8169257D1*
X7470173Y8176500D1*
X7486403Y8182490D1*
X7503057Y8187187D1*
X7520023Y8190560D1*
X7537207Y8192593D1*
X7577827Y8193273D1*
X7714493D1*
X7731780Y8192593D1*
X7748963Y8190560D1*
X7765930Y8187187D1*
X7782583Y8182490D1*
X7798813Y8176500D1*
X7814527Y8169257D1*
X7829620Y8160803D1*
X7844007Y8151193D1*
X7857593Y8140480D1*
X7870297Y8128737D1*
X7882040Y8116033D1*
X7892753Y8102447D1*
X7902363Y8088060D1*
X7910817Y8072967D1*
X7918060Y8057253D1*
X7924050Y8041023D1*
X7928747Y8024370D1*
X7932120Y8007403D1*
X7934153Y7990220D1*
X7934833Y7972933D1*
X7934153Y7955647D1*
X7932120Y7938463D1*
X7928747Y7921497D1*
X7924050Y7904843D1*
X7918060Y7888613D1*
X7910817Y7872900D1*
X7902363Y7857807D1*
X7892753Y7843420D1*
X7882040Y7829833D1*
X7870297Y7817130D1*
X7857593Y7805387D1*
X7844007Y7794673D1*
X7829620Y7785063D1*
X7814527Y7776610D1*
X7798813Y7769367D1*
X7782583Y7763377D1*
X7765930Y7758680D1*
X7748963Y7755307D1*
X7731780Y7753273D1*
X7691160Y7752593D1*
X7554493Y7752683D1*
X7554560Y6038097D2*
X7537207Y6038773D1*
X7520023Y6040807D1*
X7503057Y6044180D1*
X7486403Y6048877D1*
X7470173Y6054867D1*
X7454460Y6062110D1*
X7439367Y6070563D1*
X7424980Y6080173D1*
X7411393Y6090887D1*
X7398690Y6102630D1*
X7386947Y6115333D1*
X7376233Y6128920D1*
X7366623Y6143307D1*
X7358170Y6158400D1*
X7350927Y6174113D1*
X7344937Y6190343D1*
X7340240Y6206997D1*
X7336867Y6223963D1*
X7334833Y6241147D1*
X7334153Y6258433D1*
X7334833Y6275720D1*
X7336867Y6292903D1*
X7340240Y6309870D1*
X7344937Y6326523D1*
X7350927Y6342753D1*
X7358170Y6358467D1*
X7366623Y6373560D1*
X7376233Y6387947D1*
X7386947Y6401533D1*
X7398690Y6414237D1*
X7411393Y6425980D1*
X7424980Y6436693D1*
X7439367Y6446303D1*
X7454460Y6454757D1*
X7470173Y6462000D1*
X7486403Y6467990D1*
X7503057Y6472687D1*
X7520023Y6476060D1*
X7537207Y6478093D1*
X7577827Y6478773D1*
X7714493D1*
X7731780Y6478093D1*
X7748963Y6476060D1*
X7765930Y6472687D1*
X7782583Y6467990D1*
X7798813Y6462000D1*
X7814527Y6454757D1*
X7829620Y6446303D1*
X7844007Y6436693D1*
X7857593Y6425980D1*
X7870297Y6414237D1*
X7882040Y6401533D1*
X7892753Y6387947D1*
X7902363Y6373560D1*
X7910817Y6358467D1*
X7918060Y6342753D1*
X7924050Y6326523D1*
X7928747Y6309870D1*
X7932120Y6292903D1*
X7934153Y6275720D1*
X7934833Y6258433D1*
X7934153Y6241147D1*
X7932120Y6223963D1*
X7928747Y6206997D1*
X7924050Y6190343D1*
X7918060Y6174113D1*
X7910817Y6158400D1*
X7902363Y6143307D1*
X7892753Y6128920D1*
X7882040Y6115333D1*
X7870297Y6102630D1*
X7857593Y6090887D1*
X7844007Y6080173D1*
X7829620Y6070563D1*
X7814527Y6062110D1*
X7798813Y6054867D1*
X7782583Y6048877D1*
X7765930Y6044180D1*
X7748963Y6040807D1*
X7731780Y6038773D1*
X7691160Y6038093D1*
X7554493Y6038183D1*
X7554560Y4323600D2*
X7537207Y4324277D1*
X7520023Y4326310D1*
X7503057Y4329683D1*
X7486403Y4334380D1*
X7470173Y4340370D1*
X7454460Y4347613D1*
X7439367Y4356067D1*
X7424980Y4365677D1*
X7411393Y4376390D1*
X7398690Y4388133D1*
X7386947Y4400837D1*
X7376233Y4414423D1*
X7366623Y4428810D1*
X7358170Y4443903D1*
X7350927Y4459617D1*
X7344937Y4475847D1*
X7340240Y4492500D1*
X7336867Y4509467D1*
X7334833Y4526650D1*
X7334153Y4543937D1*
X7334833Y4561223D1*
X7336867Y4578407D1*
X7340240Y4595373D1*
X7344937Y4612027D1*
X7350927Y4628257D1*
X7358170Y4643970D1*
X7366623Y4659063D1*
X7376233Y4673450D1*
X7386947Y4687037D1*
X7398690Y4699740D1*
X7411393Y4711483D1*
X7424980Y4722197D1*
X7439367Y4731807D1*
X7454460Y4740260D1*
X7470173Y4747503D1*
X7486403Y4753493D1*
X7503057Y4758190D1*
X7520023Y4761563D1*
X7537207Y4763597D1*
X7577827Y4764277D1*
X7714493D1*
X7731780Y4763597D1*
X7748963Y4761563D1*
X7765930Y4758190D1*
X7782583Y4753493D1*
X7798813Y4747503D1*
X7814527Y4740260D1*
X7829620Y4731807D1*
X7844007Y4722197D1*
X7857593Y4711483D1*
X7870297Y4699740D1*
X7882040Y4687037D1*
X7892753Y4673450D1*
X7902363Y4659063D1*
X7910817Y4643970D1*
X7918060Y4628257D1*
X7924050Y4612027D1*
X7928747Y4595373D1*
X7932120Y4578407D1*
X7934153Y4561223D1*
X7934833Y4543937D1*
X7934153Y4526650D1*
X7932120Y4509467D1*
X7928747Y4492500D1*
X7924050Y4475847D1*
X7918060Y4459617D1*
X7910817Y4443903D1*
X7902363Y4428810D1*
X7892753Y4414423D1*
X7882040Y4400837D1*
X7870297Y4388133D1*
X7857593Y4376390D1*
X7844007Y4365677D1*
X7829620Y4356067D1*
X7814527Y4347613D1*
X7798813Y4340370D1*
X7782583Y4334380D1*
X7765930Y4329683D1*
X7748963Y4326310D1*
X7731780Y4324277D1*
X7691160Y4323597D1*
X7554493Y4323687D1*
X7554560Y2609100D2*
X7537207Y2609777D1*
X7520023Y2611810D1*
X7503057Y2615183D1*
X7486403Y2619880D1*
X7470173Y2625870D1*
X7454460Y2633113D1*
X7439367Y2641567D1*
X7424980Y2651177D1*
X7411393Y2661890D1*
X7398690Y2673633D1*
X7386947Y2686337D1*
X7376233Y2699923D1*
X7366623Y2714310D1*
X7358170Y2729403D1*
X7350927Y2745117D1*
X7344937Y2761347D1*
X7340240Y2778000D1*
X7336867Y2794967D1*
X7334833Y2812150D1*
X7334153Y2829437D1*
X7334833Y2846723D1*
X7336867Y2863907D1*
X7340240Y2880873D1*
X7344937Y2897527D1*
X7350927Y2913757D1*
X7358170Y2929470D1*
X7366623Y2944563D1*
X7376233Y2958950D1*
X7386947Y2972537D1*
X7398690Y2985240D1*
X7411393Y2996983D1*
X7424980Y3007697D1*
X7439367Y3017307D1*
X7454460Y3025760D1*
X7470173Y3033003D1*
X7486403Y3038993D1*
X7503057Y3043690D1*
X7520023Y3047063D1*
X7537207Y3049097D1*
X7577827Y3049777D1*
X7714493D1*
X7731780Y3049097D1*
X7748963Y3047063D1*
X7765930Y3043690D1*
X7782583Y3038993D1*
X7798813Y3033003D1*
X7814527Y3025760D1*
X7829620Y3017307D1*
X7844007Y3007697D1*
X7857593Y2996983D1*
X7870297Y2985240D1*
X7882040Y2972537D1*
X7892753Y2958950D1*
X7902363Y2944563D1*
X7910817Y2929470D1*
X7918060Y2913757D1*
X7924050Y2897527D1*
X7928747Y2880873D1*
X7932120Y2863907D1*
X7934153Y2846723D1*
X7934833Y2829437D1*
X7934153Y2812150D1*
X7932120Y2794967D1*
X7928747Y2778000D1*
X7924050Y2761347D1*
X7918060Y2745117D1*
X7910817Y2729403D1*
X7902363Y2714310D1*
X7892753Y2699923D1*
X7882040Y2686337D1*
X7870297Y2673633D1*
X7857593Y2661890D1*
X7844007Y2651177D1*
X7829620Y2641567D1*
X7814527Y2633113D1*
X7798813Y2625870D1*
X7782583Y2619880D1*
X7765930Y2615183D1*
X7748963Y2611810D1*
X7731780Y2609777D1*
X7691160Y2609097D1*
X7554493Y2609187D1*
X5048823Y4236603D2*
X5031470Y4237280D1*
X5014287Y4239313D1*
X4997320Y4242687D1*
X4980667Y4247383D1*
X4964437Y4253373D1*
X4948723Y4260617D1*
X4933630Y4269070D1*
X4919243Y4278680D1*
X4905657Y4289393D1*
X4892953Y4301137D1*
X4881210Y4313840D1*
X4870497Y4327427D1*
X4860887Y4341813D1*
X4852433Y4356907D1*
X4845190Y4372620D1*
X4839200Y4388850D1*
X4834503Y4405503D1*
X4831130Y4422470D1*
X4829097Y4439653D1*
X4828417Y4456940D1*
X4829097Y4474227D1*
X4831130Y4491410D1*
X4834503Y4508377D1*
X4839200Y4525030D1*
X4845190Y4541260D1*
X4852433Y4556973D1*
X4860887Y4572067D1*
X4870497Y4586453D1*
X4881210Y4600040D1*
X4892953Y4612743D1*
X4905657Y4624487D1*
X4919243Y4635200D1*
X4933630Y4644810D1*
X4948723Y4653263D1*
X4964437Y4660507D1*
X4980667Y4666497D1*
X4997320Y4671193D1*
X5014287Y4674567D1*
X5031470Y4676600D1*
X5072090Y4677280D1*
X5208757D1*
X5226043Y4676600D1*
X5243227Y4674567D1*
X5260193Y4671193D1*
X5276847Y4666497D1*
X5293077Y4660507D1*
X5308790Y4653263D1*
X5323883Y4644810D1*
X5338270Y4635200D1*
X5351857Y4624487D1*
X5364560Y4612743D1*
X5376303Y4600040D1*
X5387017Y4586453D1*
X5396627Y4572067D1*
X5405080Y4556973D1*
X5412323Y4541260D1*
X5418313Y4525030D1*
X5423010Y4508377D1*
X5426383Y4491410D1*
X5428417Y4474227D1*
X5429097Y4456940D1*
X5428417Y4439653D1*
X5426383Y4422470D1*
X5423010Y4405503D1*
X5418313Y4388850D1*
X5412323Y4372620D1*
X5405080Y4356907D1*
X5396627Y4341813D1*
X5387017Y4327427D1*
X5376303Y4313840D1*
X5364560Y4301137D1*
X5351857Y4289393D1*
X5338270Y4278680D1*
X5323883Y4269070D1*
X5308790Y4260617D1*
X5293077Y4253373D1*
X5276847Y4247383D1*
X5260193Y4242687D1*
X5243227Y4239313D1*
X5226043Y4237280D1*
X5185423Y4236600D1*
X5048757Y4236690D1*
X3618807Y1768363D2*
X3589943Y1770627D1*
X3561847Y1777373D1*
X3535153Y1788430D1*
X3510517Y1803527D1*
X3488543Y1822293D1*
X3469777Y1844267D1*
X3454680Y1868903D1*
X3443623Y1895597D1*
X3436877Y1923693D1*
X3434610Y1952500D1*
X3436877Y1981307D1*
X3443623Y2009403D1*
X3454680Y2036097D1*
X3469777Y2060733D1*
X3488543Y2082707D1*
X3510517Y2101473D1*
X3535153Y2116570D1*
X3561847Y2127627D1*
X3589943Y2134373D1*
X3618807Y2136637D1*
X3793197Y2136073D1*
X3821737Y2131553D1*
X3849217Y2122623D1*
X3874963Y2109507D1*
X3898340Y2092520D1*
X3918770Y2072090D1*
X3935757Y2048713D1*
X3948873Y2022967D1*
X3957803Y1995487D1*
X3962323Y1966947D1*
Y1938053D1*
X3957803Y1909513D1*
X3948873Y1882033D1*
X3935757Y1856287D1*
X3918770Y1832910D1*
X3898340Y1812480D1*
X3874963Y1795493D1*
X3849217Y1782377D1*
X3821737Y1773447D1*
X3793197Y1768927D1*
X3732083Y1768360D1*
X3618750Y1768450D1*
X5048823Y2331603D2*
X5031470Y2332280D1*
X5014287Y2334313D1*
X4997320Y2337687D1*
X4980667Y2342383D1*
X4964437Y2348373D1*
X4948723Y2355617D1*
X4933630Y2364070D1*
X4919243Y2373680D1*
X4905657Y2384393D1*
X4892953Y2396137D1*
X4881210Y2408840D1*
X4870497Y2422427D1*
X4860887Y2436813D1*
X4852433Y2451907D1*
X4845190Y2467620D1*
X4839200Y2483850D1*
X4834503Y2500503D1*
X4831130Y2517470D1*
X4829097Y2534653D1*
X4828417Y2551940D1*
X4829097Y2569227D1*
X4831130Y2586410D1*
X4834503Y2603377D1*
X4839200Y2620030D1*
X4845190Y2636260D1*
X4852433Y2651973D1*
X4860887Y2667067D1*
X4870497Y2681453D1*
X4881210Y2695040D1*
X4892953Y2707743D1*
X4905657Y2719487D1*
X4919243Y2730200D1*
X4933630Y2739810D1*
X4948723Y2748263D1*
X4964437Y2755507D1*
X4980667Y2761497D1*
X4997320Y2766193D1*
X5014287Y2769567D1*
X5031470Y2771600D1*
X5072090Y2772280D1*
X5208757D1*
X5226043Y2771600D1*
X5243227Y2769567D1*
X5260193Y2766193D1*
X5276847Y2761497D1*
X5293077Y2755507D1*
X5308790Y2748263D1*
X5323883Y2739810D1*
X5338270Y2730200D1*
X5351857Y2719487D1*
X5364560Y2707743D1*
X5376303Y2695040D1*
X5387017Y2681453D1*
X5396627Y2667067D1*
X5405080Y2651973D1*
X5412323Y2636260D1*
X5418313Y2620030D1*
X5423010Y2603377D1*
X5426383Y2586410D1*
X5428417Y2569227D1*
X5429097Y2551940D1*
X5428417Y2534653D1*
X5426383Y2517470D1*
X5423010Y2500503D1*
X5418313Y2483850D1*
X5412323Y2467620D1*
X5405080Y2451907D1*
X5396627Y2436813D1*
X5387017Y2422427D1*
X5376303Y2408840D1*
X5364560Y2396137D1*
X5351857Y2384393D1*
X5338270Y2373680D1*
X5323883Y2364070D1*
X5308790Y2355617D1*
X5293077Y2348373D1*
X5276847Y2342383D1*
X5260193Y2337687D1*
X5243227Y2334313D1*
X5226043Y2332280D1*
X5185423Y2331600D1*
X5048757Y2331690D1*
X5181287Y9731327D2*
X5167567Y9747753D1*
X4896997Y9747760D1*
X4883213Y9731327D1*
X4896933Y9714747D1*
X5167503Y9714740D1*
X5181287Y9731173D1*
Y9477327D2*
X5167567Y9493753D1*
X4896997Y9493760D1*
X4883213Y9477327D1*
X4897537Y9459983D1*
X4912843Y9435007D1*
X4924053Y9407940D1*
X4930890Y9379453D1*
X4933190Y9350250D1*
X4930890Y9321047D1*
X4928133Y9307173D1*
X5055743Y9434267D1*
X5069770Y9444460D1*
X5085217Y9452330D1*
X5101707Y9457687D1*
X5118830Y9460400D1*
X5167513Y9460740D1*
X5181287Y9477173D1*
Y9223327D2*
X5170050Y9236603D1*
X4945257Y9012233D1*
X4931230Y9002043D1*
X4915783Y8994170D1*
X4899260Y8988807D1*
X4883213Y8969327D1*
X4897537Y8951983D1*
X4912843Y8927007D1*
X4924053Y8899940D1*
X4930890Y8871453D1*
X4933190Y8842250D1*
X4930890Y8813047D1*
X4924053Y8784560D1*
X4912843Y8757493D1*
X4905987Y8745253D1*
X5119243Y8958017D1*
X5133270Y8968210D1*
X5148717Y8976080D1*
X5165240Y8981443D1*
X5168470Y8984473D1*
X5155703Y9003987D1*
X5145467Y9024940D1*
X5137923Y9047003D1*
X5133187Y9069837D1*
X5131337Y9093080D1*
X5132397Y9116373D1*
X5136353Y9139353D1*
X5143143Y9161660D1*
X5152663Y9182950D1*
X5164760Y9202883D1*
X5179247Y9221153D1*
X5181163Y9223230D1*
X6158693Y10806083D2*
X6157090Y10782813D1*
X6153213Y10759817D1*
X6147100Y10737307D1*
X6138807Y10715507D1*
X6128413Y10694627D1*
X6116023Y10674867D1*
X6101757Y10656417D1*
X6085747Y10639453D1*
X6068150Y10624143D1*
X6049137Y10610633D1*
X6028890Y10599053D1*
X6007607Y10589517D1*
X5985487Y10582113D1*
X5962750Y10576913D1*
X5939613Y10573970D1*
X5916300Y10573310D1*
X5893033Y10574943D1*
X5870037Y10578847D1*
X5847537Y10584990D1*
X5825747Y10593310D1*
X5804877Y10603727D1*
X5785133Y10616140D1*
X5766700Y10630430D1*
X5749757Y10646460D1*
X5734467Y10664073D1*
X5720980Y10683103D1*
X5709427Y10703363D1*
X5699913Y10724660D1*
X5692537Y10746787D1*
X5687363Y10769530D1*
X5684450Y10792670D1*
X5683817Y10815987D1*
X5685477Y10839250D1*
X5689410Y10862240D1*
X5695577Y10884733D1*
X5703923Y10906513D1*
X5714367Y10927370D1*
X5726803Y10947100D1*
X5741117Y10965517D1*
X5757167Y10982440D1*
X5774797Y10997707D1*
X5793843Y11011173D1*
X5814117Y11022703D1*
X5835427Y11032190D1*
X5857560Y11039540D1*
X5880310Y11044683D1*
X5903453Y11047573D1*
X5926770Y11048177D1*
X5950033Y11046490D1*
X5973020Y11042530D1*
X5995507Y11036333D1*
X6017273Y11027960D1*
X6038117Y11017493D1*
X6057833Y11005033D1*
X6076233Y10990700D1*
X6093137Y10974630D1*
X6108383Y10956977D1*
X6121827Y10937917D1*
X6133330Y10917627D1*
X6142793Y10896310D1*
X6150117Y10874163D1*
X6155233Y10851410D1*
X6158093Y10828260D1*
X6158693Y10806083D1*
X6747430Y9810600D2*
X6765447Y9789477D1*
X6780210Y9765383D1*
X6791027Y9739273D1*
X6795003Y9724960D1*
X6795010Y9835090D1*
X6767817Y9835160D1*
X6754480Y9818123D1*
X6747423Y9810623D1*
X5529660Y8667047D2*
Y8763497D1*
X5236683Y8763510D1*
X4977007Y8504233D1*
X4962980Y8494040D1*
X4947533Y8486170D1*
X4931043Y8480813D1*
X4913920Y8478100D1*
X4896957Y8477760D1*
X4883213Y8461327D1*
X4896933Y8444747D1*
X5167503Y8444740D1*
X5166767Y8453777D1*
X5151777Y8468767D1*
X5139317Y8485917D1*
X5129693Y8504803D1*
X5123143Y8524963D1*
X5119827Y8545900D1*
Y8567100D1*
X5123143Y8588037D1*
X5129693Y8608197D1*
X5139317Y8627083D1*
X5151777Y8644233D1*
X5166767Y8659223D1*
X5183917Y8671683D1*
X5202803Y8681307D1*
X5222963Y8687857D1*
X5243900Y8691173D1*
X5265100D1*
X5286037Y8687857D1*
X5306197Y8681307D1*
X5325083Y8671683D1*
X5332077Y8667010D1*
X5529670Y8666990D1*
X6747430Y8096100D2*
X6765447Y8074977D1*
X6780210Y8050883D1*
X6791027Y8024773D1*
X6795003Y8010460D1*
X6795010Y8120743D1*
X6767817Y8120660D1*
X6754480Y8103623D1*
X6747423Y8096123D1*
X6779180Y6381600D2*
X6797197Y6360477D1*
X6811960Y6336383D1*
X6822777Y6310273D1*
X6826753Y6295960D1*
X6826760Y6437993D1*
X6817067Y6437910D1*
X6807940Y6419413D1*
X6797870Y6403703D1*
X6786230Y6389123D1*
X6779173Y6381623D1*
X6779180Y4667103D2*
X6797197Y4645980D1*
X6811960Y4621887D1*
X6822777Y4595777D1*
X6826510Y4582540D1*
Y4751680D1*
X6819870Y4730217D1*
X6812353Y4713140D1*
X6803110Y4696930D1*
X6792240Y4681767D1*
X6779173Y4667127D1*
X6779180Y2952603D2*
X6797197Y2931480D1*
X6811960Y2907387D1*
X6822777Y2881277D1*
X6826510Y2868040D1*
Y3009107D1*
X6816333Y3007080D1*
X6807940Y2990417D1*
X6797870Y2974707D1*
X6786230Y2960127D1*
X6779173Y2952627D1*
X4977410Y10222657D2*
Y10255833D1*
X4896993Y10255760D1*
X4883213Y10239327D1*
X4896933Y10222747D1*
X4977373Y10222740D1*
X4977410Y9968657D2*
Y10001833D1*
X4896993Y10001760D1*
X4883213Y9985327D1*
X4896933Y9968747D1*
X4977373Y9968740D1*
X2697257Y4759617D2*
X2695067Y4741100D1*
X2691427Y4722810D1*
X2686367Y4704860D1*
X2679913Y4687367D1*
X2672107Y4670433D1*
X2662993Y4654163D1*
X2652633Y4638657D1*
X2641090Y4624013D1*
X2628430Y4610320D1*
X2614737Y4597660D1*
X2600093Y4586117D1*
X2584587Y4575757D1*
X2568317Y4566643D1*
X2551383Y4558837D1*
X2533890Y4552383D1*
X2515940Y4547323D1*
X2497650Y4543683D1*
X2479133Y4541493D1*
X2460500Y4540760D1*
X2441867Y4541493D1*
X2423350Y4543683D1*
X2405060Y4547323D1*
X2387110Y4552383D1*
X2369617Y4558837D1*
X2352683Y4566643D1*
X2336413Y4575757D1*
X2320907Y4586117D1*
X2306263Y4597660D1*
X2292570Y4610320D1*
X2279910Y4624013D1*
X2268367Y4638657D1*
X2258007Y4654163D1*
X2248893Y4670433D1*
X2241087Y4687367D1*
X2234633Y4704860D1*
X2229573Y4722810D1*
X2225933Y4741100D1*
X2223743Y4759617D1*
X2223010Y4778250D1*
X2223743Y4796883D1*
X2225933Y4815400D1*
X2229573Y4833690D1*
X2234633Y4851640D1*
X2241087Y4869133D1*
X2248893Y4886067D1*
X2258007Y4902337D1*
X2268367Y4917843D1*
X2279910Y4932487D1*
X2292570Y4946180D1*
X2306263Y4958840D1*
X2320907Y4970383D1*
X2336413Y4980743D1*
X2352683Y4989857D1*
X2369617Y4997663D1*
X2387110Y5004117D1*
X2405060Y5009177D1*
X2423350Y5012817D1*
X2441867Y5015007D1*
X2460500Y5015740D1*
X2479133Y5015007D1*
X2497650Y5012817D1*
X2515940Y5009177D1*
X2533890Y5004117D1*
X2551383Y4997663D1*
X2568317Y4989857D1*
X2584587Y4980743D1*
X2600093Y4970383D1*
X2614737Y4958840D1*
X2628430Y4946180D1*
X2641090Y4932487D1*
X2652633Y4917843D1*
X2662993Y4902337D1*
X2672107Y4886067D1*
X2679913Y4869133D1*
X2686367Y4851640D1*
X2691427Y4833690D1*
X2695067Y4815400D1*
X2697257Y4796883D1*
X2697990Y4778250D1*
X2697257Y4759617D1*
Y3809617D2*
X2695067Y3791100D1*
X2691427Y3772810D1*
X2686367Y3754860D1*
X2679913Y3737367D1*
X2672107Y3720433D1*
X2662993Y3704163D1*
X2652633Y3688657D1*
X2641090Y3674013D1*
X2628430Y3660320D1*
X2614737Y3647660D1*
X2600093Y3636117D1*
X2584587Y3625757D1*
X2568317Y3616643D1*
X2551383Y3608837D1*
X2533890Y3602383D1*
X2515940Y3597323D1*
X2497650Y3593683D1*
X2479133Y3591493D1*
X2460500Y3590760D1*
X2441867Y3591493D1*
X2423350Y3593683D1*
X2405060Y3597323D1*
X2387110Y3602383D1*
X2369617Y3608837D1*
X2352683Y3616643D1*
X2336413Y3625757D1*
X2320907Y3636117D1*
X2306263Y3647660D1*
X2292570Y3660320D1*
X2279910Y3674013D1*
X2268367Y3688657D1*
X2258007Y3704163D1*
X2248893Y3720433D1*
X2241087Y3737367D1*
X2234633Y3754860D1*
X2229573Y3772810D1*
X2225933Y3791100D1*
X2223743Y3809617D1*
X2223010Y3828250D1*
X2223743Y3846883D1*
X2225933Y3865400D1*
X2229573Y3883690D1*
X2234633Y3901640D1*
X2241087Y3919133D1*
X2248893Y3936067D1*
X2258007Y3952337D1*
X2268367Y3967843D1*
X2279910Y3982487D1*
X2292570Y3996180D1*
X2306263Y4008840D1*
X2320907Y4020383D1*
X2336413Y4030743D1*
X2352683Y4039857D1*
X2369617Y4047663D1*
X2387110Y4054117D1*
X2405060Y4059177D1*
X2423350Y4062817D1*
X2441867Y4065007D1*
X2460500Y4065740D1*
X2479133Y4065007D1*
X2497650Y4062817D1*
X2515940Y4059177D1*
X2533890Y4054117D1*
X2551383Y4047663D1*
X2568317Y4039857D1*
X2584587Y4030743D1*
X2600093Y4020383D1*
X2614737Y4008840D1*
X2628430Y3996180D1*
X2641090Y3982487D1*
X2652633Y3967843D1*
X2662993Y3952337D1*
X2672107Y3936067D1*
X2679913Y3919133D1*
X2686367Y3901640D1*
X2691427Y3883690D1*
X2695067Y3865400D1*
X2697257Y3846883D1*
X2697990Y3828250D1*
X2697257Y3809617D1*
Y2859617D2*
X2695067Y2841100D1*
X2691427Y2822810D1*
X2686367Y2804860D1*
X2679913Y2787367D1*
X2672107Y2770433D1*
X2662993Y2754163D1*
X2652633Y2738657D1*
X2641090Y2724013D1*
X2628430Y2710320D1*
X2614737Y2697660D1*
X2600093Y2686117D1*
X2584587Y2675757D1*
X2568317Y2666643D1*
X2551383Y2658837D1*
X2533890Y2652383D1*
X2515940Y2647323D1*
X2497650Y2643683D1*
X2479133Y2641493D1*
X2460500Y2640760D1*
X2441867Y2641493D1*
X2423350Y2643683D1*
X2405060Y2647323D1*
X2387110Y2652383D1*
X2369617Y2658837D1*
X2352683Y2666643D1*
X2336413Y2675757D1*
X2320907Y2686117D1*
X2306263Y2697660D1*
X2292570Y2710320D1*
X2279910Y2724013D1*
X2268367Y2738657D1*
X2258007Y2754163D1*
X2248893Y2770433D1*
X2241087Y2787367D1*
X2234633Y2804860D1*
X2229573Y2822810D1*
X2225933Y2841100D1*
X2223743Y2859617D1*
X2223010Y2878250D1*
X2223743Y2896883D1*
X2225933Y2915400D1*
X2229573Y2933690D1*
X2234633Y2951640D1*
X2241087Y2969133D1*
X2248893Y2986067D1*
X2258007Y3002337D1*
X2268367Y3017843D1*
X2279910Y3032487D1*
X2292570Y3046180D1*
X2306263Y3058840D1*
X2320907Y3070383D1*
X2336413Y3080743D1*
X2352683Y3089857D1*
X2369617Y3097663D1*
X2387110Y3104117D1*
X2405060Y3109177D1*
X2423350Y3112817D1*
X2441867Y3115007D1*
X2460500Y3115740D1*
X2479133Y3115007D1*
X2497650Y3112817D1*
X2515940Y3109177D1*
X2533890Y3104117D1*
X2551383Y3097663D1*
X2568317Y3089857D1*
X2584587Y3080743D1*
X2600093Y3070383D1*
X2614737Y3058840D1*
X2628430Y3046180D1*
X2641090Y3032487D1*
X2652633Y3017843D1*
X2662993Y3002337D1*
X2672107Y2986067D1*
X2679913Y2969133D1*
X2686367Y2951640D1*
X2691427Y2933690D1*
X2695067Y2915400D1*
X2697257Y2896883D1*
X2697990Y2878250D1*
X2697257Y2859617D1*
Y1909617D2*
X2695067Y1891100D1*
X2691427Y1872810D1*
X2686367Y1854860D1*
X2679913Y1837367D1*
X2672107Y1820433D1*
X2662993Y1804163D1*
X2652633Y1788657D1*
X2641090Y1774013D1*
X2628430Y1760320D1*
X2614737Y1747660D1*
X2600093Y1736117D1*
X2584587Y1725757D1*
X2568317Y1716643D1*
X2551383Y1708837D1*
X2533890Y1702383D1*
X2515940Y1697323D1*
X2497650Y1693683D1*
X2479133Y1691493D1*
X2460500Y1690760D1*
X2441867Y1691493D1*
X2423350Y1693683D1*
X2405060Y1697323D1*
X2387110Y1702383D1*
X2369617Y1708837D1*
X2352683Y1716643D1*
X2336413Y1725757D1*
X2320907Y1736117D1*
X2306263Y1747660D1*
X2292570Y1760320D1*
X2279910Y1774013D1*
X2268367Y1788657D1*
X2258007Y1804163D1*
X2248893Y1820433D1*
X2241087Y1837367D1*
X2234633Y1854860D1*
X2229573Y1872810D1*
X2225933Y1891100D1*
X2223743Y1909617D1*
X2223010Y1928250D1*
X2223743Y1946883D1*
X2225933Y1965400D1*
X2229573Y1983690D1*
X2234633Y2001640D1*
X2241087Y2019133D1*
X2248893Y2036067D1*
X2258007Y2052337D1*
X2268367Y2067843D1*
X2279910Y2082487D1*
X2292570Y2096180D1*
X2306263Y2108840D1*
X2320907Y2120383D1*
X2336413Y2130743D1*
X2352683Y2139857D1*
X2369617Y2147663D1*
X2387110Y2154117D1*
X2405060Y2159177D1*
X2423350Y2162817D1*
X2441867Y2165007D1*
X2460500Y2165740D1*
X2479133Y2165007D1*
X2497650Y2162817D1*
X2515940Y2159177D1*
X2533890Y2154117D1*
X2551383Y2147663D1*
X2568317Y2139857D1*
X2584587Y2130743D1*
X2600093Y2120383D1*
X2614737Y2108840D1*
X2628430Y2096180D1*
X2641090Y2082487D1*
X2652633Y2067843D1*
X2662993Y2052337D1*
X2672107Y2036067D1*
X2679913Y2019133D1*
X2686367Y2001640D1*
X2691427Y1983690D1*
X2695067Y1965400D1*
X2697257Y1946883D1*
X2697990Y1928250D1*
X2697257Y1909617D1*
X4609787Y9477327D2*
X4595463Y9494517D1*
X4580157Y9519493D1*
X4568947Y9546560D1*
X4562110Y9575047D1*
X4559810Y9604250D1*
X4562110Y9633453D1*
X4568947Y9661940D1*
X4580157Y9689007D1*
X4595463Y9713983D1*
X4609787Y9731173D1*
X4595463Y9748517D1*
X4580157Y9773493D1*
X4568947Y9800560D1*
X4562110Y9829047D1*
X4559810Y9858250D1*
X4562110Y9887453D1*
X4568947Y9915940D1*
X4580157Y9943007D1*
X4595463Y9967983D1*
X4609787Y9985173D1*
X4596067Y10001753D1*
X4569950Y10001760D1*
X4349027Y9780770D1*
X4348990Y7743727D1*
X4515993Y7910267D1*
X4530020Y7920460D1*
X4545467Y7928330D1*
X4561957Y7933687D1*
X4579080Y7936400D1*
X4596043Y7936740D1*
X4609787Y7953173D1*
X4595463Y7970517D1*
X4580157Y7995493D1*
X4568947Y8022560D1*
X4562110Y8051047D1*
X4559810Y8080250D1*
X4562110Y8109453D1*
X4568947Y8137940D1*
X4580157Y8165007D1*
X4595463Y8189983D1*
X4609787Y8207173D1*
X4595463Y8224517D1*
X4580157Y8249493D1*
X4568947Y8276560D1*
X4562110Y8305047D1*
X4559810Y8334250D1*
X4562110Y8363453D1*
X4568947Y8391940D1*
X4580157Y8419007D1*
X4595463Y8443983D1*
X4609787Y8461173D1*
X4595463Y8478517D1*
X4580157Y8503493D1*
X4568947Y8530560D1*
X4562110Y8559047D1*
X4559810Y8588250D1*
X4562110Y8617453D1*
X4568947Y8645940D1*
X4580157Y8673007D1*
X4595463Y8697983D1*
X4609787Y8715173D1*
X4595463Y8732517D1*
X4580157Y8757493D1*
X4568947Y8784560D1*
X4562110Y8813047D1*
X4559810Y8842250D1*
X4562110Y8871453D1*
X4568947Y8899940D1*
X4580157Y8927007D1*
X4595463Y8951983D1*
X4609787Y8969173D1*
X4595463Y8986517D1*
X4580157Y9011493D1*
X4568947Y9038560D1*
X4562110Y9067047D1*
X4559810Y9096250D1*
X4562110Y9125453D1*
X4568947Y9153940D1*
X4580157Y9181007D1*
X4595463Y9205983D1*
X4609787Y9223173D1*
X4595463Y9240517D1*
X4580157Y9265493D1*
X4568947Y9292560D1*
X4562110Y9321047D1*
X4559810Y9350250D1*
X4562110Y9379453D1*
X4568947Y9407940D1*
X4580157Y9435007D1*
X4595463Y9459983D1*
X4609787Y9477173D1*
X2624993Y6168840D2*
X3068327D1*
X3096840Y6144687D1*
Y5783660D1*
X2601660D1*
Y6168840D1*
X2624993D1*
X2030507Y3616617D2*
X2028317Y3598100D1*
X2024677Y3579810D1*
X2019617Y3561860D1*
X2013163Y3544367D1*
X2005357Y3527433D1*
X1996243Y3511163D1*
X1985883Y3495657D1*
X1974340Y3481013D1*
X1961680Y3467320D1*
X1947987Y3454660D1*
X1933343Y3443117D1*
X1917837Y3432757D1*
X1901567Y3423643D1*
X1884633Y3415837D1*
X1867140Y3409383D1*
X1849190Y3404323D1*
X1830900Y3400683D1*
X1812383Y3398493D1*
X1793750Y3397760D1*
X1775117Y3398493D1*
X1756600Y3400683D1*
X1738310Y3404323D1*
X1720360Y3409383D1*
X1702867Y3415837D1*
X1685933Y3423643D1*
X1669663Y3432757D1*
X1654157Y3443117D1*
X1639513Y3454660D1*
X1625820Y3467320D1*
X1613160Y3481013D1*
X1601617Y3495657D1*
X1591257Y3511163D1*
X1582143Y3527433D1*
X1574337Y3544367D1*
X1567883Y3561860D1*
X1562823Y3579810D1*
X1559183Y3598100D1*
X1556993Y3616617D1*
X1556260Y3635250D1*
X1556993Y3653883D1*
X1559183Y3672400D1*
X1562823Y3690690D1*
X1567883Y3708640D1*
X1574337Y3726133D1*
X1582143Y3743067D1*
X1591257Y3759337D1*
X1601617Y3774843D1*
X1613160Y3789487D1*
X1625820Y3803180D1*
X1639513Y3815840D1*
X1654157Y3827383D1*
X1669663Y3837743D1*
X1685933Y3846857D1*
X1702867Y3854663D1*
X1720360Y3861117D1*
X1738310Y3866177D1*
X1756600Y3869817D1*
X1775117Y3872007D1*
X1793750Y3872740D1*
X1812383Y3872007D1*
X1830900Y3869817D1*
X1849190Y3866177D1*
X1867140Y3861117D1*
X1884633Y3854663D1*
X1901567Y3846857D1*
X1917837Y3837743D1*
X1933343Y3827383D1*
X1947987Y3815840D1*
X1961680Y3803180D1*
X1974340Y3789487D1*
X1985883Y3774843D1*
X1996243Y3759337D1*
X2005357Y3743067D1*
X2013163Y3726133D1*
X2019617Y3708640D1*
X2024677Y3690690D1*
X2028317Y3672400D1*
X2030507Y3653883D1*
X2031240Y3635250D1*
X2030507Y3616617D1*
Y4116617D2*
X2028317Y4098100D1*
X2024677Y4079810D1*
X2019617Y4061860D1*
X2013163Y4044367D1*
X2005357Y4027433D1*
X1996243Y4011163D1*
X1985883Y3995657D1*
X1974340Y3981013D1*
X1961680Y3967320D1*
X1947987Y3954660D1*
X1933343Y3943117D1*
X1917837Y3932757D1*
X1901567Y3923643D1*
X1884633Y3915837D1*
X1867140Y3909383D1*
X1849190Y3904323D1*
X1830900Y3900683D1*
X1812383Y3898493D1*
X1793750Y3897760D1*
X1775117Y3898493D1*
X1756600Y3900683D1*
X1738310Y3904323D1*
X1720360Y3909383D1*
X1702867Y3915837D1*
X1685933Y3923643D1*
X1669663Y3932757D1*
X1654157Y3943117D1*
X1639513Y3954660D1*
X1625820Y3967320D1*
X1613160Y3981013D1*
X1601617Y3995657D1*
X1591257Y4011163D1*
X1582143Y4027433D1*
X1574337Y4044367D1*
X1567883Y4061860D1*
X1562823Y4079810D1*
X1559183Y4098100D1*
X1556993Y4116617D1*
X1556260Y4135250D1*
X1556993Y4153883D1*
X1559183Y4172400D1*
X1562823Y4190690D1*
X1567883Y4208640D1*
X1574337Y4226133D1*
X1582143Y4243067D1*
X1591257Y4259337D1*
X1601617Y4274843D1*
X1613160Y4289487D1*
X1625820Y4303180D1*
X1639513Y4315840D1*
X1654157Y4327383D1*
X1669663Y4337743D1*
X1685933Y4346857D1*
X1702867Y4354663D1*
X1720360Y4361117D1*
X1738310Y4366177D1*
X1756600Y4369817D1*
X1775117Y4372007D1*
X1793750Y4372740D1*
X1812383Y4372007D1*
X1830900Y4369817D1*
X1849190Y4366177D1*
X1867140Y4361117D1*
X1884633Y4354663D1*
X1901567Y4346857D1*
X1917837Y4337743D1*
X1933343Y4327383D1*
X1947987Y4315840D1*
X1961680Y4303180D1*
X1974340Y4289487D1*
X1985883Y4274843D1*
X1996243Y4259337D1*
X2005357Y4243067D1*
X2013163Y4226133D1*
X2019617Y4208640D1*
X2024677Y4190690D1*
X2028317Y4172400D1*
X2030507Y4153883D1*
X2031240Y4135250D1*
X2030507Y4116617D1*
Y2600617D2*
X2028317Y2582100D1*
X2024677Y2563810D1*
X2019617Y2545860D1*
X2013163Y2528367D1*
X2005357Y2511433D1*
X1996243Y2495163D1*
X1985883Y2479657D1*
X1974340Y2465013D1*
X1961680Y2451320D1*
X1947987Y2438660D1*
X1933343Y2427117D1*
X1917837Y2416757D1*
X1901567Y2407643D1*
X1884633Y2399837D1*
X1867140Y2393383D1*
X1849190Y2388323D1*
X1830900Y2384683D1*
X1812383Y2382493D1*
X1793750Y2381760D1*
X1775117Y2382493D1*
X1756600Y2384683D1*
X1738310Y2388323D1*
X1720360Y2393383D1*
X1702867Y2399837D1*
X1685933Y2407643D1*
X1669663Y2416757D1*
X1654157Y2427117D1*
X1639513Y2438660D1*
X1625820Y2451320D1*
X1613160Y2465013D1*
X1601617Y2479657D1*
X1591257Y2495163D1*
X1582143Y2511433D1*
X1574337Y2528367D1*
X1567883Y2545860D1*
X1562823Y2563810D1*
X1559183Y2582100D1*
X1556993Y2600617D1*
X1556260Y2619250D1*
X1556993Y2637883D1*
X1559183Y2656400D1*
X1562823Y2674690D1*
X1567883Y2692640D1*
X1574337Y2710133D1*
X1582143Y2727067D1*
X1591257Y2743337D1*
X1601617Y2758843D1*
X1613160Y2773487D1*
X1625820Y2787180D1*
X1639513Y2799840D1*
X1654157Y2811383D1*
X1669663Y2821743D1*
X1685933Y2830857D1*
X1702867Y2838663D1*
X1720360Y2845117D1*
X1738310Y2850177D1*
X1756600Y2853817D1*
X1775117Y2856007D1*
X1793750Y2856740D1*
X1812383Y2856007D1*
X1830900Y2853817D1*
X1849190Y2850177D1*
X1867140Y2845117D1*
X1884633Y2838663D1*
X1901567Y2830857D1*
X1917837Y2821743D1*
X1933343Y2811383D1*
X1947987Y2799840D1*
X1961680Y2787180D1*
X1974340Y2773487D1*
X1985883Y2758843D1*
X1996243Y2743337D1*
X2005357Y2727067D1*
X2013163Y2710133D1*
X2019617Y2692640D1*
X2024677Y2674690D1*
X2028317Y2656400D1*
X2030507Y2637883D1*
X2031240Y2619250D1*
X2030507Y2600617D1*
Y3100617D2*
X2028317Y3082100D1*
X2024677Y3063810D1*
X2019617Y3045860D1*
X2013163Y3028367D1*
X2005357Y3011433D1*
X1996243Y2995163D1*
X1985883Y2979657D1*
X1974340Y2965013D1*
X1961680Y2951320D1*
X1947987Y2938660D1*
X1933343Y2927117D1*
X1917837Y2916757D1*
X1901567Y2907643D1*
X1884633Y2899837D1*
X1867140Y2893383D1*
X1849190Y2888323D1*
X1830900Y2884683D1*
X1812383Y2882493D1*
X1793750Y2881760D1*
X1775117Y2882493D1*
X1756600Y2884683D1*
X1738310Y2888323D1*
X1720360Y2893383D1*
X1702867Y2899837D1*
X1685933Y2907643D1*
X1669663Y2916757D1*
X1654157Y2927117D1*
X1639513Y2938660D1*
X1625820Y2951320D1*
X1613160Y2965013D1*
X1601617Y2979657D1*
X1591257Y2995163D1*
X1582143Y3011433D1*
X1574337Y3028367D1*
X1567883Y3045860D1*
X1562823Y3063810D1*
X1559183Y3082100D1*
X1556993Y3100617D1*
X1556260Y3119250D1*
X1556993Y3137883D1*
X1559183Y3156400D1*
X1562823Y3174690D1*
X1567883Y3192640D1*
X1574337Y3210133D1*
X1582143Y3227067D1*
X1591257Y3243337D1*
X1601617Y3258843D1*
X1613160Y3273487D1*
X1625820Y3287180D1*
X1639513Y3299840D1*
X1654157Y3311383D1*
X1669663Y3321743D1*
X1685933Y3330857D1*
X1702867Y3338663D1*
X1720360Y3345117D1*
X1738310Y3350177D1*
X1756600Y3353817D1*
X1775117Y3356007D1*
X1793750Y3356740D1*
X1812383Y3356007D1*
X1830900Y3353817D1*
X1849190Y3350177D1*
X1867140Y3345117D1*
X1884633Y3338663D1*
X1901567Y3330857D1*
X1917837Y3321743D1*
X1933343Y3311383D1*
X1947987Y3299840D1*
X1961680Y3287180D1*
X1974340Y3273487D1*
X1985883Y3258843D1*
X1996243Y3243337D1*
X2005357Y3227067D1*
X2013163Y3210133D1*
X2019617Y3192640D1*
X2024677Y3174690D1*
X2028317Y3156400D1*
X2030507Y3137883D1*
X2031240Y3119250D1*
X2030507Y3100617D1*
X6128260Y4033517D2*
Y4986537D1*
X5714177Y5400567D1*
X5714240Y5363847D1*
X6100517Y4977007D1*
X6110707Y4962980D1*
X6118580Y4947533D1*
X6123937Y4931043D1*
X6126650Y4913920D1*
X6126990Y4811917D1*
Y4033440D1*
X6034280Y1777150D2*
Y1302350D1*
X5796880Y1539750D2*
X6271680D1*
X2270000Y10176250D2*
Y10026250D1*
X2301750Y6620250D2*
Y6470250D1*
X2141750Y6620250D2*
X2461750D1*
X5984750Y9436250D2*
Y9286250D1*
X6144750D1*
X5953000Y6435500D2*
Y6105500D1*
Y6270500D2*
X6118000D1*
X5184750Y7064250D2*
X5349750D1*
X6080000Y3133500D2*
Y2803500D1*
X5318000Y7572250D2*
X5504600D1*
X5131400Y9096250D2*
X5504600D1*
X5921250Y11048150D2*
Y10573350D1*
X5683850Y10810750D2*
X6158650D1*
X6482250Y9175123D2*
X6619750D1*
Y10117623D2*
Y9937623D1*
X6439750D2*
X6619750D1*
X5529750Y8746500D2*
X5667250D1*
X6482250Y7460623D2*
X6619750D1*
Y8403123D2*
Y8223123D1*
X6439750D2*
X6619750D1*
X6514003Y5746123D2*
X6651500D1*
Y6688623D2*
Y6508623D1*
X6471500D2*
X6651500D1*
X6482253Y4063373D2*
X6619750D1*
X6651500Y4974127D2*
Y4794127D1*
X6471500D2*
X6651500D1*
X6450500Y2333000D2*
X6588000D1*
X6651500Y3259627D2*
Y3079627D1*
X6471500D2*
X6651500D1*
X4619000Y5423750D2*
Y5286250D1*
X4736500D1*
X4428500Y3518750D2*
Y3381250D1*
X4546000D1*
X2524000Y10176750D2*
Y10026750D1*
Y10176750D2*
X2684000D1*
X4559900Y7064250D2*
X4933100D1*
X2619250Y6556250D2*
Y6363750D1*
X2486750Y6556250D2*
X2619250D1*
D14*
X7032500Y1539750D3*
X6534660D3*
X6034280D3*
D20*
X2270000Y10366250D3*
Y10176250D3*
X2301750Y6810250D3*
Y6620250D3*
X5984750Y9096250D3*
Y9286250D3*
D21*
X5953000Y6270500D3*
D22*
X5445000D3*
X5349750Y6810250D3*
D21*
Y7064250D3*
D22*
X5826000Y2968500D3*
D21*
X6080000D3*
D23*
X7159500Y10175750D3*
D24*
Y9070750D3*
D23*
Y8461250D3*
D24*
Y7356250D3*
D23*
Y6778500D3*
D24*
Y5673500D3*
D23*
Y5095750D3*
D24*
Y3990750D3*
D23*
X7191250Y3349500D3*
D24*
Y2244500D3*
D23*
X5540250Y3952750D3*
D24*
Y5057750D3*
D23*
Y2047750D3*
D24*
Y3152750D3*
D15*
X5318000Y8334250D3*
Y8080250D3*
Y7826250D3*
Y7572250D3*
X5699000Y9858250D3*
Y9604250D3*
Y9350250D3*
Y9096250D3*
D25*
X2968500Y6810250D3*
X3098500D3*
D26*
X9064500Y10286873D3*
Y9087993D3*
D27*
X7845293Y10286833D3*
D26*
Y9088033D3*
D28*
X7634493Y9687433D3*
D26*
X9064500Y8572373D3*
Y7373493D3*
D27*
X7845293Y8572333D3*
D26*
Y7373533D3*
D28*
X7634493Y7972933D3*
D26*
X9064500Y6857873D3*
Y5658993D3*
D27*
X7845293Y6857833D3*
D26*
Y5659033D3*
D28*
X7634493Y6258433D3*
D26*
X9064500Y5143377D3*
Y3944497D3*
D27*
X7845293Y5143337D3*
D26*
Y3944537D3*
D28*
X7634493Y4543937D3*
D26*
X9064500Y3428877D3*
Y2229997D3*
D27*
X7845293Y3428837D3*
D26*
Y2230037D3*
D28*
X7634493Y2829437D3*
D26*
X3698750Y3857500D3*
Y5056380D3*
D27*
X4917957Y3857540D3*
D26*
Y5056340D3*
D28*
X5128757Y4456940D3*
D26*
X3698750Y1952500D3*
Y3151380D3*
D27*
X4917957Y1952540D3*
D26*
Y3151340D3*
D28*
X5128757Y2551940D3*
D15*
X5318000Y9858250D3*
Y9604250D3*
Y9350250D3*
Y9096250D3*
D14*
X6683250Y10810750D3*
X5921250D3*
D30*
X6619750Y8985123D3*
Y9175123D3*
X6849750Y9080123D3*
D31*
X6619750Y9429623D3*
D32*
Y9683623D3*
Y9937623D3*
D30*
X5667250Y8556500D3*
Y8746500D3*
X5897250Y8651500D3*
X6619750Y7270623D3*
Y7460623D3*
X6849750Y7365623D3*
D31*
X6619750Y7715123D3*
D32*
Y7969123D3*
Y8223123D3*
D30*
X6651500Y5556123D3*
Y5746123D3*
X6881500Y5651123D3*
D31*
X6651500Y6000623D3*
D32*
Y6254623D3*
Y6508623D3*
D30*
X6619750Y3873373D3*
Y4063373D3*
X6849750Y3968373D3*
D31*
X6651500Y4286127D3*
D32*
Y4540127D3*
Y4794127D3*
D30*
X6588000Y2143000D3*
Y2333000D3*
X6818000Y2238000D3*
D31*
X6651500Y2571627D3*
D32*
Y2825627D3*
Y3079627D3*
D34*
X4429000Y5286250D3*
X4619000D3*
X4524000Y5056250D3*
X4238500Y3381250D3*
X4428500D3*
X4333500Y3151250D3*
D20*
X2524000Y10366750D3*
Y10176750D3*
X6905500Y9985250D3*
Y10175250D3*
Y8270750D3*
Y8460750D3*
X6937250Y6588000D3*
Y6778000D3*
X6937000Y4905500D3*
Y5095500D3*
Y3159250D3*
Y3349250D3*
D35*
X5127500Y10366250D3*
X5317500D3*
X6207000Y7270623D3*
X6397000D3*
X6238750Y5556123D3*
X6428750D3*
X6238750Y3873373D3*
X6428750D3*
X6238750Y2143000D3*
X6428750D3*
X5127500Y10112250D3*
X5317500D3*
D14*
X2460500Y4778250D3*
Y3828250D3*
Y2878250D3*
Y1928250D3*
D15*
X1952500Y10969500D3*
Y10715500D3*
D36*
Y9604250D3*
Y9858250D3*
Y10112250D3*
Y10366250D3*
X4746500Y9604250D3*
Y9858250D3*
Y10112250D3*
Y10366250D3*
X1952500Y9350250D3*
Y9096250D3*
Y8842250D3*
X4746500Y9350250D3*
Y9096250D3*
Y8842250D3*
X1952500Y8588250D3*
Y8334250D3*
Y8080250D3*
Y7826250D3*
Y7572250D3*
Y7318250D3*
Y7064250D3*
Y6810250D3*
X4746500Y8588250D3*
Y8334250D3*
Y8080250D3*
Y7826250D3*
Y7572250D3*
Y7318250D3*
Y7064250D3*
Y6810250D3*
D38*
X2619250Y6556250D3*
X2849250D3*
X3079250D3*
D39*
X2849250Y5976250D3*
D14*
X10302750Y2079500D3*
Y3029500D3*
Y3979500D3*
Y4929500D3*
Y5879500D3*
Y6829500D3*
Y7779500D3*
Y8729500D3*
Y9679500D3*
Y10629500D3*
X10842500Y10112250D3*
Y10612250D3*
Y8239000D3*
Y8739000D3*
Y6334000D3*
Y6834000D3*
D15*
X5889500Y8080250D3*
Y8334250D3*
D14*
X10810750Y4429000D3*
Y4929000D3*
X10842500Y2524000D3*
Y3024000D3*
X8461250Y9207373D3*
Y9707373D3*
Y7492877D3*
Y7992877D3*
Y5778377D3*
Y6278377D3*
Y4063877D3*
Y4563877D3*
Y2349373D3*
Y2849373D3*
X1793750Y3635250D3*
Y4135250D3*
Y2619250D3*
Y3119250D3*
M02*
