G04 DipTrace 3.3.1.3*
G04 BottomSilk.gbr*
%MOMM*%
G04 #@! TF.FileFunction,Legend,Bot*
G04 #@! TF.Part,Single*
%ADD10C,0.25*%
%ADD12C,0.0762*%
%ADD29O,0.39172X0.39127*%
%ADD33O,0.39127X0.39172*%
%ADD37O,0.39124X0.39193*%
%ADD87C,0.19608*%
%FSLAX35Y35*%
G04*
G71*
G90*
G75*
G01*
G04 BotSilk*
%LPD*%
X2334950Y10471303D2*
D10*
X2205050D1*
X2366700Y6915303D2*
X2236800D1*
X5919800Y8991197D2*
X6049700D1*
D29*
X6582389Y8906767D3*
X6709750Y8930137D2*
D10*
Y9230123D1*
X6759750D1*
Y8930137D1*
X6709750D1*
D29*
X5629889Y8478144D3*
X5757250Y8501514D2*
D10*
Y8801500D1*
X5807250D1*
Y8501514D1*
X5757250D1*
D29*
X6582389Y7192267D3*
X6709750Y7215637D2*
D10*
Y7515623D1*
X6759750D1*
Y7215637D1*
X6709750D1*
D29*
X6614139Y5477767D3*
X6741500Y5501137D2*
D10*
Y5801123D1*
X6791500D1*
Y5501137D1*
X6741500D1*
D29*
X6582389Y3795017D3*
X6709750Y3818387D2*
D10*
Y4118373D1*
X6759750D1*
Y3818387D1*
X6709750D1*
D29*
X6550639Y2064644D3*
X6678000Y2088014D2*
D10*
Y2388000D1*
X6728000D1*
Y2088014D1*
X6678000D1*
D33*
X4350644Y5323611D3*
X4374014Y5196250D2*
D10*
X4674000D1*
Y5146250D1*
X4374014D1*
Y5196250D1*
D33*
X4160144Y3418611D3*
X4183514Y3291250D2*
D10*
X4483500D1*
Y3241250D1*
X4183514D1*
Y3291250D1*
D37*
X2521894Y6632944D3*
X2519254Y6406249D2*
D10*
X3179222D1*
X2519254Y6126251D2*
X3179222D1*
Y6406249D2*
Y6126251D1*
X2519254Y6406249D2*
Y6126251D1*
X3109470Y9399780D2*
D12*
X3322830D1*
X3074070Y9392160D2*
X3359687D1*
X3040061Y9384540D2*
X3394313D1*
X3008846Y9376920D2*
X3425733D1*
X2980423Y9369300D2*
X3148048D1*
X3291872D2*
X3454719D1*
X2955170Y9361680D2*
X3089976D1*
X3349944D2*
X3480938D1*
X2933727Y9354060D2*
X3044574D1*
X3395346D2*
X3504098D1*
X2915010Y9346440D2*
X3009290D1*
X3430630D2*
X3524920D1*
X2897092Y9338820D2*
X2980435D1*
X3459456D2*
X3543880D1*
X2879415Y9331200D2*
X2955206D1*
X3484447D2*
X3561408D1*
X2862073Y9323580D2*
X2932072D1*
X3506877D2*
X3578126D1*
X2845044Y9315960D2*
X2910483D1*
X3527612D2*
X3594167D1*
X2828900Y9308340D2*
X2890568D1*
X3162810D2*
X3277110D1*
X3547398D2*
X3609307D1*
X2814020Y9300720D2*
X2873057D1*
X3118397D2*
X3320375D1*
X3565534D2*
X3623991D1*
X2800327Y9293100D2*
X2857408D1*
X3077976D2*
X3359175D1*
X3581805D2*
X3638251D1*
X2786956Y9285480D2*
X2842374D1*
X3042601D2*
X3393548D1*
X3597223D2*
X3651996D1*
X2773298Y9277860D2*
X2827607D1*
X3012137D2*
X3162810D1*
X3277110D2*
X3424473D1*
X3612179D2*
X3665329D1*
X2759988Y9270240D2*
X2813491D1*
X2986066D2*
X3075022D1*
X3363721D2*
X3451551D1*
X3626378D2*
X3677974D1*
X2747891Y9262620D2*
X2800402D1*
X2963116D2*
X3043691D1*
X3393162D2*
X3474773D1*
X3639499D2*
X3689994D1*
X2736860Y9255000D2*
X2788141D1*
X2942640D2*
X3015751D1*
X3419129D2*
X3494700D1*
X3651772D2*
X3701445D1*
X2726192Y9247380D2*
X2776333D1*
X2923932D2*
X2990819D1*
X3442757D2*
X3512580D1*
X3663585D2*
X3712014D1*
X2715862Y9239760D2*
X2764757D1*
X2906093D2*
X2968260D1*
X3464846D2*
X3529364D1*
X3675162D2*
X3721640D1*
X2705973Y9232140D2*
X2753264D1*
X2889079D2*
X2947414D1*
X3486071D2*
X3545419D1*
X3686626D2*
X3730888D1*
X2696446Y9224520D2*
X2741819D1*
X2873850D2*
X2928072D1*
X3506163D2*
X3561250D1*
X3697833D2*
X3740268D1*
X2687376Y9216900D2*
X2730435D1*
X2860817D2*
X2909698D1*
X3524852D2*
X3576148D1*
X3708514D2*
X3749865D1*
X2678412Y9209280D2*
X2719515D1*
X2854984D2*
X2892779D1*
X3541831D2*
X3589648D1*
X3718580D2*
X3759819D1*
X2669376Y9201660D2*
X2709782D1*
X2827530D2*
X2877783D1*
X3557082D2*
X3602120D1*
X3728184D2*
X3769404D1*
X2660523Y9194040D2*
X2701305D1*
X2819355D2*
X2863951D1*
X3570895D2*
X3614030D1*
X3737286D2*
X3777783D1*
X2651408Y9186420D2*
X2692922D1*
X2808789D2*
X2850649D1*
X3584085D2*
X3625888D1*
X3746262D2*
X3785534D1*
X2641720Y9178800D2*
X2684027D1*
X2797003D2*
X2837823D1*
X3597060D2*
X3638085D1*
X3755272D2*
X3794096D1*
X2632074Y9171180D2*
X2674659D1*
X2785571D2*
X2825072D1*
X3609524D2*
X3650370D1*
X3763888D2*
X3803571D1*
X2623324Y9163560D2*
X2664772D1*
X2774806D2*
X2812305D1*
X3621494D2*
X3661693D1*
X3772271D2*
X3812699D1*
X2615715Y9155940D2*
X2654987D1*
X2764268D2*
X2800177D1*
X3633151D2*
X3671775D1*
X3780867D2*
X3820921D1*
X2608889Y9148320D2*
X2645949D1*
X2754211D2*
X2789202D1*
X3644411D2*
X3681455D1*
X3789681D2*
X3828005D1*
X2602233Y9140700D2*
X2637587D1*
X2745038D2*
X2779378D1*
X3654917D2*
X3691379D1*
X3798202D2*
X3833999D1*
X2595762Y9133080D2*
X2629660D1*
X2736370D2*
X2770075D1*
X3664530D2*
X3701145D1*
X3806334D2*
X3839986D1*
X2589484Y9125460D2*
X2622170D1*
X2727429D2*
X2760899D1*
X3673988D2*
X3710167D1*
X3814407D2*
X3847024D1*
X2583071Y9117840D2*
X2615468D1*
X2717841D2*
X2751993D1*
X3683847D2*
X3718520D1*
X3822577D2*
X3855021D1*
X2576937Y9110220D2*
X2609654D1*
X2708213D2*
X2742858D1*
X3170430D2*
X3216150D1*
X3693814D2*
X3726472D1*
X3830369D2*
X3862903D1*
X2571382Y9102600D2*
X2603981D1*
X2699244D2*
X2733163D1*
X3167825D2*
X3218755D1*
X3703555D2*
X3734229D1*
X3836998D2*
X3869899D1*
X2565816Y9094980D2*
X2597688D1*
X2690910D2*
X2723515D1*
X3165498D2*
X3221023D1*
X3712995D2*
X3741901D1*
X3842910D2*
X3875870D1*
X2559564Y9087360D2*
X2590803D1*
X2682965D2*
X2714764D1*
X3163473D2*
X3222473D1*
X3721777D2*
X3749540D1*
X3848697D2*
X3881614D1*
X2552695Y9079740D2*
X2583744D1*
X2675210D2*
X2707126D1*
X3109470D2*
D3*
X3161177D2*
X3223260D1*
X3277110D2*
D3*
X3729793D2*
X3757167D1*
X3854585D2*
X3887906D1*
X2545671Y9072120D2*
X2576991D1*
X2667568D2*
X2700031D1*
X3100992D2*
X3117090D1*
X3155012D2*
X3223770D1*
X3261870D2*
X3284730D1*
X3737209D2*
X3764789D1*
X3860790D2*
X3894563D1*
X2539158Y9064500D2*
X2570544D1*
X2660198D2*
X2692405D1*
X3092758D2*
X3132330D1*
X3147570D2*
X3292000D1*
X3744543D2*
X3772410D1*
X3866852D2*
X3900863D1*
X2533445Y9056880D2*
X2564043D1*
X2653542D2*
X2684138D1*
X3085343D2*
X3298078D1*
X3752212D2*
X3780000D1*
X3872361D2*
X3906258D1*
X2528035Y9049260D2*
X2557659D1*
X2647745D2*
X2676114D1*
X3081714D2*
X3302694D1*
X3759497D2*
X3787382D1*
X3877897D2*
X3910902D1*
X2522484Y9041640D2*
X2551641D1*
X2642078D2*
X2668837D1*
X3081003D2*
X3302354D1*
X3766271D2*
X3794269D1*
X3883894D2*
X3915320D1*
X2516724Y9034020D2*
X2545968D1*
X2635787D2*
X2662147D1*
X3083662D2*
X3300468D1*
X3773174D2*
X3800767D1*
X3890041D2*
X3920005D1*
X2510796Y9026400D2*
X2540958D1*
X2628903D2*
X2655544D1*
X3087245D2*
X3297830D1*
X3780344D2*
X3807288D1*
X3895960D2*
X3925000D1*
X2505511Y9018780D2*
X2536504D1*
X2621874D2*
X2649092D1*
X3090761D2*
X3178660D1*
X3197915D2*
X3295787D1*
X3787493D2*
X3813707D1*
X3901594D2*
X3929924D1*
X2501367Y9011160D2*
X2532139D1*
X2615359D2*
X2642791D1*
X3091331D2*
X3165671D1*
X3214418D2*
X3294991D1*
X3794055D2*
X3819966D1*
X3906589D2*
X3934947D1*
X2497636Y9003540D2*
X2527248D1*
X2609645D2*
X2636142D1*
X2743710D2*
X2751330D1*
X3086168D2*
X3155383D1*
X3226844D2*
X3300319D1*
X3650490D2*
X3665730D1*
X3799786D2*
X3826343D1*
X3911039D2*
X3940085D1*
X2493723Y8995920D2*
X2521563D1*
X2604265D2*
X2629305D1*
X2740138D2*
X2758950D1*
X3073952D2*
X3147442D1*
X3235671D2*
X3312586D1*
X3644670D2*
X3669302D1*
X3805201D2*
X3832237D1*
X3915372D2*
X3944847D1*
X2489275Y8988300D2*
X2515789D1*
X2598952D2*
X2622897D1*
X2736090D2*
X2766570D1*
X3062641D2*
X3141176D1*
X3242250D2*
X3323923D1*
X3637913D2*
X3673350D1*
X3810755D2*
X3837058D1*
X3920024D2*
X3949198D1*
X2484380Y8980680D2*
X2510638D1*
X2593866D2*
X2617232D1*
X2742543D2*
X2774190D1*
X3053919D2*
X3136820D1*
X3244512D2*
X3332658D1*
X3630340D2*
X3663130D1*
X3816545D2*
X3841501D1*
X3925006D2*
X3953494D1*
X2479494Y8973060D2*
X2506126D1*
X2588553D2*
X2611873D1*
X2750493D2*
X2781810D1*
X3051068D2*
X3134357D1*
X3245731D2*
X3335510D1*
X3622578D2*
X3654472D1*
X3822712D2*
X3846653D1*
X3929926D2*
X3958102D1*
X2474485Y8965440D2*
X2501986D1*
X2582694D2*
X2606597D1*
X2759467D2*
X2789430D1*
X3049572D2*
X3133197D1*
X3246279D2*
X3337007D1*
X3615292D2*
X3646624D1*
X3828730D2*
X3852322D1*
X3934918D2*
X3962811D1*
X2469353Y8957820D2*
X2498018D1*
X2577071D2*
X2601752D1*
X2767566D2*
X2797050D1*
X3048917D2*
X3132981D1*
X3246471D2*
X3337663D1*
X3608088D2*
X3639015D1*
X3833996D2*
X3858014D1*
X3939817D2*
X3966788D1*
X2464592Y8950200D2*
X2493913D1*
X2572589D2*
X2597144D1*
X2774230D2*
X2804670D1*
X3048657D2*
X3134044D1*
X3246257D2*
X3337923D1*
X3600750D2*
X3631675D1*
X3838797D2*
X3863553D1*
X3943847D2*
X3970222D1*
X2460271Y8942580D2*
X2489387D1*
X2568918D2*
X2592139D1*
X2780560D2*
X2812290D1*
X3048559D2*
X3136324D1*
X3244989D2*
X3338021D1*
X3593486D2*
X3624797D1*
X3843642D2*
X3868481D1*
X3947076D2*
X3974139D1*
X2456244Y8934960D2*
X2484710D1*
X2564902D2*
X2586645D1*
X2787778D2*
X2819910D1*
X3048510D2*
X3142210D1*
X3242535D2*
X3338070D1*
X3586409D2*
X3618262D1*
X3848480D2*
X3872648D1*
X3950301D2*
X3978694D1*
X2452577Y8927340D2*
X2480746D1*
X2560308D2*
X2581568D1*
X2796104D2*
X2827530D1*
X3068672D2*
X3149896D1*
X3235632D2*
X3316269D1*
X3579184D2*
X3611258D1*
X3852734D2*
X3876036D1*
X3953977D2*
X3983408D1*
X2449455Y8919720D2*
X2477315D1*
X2555580D2*
X2577512D1*
X2804979D2*
X2835150D1*
X3084154D2*
X3159597D1*
X3226538D2*
X3299226D1*
X3571331D2*
X3603416D1*
X3856886D2*
X3879099D1*
X3958296D2*
X3988312D1*
X2446729Y8912100D2*
X2473430D1*
X2550670D2*
X2573816D1*
X2813808D2*
X2842770D1*
X3091432D2*
X3170430D1*
X3216150D2*
X3284730D1*
X3563361D2*
X3595170D1*
X3861661D2*
X3882830D1*
X3962884D2*
X3993177D1*
X2443769Y8904480D2*
X2469144D1*
X2545804D2*
X2569917D1*
X2821736D2*
X2850360D1*
X3089052D2*
X3291143D1*
X3555741D2*
X3587488D1*
X3866317D2*
X3887275D1*
X3966814D2*
X3997193D1*
X2440431Y8896860D2*
X2465371D1*
X2541787D2*
X2565502D1*
X2828810D2*
X2857742D1*
X3085688D2*
X3296546D1*
X3548711D2*
X3580292D1*
X3870139D2*
X3891719D1*
X3970231D2*
X4000388D1*
X2436853Y8889240D2*
X2462024D1*
X2538562D2*
X2560877D1*
X2835839D2*
X2864659D1*
X3082696D2*
X3300627D1*
X3542107D2*
X3572605D1*
X3873480D2*
X3895908D1*
X3974112D2*
X4003344D1*
X2433163Y8881620D2*
X2458172D1*
X2535368D2*
X2556933D1*
X2843087D2*
X2871425D1*
X3080581D2*
X3303584D1*
X3535074D2*
X3564519D1*
X3876404D2*
X3899914D1*
X3978397D2*
X4006048D1*
X2429635Y8874000D2*
X2453897D1*
X2531931D2*
X2553511D1*
X2850522D2*
X2878916D1*
X3081462D2*
X3302404D1*
X3527222D2*
X3556932D1*
X3879248D2*
X3903800D1*
X3982140D2*
X4008572D1*
X2426536Y8866380D2*
X2450158D1*
X2528315D2*
X2549629D1*
X2858061D2*
X2887131D1*
X3086780D2*
X3297464D1*
X3518972D2*
X3549752D1*
X3882887D2*
X3907620D1*
X3985249D2*
X4011445D1*
X2423591Y8858760D2*
X2447081D1*
X2524611D2*
X2545343D1*
X2865649D2*
X2895135D1*
X3093823D2*
X3133731D1*
X3144575D2*
X3291290D1*
X3511318D2*
X3541846D1*
X3887295D2*
X3911197D1*
X3988397D2*
X4014719D1*
X2419935Y8851140D2*
X2444170D1*
X2521077D2*
X2541601D1*
X2873256D2*
X2902406D1*
X3101567D2*
X3121165D1*
X3154877D2*
X3223740D1*
X3261870D2*
X3284342D1*
X3504360D2*
X3533034D1*
X3891726D2*
X3914285D1*
X3991788D2*
X4018016D1*
X2415774Y8843520D2*
X2441483D1*
X2517977D2*
X2538521D1*
X2880872D2*
X2909123D1*
X3109470D2*
D3*
X3159229D2*
X3223472D1*
X3277110D2*
D3*
X3497376D2*
X3524387D1*
X3895910D2*
X3916998D1*
X3995160D2*
X4020760D1*
X2412307Y8835900D2*
X2438965D1*
X2515031D2*
X2535611D1*
X2888491D2*
X2915994D1*
X3162426D2*
X3222496D1*
X3490115D2*
X3516614D1*
X3899885D2*
X3919953D1*
X3998159D2*
X4022730D1*
X2409945Y8828280D2*
X2436094D1*
X2511375D2*
X2532923D1*
X2896110D2*
X2923387D1*
X3165323D2*
X3220606D1*
X3482448D2*
X3509153D1*
X3903533D2*
X3923260D1*
X4000808D2*
X4024816D1*
X2407923Y8820660D2*
X2432821D1*
X2507214D2*
X2530405D1*
X2903730D2*
X2931275D1*
X3168014D2*
X3218338D1*
X3474207D2*
X3501481D1*
X3906648D2*
X3926599D1*
X4003512D2*
X4027989D1*
X2405634Y8813040D2*
X2429524D1*
X2503747D2*
X2527534D1*
X2911350D2*
X2939175D1*
X3170430D2*
X3216150D1*
X3465766D2*
X3493476D1*
X3909343D2*
X3929586D1*
X4006111D2*
X4031921D1*
X2403492Y8805420D2*
X2426780D1*
X2501385D2*
X2524261D1*
X2918970D2*
X2946516D1*
X3458030D2*
X3485501D1*
X3912034D2*
X3932260D1*
X4008565D2*
X4035262D1*
X2402063Y8797800D2*
X2424840D1*
X2499363D2*
X2520934D1*
X2926590D2*
X2953770D1*
X3451009D2*
X3477905D1*
X3914401D2*
X3935201D1*
X4011185D2*
X4037348D1*
X2401033Y8790180D2*
X2422992D1*
X2497074D2*
X2517952D1*
X2934210D2*
X2961384D1*
X3443775D2*
X3469942D1*
X3916183D2*
X3938503D1*
X4013750D2*
X4038653D1*
X2399462Y8782560D2*
X2420522D1*
X2494903D2*
X2515279D1*
X2941830D2*
X2969592D1*
X3435835D2*
X3461502D1*
X3918187D2*
X3941810D1*
X4016192D2*
X4040084D1*
X2396529Y8774940D2*
X2417444D1*
X2493235D2*
X2512339D1*
X2949450D2*
X2978227D1*
X3427551D2*
X3453403D1*
X3921328D2*
X3944529D1*
X4018777D2*
X4042095D1*
X2392698Y8767320D2*
X2414232D1*
X2491502D2*
X2509037D1*
X2957070D2*
X2986375D1*
X3419885D2*
X3446065D1*
X3925248D2*
X3946232D1*
X4021103D2*
X4044119D1*
X2389396Y8759700D2*
X2411550D1*
X2489077D2*
X2505730D1*
X2964690D2*
X2993199D1*
X3412922D2*
X3439096D1*
X3928614D2*
X3947347D1*
X4022841D2*
X4045503D1*
X2387354Y8752080D2*
X2409891D1*
X2486015D2*
X2503011D1*
X2972310D2*
X2997976D1*
X3405937D2*
X3431547D1*
X3930937D2*
X3948695D1*
X4024572D2*
X4046486D1*
X2386292Y8744460D2*
X2409018D1*
X2482809D2*
X2501308D1*
X2979930D2*
X3000821D1*
X3398705D2*
X3423536D1*
X3932945D2*
X3950703D1*
X4026770D2*
X4047784D1*
X2385566Y8736840D2*
X2408375D1*
X2480129D2*
X2500193D1*
X2987550D2*
X3018030D1*
X3391276D2*
X3416222D1*
X3935259D2*
X3952983D1*
X4029132D2*
X4049773D1*
X2384410Y8729220D2*
X2407251D1*
X2478441D2*
X2498845D1*
X2995170D2*
X3024477D1*
X3383738D2*
X3409772D1*
X3937666D2*
X3955304D1*
X4031486D2*
X4052046D1*
X2382485Y8721600D2*
X2405368D1*
X2477330D2*
X2496866D1*
X3002790D2*
X3031438D1*
X3376151D2*
X3402943D1*
X3940037D2*
X3957843D1*
X4034037D2*
X4054365D1*
X2380238Y8713980D2*
X2403393D1*
X2475984D2*
X2494855D1*
X3010410D2*
X3038302D1*
X3368543D2*
X3394774D1*
X3942594D2*
X3960152D1*
X4036320D2*
X4056904D1*
X2377929Y8706360D2*
X2402027D1*
X2474006D2*
X2493475D1*
X3018030D2*
X3045315D1*
X3360928D2*
X3386142D1*
X3944879D2*
X3961884D1*
X4037785D2*
X4059183D1*
X2375395Y8698740D2*
X2401050D1*
X2471965D2*
X2492493D1*
X2720850D2*
D3*
X3025650D2*
X3052575D1*
X3353309D2*
X3378475D1*
X3946345D2*
X3963613D1*
X4038544D2*
X4060646D1*
X2373117Y8691120D2*
X2399755D1*
X2470347D2*
X2491196D1*
X2717623D2*
X2728470D1*
X3033240D2*
X3059810D1*
X3345690D2*
X3372073D1*
X3947104D2*
X3965780D1*
X4038916D2*
X4061434D1*
X2371654Y8683500D2*
X2397767D1*
X2468662D2*
X2489207D1*
X2715650D2*
X2728470D1*
X2758950D2*
D3*
X2819910D2*
X2827530D1*
X3040622D2*
X3066877D1*
X3338070D2*
X3365866D1*
X3947476D2*
X3967874D1*
X4039324D2*
X4062044D1*
X2370896Y8675880D2*
X2395493D1*
X2466511D2*
X2486934D1*
X2716940D2*
X2728470D1*
X2754249D2*
X2758950D1*
X2819910D2*
X2827240D1*
X3047539D2*
X3074038D1*
X3330450D2*
X3358518D1*
X3947884D2*
X3969257D1*
X4040349D2*
X4063155D1*
X2370554Y8668260D2*
X2393175D1*
X2464423D2*
X2484615D1*
X2697990D2*
D3*
X2718575D2*
X2728470D1*
X2750099D2*
X2760446D1*
X2797050D2*
D3*
X2819910D2*
X2826233D1*
X3054305D2*
X3081358D1*
X3322830D2*
X3350002D1*
X3948909D2*
X3969983D1*
X4042194D2*
X4065034D1*
X2370384Y8660640D2*
X2390636D1*
X2463042D2*
X2482076D1*
X2690370D2*
X2705610D1*
X2720039D2*
X2728470D1*
X2746648D2*
X2763582D1*
X2798518D2*
X2824115D1*
X3061796D2*
X3087400D1*
X3315210D2*
X3341706D1*
X3950754D2*
X3970313D1*
X4044154D2*
X4067007D1*
X2370062Y8653020D2*
X2388357D1*
X2462317D2*
X2479797D1*
X2696492D2*
X2705640D1*
X2721918D2*
X2728470D1*
X2743710D2*
X2768476D1*
X2801384D2*
X2820964D1*
X2850390D2*
D3*
X3070011D2*
X3091353D1*
X3307590D2*
X3334680D1*
X3952714D2*
X3970449D1*
X4045485D2*
X4068343D1*
X2369071Y8645400D2*
X2386894D1*
X2461987D2*
X2478334D1*
X2700949D2*
X2705908D1*
X2725042D2*
X2774190D1*
X2805153D2*
X2816915D1*
X2842294D2*
X2858010D1*
X3077986D2*
X3109470D1*
X3299970D2*
X3328119D1*
X3589530D2*
X3620010D1*
X3954045D2*
X3970501D1*
X4046193D2*
X4069052D1*
X2367240Y8637780D2*
X2386136D1*
X2461821D2*
X2477576D1*
X2703509D2*
X2706879D1*
X2729213D2*
X2736090D1*
X2808144D2*
X2812290D1*
X2835150D2*
X2849492D1*
X3085048D2*
X3113602D1*
X3292350D2*
X3320790D1*
X3583406D2*
X3631342D1*
X3954753D2*
X3970550D1*
X4046516D2*
X4069376D1*
X2365284Y8630160D2*
X2385794D1*
X2461501D2*
X2477234D1*
X2704806D2*
X2708704D1*
X2733545D2*
X2736090D1*
X2809855D2*
X2838710D1*
X3091300D2*
X3119272D1*
X3284730D2*
X3312657D1*
X3578922D2*
X3641586D1*
X3955076D2*
X3970824D1*
X4046650D2*
X4069540D1*
X2363954Y8622540D2*
X2385653D1*
X2460511D2*
X2477093D1*
X2621790D2*
D3*
X2644650D2*
D3*
X2675130D2*
X2682750D1*
X2705610D2*
X2710657D1*
X2737721D2*
X2736090D1*
X2807375D2*
X2827349D1*
X3098020D2*
X3126517D1*
X3277110D2*
X3304479D1*
X3576196D2*
X3646705D1*
X3719070D2*
X3741930D1*
X3955210D2*
X3971798D1*
X4046701D2*
X4069859D1*
X2363247Y8614920D2*
X2385600D1*
X2458680D2*
X2477040D1*
X2624425D2*
X2621790D1*
X2644650D2*
X2652270D1*
X2682695D2*
X2711987D1*
X2741950D2*
X2743710D1*
X2803590D2*
X2817624D1*
X2873250D2*
D3*
X3106139D2*
X3134738D1*
X3269490D2*
X3296716D1*
X3543810D2*
X3648197D1*
X3701218D2*
X3751570D1*
X3955261D2*
X3973623D1*
X4046750D2*
X4070849D1*
X2362924Y8607300D2*
X2385580D1*
X2456724D2*
X2477020D1*
X2626990D2*
X2629410D1*
X2644650D2*
X2651957D1*
X2691009D2*
X2712695D1*
X2746564D2*
X2751330D1*
X2799248D2*
X2809583D1*
X2869673D2*
X2873250D1*
X3114750D2*
X3142991D1*
X3261870D2*
X3289396D1*
X3547593D2*
X3646570D1*
X3688277D2*
X3759326D1*
X3955280D2*
X3975577D1*
X4047024D2*
X4072680D1*
X2362790Y8599680D2*
X2385573D1*
X2455394D2*
X2477013D1*
X2629674D2*
X2629410D1*
X2644650D2*
X2650774D1*
X2697844D2*
X2713031D1*
X2751533D2*
X2758950D1*
X2794513D2*
X2803301D1*
X2866919D2*
X2873250D1*
X2903730D2*
D3*
X3122439D2*
X3150765D1*
X3254250D2*
X3282068D1*
X3513330D2*
D3*
X3551780D2*
X3643949D1*
X3678880D2*
X3762152D1*
X3955316D2*
X3976906D1*
X4047998D2*
X4074636D1*
X2362739Y8592060D2*
X2385571D1*
X2454687D2*
X2477011D1*
X2633216D2*
X2648168D1*
X2702808D2*
X2713230D1*
X2736090D2*
D3*
X2756448D2*
X2766570D1*
X2789430D2*
X2798519D1*
X2863568D2*
X2903730D1*
X3129076D2*
X3157864D1*
X3246630D2*
X3274174D1*
X3502193D2*
X3520950D1*
X3555465D2*
X3640934D1*
X3674825D2*
X3763672D1*
X3955587D2*
X3977643D1*
X4049823D2*
X4075966D1*
X2362720Y8584440D2*
X2385570D1*
X2454364D2*
X2477010D1*
X2637361D2*
X2644650D1*
X2704300D2*
X2736090D1*
X2761439D2*
X2793953D1*
X2819910D2*
X2827530D1*
X2858120D2*
X2865630D1*
X3135986D2*
X3164467D1*
X3239010D2*
X3266190D1*
X3492354D2*
X3526160D1*
X3558547D2*
X3638329D1*
X3671400D2*
X3764354D1*
X3833370D2*
X3840990D1*
X3956558D2*
X3978234D1*
X4051777D2*
X4076673D1*
X2362713Y8576820D2*
X2385570D1*
X2454230D2*
X2477010D1*
X2641072D2*
X2650802D1*
X2682750D2*
D3*
X2705108D2*
X2727098D1*
X2766278D2*
X2789314D1*
X2818509D2*
X2823958D1*
X2850774D2*
X2871233D1*
X3144187D2*
X3171267D1*
X3231390D2*
X3258563D1*
X3483389D2*
X3530696D1*
X3561684D2*
X3636697D1*
X3668743D2*
X3764600D1*
X3816945D2*
X3851807D1*
X3958384D2*
X3979339D1*
X4053106D2*
X4076996D1*
X2362711Y8569200D2*
X2385570D1*
X2454179D2*
X2477010D1*
X2644346D2*
X2655527D1*
X2685105D2*
X2682750D1*
X2705610D2*
X2718404D1*
X2770498D2*
X2785279D1*
X2815835D2*
X2819910D1*
X2842770D2*
X2882800D1*
X3152861D2*
X3178391D1*
X3223770D2*
X3251532D1*
X3474574D2*
X3533585D1*
X3565070D2*
X3635863D1*
X3667134D2*
X3764436D1*
X3804413D2*
X3860371D1*
X3960337D2*
X3981215D1*
X4053813D2*
X4077130D1*
X2362710Y8561580D2*
X2385570D1*
X2454160D2*
X2477010D1*
X2648053D2*
X2659050D1*
X2688913D2*
X2711097D1*
X2736090D2*
D3*
X2771693D2*
X2781810D1*
X2812290D2*
X2847588D1*
X2873250D2*
X2896110D1*
X3160771D2*
X3185670D1*
X3216150D2*
X3244957D1*
X3465931D2*
X3535078D1*
X3568411D2*
X3635491D1*
X3666323D2*
X3763502D1*
X3794643D2*
X3866272D1*
X3961666D2*
X3983188D1*
X4054136D2*
X4077181D1*
X2362710Y8553960D2*
X2385570D1*
X2454153D2*
X2477010D1*
X2629410D2*
X2637030D1*
X2652270D2*
X2662142D1*
X2693150D2*
X2708274D1*
X2728470D2*
X2736090D1*
X2769271D2*
X2819381D1*
X3167788D2*
X3238162D1*
X3458435D2*
X3476631D1*
X3504309D2*
X3535750D1*
X3571142D2*
X3635340D1*
X3665963D2*
X3761690D1*
X3791055D2*
X3870306D1*
X3962373D2*
X3984523D1*
X4054270D2*
X4077200D1*
X2362710Y8546340D2*
X2385570D1*
X2454151D2*
X2477010D1*
X2635578D2*
X2664929D1*
X2697008D2*
X2706741D1*
X2732206D2*
X2738764D1*
X2765712D2*
X2774190D1*
X2789430D2*
D3*
X3173987D2*
X3231014D1*
X3452949D2*
X3479305D1*
X3501635D2*
X3536026D1*
X3572820D2*
X3635282D1*
X3665816D2*
X3759770D1*
X3789104D2*
X3873544D1*
X3962696D2*
X3985232D1*
X4054321D2*
X4077207D1*
X2362710Y8538720D2*
X2385570D1*
X2454150D2*
X2477010D1*
X2643781D2*
X2667710D1*
X2701109D2*
X2706025D1*
X2732570D2*
X2741354D1*
X2762154D2*
X2768068D1*
X2789430D2*
X2797050D1*
X2850390D2*
D3*
X3179245D2*
X3223628D1*
X3449024D2*
X3482850D1*
X3498090D2*
X3536132D1*
X3573639D2*
X3635261D1*
X3665761D2*
X3758711D1*
X3788251D2*
X3875842D1*
X3962830D2*
X3985526D1*
X4054340D2*
X4077209D1*
X2362710Y8531100D2*
X2385570D1*
X2454150D2*
X2477010D1*
X2652175D2*
X2671299D1*
X2705610D2*
D3*
X2727489D2*
X2743710D1*
X2758950D2*
X2763611D1*
X2845417D2*
X2850390D1*
X3179462D2*
X3216150D1*
X3449269D2*
X3536170D1*
X3573749D2*
X3635254D1*
X3665740D2*
X3758975D1*
X3788159D2*
X3877085D1*
X3962881D2*
X3985392D1*
X4054347D2*
X4077210D1*
X2362710Y8523480D2*
X2385570D1*
X2454150D2*
X2477010D1*
X2637030D2*
D3*
X2659286D2*
X2675514D1*
X2720850D2*
X2761059D1*
X2797050D2*
D3*
X2839223D2*
X2850390D1*
X3175059D2*
X3225197D1*
X3452894D2*
X3536154D1*
X3572901D2*
X3635251D1*
X3665733D2*
X3760477D1*
X3789023D2*
X3875513D1*
X3962900D2*
X3984502D1*
X4054349D2*
X4077210D1*
X2362710Y8515860D2*
X2385570D1*
X2454150D2*
X2477010D1*
X2614170D2*
X2621790D1*
X2637030D2*
X2644650D1*
X2665702D2*
X2679374D1*
X2705610D2*
D3*
X2729063D2*
X2759822D1*
X2794665D2*
X2797050D1*
X2833087D2*
X2896110D1*
X3169166D2*
X3233196D1*
X3458164D2*
X3535890D1*
X3570867D2*
X3635250D1*
X3665731D2*
X3762297D1*
X3791126D2*
X3873198D1*
X3962907D2*
X3982985D1*
X4054350D2*
X4077210D1*
X2362710Y8508240D2*
X2385570D1*
X2454150D2*
X2477010D1*
X2619480D2*
X2645230D1*
X2672356D2*
X2682750D1*
X2705610D2*
D3*
X2735329D2*
X2759286D1*
X2790619D2*
X2797050D1*
X2827530D2*
D3*
X2880870D2*
X2888490D1*
X3162318D2*
X3183285D1*
X3218055D2*
X3240288D1*
X3464882D2*
X3534891D1*
X3567963D2*
X3635250D1*
X3665760D2*
X3763575D1*
X3794621D2*
X3870347D1*
X3962879D2*
X3981533D1*
X4054350D2*
X4077210D1*
X2362710Y8500620D2*
X2385570D1*
X2454180D2*
X2477010D1*
X2627039D2*
X2646495D1*
X2679693D2*
X2705610D1*
X2739517D2*
X2759073D1*
X2785696D2*
X2819910D1*
X3155010D2*
X3179209D1*
X3223656D2*
X3247320D1*
X3472726D2*
X3532769D1*
X3564786D2*
X3635280D1*
X3666028D2*
X3764263D1*
X3800194D2*
X3862880D1*
X3962612D2*
X3983193D1*
X4054320D2*
X4077210D1*
X2362710Y8493000D2*
X2385570D1*
X2454448D2*
X2477010D1*
X2636227D2*
X2651109D1*
X2688058D2*
X2712358D1*
X2741841D2*
X2758993D1*
X2781126D2*
X2806990D1*
X2873250D2*
D3*
X3147507D2*
X3173994D1*
X3230603D2*
X3254568D1*
X3481253D2*
X3529548D1*
X3561831D2*
X3635577D1*
X3667029D2*
X3764580D1*
X3808416D2*
X3852648D1*
X3961641D2*
X3985770D1*
X4054052D2*
X4077210D1*
X2362710Y8485380D2*
X2385570D1*
X2455419D2*
X2477010D1*
X2645541D2*
X2661941D1*
X2697862D2*
X2720214D1*
X2742998D2*
X2758964D1*
X2777362D2*
X2796495D1*
X2857651D2*
X2880870D1*
X3139929D2*
X3168202D1*
X3237653D2*
X3262002D1*
X3489653D2*
X3525146D1*
X3558912D2*
X3636816D1*
X3669151D2*
X3764652D1*
X3818130D2*
X3840990D1*
X3959816D2*
X3982253D1*
X4053081D2*
X4077210D1*
X2362710Y8477760D2*
X2385570D1*
X2457244D2*
X2477010D1*
X2653755D2*
X2678105D1*
X2708976D2*
X2728470D1*
X2743710D2*
X2758950D1*
X2774190D2*
X2788427D1*
X2842066D2*
X2867031D1*
X3132323D2*
X3161500D1*
X3244601D2*
X3269541D1*
X3497755D2*
X3519527D1*
X3555004D2*
X3639613D1*
X3672403D2*
X3764137D1*
X3957863D2*
X3980064D1*
X4051256D2*
X4077180D1*
X2362740Y8470140D2*
X2385570D1*
X2459197D2*
X2477010D1*
X2660811D2*
X2697990D1*
X2720850D2*
X2781810D1*
X2826817D2*
X2854465D1*
X3124708D2*
X3153743D1*
X3252205D2*
X3277129D1*
X3505710D2*
X3513330D1*
X3549742D2*
X3643391D1*
X3677116D2*
X3762821D1*
X3956534D2*
X3978927D1*
X4049303D2*
X4076912D1*
X2363008Y8462520D2*
X2385600D1*
X2460526D2*
X2477010D1*
X2667510D2*
X2797050D1*
X2812290D2*
X2842770D1*
X3117089D2*
X3145300D1*
X3260474D2*
X3284737D1*
X3543810D2*
X3646614D1*
X3684042D2*
X3757189D1*
X3955827D2*
X3978168D1*
X4047974D2*
X4075941D1*
X2363979Y8454900D2*
X2385868D1*
X2461233D2*
X2477040D1*
X2659890D2*
X2789750D1*
X2831578D2*
X2858963D1*
X3109470D2*
X3136959D1*
X3268502D2*
X3292352D1*
X3553804D2*
X3648859D1*
X3693300D2*
X3749880D1*
X3955504D2*
X3976998D1*
X4047267D2*
X4074116D1*
X2365804Y8447280D2*
X2386839D1*
X2461556D2*
X2477308D1*
X2690925D2*
X2783434D1*
X2850390D2*
X2873250D1*
X3101850D2*
X3129152D1*
X3275781D2*
X3299971D1*
X3563291D2*
X3647886D1*
X3703830D2*
X3741930D1*
X3955370D2*
X3975097D1*
X4046944D2*
X4072163D1*
X2367757Y8439660D2*
X2388664D1*
X2461690D2*
X2478279D1*
X2711677D2*
X2728470D1*
X2743710D2*
X2778283D1*
X3094230D2*
X3122042D1*
X3282502D2*
X3307590D1*
X3572825D2*
X3641209D1*
X3955319D2*
X3973117D1*
X4046810D2*
X4070834D1*
X2369086Y8432040D2*
X2390617D1*
X2461771D2*
X2480104D1*
X2725898D2*
X2776709D1*
X3086610D2*
X3115405D1*
X3289373D2*
X3315210D1*
X3584174D2*
X3631403D1*
X3955270D2*
X3971778D1*
X4046759D2*
X4070097D1*
X2369793Y8424420D2*
X2391976D1*
X2462058D2*
X2482087D1*
X2731760D2*
X2736090D1*
X2751330D2*
X2777941D1*
X3078990D2*
X3108361D1*
X3296797D2*
X3322830D1*
X3597150D2*
X3620010D1*
X3954996D2*
X3971068D1*
X4046710D2*
X4069506D1*
X2370146Y8416800D2*
X2392951D1*
X2463035D2*
X2483684D1*
X2734025D2*
X2736090D1*
X2751330D2*
X2779520D1*
X3071370D2*
X3100504D1*
X3304923D2*
X3330450D1*
X3954022D2*
X3970744D1*
X4046436D2*
X4068401D1*
X2370548Y8409180D2*
X2394245D1*
X2464892D2*
X2485362D1*
X2735224D2*
X2736090D1*
X2751330D2*
X2780676D1*
X3063750D2*
X3092252D1*
X3313526D2*
X3338070D1*
X3952197D2*
X3970610D1*
X4045462D2*
X4066525D1*
X2371570Y8401560D2*
X2396204D1*
X2467115D2*
X2487510D1*
X2735785D2*
X2736090D1*
X2751330D2*
X2781313D1*
X3056160D2*
X3084598D1*
X3321721D2*
X3345690D1*
X3950243D2*
X3970529D1*
X4043637D2*
X4064552D1*
X2373414Y8393940D2*
X2398209D1*
X2469415D2*
X2489597D1*
X2736265D2*
X2781610D1*
X3048778D2*
X3077640D1*
X3329074D2*
X3353310D1*
X3948914D2*
X3970242D1*
X4041683D2*
X4063217D1*
X2375374Y8386320D2*
X2399586D1*
X2471947D2*
X2491008D1*
X2737322D2*
X2781735D1*
X3041861D2*
X3070656D1*
X3335825D2*
X3360930D1*
X3948177D2*
X3969235D1*
X4040354D2*
X4062508D1*
X2376735Y8378700D2*
X2400567D1*
X2474224D2*
X2492001D1*
X2739239D2*
X2781783D1*
X3035095D2*
X3063424D1*
X3342707D2*
X3368550D1*
X3947586D2*
X3967140D1*
X4039647D2*
X4062154D1*
X2377710Y8371080D2*
X2401864D1*
X2475686D2*
X2493302D1*
X2741517D2*
X2781801D1*
X3027604D2*
X3055996D1*
X3350105D2*
X3376170D1*
X3946451D2*
X3964214D1*
X4039294D2*
X4061752D1*
X2379005Y8363460D2*
X2403823D1*
X2476444D2*
X2495263D1*
X2743710D2*
X2781810D1*
X3019389D2*
X3048458D1*
X3357994D2*
X3383790D1*
X3944307D2*
X3961060D1*
X4038892D2*
X4060700D1*
X2380964Y8355840D2*
X2405829D1*
X2476816D2*
X2497269D1*
X3011385D2*
X3040871D1*
X3365894D2*
X3391410D1*
X3941364D2*
X3958399D1*
X4037840D2*
X4058588D1*
X2382969Y8348220D2*
X2407177D1*
X2477224D2*
X2498646D1*
X3004114D2*
X3033263D1*
X3373236D2*
X3399030D1*
X3938203D2*
X3956717D1*
X4035728D2*
X4055657D1*
X2384346Y8340600D2*
X2407920D1*
X2478279D2*
X2499627D1*
X2997397D2*
X3025648D1*
X3380460D2*
X3406650D1*
X3935511D2*
X3955609D1*
X4032797D2*
X4052501D1*
X2385327Y8332980D2*
X2408513D1*
X2480391D2*
X2500954D1*
X2990526D2*
X3018029D1*
X3387806D2*
X3414270D1*
X3933590D2*
X3954264D1*
X4029641D2*
X4049840D1*
X2386654Y8325360D2*
X2409648D1*
X2483323D2*
X2503181D1*
X2983103D2*
X3010410D1*
X3395073D2*
X3421890D1*
X3931749D2*
X3952286D1*
X4026980D2*
X4048158D1*
X2388881Y8317740D2*
X2411793D1*
X2486509D2*
X2506158D1*
X2974977D2*
X3002790D1*
X3402151D2*
X3429510D1*
X3929281D2*
X3950245D1*
X4025298D2*
X4047049D1*
X2391858Y8310120D2*
X2414736D1*
X2489438D2*
X2509330D1*
X2966374D2*
X2995170D1*
X3409376D2*
X3437130D1*
X3926204D2*
X3948627D1*
X4024189D2*
X4045704D1*
X2395030Y8302500D2*
X2417897D1*
X2492061D2*
X2512027D1*
X2958179D2*
X2987550D1*
X3417229D2*
X3444750D1*
X3922992D2*
X3946942D1*
X4022814D2*
X4043726D1*
X2397727Y8294880D2*
X2420589D1*
X2494727D2*
X2513979D1*
X2950796D2*
X2979930D1*
X3425199D2*
X3452370D1*
X3920281D2*
X3944761D1*
X4020568D2*
X4041714D1*
X2399649Y8287260D2*
X2422510D1*
X2497085D2*
X2516059D1*
X2943807D2*
X2972310D1*
X3432849D2*
X3459990D1*
X3918353D2*
X3942405D1*
X4017586D2*
X4040335D1*
X2401461Y8279640D2*
X2424351D1*
X2498834D2*
X2519230D1*
X2936222D2*
X2964690D1*
X3440117D2*
X3467610D1*
X3916539D2*
X3940024D1*
X4014381D2*
X4039323D1*
X2403661Y8272020D2*
X2426819D1*
X2500600D2*
X2523161D1*
X2927970D2*
X2957070D1*
X3447424D2*
X3475230D1*
X3914309D2*
X3937205D1*
X4011445D2*
X4037758D1*
X2405768Y8264400D2*
X2429896D1*
X2503037D2*
X2526532D1*
X2919952D2*
X2949450D1*
X3455311D2*
X3482850D1*
X3911905D2*
X3933921D1*
X4008820D2*
X4034828D1*
X2407214Y8256780D2*
X2433108D1*
X2506103D2*
X2528856D1*
X2912677D2*
X2941830D1*
X3463322D2*
X3490470D1*
X3909279D2*
X3930363D1*
X4006154D2*
X4030997D1*
X2408477Y8249160D2*
X2435819D1*
X2509340D2*
X2530894D1*
X2905957D2*
X2934210D1*
X3471185D2*
X3498090D1*
X3905755D2*
X3926680D1*
X4003795D2*
X4027666D1*
X2410750Y8241540D2*
X2437747D1*
X2512318D2*
X2533476D1*
X2899087D2*
X2926590D1*
X3478920D2*
X3505710D1*
X3901616D2*
X3923154D1*
X4002016D2*
X4025356D1*
X2414536Y8233920D2*
X2439590D1*
X2515216D2*
X2536855D1*
X2891693D2*
X2918970D1*
X3486378D2*
X3513330D1*
X3897900D2*
X3920085D1*
X4000012D2*
X4023323D1*
X2418526Y8226300D2*
X2442059D1*
X2518854D2*
X2541050D1*
X2883805D2*
X2911350D1*
X3493539D2*
X3520950D1*
X3894573D2*
X3917408D1*
X3996872D2*
X4020773D1*
X2421471Y8218680D2*
X2445166D1*
X2523038D2*
X2545591D1*
X2875905D2*
X2903730D1*
X3500797D2*
X3528570D1*
X3890728D2*
X3914664D1*
X3992923D2*
X4017633D1*
X2423891Y8211060D2*
X2448646D1*
X2526742D2*
X2549503D1*
X2868564D2*
X2896110D1*
X3508663D2*
X3536190D1*
X3886456D2*
X3911793D1*
X3989288D2*
X4014141D1*
X2426633Y8203440D2*
X2452298D1*
X2529836D2*
X2552915D1*
X2861339D2*
X2888490D1*
X3516636D2*
X3543810D1*
X3882718D2*
X3908367D1*
X3985994D2*
X4010484D1*
X2429856Y8195820D2*
X2455813D1*
X2532980D2*
X2556823D1*
X2853994D2*
X2880870D1*
X3524259D2*
X3551430D1*
X3879611D2*
X3903922D1*
X3982161D2*
X4006998D1*
X2433381Y8188200D2*
X2458907D1*
X2536399D2*
X2561345D1*
X2846727D2*
X2873250D1*
X3531289D2*
X3559050D1*
X3876433D2*
X3899372D1*
X3977894D2*
X4004171D1*
X2437050Y8180580D2*
X2461850D1*
X2540038D2*
X2565791D1*
X2839649D2*
X2865630D1*
X3537893D2*
X3566670D1*
X3872774D2*
X3895334D1*
X3974128D2*
X4002169D1*
X2440570Y8172960D2*
X2465506D1*
X2544008D2*
X2569754D1*
X2832424D2*
X2858010D1*
X3544926D2*
X3574290D1*
X3868431D2*
X3891071D1*
X3970783D2*
X4000070D1*
X2443666Y8165340D2*
X2469695D1*
X2548512D2*
X2573061D1*
X2824571D2*
X2850390D1*
X3552778D2*
X3581910D1*
X3863577D2*
X3886597D1*
X3966931D2*
X3996863D1*
X2446610Y8157720D2*
X2473430D1*
X2553408D2*
X2576095D1*
X2816572D2*
X2842770D1*
X3561028D2*
X3589530D1*
X3858707D2*
X3882772D1*
X3962657D2*
X3992662D1*
X2450295Y8150100D2*
X2476764D1*
X2558069D2*
X2579815D1*
X2808713D2*
X2835150D1*
X3568682D2*
X3597120D1*
X3853703D2*
X3879600D1*
X3958918D2*
X3988320D1*
X2454723Y8142480D2*
X2480641D1*
X2562351D2*
X2584286D1*
X2800980D2*
X2827560D1*
X3178050D2*
X3246630D1*
X3575640D2*
X3604502D1*
X3848572D2*
X3876172D1*
X3955811D2*
X3984170D1*
X2459162Y8134860D2*
X2485152D1*
X2566423D2*
X2588997D1*
X2793552D2*
X2820178D1*
X3165570D2*
X3260052D1*
X3582624D2*
X3611419D1*
X3843812D2*
X3871776D1*
X3952633D2*
X3980178D1*
X2463349Y8127240D2*
X2489623D1*
X2570591D2*
X2594157D1*
X2786630D2*
X2813261D1*
X3154468D2*
X3270825D1*
X3589856D2*
X3618189D1*
X3839461D2*
X3866309D1*
X3948974D2*
X3976267D1*
X2467354Y8119620D2*
X2493852D1*
X2575416D2*
X2599988D1*
X2780120D2*
X2806495D1*
X3144966D2*
X3279043D1*
X3597284D2*
X3625725D1*
X3835136D2*
X3860385D1*
X3944631D2*
X3972182D1*
X2471270Y8112000D2*
X2498100D1*
X2581088D2*
X2605858D1*
X2773432D2*
X2799003D1*
X3145667D2*
X3281505D1*
X3604822D2*
X3634169D1*
X3830261D2*
X3854552D1*
X3939777D2*
X3967633D1*
X2475357Y8104380D2*
X2502721D1*
X2587101D2*
X2611303D1*
X2766570D2*
X2790744D1*
X3149183D2*
X3279966D1*
X3612409D2*
X3642870D1*
X3824580D2*
X3848949D1*
X3934907D2*
X3962721D1*
X2479906Y8096760D2*
X2507692D1*
X2592968D2*
X2616797D1*
X2770618D2*
X2782426D1*
X3153286D2*
X3275077D1*
X3620016D2*
X3638822D1*
X3818778D2*
X3843965D1*
X3929903D2*
X3958054D1*
X2484819Y8089140D2*
X2512608D1*
X2598584D2*
X2622766D1*
X2774190D2*
D3*
X3157940D2*
X3269520D1*
X3627630D2*
X3635250D1*
X3813360D2*
X3839520D1*
X3924772D2*
X3953741D1*
X2489486Y8081520D2*
X2517629D1*
X2603603D2*
X2628718D1*
X3162959D2*
X3263615D1*
X3807847D2*
X3835158D1*
X3919982D2*
X3949459D1*
X2493799Y8073900D2*
X2522765D1*
X2608288D2*
X2634421D1*
X3167934D2*
X3257334D1*
X3801644D2*
X3830238D1*
X3915393D2*
X3944826D1*
X2498081Y8066280D2*
X2527557D1*
X2613353D2*
X2640655D1*
X3173237D2*
X3251004D1*
X3794990D2*
X3824285D1*
X3910365D2*
X3939851D1*
X2502714Y8058660D2*
X2532146D1*
X2619127D2*
X2647718D1*
X3179380D2*
X3244777D1*
X3788434D2*
X3817510D1*
X3904606D2*
X3934903D1*
X2507689Y8051040D2*
X2537175D1*
X2625209D2*
X2654503D1*
X3186208D2*
X3238382D1*
X3782042D2*
X3810297D1*
X3898559D2*
X3929644D1*
X2512637Y8043420D2*
X2542934D1*
X2631359D2*
X2660465D1*
X3193194D2*
X3232259D1*
X3775306D2*
X3803098D1*
X3892678D2*
X3923774D1*
X2517896Y8035800D2*
X2548981D1*
X2637980D2*
X2666473D1*
X3199496D2*
X3226771D1*
X3767964D2*
X3796477D1*
X3887059D2*
X3917890D1*
X2523766Y8028180D2*
X2554862D1*
X2645034D2*
X2673528D1*
X3204456D2*
X3221524D1*
X3760095D2*
X3790465D1*
X3882038D2*
X3912469D1*
X2529650Y8020560D2*
X2560511D1*
X2652168D2*
X2681535D1*
X3208530D2*
X3216150D1*
X3752202D2*
X3784073D1*
X3877353D2*
X3907182D1*
X2535101Y8012940D2*
X2565770D1*
X2658981D2*
X2689450D1*
X3744863D2*
X3776692D1*
X3872257D2*
X3901678D1*
X2540626Y8005320D2*
X2571188D1*
X2665707D2*
X2696686D1*
X3737639D2*
X3768948D1*
X3866245D2*
X3895906D1*
X2546834Y7997700D2*
X2577376D1*
X2673184D2*
X2703390D1*
X3730294D2*
X3761422D1*
X3859460D2*
X3889745D1*
X2553459Y7990080D2*
X2584249D1*
X2681424D2*
X2710256D1*
X3723027D2*
X3754430D1*
X3852456D2*
X3883700D1*
X2559808Y7982460D2*
X2591502D1*
X2689664D2*
X2717708D1*
X3715919D2*
X3747839D1*
X3845707D2*
X3878166D1*
X2565705Y7974840D2*
X2598745D1*
X2697667D2*
X2726101D1*
X3708427D2*
X3740782D1*
X3839248D2*
X3872365D1*
X2572023Y7967220D2*
X2605579D1*
X2705506D2*
X2735704D1*
X3699602D2*
X3732663D1*
X3832498D2*
X3865427D1*
X2579148Y7959600D2*
X2612087D1*
X2713446D2*
X2745963D1*
X3689778D2*
X3723443D1*
X3825364D2*
X3857693D1*
X2586184Y7951980D2*
X2618839D1*
X2721832D2*
X2756032D1*
X3679935D2*
X3713934D1*
X3817974D2*
X3850494D1*
X2592824Y7944360D2*
X2625989D1*
X2730586D2*
X2765472D1*
X3670576D2*
X3704785D1*
X3810451D2*
X3844117D1*
X2599449Y7936740D2*
X2633399D1*
X2739310D2*
X2774923D1*
X3661172D2*
X3695739D1*
X3802839D2*
X3837543D1*
X2605931Y7929120D2*
X2641173D1*
X2748162D2*
X2785235D1*
X3650862D2*
X3686649D1*
X3794995D2*
X3830053D1*
X2612489Y7921500D2*
X2649476D1*
X2757382D2*
X2796600D1*
X3639424D2*
X3677529D1*
X3786647D2*
X3822038D1*
X2619921Y7913880D2*
X2658186D1*
X2766948D2*
X2807992D1*
X3627223D2*
X3667657D1*
X3777936D2*
X3813768D1*
X2628369Y7906260D2*
X2666681D1*
X2777178D2*
X2817219D1*
X3615043D2*
X3656594D1*
X3769455D2*
X3805679D1*
X2637301Y7898640D2*
X2675017D1*
X2787994D2*
X2823199D1*
X3602924D2*
X3645068D1*
X3761338D2*
X3798255D1*
X2646154Y7891020D2*
X2683596D1*
X2799166D2*
X2844258D1*
X3590308D2*
X3633506D1*
X3753211D2*
X3790968D1*
X2654121Y7883400D2*
X2692464D1*
X2810755D2*
X2857570D1*
X3576910D2*
X3621984D1*
X3744506D2*
X3783343D1*
X2661465Y7875780D2*
X2701489D1*
X2823135D2*
X2871712D1*
X3562949D2*
X3610458D1*
X3734744D2*
X3775101D1*
X2669467Y7868160D2*
X2711324D1*
X2836618D2*
X2887493D1*
X3548182D2*
X3598497D1*
X3724138D2*
X3766166D1*
X2678570Y7860540D2*
X2722373D1*
X2850753D2*
X2904765D1*
X3531848D2*
X3585333D1*
X3712870D2*
X3756719D1*
X2688227Y7852920D2*
X2733895D1*
X2864906D2*
X2922755D1*
X3514191D2*
X3570679D1*
X3701135D2*
X3746566D1*
X2698096Y7845300D2*
X2745454D1*
X2879166D2*
X2941688D1*
X3495747D2*
X3555170D1*
X3689636D2*
X3736035D1*
X2708453Y7837680D2*
X2756977D1*
X2894486D2*
X2961501D1*
X3476592D2*
X3538874D1*
X3679196D2*
X3725869D1*
X2719071Y7830060D2*
X2768473D1*
X2911360D2*
X2982116D1*
X3455782D2*
X3521694D1*
X3669194D2*
X3716376D1*
X2729331Y7822440D2*
X2780165D1*
X2929606D2*
X3005672D1*
X3431071D2*
X3504118D1*
X3658357D2*
X3706891D1*
X2739343Y7814820D2*
X2792359D1*
X2949420D2*
X3035491D1*
X3400180D2*
X3485746D1*
X3645840D2*
X3696324D1*
X2750477Y7807200D2*
X2805157D1*
X2971216D2*
X3073133D1*
X3361857D2*
X3464888D1*
X3631743D2*
X3684176D1*
X2763486Y7799580D2*
X2818445D1*
X2995377D2*
X3117353D1*
X3315870D2*
X3440274D1*
X3617356D2*
X3671090D1*
X2777043Y7791960D2*
X2832501D1*
X3023165D2*
X3165894D1*
X3263577D2*
X3411813D1*
X3603139D2*
X3658542D1*
X2790248Y7784340D2*
X2847595D1*
X3056254D2*
X3380067D1*
X3588426D2*
X3646284D1*
X2803723Y7776720D2*
X2864003D1*
X3093570D2*
X3347352D1*
X3572633D2*
X3632931D1*
X2818340Y7769100D2*
X2881351D1*
X3132330D2*
X3315210D1*
X3555513D2*
X3618113D1*
X2833946Y7761480D2*
X2898585D1*
X3537379D2*
X3602318D1*
X2849504Y7753860D2*
X2916292D1*
X3518484D2*
X3586440D1*
X2864654Y7746240D2*
X2936088D1*
X3498566D2*
X3570760D1*
X2880217Y7738620D2*
X2958795D1*
X3477046D2*
X3554777D1*
X2897588Y7731000D2*
X2984792D1*
X3452390D2*
X3537432D1*
X2917242Y7723380D2*
X3015507D1*
X3421328D2*
X3517693D1*
X2939541Y7715760D2*
X3051875D1*
X3381368D2*
X3495513D1*
X2965078Y7708140D2*
X3091655D1*
X3334247D2*
X3471051D1*
X2992780Y7700520D2*
X3132330D1*
X3147570D2*
D3*
X3283439D2*
X3444592D1*
X3020589Y7692900D2*
X3416736D1*
X3046740Y7685280D2*
X3388637D1*
X3071370Y7677660D2*
X3360930D1*
X3185670Y7670040D2*
X3246630D1*
X3109470Y9399780D2*
X3074070Y9392160D1*
X3040061Y9384540D1*
X3008846Y9376920D1*
X2980423Y9369300D1*
X2955170Y9361680D1*
X2933727Y9354060D1*
X2915010Y9346440D1*
X2897092Y9338820D1*
X2879415Y9331200D1*
X2862073Y9323580D1*
X2845044Y9315960D1*
X2828900Y9308340D1*
X2814020Y9300720D1*
X2800327Y9293100D1*
X2786956Y9285480D1*
X2773298Y9277860D1*
X2759988Y9270240D1*
X2747891Y9262620D1*
X2736860Y9255000D1*
X2726192Y9247380D1*
X2715862Y9239760D1*
X2705973Y9232140D1*
X2696446Y9224520D1*
X2687376Y9216900D1*
X2678412Y9209280D1*
X2669376Y9201660D1*
X2660523Y9194040D1*
X2651408Y9186420D1*
X2641720Y9178800D1*
X2632074Y9171180D1*
X2623324Y9163560D1*
X2615715Y9155940D1*
X2608889Y9148320D1*
X2602233Y9140700D1*
X2595762Y9133080D1*
X2589484Y9125460D1*
X2583071Y9117840D1*
X2576937Y9110220D1*
X2571382Y9102600D1*
X2565816Y9094980D1*
X2559564Y9087360D1*
X2552695Y9079740D1*
X2545671Y9072120D1*
X2539158Y9064500D1*
X2533445Y9056880D1*
X2528035Y9049260D1*
X2522484Y9041640D1*
X2516724Y9034020D1*
X2510796Y9026400D1*
X2505511Y9018780D1*
X2501367Y9011160D1*
X2497636Y9003540D1*
X2493723Y8995920D1*
X2489275Y8988300D1*
X2484380Y8980680D1*
X2479494Y8973060D1*
X2474485Y8965440D1*
X2469353Y8957820D1*
X2464592Y8950200D1*
X2460271Y8942580D1*
X2456244Y8934960D1*
X2452577Y8927340D1*
X2449455Y8919720D1*
X2446729Y8912100D1*
X2443769Y8904480D1*
X2440431Y8896860D1*
X2436853Y8889240D1*
X2433163Y8881620D1*
X2429635Y8874000D1*
X2426536Y8866380D1*
X2423591Y8858760D1*
X2419935Y8851140D1*
X2415774Y8843520D1*
X2412307Y8835900D1*
X2409945Y8828280D1*
X2407923Y8820660D1*
X2405634Y8813040D1*
X2403492Y8805420D1*
X2402063Y8797800D1*
X2401033Y8790180D1*
X2399462Y8782560D1*
X2396529Y8774940D1*
X2392698Y8767320D1*
X2389396Y8759700D1*
X2387354Y8752080D1*
X2386292Y8744460D1*
X2385566Y8736840D1*
X2384410Y8729220D1*
X2382485Y8721600D1*
X2380238Y8713980D1*
X2377929Y8706360D1*
X2375395Y8698740D1*
X2373117Y8691120D1*
X2371654Y8683500D1*
X2370896Y8675880D1*
X2370554Y8668260D1*
X2370384Y8660640D1*
X2370062Y8653020D1*
X2369071Y8645400D1*
X2367240Y8637780D1*
X2365284Y8630160D1*
X2363954Y8622540D1*
X2363247Y8614920D1*
X2362924Y8607300D1*
X2362790Y8599680D1*
X2362739Y8592060D1*
X2362720Y8584440D1*
X2362713Y8576820D1*
X2362711Y8569200D1*
X2362710Y8561580D1*
Y8553960D1*
Y8546340D1*
Y8538720D1*
Y8531100D1*
Y8523480D1*
Y8515860D1*
Y8508240D1*
Y8500620D1*
Y8493000D1*
Y8485380D1*
Y8477760D1*
X2362740Y8470140D1*
X2363008Y8462520D1*
X2363979Y8454900D1*
X2365804Y8447280D1*
X2367757Y8439660D1*
X2369086Y8432040D1*
X2369793Y8424420D1*
X2370146Y8416800D1*
X2370548Y8409180D1*
X2371570Y8401560D1*
X2373414Y8393940D1*
X2375374Y8386320D1*
X2376735Y8378700D1*
X2377710Y8371080D1*
X2379005Y8363460D1*
X2380964Y8355840D1*
X2382969Y8348220D1*
X2384346Y8340600D1*
X2385327Y8332980D1*
X2386654Y8325360D1*
X2388881Y8317740D1*
X2391858Y8310120D1*
X2395030Y8302500D1*
X2397727Y8294880D1*
X2399649Y8287260D1*
X2401461Y8279640D1*
X2403661Y8272020D1*
X2405768Y8264400D1*
X2407214Y8256780D1*
X2408477Y8249160D1*
X2410750Y8241540D1*
X2414536Y8233920D1*
X2418526Y8226300D1*
X2421471Y8218680D1*
X2423891Y8211060D1*
X2426633Y8203440D1*
X2429856Y8195820D1*
X2433381Y8188200D1*
X2437050Y8180580D1*
X2440570Y8172960D1*
X2443666Y8165340D1*
X2446610Y8157720D1*
X2450295Y8150100D1*
X2454723Y8142480D1*
X2459162Y8134860D1*
X2463349Y8127240D1*
X2467354Y8119620D1*
X2471270Y8112000D1*
X2475357Y8104380D1*
X2479906Y8096760D1*
X2484819Y8089140D1*
X2489486Y8081520D1*
X2493799Y8073900D1*
X2498081Y8066280D1*
X2502714Y8058660D1*
X2507689Y8051040D1*
X2512637Y8043420D1*
X2517896Y8035800D1*
X2523766Y8028180D1*
X2529650Y8020560D1*
X2535101Y8012940D1*
X2540626Y8005320D1*
X2546834Y7997700D1*
X2553459Y7990080D1*
X2559808Y7982460D1*
X2565705Y7974840D1*
X2572023Y7967220D1*
X2579148Y7959600D1*
X2586184Y7951980D1*
X2592824Y7944360D1*
X2599449Y7936740D1*
X2605931Y7929120D1*
X2612489Y7921500D1*
X2619921Y7913880D1*
X2628369Y7906260D1*
X2637301Y7898640D1*
X2646154Y7891020D1*
X2654121Y7883400D1*
X2661465Y7875780D1*
X2669467Y7868160D1*
X2678570Y7860540D1*
X2688227Y7852920D1*
X2698096Y7845300D1*
X2708453Y7837680D1*
X2719071Y7830060D1*
X2729331Y7822440D1*
X2739343Y7814820D1*
X2750477Y7807200D1*
X2763486Y7799580D1*
X2777043Y7791960D1*
X2790248Y7784340D1*
X2803723Y7776720D1*
X2818340Y7769100D1*
X2833946Y7761480D1*
X2849504Y7753860D1*
X2864654Y7746240D1*
X2880217Y7738620D1*
X2897588Y7731000D1*
X2917242Y7723380D1*
X2939541Y7715760D1*
X2965078Y7708140D1*
X2992780Y7700520D1*
X3020589Y7692900D1*
X3046740Y7685280D1*
X3071370Y7677660D1*
X3322830Y9399780D2*
X3359687Y9392160D1*
X3394313Y9384540D1*
X3425733Y9376920D1*
X3454719Y9369300D1*
X3480938Y9361680D1*
X3504098Y9354060D1*
X3524920Y9346440D1*
X3543880Y9338820D1*
X3561408Y9331200D1*
X3578126Y9323580D1*
X3594167Y9315960D1*
X3609307Y9308340D1*
X3623991Y9300720D1*
X3638251Y9293100D1*
X3651996Y9285480D1*
X3665329Y9277860D1*
X3677974Y9270240D1*
X3689994Y9262620D1*
X3701445Y9255000D1*
X3712014Y9247380D1*
X3721640Y9239760D1*
X3730888Y9232140D1*
X3740268Y9224520D1*
X3749865Y9216900D1*
X3759819Y9209280D1*
X3769404Y9201660D1*
X3777783Y9194040D1*
X3785534Y9186420D1*
X3794096Y9178800D1*
X3803571Y9171180D1*
X3812699Y9163560D1*
X3820921Y9155940D1*
X3828005Y9148320D1*
X3833999Y9140700D1*
X3839986Y9133080D1*
X3847024Y9125460D1*
X3855021Y9117840D1*
X3862903Y9110220D1*
X3869899Y9102600D1*
X3875870Y9094980D1*
X3881614Y9087360D1*
X3887906Y9079740D1*
X3894563Y9072120D1*
X3900863Y9064500D1*
X3906258Y9056880D1*
X3910902Y9049260D1*
X3915320Y9041640D1*
X3920005Y9034020D1*
X3925000Y9026400D1*
X3929924Y9018780D1*
X3934947Y9011160D1*
X3940085Y9003540D1*
X3944847Y8995920D1*
X3949198Y8988300D1*
X3953494Y8980680D1*
X3958102Y8973060D1*
X3962811Y8965440D1*
X3966788Y8957820D1*
X3970222Y8950200D1*
X3974139Y8942580D1*
X3978694Y8934960D1*
X3983408Y8927340D1*
X3988312Y8919720D1*
X3993177Y8912100D1*
X3997193Y8904480D1*
X4000388Y8896860D1*
X4003344Y8889240D1*
X4006048Y8881620D1*
X4008572Y8874000D1*
X4011445Y8866380D1*
X4014719Y8858760D1*
X4018016Y8851140D1*
X4020760Y8843520D1*
X4022730Y8835900D1*
X4024816Y8828280D1*
X4027989Y8820660D1*
X4031921Y8813040D1*
X4035262Y8805420D1*
X4037348Y8797800D1*
X4038653Y8790180D1*
X4040084Y8782560D1*
X4042095Y8774940D1*
X4044119Y8767320D1*
X4045503Y8759700D1*
X4046486Y8752080D1*
X4047784Y8744460D1*
X4049773Y8736840D1*
X4052046Y8729220D1*
X4054365Y8721600D1*
X4056904Y8713980D1*
X4059183Y8706360D1*
X4060646Y8698740D1*
X4061434Y8691120D1*
X4062044Y8683500D1*
X4063155Y8675880D1*
X4065034Y8668260D1*
X4067007Y8660640D1*
X4068343Y8653020D1*
X4069052Y8645400D1*
X4069376Y8637780D1*
X4069540Y8630160D1*
X4069859Y8622540D1*
X4070849Y8614920D1*
X4072680Y8607300D1*
X4074636Y8599680D1*
X4075966Y8592060D1*
X4076673Y8584440D1*
X4076996Y8576820D1*
X4077130Y8569200D1*
X4077181Y8561580D1*
X4077200Y8553960D1*
X4077207Y8546340D1*
X4077209Y8538720D1*
X4077210Y8531100D1*
Y8523480D1*
Y8515860D1*
Y8508240D1*
Y8500620D1*
Y8493000D1*
Y8485380D1*
X4077180Y8477760D1*
X4076912Y8470140D1*
X4075941Y8462520D1*
X4074116Y8454900D1*
X4072163Y8447280D1*
X4070834Y8439660D1*
X4070097Y8432040D1*
X4069506Y8424420D1*
X4068401Y8416800D1*
X4066525Y8409180D1*
X4064552Y8401560D1*
X4063217Y8393940D1*
X4062508Y8386320D1*
X4062154Y8378700D1*
X4061752Y8371080D1*
X4060700Y8363460D1*
X4058588Y8355840D1*
X4055657Y8348220D1*
X4052501Y8340600D1*
X4049840Y8332980D1*
X4048158Y8325360D1*
X4047049Y8317740D1*
X4045704Y8310120D1*
X4043726Y8302500D1*
X4041714Y8294880D1*
X4040335Y8287260D1*
X4039323Y8279640D1*
X4037758Y8272020D1*
X4034828Y8264400D1*
X4030997Y8256780D1*
X4027666Y8249160D1*
X4025356Y8241540D1*
X4023323Y8233920D1*
X4020773Y8226300D1*
X4017633Y8218680D1*
X4014141Y8211060D1*
X4010484Y8203440D1*
X4006998Y8195820D1*
X4004171Y8188200D1*
X4002169Y8180580D1*
X4000070Y8172960D1*
X3996863Y8165340D1*
X3992662Y8157720D1*
X3988320Y8150100D1*
X3984170Y8142480D1*
X3980178Y8134860D1*
X3976267Y8127240D1*
X3972182Y8119620D1*
X3967633Y8112000D1*
X3962721Y8104380D1*
X3958054Y8096760D1*
X3953741Y8089140D1*
X3949459Y8081520D1*
X3944826Y8073900D1*
X3939851Y8066280D1*
X3934903Y8058660D1*
X3929644Y8051040D1*
X3923774Y8043420D1*
X3917890Y8035800D1*
X3912469Y8028180D1*
X3907182Y8020560D1*
X3901678Y8012940D1*
X3895906Y8005320D1*
X3889745Y7997700D1*
X3883700Y7990080D1*
X3878166Y7982460D1*
X3872365Y7974840D1*
X3865427Y7967220D1*
X3857693Y7959600D1*
X3850494Y7951980D1*
X3844117Y7944360D1*
X3837543Y7936740D1*
X3830053Y7929120D1*
X3822038Y7921500D1*
X3813768Y7913880D1*
X3805679Y7906260D1*
X3798255Y7898640D1*
X3790968Y7891020D1*
X3783343Y7883400D1*
X3775101Y7875780D1*
X3766166Y7868160D1*
X3756719Y7860540D1*
X3746566Y7852920D1*
X3736035Y7845300D1*
X3725869Y7837680D1*
X3716376Y7830060D1*
X3706891Y7822440D1*
X3696324Y7814820D1*
X3684176Y7807200D1*
X3671090Y7799580D1*
X3658542Y7791960D1*
X3646284Y7784340D1*
X3632931Y7776720D1*
X3618113Y7769100D1*
X3602318Y7761480D1*
X3586440Y7753860D1*
X3570760Y7746240D1*
X3554777Y7738620D1*
X3537432Y7731000D1*
X3517693Y7723380D1*
X3495513Y7715760D1*
X3471051Y7708140D1*
X3444592Y7700520D1*
X3416736Y7692900D1*
X3388637Y7685280D1*
X3360930Y7677660D1*
X3216150Y9376920D2*
X3148048Y9369300D1*
X3089976Y9361680D1*
X3044574Y9354060D1*
X3009290Y9346440D1*
X2980435Y9338820D1*
X2955206Y9331200D1*
X2932072Y9323580D1*
X2910483Y9315960D1*
X2890568Y9308340D1*
X2873057Y9300720D1*
X2857408Y9293100D1*
X2842374Y9285480D1*
X2827607Y9277860D1*
X2813491Y9270240D1*
X2800402Y9262620D1*
X2788141Y9255000D1*
X2776333Y9247380D1*
X2764757Y9239760D1*
X2753264Y9232140D1*
X2741819Y9224520D1*
X2730435Y9216900D1*
X2719515Y9209280D1*
X2709782Y9201660D1*
X2701305Y9194040D1*
X2692922Y9186420D1*
X2684027Y9178800D1*
X2674659Y9171180D1*
X2664772Y9163560D1*
X2654987Y9155940D1*
X2645949Y9148320D1*
X2637587Y9140700D1*
X2629660Y9133080D1*
X2622170Y9125460D1*
X2615468Y9117840D1*
X2609654Y9110220D1*
X2603981Y9102600D1*
X2597688Y9094980D1*
X2590803Y9087360D1*
X2583744Y9079740D1*
X2576991Y9072120D1*
X2570544Y9064500D1*
X2564043Y9056880D1*
X2557659Y9049260D1*
X2551641Y9041640D1*
X2545968Y9034020D1*
X2540958Y9026400D1*
X2536504Y9018780D1*
X2532139Y9011160D1*
X2527248Y9003540D1*
X2521563Y8995920D1*
X2515789Y8988300D1*
X2510638Y8980680D1*
X2506126Y8973060D1*
X2501986Y8965440D1*
X2498018Y8957820D1*
X2493913Y8950200D1*
X2489387Y8942580D1*
X2484710Y8934960D1*
X2480746Y8927340D1*
X2477315Y8919720D1*
X2473430Y8912100D1*
X2469144Y8904480D1*
X2465371Y8896860D1*
X2462024Y8889240D1*
X2458172Y8881620D1*
X2453897Y8874000D1*
X2450158Y8866380D1*
X2447081Y8858760D1*
X2444170Y8851140D1*
X2441483Y8843520D1*
X2438965Y8835900D1*
X2436094Y8828280D1*
X2432821Y8820660D1*
X2429524Y8813040D1*
X2426780Y8805420D1*
X2424840Y8797800D1*
X2422992Y8790180D1*
X2420522Y8782560D1*
X2417444Y8774940D1*
X2414232Y8767320D1*
X2411550Y8759700D1*
X2409891Y8752080D1*
X2409018Y8744460D1*
X2408375Y8736840D1*
X2407251Y8729220D1*
X2405368Y8721600D1*
X2403393Y8713980D1*
X2402027Y8706360D1*
X2401050Y8698740D1*
X2399755Y8691120D1*
X2397767Y8683500D1*
X2395493Y8675880D1*
X2393175Y8668260D1*
X2390636Y8660640D1*
X2388357Y8653020D1*
X2386894Y8645400D1*
X2386136Y8637780D1*
X2385794Y8630160D1*
X2385653Y8622540D1*
X2385600Y8614920D1*
X2385580Y8607300D1*
X2385573Y8599680D1*
X2385571Y8592060D1*
X2385570Y8584440D1*
Y8576820D1*
Y8569200D1*
Y8561580D1*
Y8553960D1*
Y8546340D1*
Y8538720D1*
Y8531100D1*
Y8523480D1*
Y8515860D1*
Y8508240D1*
Y8500620D1*
Y8493000D1*
Y8485380D1*
Y8477760D1*
Y8470140D1*
X2385600Y8462520D1*
X2385868Y8454900D1*
X2386839Y8447280D1*
X2388664Y8439660D1*
X2390617Y8432040D1*
X2391976Y8424420D1*
X2392951Y8416800D1*
X2394245Y8409180D1*
X2396204Y8401560D1*
X2398209Y8393940D1*
X2399586Y8386320D1*
X2400567Y8378700D1*
X2401864Y8371080D1*
X2403823Y8363460D1*
X2405829Y8355840D1*
X2407177Y8348220D1*
X2407920Y8340600D1*
X2408513Y8332980D1*
X2409648Y8325360D1*
X2411793Y8317740D1*
X2414736Y8310120D1*
X2417897Y8302500D1*
X2420589Y8294880D1*
X2422510Y8287260D1*
X2424351Y8279640D1*
X2426819Y8272020D1*
X2429896Y8264400D1*
X2433108Y8256780D1*
X2435819Y8249160D1*
X2437747Y8241540D1*
X2439590Y8233920D1*
X2442059Y8226300D1*
X2445166Y8218680D1*
X2448646Y8211060D1*
X2452298Y8203440D1*
X2455813Y8195820D1*
X2458907Y8188200D1*
X2461850Y8180580D1*
X2465506Y8172960D1*
X2469695Y8165340D1*
X2473430Y8157720D1*
X2476764Y8150100D1*
X2480641Y8142480D1*
X2485152Y8134860D1*
X2489623Y8127240D1*
X2493852Y8119620D1*
X2498100Y8112000D1*
X2502721Y8104380D1*
X2507692Y8096760D1*
X2512608Y8089140D1*
X2517629Y8081520D1*
X2522765Y8073900D1*
X2527557Y8066280D1*
X2532146Y8058660D1*
X2537175Y8051040D1*
X2542934Y8043420D1*
X2548981Y8035800D1*
X2554862Y8028180D1*
X2560511Y8020560D1*
X2565770Y8012940D1*
X2571188Y8005320D1*
X2577376Y7997700D1*
X2584249Y7990080D1*
X2591502Y7982460D1*
X2598745Y7974840D1*
X2605579Y7967220D1*
X2612087Y7959600D1*
X2618839Y7951980D1*
X2625989Y7944360D1*
X2633399Y7936740D1*
X2641173Y7929120D1*
X2649476Y7921500D1*
X2658186Y7913880D1*
X2666681Y7906260D1*
X2675017Y7898640D1*
X2683596Y7891020D1*
X2692464Y7883400D1*
X2701489Y7875780D1*
X2711324Y7868160D1*
X2722373Y7860540D1*
X2733895Y7852920D1*
X2745454Y7845300D1*
X2756977Y7837680D1*
X2768473Y7830060D1*
X2780165Y7822440D1*
X2792359Y7814820D1*
X2805157Y7807200D1*
X2818445Y7799580D1*
X2832501Y7791960D1*
X2847595Y7784340D1*
X2864003Y7776720D1*
X2881351Y7769100D1*
X2898585Y7761480D1*
X2916292Y7753860D1*
X2936088Y7746240D1*
X2958795Y7738620D1*
X2984792Y7731000D1*
X3015507Y7723380D1*
X3051875Y7715760D1*
X3091655Y7708140D1*
X3132330Y7700520D1*
X3223770Y9376920D2*
X3291872Y9369300D1*
X3349944Y9361680D1*
X3395346Y9354060D1*
X3430630Y9346440D1*
X3459456Y9338820D1*
X3484447Y9331200D1*
X3506877Y9323580D1*
X3527612Y9315960D1*
X3547398Y9308340D1*
X3565534Y9300720D1*
X3581805Y9293100D1*
X3597223Y9285480D1*
X3612179Y9277860D1*
X3626378Y9270240D1*
X3639499Y9262620D1*
X3651772Y9255000D1*
X3663585Y9247380D1*
X3675162Y9239760D1*
X3686626Y9232140D1*
X3697833Y9224520D1*
X3708514Y9216900D1*
X3718580Y9209280D1*
X3728184Y9201660D1*
X3737286Y9194040D1*
X3746262Y9186420D1*
X3755272Y9178800D1*
X3763888Y9171180D1*
X3772271Y9163560D1*
X3780867Y9155940D1*
X3789681Y9148320D1*
X3798202Y9140700D1*
X3806334Y9133080D1*
X3814407Y9125460D1*
X3822577Y9117840D1*
X3830369Y9110220D1*
X3836998Y9102600D1*
X3842910Y9094980D1*
X3848697Y9087360D1*
X3854585Y9079740D1*
X3860790Y9072120D1*
X3866852Y9064500D1*
X3872361Y9056880D1*
X3877897Y9049260D1*
X3883894Y9041640D1*
X3890041Y9034020D1*
X3895960Y9026400D1*
X3901594Y9018780D1*
X3906589Y9011160D1*
X3911039Y9003540D1*
X3915372Y8995920D1*
X3920024Y8988300D1*
X3925006Y8980680D1*
X3929926Y8973060D1*
X3934918Y8965440D1*
X3939817Y8957820D1*
X3943847Y8950200D1*
X3947076Y8942580D1*
X3950301Y8934960D1*
X3953977Y8927340D1*
X3958296Y8919720D1*
X3962884Y8912100D1*
X3966814Y8904480D1*
X3970231Y8896860D1*
X3974112Y8889240D1*
X3978397Y8881620D1*
X3982140Y8874000D1*
X3985249Y8866380D1*
X3988397Y8858760D1*
X3991788Y8851140D1*
X3995160Y8843520D1*
X3998159Y8835900D1*
X4000808Y8828280D1*
X4003512Y8820660D1*
X4006111Y8813040D1*
X4008565Y8805420D1*
X4011185Y8797800D1*
X4013750Y8790180D1*
X4016192Y8782560D1*
X4018777Y8774940D1*
X4021103Y8767320D1*
X4022841Y8759700D1*
X4024572Y8752080D1*
X4026770Y8744460D1*
X4029132Y8736840D1*
X4031486Y8729220D1*
X4034037Y8721600D1*
X4036320Y8713980D1*
X4037785Y8706360D1*
X4038544Y8698740D1*
X4038916Y8691120D1*
X4039324Y8683500D1*
X4040349Y8675880D1*
X4042194Y8668260D1*
X4044154Y8660640D1*
X4045485Y8653020D1*
X4046193Y8645400D1*
X4046516Y8637780D1*
X4046650Y8630160D1*
X4046701Y8622540D1*
X4046750Y8614920D1*
X4047024Y8607300D1*
X4047998Y8599680D1*
X4049823Y8592060D1*
X4051777Y8584440D1*
X4053106Y8576820D1*
X4053813Y8569200D1*
X4054136Y8561580D1*
X4054270Y8553960D1*
X4054321Y8546340D1*
X4054340Y8538720D1*
X4054347Y8531100D1*
X4054349Y8523480D1*
X4054350Y8515860D1*
Y8508240D1*
X4054320Y8500620D1*
X4054052Y8493000D1*
X4053081Y8485380D1*
X4051256Y8477760D1*
X4049303Y8470140D1*
X4047974Y8462520D1*
X4047267Y8454900D1*
X4046944Y8447280D1*
X4046810Y8439660D1*
X4046759Y8432040D1*
X4046710Y8424420D1*
X4046436Y8416800D1*
X4045462Y8409180D1*
X4043637Y8401560D1*
X4041683Y8393940D1*
X4040354Y8386320D1*
X4039647Y8378700D1*
X4039294Y8371080D1*
X4038892Y8363460D1*
X4037840Y8355840D1*
X4035728Y8348220D1*
X4032797Y8340600D1*
X4029641Y8332980D1*
X4026980Y8325360D1*
X4025298Y8317740D1*
X4024189Y8310120D1*
X4022814Y8302500D1*
X4020568Y8294880D1*
X4017586Y8287260D1*
X4014381Y8279640D1*
X4011445Y8272020D1*
X4008820Y8264400D1*
X4006154Y8256780D1*
X4003795Y8249160D1*
X4002016Y8241540D1*
X4000012Y8233920D1*
X3996872Y8226300D1*
X3992923Y8218680D1*
X3989288Y8211060D1*
X3985994Y8203440D1*
X3982161Y8195820D1*
X3977894Y8188200D1*
X3974128Y8180580D1*
X3970783Y8172960D1*
X3966931Y8165340D1*
X3962657Y8157720D1*
X3958918Y8150100D1*
X3955811Y8142480D1*
X3952633Y8134860D1*
X3948974Y8127240D1*
X3944631Y8119620D1*
X3939777Y8112000D1*
X3934907Y8104380D1*
X3929903Y8096760D1*
X3924772Y8089140D1*
X3919982Y8081520D1*
X3915393Y8073900D1*
X3910365Y8066280D1*
X3904606Y8058660D1*
X3898559Y8051040D1*
X3892678Y8043420D1*
X3887059Y8035800D1*
X3882038Y8028180D1*
X3877353Y8020560D1*
X3872257Y8012940D1*
X3866245Y8005320D1*
X3859460Y7997700D1*
X3852456Y7990080D1*
X3845707Y7982460D1*
X3839248Y7974840D1*
X3832498Y7967220D1*
X3825364Y7959600D1*
X3817974Y7951980D1*
X3810451Y7944360D1*
X3802839Y7936740D1*
X3794995Y7929120D1*
X3786647Y7921500D1*
X3777936Y7913880D1*
X3769455Y7906260D1*
X3761338Y7898640D1*
X3753211Y7891020D1*
X3744506Y7883400D1*
X3734744Y7875780D1*
X3724138Y7868160D1*
X3712870Y7860540D1*
X3701135Y7852920D1*
X3689636Y7845300D1*
X3679196Y7837680D1*
X3669194Y7830060D1*
X3658357Y7822440D1*
X3645840Y7814820D1*
X3631743Y7807200D1*
X3617356Y7799580D1*
X3603139Y7791960D1*
X3588426Y7784340D1*
X3572633Y7776720D1*
X3555513Y7769100D1*
X3537379Y7761480D1*
X3518484Y7753860D1*
X3498566Y7746240D1*
X3477046Y7738620D1*
X3452390Y7731000D1*
X3421328Y7723380D1*
X3381368Y7715760D1*
X3334247Y7708140D1*
X3283439Y7700520D1*
X3231390Y7692900D1*
X3162810Y9308340D2*
X3118397Y9300720D1*
X3077976Y9293100D1*
X3042601Y9285480D1*
X3012137Y9277860D1*
X2986066Y9270240D1*
X2963116Y9262620D1*
X2942640Y9255000D1*
X2923932Y9247380D1*
X2906093Y9239760D1*
X2889079Y9232140D1*
X2873850Y9224520D1*
X2860817Y9216900D1*
X2854984Y9209280D1*
X2850390Y9201660D1*
X2827530D1*
X2819355Y9194040D1*
X2808789Y9186420D1*
X2797003Y9178800D1*
X2785571Y9171180D1*
X2774806Y9163560D1*
X2764268Y9155940D1*
X2754211Y9148320D1*
X2745038Y9140700D1*
X2736370Y9133080D1*
X2727429Y9125460D1*
X2717841Y9117840D1*
X2708213Y9110220D1*
X2699244Y9102600D1*
X2690910Y9094980D1*
X2682965Y9087360D1*
X2675210Y9079740D1*
X2667568Y9072120D1*
X2660198Y9064500D1*
X2653542Y9056880D1*
X2647745Y9049260D1*
X2642078Y9041640D1*
X2635787Y9034020D1*
X2628903Y9026400D1*
X2621874Y9018780D1*
X2615359Y9011160D1*
X2609645Y9003540D1*
X2604265Y8995920D1*
X2598952Y8988300D1*
X2593866Y8980680D1*
X2588553Y8973060D1*
X2582694Y8965440D1*
X2577071Y8957820D1*
X2572589Y8950200D1*
X2568918Y8942580D1*
X2564902Y8934960D1*
X2560308Y8927340D1*
X2555580Y8919720D1*
X2550670Y8912100D1*
X2545804Y8904480D1*
X2541787Y8896860D1*
X2538562Y8889240D1*
X2535368Y8881620D1*
X2531931Y8874000D1*
X2528315Y8866380D1*
X2524611Y8858760D1*
X2521077Y8851140D1*
X2517977Y8843520D1*
X2515031Y8835900D1*
X2511375Y8828280D1*
X2507214Y8820660D1*
X2503747Y8813040D1*
X2501385Y8805420D1*
X2499363Y8797800D1*
X2497074Y8790180D1*
X2494903Y8782560D1*
X2493235Y8774940D1*
X2491502Y8767320D1*
X2489077Y8759700D1*
X2486015Y8752080D1*
X2482809Y8744460D1*
X2480129Y8736840D1*
X2478441Y8729220D1*
X2477330Y8721600D1*
X2475984Y8713980D1*
X2474006Y8706360D1*
X2471965Y8698740D1*
X2470347Y8691120D1*
X2468662Y8683500D1*
X2466511Y8675880D1*
X2464423Y8668260D1*
X2463042Y8660640D1*
X2462317Y8653020D1*
X2461987Y8645400D1*
X2461821Y8637780D1*
X2461501Y8630160D1*
X2460511Y8622540D1*
X2458680Y8614920D1*
X2456724Y8607300D1*
X2455394Y8599680D1*
X2454687Y8592060D1*
X2454364Y8584440D1*
X2454230Y8576820D1*
X2454179Y8569200D1*
X2454160Y8561580D1*
X2454153Y8553960D1*
X2454151Y8546340D1*
X2454150Y8538720D1*
Y8531100D1*
Y8523480D1*
Y8515860D1*
Y8508240D1*
X2454180Y8500620D1*
X2454448Y8493000D1*
X2455419Y8485380D1*
X2457244Y8477760D1*
X2459197Y8470140D1*
X2460526Y8462520D1*
X2461233Y8454900D1*
X2461556Y8447280D1*
X2461690Y8439660D1*
X2461771Y8432040D1*
X2462058Y8424420D1*
X2463035Y8416800D1*
X2464892Y8409180D1*
X2467115Y8401560D1*
X2469415Y8393940D1*
X2471947Y8386320D1*
X2474224Y8378700D1*
X2475686Y8371080D1*
X2476444Y8363460D1*
X2476816Y8355840D1*
X2477224Y8348220D1*
X2478279Y8340600D1*
X2480391Y8332980D1*
X2483323Y8325360D1*
X2486509Y8317740D1*
X2489438Y8310120D1*
X2492061Y8302500D1*
X2494727Y8294880D1*
X2497085Y8287260D1*
X2498834Y8279640D1*
X2500600Y8272020D1*
X2503037Y8264400D1*
X2506103Y8256780D1*
X2509340Y8249160D1*
X2512318Y8241540D1*
X2515216Y8233920D1*
X2518854Y8226300D1*
X2523038Y8218680D1*
X2526742Y8211060D1*
X2529836Y8203440D1*
X2532980Y8195820D1*
X2536399Y8188200D1*
X2540038Y8180580D1*
X2544008Y8172960D1*
X2548512Y8165340D1*
X2553408Y8157720D1*
X2558069Y8150100D1*
X2562351Y8142480D1*
X2566423Y8134860D1*
X2570591Y8127240D1*
X2575416Y8119620D1*
X2581088Y8112000D1*
X2587101Y8104380D1*
X2592968Y8096760D1*
X2598584Y8089140D1*
X2603603Y8081520D1*
X2608288Y8073900D1*
X2613353Y8066280D1*
X2619127Y8058660D1*
X2625209Y8051040D1*
X2631359Y8043420D1*
X2637980Y8035800D1*
X2645034Y8028180D1*
X2652168Y8020560D1*
X2658981Y8012940D1*
X2665707Y8005320D1*
X2673184Y7997700D1*
X2681424Y7990080D1*
X2689664Y7982460D1*
X2697667Y7974840D1*
X2705506Y7967220D1*
X2713446Y7959600D1*
X2721832Y7951980D1*
X2730586Y7944360D1*
X2739310Y7936740D1*
X2748162Y7929120D1*
X2757382Y7921500D1*
X2766948Y7913880D1*
X2777178Y7906260D1*
X2787994Y7898640D1*
X2799166Y7891020D1*
X2810755Y7883400D1*
X2823135Y7875780D1*
X2836618Y7868160D1*
X2850753Y7860540D1*
X2864906Y7852920D1*
X2879166Y7845300D1*
X2894486Y7837680D1*
X2911360Y7830060D1*
X2929606Y7822440D1*
X2949420Y7814820D1*
X2971216Y7807200D1*
X2995377Y7799580D1*
X3023165Y7791960D1*
X3056254Y7784340D1*
X3093570Y7776720D1*
X3132330Y7769100D1*
X3277110Y9308340D2*
X3320375Y9300720D1*
X3359175Y9293100D1*
X3393548Y9285480D1*
X3424473Y9277860D1*
X3451551Y9270240D1*
X3474773Y9262620D1*
X3494700Y9255000D1*
X3512580Y9247380D1*
X3529364Y9239760D1*
X3545419Y9232140D1*
X3561250Y9224520D1*
X3576148Y9216900D1*
X3589648Y9209280D1*
X3602120Y9201660D1*
X3614030Y9194040D1*
X3625888Y9186420D1*
X3638085Y9178800D1*
X3650370Y9171180D1*
X3661693Y9163560D1*
X3671775Y9155940D1*
X3681455Y9148320D1*
X3691379Y9140700D1*
X3701145Y9133080D1*
X3710167Y9125460D1*
X3718520Y9117840D1*
X3726472Y9110220D1*
X3734229Y9102600D1*
X3741901Y9094980D1*
X3749540Y9087360D1*
X3757167Y9079740D1*
X3764789Y9072120D1*
X3772410Y9064500D1*
X3780000Y9056880D1*
X3787382Y9049260D1*
X3794269Y9041640D1*
X3800767Y9034020D1*
X3807288Y9026400D1*
X3813707Y9018780D1*
X3819966Y9011160D1*
X3826343Y9003540D1*
X3832237Y8995920D1*
X3837058Y8988300D1*
X3841501Y8980680D1*
X3846653Y8973060D1*
X3852322Y8965440D1*
X3858014Y8957820D1*
X3863553Y8950200D1*
X3868481Y8942580D1*
X3872648Y8934960D1*
X3876036Y8927340D1*
X3879099Y8919720D1*
X3882830Y8912100D1*
X3887275Y8904480D1*
X3891719Y8896860D1*
X3895908Y8889240D1*
X3899914Y8881620D1*
X3903800Y8874000D1*
X3907620Y8866380D1*
X3911197Y8858760D1*
X3914285Y8851140D1*
X3916998Y8843520D1*
X3919953Y8835900D1*
X3923260Y8828280D1*
X3926599Y8820660D1*
X3929586Y8813040D1*
X3932260Y8805420D1*
X3935201Y8797800D1*
X3938503Y8790180D1*
X3941810Y8782560D1*
X3944529Y8774940D1*
X3946232Y8767320D1*
X3947347Y8759700D1*
X3948695Y8752080D1*
X3950703Y8744460D1*
X3952983Y8736840D1*
X3955304Y8729220D1*
X3957843Y8721600D1*
X3960152Y8713980D1*
X3961884Y8706360D1*
X3963613Y8698740D1*
X3965780Y8691120D1*
X3967874Y8683500D1*
X3969257Y8675880D1*
X3969983Y8668260D1*
X3970313Y8660640D1*
X3970449Y8653020D1*
X3970501Y8645400D1*
X3970550Y8637780D1*
X3970824Y8630160D1*
X3971798Y8622540D1*
X3973623Y8614920D1*
X3975577Y8607300D1*
X3976906Y8599680D1*
X3977643Y8592060D1*
X3978234Y8584440D1*
X3979339Y8576820D1*
X3981215Y8569200D1*
X3983188Y8561580D1*
X3984523Y8553960D1*
X3985232Y8546340D1*
X3985526Y8538720D1*
X3985392Y8531100D1*
X3984502Y8523480D1*
X3982985Y8515860D1*
X3981533Y8508240D1*
X3983193Y8500620D1*
X3985770Y8493000D1*
X3982253Y8485380D1*
X3980064Y8477760D1*
X3978927Y8470140D1*
X3978168Y8462520D1*
X3976998Y8454900D1*
X3975097Y8447280D1*
X3973117Y8439660D1*
X3971778Y8432040D1*
X3971068Y8424420D1*
X3970744Y8416800D1*
X3970610Y8409180D1*
X3970529Y8401560D1*
X3970242Y8393940D1*
X3969235Y8386320D1*
X3967140Y8378700D1*
X3964214Y8371080D1*
X3961060Y8363460D1*
X3958399Y8355840D1*
X3956717Y8348220D1*
X3955609Y8340600D1*
X3954264Y8332980D1*
X3952286Y8325360D1*
X3950245Y8317740D1*
X3948627Y8310120D1*
X3946942Y8302500D1*
X3944761Y8294880D1*
X3942405Y8287260D1*
X3940024Y8279640D1*
X3937205Y8272020D1*
X3933921Y8264400D1*
X3930363Y8256780D1*
X3926680Y8249160D1*
X3923154Y8241540D1*
X3920085Y8233920D1*
X3917408Y8226300D1*
X3914664Y8218680D1*
X3911793Y8211060D1*
X3908367Y8203440D1*
X3903922Y8195820D1*
X3899372Y8188200D1*
X3895334Y8180580D1*
X3891071Y8172960D1*
X3886597Y8165340D1*
X3882772Y8157720D1*
X3879600Y8150100D1*
X3876172Y8142480D1*
X3871776Y8134860D1*
X3866309Y8127240D1*
X3860385Y8119620D1*
X3854552Y8112000D1*
X3848949Y8104380D1*
X3843965Y8096760D1*
X3839520Y8089140D1*
X3835158Y8081520D1*
X3830238Y8073900D1*
X3824285Y8066280D1*
X3817510Y8058660D1*
X3810297Y8051040D1*
X3803098Y8043420D1*
X3796477Y8035800D1*
X3790465Y8028180D1*
X3784073Y8020560D1*
X3776692Y8012940D1*
X3768948Y8005320D1*
X3761422Y7997700D1*
X3754430Y7990080D1*
X3747839Y7982460D1*
X3740782Y7974840D1*
X3732663Y7967220D1*
X3723443Y7959600D1*
X3713934Y7951980D1*
X3704785Y7944360D1*
X3695739Y7936740D1*
X3686649Y7929120D1*
X3677529Y7921500D1*
X3667657Y7913880D1*
X3656594Y7906260D1*
X3645068Y7898640D1*
X3633506Y7891020D1*
X3621984Y7883400D1*
X3610458Y7875780D1*
X3598497Y7868160D1*
X3585333Y7860540D1*
X3570679Y7852920D1*
X3555170Y7845300D1*
X3538874Y7837680D1*
X3521694Y7830060D1*
X3504118Y7822440D1*
X3485746Y7814820D1*
X3464888Y7807200D1*
X3440274Y7799580D1*
X3411813Y7791960D1*
X3380067Y7784340D1*
X3347352Y7776720D1*
X3315210Y7769100D1*
X3170430Y9285480D2*
X3162810Y9277860D1*
X3269490Y9285480D2*
X3277110Y9277860D1*
X3109470D2*
X3075022Y9270240D1*
X3043691Y9262620D1*
X3015751Y9255000D1*
X2990819Y9247380D1*
X2968260Y9239760D1*
X2947414Y9232140D1*
X2928072Y9224520D1*
X2909698Y9216900D1*
X2892779Y9209280D1*
X2877783Y9201660D1*
X2863951Y9194040D1*
X2850649Y9186420D1*
X2837823Y9178800D1*
X2825072Y9171180D1*
X2812305Y9163560D1*
X2800177Y9155940D1*
X2789202Y9148320D1*
X2779378Y9140700D1*
X2770075Y9133080D1*
X2760899Y9125460D1*
X2751993Y9117840D1*
X2742858Y9110220D1*
X2733163Y9102600D1*
X2723515Y9094980D1*
X2714764Y9087360D1*
X2707126Y9079740D1*
X2700031Y9072120D1*
X2692405Y9064500D1*
X2684138Y9056880D1*
X2676114Y9049260D1*
X2668837Y9041640D1*
X2662147Y9034020D1*
X2655544Y9026400D1*
X2649092Y9018780D1*
X2642791Y9011160D1*
X2636142Y9003540D1*
X2629305Y8995920D1*
X2622897Y8988300D1*
X2617232Y8980680D1*
X2611873Y8973060D1*
X2606597Y8965440D1*
X2601752Y8957820D1*
X2597144Y8950200D1*
X2592139Y8942580D1*
X2586645Y8934960D1*
X2581568Y8927340D1*
X2577512Y8919720D1*
X2573816Y8912100D1*
X2569917Y8904480D1*
X2565502Y8896860D1*
X2560877Y8889240D1*
X2556933Y8881620D1*
X2553511Y8874000D1*
X2549629Y8866380D1*
X2545343Y8858760D1*
X2541601Y8851140D1*
X2538521Y8843520D1*
X2535611Y8835900D1*
X2532923Y8828280D1*
X2530405Y8820660D1*
X2527534Y8813040D1*
X2524261Y8805420D1*
X2520934Y8797800D1*
X2517952Y8790180D1*
X2515279Y8782560D1*
X2512339Y8774940D1*
X2509037Y8767320D1*
X2505730Y8759700D1*
X2503011Y8752080D1*
X2501308Y8744460D1*
X2500193Y8736840D1*
X2498845Y8729220D1*
X2496866Y8721600D1*
X2494855Y8713980D1*
X2493475Y8706360D1*
X2492493Y8698740D1*
X2491196Y8691120D1*
X2489207Y8683500D1*
X2486934Y8675880D1*
X2484615Y8668260D1*
X2482076Y8660640D1*
X2479797Y8653020D1*
X2478334Y8645400D1*
X2477576Y8637780D1*
X2477234Y8630160D1*
X2477093Y8622540D1*
X2477040Y8614920D1*
X2477020Y8607300D1*
X2477013Y8599680D1*
X2477011Y8592060D1*
X2477010Y8584440D1*
Y8576820D1*
Y8569200D1*
Y8561580D1*
Y8553960D1*
Y8546340D1*
Y8538720D1*
Y8531100D1*
Y8523480D1*
Y8515860D1*
Y8508240D1*
Y8500620D1*
Y8493000D1*
Y8485380D1*
Y8477760D1*
Y8470140D1*
Y8462520D1*
X2477040Y8454900D1*
X2477308Y8447280D1*
X2478279Y8439660D1*
X2480104Y8432040D1*
X2482087Y8424420D1*
X2483684Y8416800D1*
X2485362Y8409180D1*
X2487510Y8401560D1*
X2489597Y8393940D1*
X2491008Y8386320D1*
X2492001Y8378700D1*
X2493302Y8371080D1*
X2495263Y8363460D1*
X2497269Y8355840D1*
X2498646Y8348220D1*
X2499627Y8340600D1*
X2500954Y8332980D1*
X2503181Y8325360D1*
X2506158Y8317740D1*
X2509330Y8310120D1*
X2512027Y8302500D1*
X2513979Y8294880D1*
X2516059Y8287260D1*
X2519230Y8279640D1*
X2523161Y8272020D1*
X2526532Y8264400D1*
X2528856Y8256780D1*
X2530894Y8249160D1*
X2533476Y8241540D1*
X2536855Y8233920D1*
X2541050Y8226300D1*
X2545591Y8218680D1*
X2549503Y8211060D1*
X2552915Y8203440D1*
X2556823Y8195820D1*
X2561345Y8188200D1*
X2565791Y8180580D1*
X2569754Y8172960D1*
X2573061Y8165340D1*
X2576095Y8157720D1*
X2579815Y8150100D1*
X2584286Y8142480D1*
X2588997Y8134860D1*
X2594157Y8127240D1*
X2599988Y8119620D1*
X2605858Y8112000D1*
X2611303Y8104380D1*
X2616797Y8096760D1*
X2622766Y8089140D1*
X2628718Y8081520D1*
X2634421Y8073900D1*
X2640655Y8066280D1*
X2647718Y8058660D1*
X2654503Y8051040D1*
X2660465Y8043420D1*
X2666473Y8035800D1*
X2673528Y8028180D1*
X2681535Y8020560D1*
X2689450Y8012940D1*
X2696686Y8005320D1*
X2703390Y7997700D1*
X2710256Y7990080D1*
X2717708Y7982460D1*
X2726101Y7974840D1*
X2735704Y7967220D1*
X2745963Y7959600D1*
X2756032Y7951980D1*
X2765472Y7944360D1*
X2774923Y7936740D1*
X2785235Y7929120D1*
X2796600Y7921500D1*
X2807992Y7913880D1*
X2817219Y7906260D1*
X2823199Y7898640D1*
X2827530Y7891020D1*
X2844258D1*
X2857570Y7883400D1*
X2871712Y7875780D1*
X2887493Y7868160D1*
X2904765Y7860540D1*
X2922755Y7852920D1*
X2941688Y7845300D1*
X2961501Y7837680D1*
X2982116Y7830060D1*
X3005672Y7822440D1*
X3035491Y7814820D1*
X3073133Y7807200D1*
X3117353Y7799580D1*
X3165894Y7791960D1*
X3216150Y7784340D1*
X3330450Y9277860D2*
X3363721Y9270240D1*
X3393162Y9262620D1*
X3419129Y9255000D1*
X3442757Y9247380D1*
X3464846Y9239760D1*
X3486071Y9232140D1*
X3506163Y9224520D1*
X3524852Y9216900D1*
X3541831Y9209280D1*
X3557082Y9201660D1*
X3570895Y9194040D1*
X3584085Y9186420D1*
X3597060Y9178800D1*
X3609524Y9171180D1*
X3621494Y9163560D1*
X3633151Y9155940D1*
X3644411Y9148320D1*
X3654917Y9140700D1*
X3664530Y9133080D1*
X3673988Y9125460D1*
X3683847Y9117840D1*
X3693814Y9110220D1*
X3703555Y9102600D1*
X3712995Y9094980D1*
X3721777Y9087360D1*
X3729793Y9079740D1*
X3737209Y9072120D1*
X3744543Y9064500D1*
X3752212Y9056880D1*
X3759497Y9049260D1*
X3766271Y9041640D1*
X3773174Y9034020D1*
X3780344Y9026400D1*
X3787493Y9018780D1*
X3794055Y9011160D1*
X3799786Y9003540D1*
X3805201Y8995920D1*
X3810755Y8988300D1*
X3816545Y8980680D1*
X3822712Y8973060D1*
X3828730Y8965440D1*
X3833996Y8957820D1*
X3838797Y8950200D1*
X3843642Y8942580D1*
X3848480Y8934960D1*
X3852734Y8927340D1*
X3856886Y8919720D1*
X3861661Y8912100D1*
X3866317Y8904480D1*
X3870139Y8896860D1*
X3873480Y8889240D1*
X3876404Y8881620D1*
X3879248Y8874000D1*
X3882887Y8866380D1*
X3887295Y8858760D1*
X3891726Y8851140D1*
X3895910Y8843520D1*
X3899885Y8835900D1*
X3903533Y8828280D1*
X3906648Y8820660D1*
X3909343Y8813040D1*
X3912034Y8805420D1*
X3914401Y8797800D1*
X3916183Y8790180D1*
X3918187Y8782560D1*
X3921328Y8774940D1*
X3925248Y8767320D1*
X3928614Y8759700D1*
X3930937Y8752080D1*
X3932945Y8744460D1*
X3935259Y8736840D1*
X3937666Y8729220D1*
X3940037Y8721600D1*
X3942594Y8713980D1*
X3944879Y8706360D1*
X3946345Y8698740D1*
X3947104Y8691120D1*
X3947476Y8683500D1*
X3947884Y8675880D1*
X3948909Y8668260D1*
X3950754Y8660640D1*
X3952714Y8653020D1*
X3954045Y8645400D1*
X3954753Y8637780D1*
X3955076Y8630160D1*
X3955210Y8622540D1*
X3955261Y8614920D1*
X3955280Y8607300D1*
X3955316Y8599680D1*
X3955587Y8592060D1*
X3956558Y8584440D1*
X3958384Y8576820D1*
X3960337Y8569200D1*
X3961666Y8561580D1*
X3962373Y8553960D1*
X3962696Y8546340D1*
X3962830Y8538720D1*
X3962881Y8531100D1*
X3962900Y8523480D1*
X3962907Y8515860D1*
X3962879Y8508240D1*
X3962612Y8500620D1*
X3961641Y8493000D1*
X3959816Y8485380D1*
X3957863Y8477760D1*
X3956534Y8470140D1*
X3955827Y8462520D1*
X3955504Y8454900D1*
X3955370Y8447280D1*
X3955319Y8439660D1*
X3955270Y8432040D1*
X3954996Y8424420D1*
X3954022Y8416800D1*
X3952197Y8409180D1*
X3950243Y8401560D1*
X3948914Y8393940D1*
X3948177Y8386320D1*
X3947586Y8378700D1*
X3946451Y8371080D1*
X3944307Y8363460D1*
X3941364Y8355840D1*
X3938203Y8348220D1*
X3935511Y8340600D1*
X3933590Y8332980D1*
X3931749Y8325360D1*
X3929281Y8317740D1*
X3926204Y8310120D1*
X3922992Y8302500D1*
X3920281Y8294880D1*
X3918353Y8287260D1*
X3916539Y8279640D1*
X3914309Y8272020D1*
X3911905Y8264400D1*
X3909279Y8256780D1*
X3905755Y8249160D1*
X3901616Y8241540D1*
X3897900Y8233920D1*
X3894573Y8226300D1*
X3890728Y8218680D1*
X3886456Y8211060D1*
X3882718Y8203440D1*
X3879611Y8195820D1*
X3876433Y8188200D1*
X3872774Y8180580D1*
X3868431Y8172960D1*
X3863577Y8165340D1*
X3858707Y8157720D1*
X3853703Y8150100D1*
X3848572Y8142480D1*
X3843812Y8134860D1*
X3839461Y8127240D1*
X3835136Y8119620D1*
X3830261Y8112000D1*
X3824580Y8104380D1*
X3818778Y8096760D1*
X3813360Y8089140D1*
X3807847Y8081520D1*
X3801644Y8073900D1*
X3794990Y8066280D1*
X3788434Y8058660D1*
X3782042Y8051040D1*
X3775306Y8043420D1*
X3767964Y8035800D1*
X3760095Y8028180D1*
X3752202Y8020560D1*
X3744863Y8012940D1*
X3737639Y8005320D1*
X3730294Y7997700D1*
X3723027Y7990080D1*
X3715919Y7982460D1*
X3708427Y7974840D1*
X3699602Y7967220D1*
X3689778Y7959600D1*
X3679935Y7951980D1*
X3670576Y7944360D1*
X3661172Y7936740D1*
X3650862Y7929120D1*
X3639424Y7921500D1*
X3627223Y7913880D1*
X3615043Y7906260D1*
X3602924Y7898640D1*
X3590308Y7891020D1*
X3576910Y7883400D1*
X3562949Y7875780D1*
X3548182Y7868160D1*
X3531848Y7860540D1*
X3514191Y7852920D1*
X3495747Y7845300D1*
X3476592Y7837680D1*
X3455782Y7830060D1*
X3431071Y7822440D1*
X3400180Y7814820D1*
X3361857Y7807200D1*
X3315870Y7799580D1*
X3263577Y7791960D1*
X3208530Y7784340D1*
X3170430Y9110220D2*
X3167825Y9102600D1*
X3165498Y9094980D1*
X3163473Y9087360D1*
X3161177Y9079740D1*
X3155012Y9072120D1*
X3147570Y9064500D1*
X3216150Y9110220D2*
X3218755Y9102600D1*
X3221023Y9094980D1*
X3222473Y9087360D1*
X3223260Y9079740D1*
X3223770Y9072120D1*
X3109470Y9079740D2*
X3100992Y9072120D1*
X3092758Y9064500D1*
X3085343Y9056880D1*
X3081714Y9049260D1*
X3081003Y9041640D1*
X3083662Y9034020D1*
X3087245Y9026400D1*
X3090761Y9018780D1*
X3091331Y9011160D1*
X3086168Y9003540D1*
X3073952Y8995920D1*
X3062641Y8988300D1*
X3053919Y8980680D1*
X3051068Y8973060D1*
X3049572Y8965440D1*
X3048917Y8957820D1*
X3048657Y8950200D1*
X3048559Y8942580D1*
X3048510Y8934960D1*
X3068672Y8927340D1*
X3084154Y8919720D1*
X3091432Y8912100D1*
X3089052Y8904480D1*
X3085688Y8896860D1*
X3082696Y8889240D1*
X3080581Y8881620D1*
X3081462Y8874000D1*
X3086780Y8866380D1*
X3093823Y8858760D1*
X3101567Y8851140D1*
X3109470Y8843520D1*
X3277110Y9079740D2*
X3261870Y9072120D1*
X3117090D2*
X3132330Y9064500D1*
X3284730Y9072120D2*
X3292000Y9064500D1*
X3298078Y9056880D1*
X3302694Y9049260D1*
X3302354Y9041640D1*
X3300468Y9034020D1*
X3297830Y9026400D1*
X3295787Y9018780D1*
X3294991Y9011160D1*
X3300319Y9003540D1*
X3312586Y8995920D1*
X3323923Y8988300D1*
X3332658Y8980680D1*
X3335510Y8973060D1*
X3337007Y8965440D1*
X3337663Y8957820D1*
X3337923Y8950200D1*
X3338021Y8942580D1*
X3338070Y8934960D1*
X3316269Y8927340D1*
X3299226Y8919720D1*
X3284730Y8912100D1*
X3291143Y8904480D1*
X3296546Y8896860D1*
X3300627Y8889240D1*
X3303584Y8881620D1*
X3302404Y8874000D1*
X3297464Y8866380D1*
X3291290Y8858760D1*
X3284342Y8851140D1*
X3277110Y8843520D1*
X3193290Y9026400D2*
X3178660Y9018780D1*
X3165671Y9011160D1*
X3155383Y9003540D1*
X3147442Y8995920D1*
X3141176Y8988300D1*
X3136820Y8980680D1*
X3134357Y8973060D1*
X3133197Y8965440D1*
X3132981Y8957820D1*
X3134044Y8950200D1*
X3136324Y8942580D1*
X3142210Y8934960D1*
X3149896Y8927340D1*
X3159597Y8919720D1*
X3170430Y8912100D1*
X3178050Y9026400D2*
X3197915Y9018780D1*
X3214418Y9011160D1*
X3226844Y9003540D1*
X3235671Y8995920D1*
X3242250Y8988300D1*
X3244512Y8980680D1*
X3245731Y8973060D1*
X3246279Y8965440D1*
X3246471Y8957820D1*
X3246257Y8950200D1*
X3244989Y8942580D1*
X3242535Y8934960D1*
X3235632Y8927340D1*
X3226538Y8919720D1*
X3216150Y8912100D1*
X2743710Y9003540D2*
X2740138Y8995920D1*
X2736090Y8988300D1*
X2742543Y8980680D1*
X2750493Y8973060D1*
X2759467Y8965440D1*
X2767566Y8957820D1*
X2774230Y8950200D1*
X2780560Y8942580D1*
X2787778Y8934960D1*
X2796104Y8927340D1*
X2804979Y8919720D1*
X2813808Y8912100D1*
X2821736Y8904480D1*
X2828810Y8896860D1*
X2835839Y8889240D1*
X2843087Y8881620D1*
X2850522Y8874000D1*
X2858061Y8866380D1*
X2865649Y8858760D1*
X2873256Y8851140D1*
X2880872Y8843520D1*
X2888491Y8835900D1*
X2896110Y8828280D1*
X2903730Y8820660D1*
X2911350Y8813040D1*
X2918970Y8805420D1*
X2926590Y8797800D1*
X2934210Y8790180D1*
X2941830Y8782560D1*
X2949450Y8774940D1*
X2957070Y8767320D1*
X2964690Y8759700D1*
X2972310Y8752080D1*
X2979930Y8744460D1*
X2987550Y8736840D1*
X2995170Y8729220D1*
X3002790Y8721600D1*
X3010410Y8713980D1*
X3018030Y8706360D1*
X3025650Y8698740D1*
X3033240Y8691120D1*
X3040622Y8683500D1*
X3047539Y8675880D1*
X3054305Y8668260D1*
X3061796Y8660640D1*
X3070011Y8653020D1*
X3077986Y8645400D1*
X3085048Y8637780D1*
X3091300Y8630160D1*
X3098020Y8622540D1*
X3106139Y8614920D1*
X3114750Y8607300D1*
X3122439Y8599680D1*
X3129076Y8592060D1*
X3135986Y8584440D1*
X3144187Y8576820D1*
X3152861Y8569200D1*
X3160771Y8561580D1*
X3167788Y8553960D1*
X3173987Y8546340D1*
X3179245Y8538720D1*
X3179462Y8531100D1*
X3175059Y8523480D1*
X3169166Y8515860D1*
X3162318Y8508240D1*
X3155010Y8500620D1*
X3147507Y8493000D1*
X3139929Y8485380D1*
X3132323Y8477760D1*
X3124708Y8470140D1*
X3117089Y8462520D1*
X3109470Y8454900D1*
X3101850Y8447280D1*
X3094230Y8439660D1*
X3086610Y8432040D1*
X3078990Y8424420D1*
X3071370Y8416800D1*
X3063750Y8409180D1*
X3056160Y8401560D1*
X3048778Y8393940D1*
X3041861Y8386320D1*
X3035095Y8378700D1*
X3027604Y8371080D1*
X3019389Y8363460D1*
X3011385Y8355840D1*
X3004114Y8348220D1*
X2997397Y8340600D1*
X2990526Y8332980D1*
X2983103Y8325360D1*
X2974977Y8317740D1*
X2966374Y8310120D1*
X2958179Y8302500D1*
X2950796Y8294880D1*
X2943807Y8287260D1*
X2936222Y8279640D1*
X2927970Y8272020D1*
X2919952Y8264400D1*
X2912677Y8256780D1*
X2905957Y8249160D1*
X2899087Y8241540D1*
X2891693Y8233920D1*
X2883805Y8226300D1*
X2875905Y8218680D1*
X2868564Y8211060D1*
X2861339Y8203440D1*
X2853994Y8195820D1*
X2846727Y8188200D1*
X2839649Y8180580D1*
X2832424Y8172960D1*
X2824571Y8165340D1*
X2816572Y8157720D1*
X2808713Y8150100D1*
X2800980Y8142480D1*
X2793552Y8134860D1*
X2786630Y8127240D1*
X2780120Y8119620D1*
X2773432Y8112000D1*
X2766570Y8104380D1*
X2770618Y8096760D1*
X2774190Y8089140D1*
X2751330Y9003540D2*
X2758950Y8995920D1*
X2766570Y8988300D1*
X2774190Y8980680D1*
X2781810Y8973060D1*
X2789430Y8965440D1*
X2797050Y8957820D1*
X2804670Y8950200D1*
X2812290Y8942580D1*
X2819910Y8934960D1*
X2827530Y8927340D1*
X2835150Y8919720D1*
X2842770Y8912100D1*
X2850360Y8904480D1*
X2857742Y8896860D1*
X2864659Y8889240D1*
X2871425Y8881620D1*
X2878916Y8874000D1*
X2887131Y8866380D1*
X2895135Y8858760D1*
X2902406Y8851140D1*
X2909123Y8843520D1*
X2915994Y8835900D1*
X2923387Y8828280D1*
X2931275Y8820660D1*
X2939175Y8813040D1*
X2946516Y8805420D1*
X2953770Y8797800D1*
X2961384Y8790180D1*
X2969592Y8782560D1*
X2978227Y8774940D1*
X2986375Y8767320D1*
X2993199Y8759700D1*
X2997976Y8752080D1*
X3000821Y8744460D1*
X3002790Y8736840D1*
X3018030D1*
X3024477Y8729220D1*
X3031438Y8721600D1*
X3038302Y8713980D1*
X3045315Y8706360D1*
X3052575Y8698740D1*
X3059810Y8691120D1*
X3066877Y8683500D1*
X3074038Y8675880D1*
X3081358Y8668260D1*
X3087400Y8660640D1*
X3091353Y8653020D1*
X3094230Y8645400D1*
X3109470D1*
X3113602Y8637780D1*
X3119272Y8630160D1*
X3126517Y8622540D1*
X3134738Y8614920D1*
X3142991Y8607300D1*
X3150765Y8599680D1*
X3157864Y8592060D1*
X3164467Y8584440D1*
X3171267Y8576820D1*
X3178391Y8569200D1*
X3185670Y8561580D1*
X3650490Y9003540D2*
X3644670Y8995920D1*
X3637913Y8988300D1*
X3630340Y8980680D1*
X3622578Y8973060D1*
X3615292Y8965440D1*
X3608088Y8957820D1*
X3600750Y8950200D1*
X3593486Y8942580D1*
X3586409Y8934960D1*
X3579184Y8927340D1*
X3571331Y8919720D1*
X3563361Y8912100D1*
X3555741Y8904480D1*
X3548711Y8896860D1*
X3542107Y8889240D1*
X3535074Y8881620D1*
X3527222Y8874000D1*
X3518972Y8866380D1*
X3511318Y8858760D1*
X3504360Y8851140D1*
X3497376Y8843520D1*
X3490115Y8835900D1*
X3482448Y8828280D1*
X3474207Y8820660D1*
X3465766Y8813040D1*
X3458030Y8805420D1*
X3451009Y8797800D1*
X3443775Y8790180D1*
X3435835Y8782560D1*
X3427551Y8774940D1*
X3419885Y8767320D1*
X3412922Y8759700D1*
X3405937Y8752080D1*
X3398705Y8744460D1*
X3391276Y8736840D1*
X3383738Y8729220D1*
X3376151Y8721600D1*
X3368543Y8713980D1*
X3360928Y8706360D1*
X3353309Y8698740D1*
X3345690Y8691120D1*
X3338070Y8683500D1*
X3330450Y8675880D1*
X3322830Y8668260D1*
X3315210Y8660640D1*
X3307590Y8653020D1*
X3299970Y8645400D1*
X3292350Y8637780D1*
X3284730Y8630160D1*
X3277110Y8622540D1*
X3269490Y8614920D1*
X3261870Y8607300D1*
X3254250Y8599680D1*
X3246630Y8592060D1*
X3239010Y8584440D1*
X3231390Y8576820D1*
X3223770Y8569200D1*
X3216150Y8561580D1*
X3665730Y9003540D2*
X3669302Y8995920D1*
X3673350Y8988300D1*
X3663130Y8980680D1*
X3654472Y8973060D1*
X3646624Y8965440D1*
X3639015Y8957820D1*
X3631675Y8950200D1*
X3624797Y8942580D1*
X3618262Y8934960D1*
X3611258Y8927340D1*
X3603416Y8919720D1*
X3595170Y8912100D1*
X3587488Y8904480D1*
X3580292Y8896860D1*
X3572605Y8889240D1*
X3564519Y8881620D1*
X3556932Y8874000D1*
X3549752Y8866380D1*
X3541846Y8858760D1*
X3533034Y8851140D1*
X3524387Y8843520D1*
X3516614Y8835900D1*
X3509153Y8828280D1*
X3501481Y8820660D1*
X3493476Y8813040D1*
X3485501Y8805420D1*
X3477905Y8797800D1*
X3469942Y8790180D1*
X3461502Y8782560D1*
X3453403Y8774940D1*
X3446065Y8767320D1*
X3439096Y8759700D1*
X3431547Y8752080D1*
X3423536Y8744460D1*
X3416222Y8736840D1*
X3409772Y8729220D1*
X3402943Y8721600D1*
X3394774Y8713980D1*
X3386142Y8706360D1*
X3378475Y8698740D1*
X3372073Y8691120D1*
X3365866Y8683500D1*
X3358518Y8675880D1*
X3350002Y8668260D1*
X3341706Y8660640D1*
X3334680Y8653020D1*
X3328119Y8645400D1*
X3320790Y8637780D1*
X3312657Y8630160D1*
X3304479Y8622540D1*
X3296716Y8614920D1*
X3289396Y8607300D1*
X3282068Y8599680D1*
X3274174Y8592060D1*
X3266190Y8584440D1*
X3258563Y8576820D1*
X3251532Y8569200D1*
X3244957Y8561580D1*
X3238162Y8553960D1*
X3231014Y8546340D1*
X3223628Y8538720D1*
X3216150Y8531100D1*
X3225197Y8523480D1*
X3233196Y8515860D1*
X3240288Y8508240D1*
X3247320Y8500620D1*
X3254568Y8493000D1*
X3262002Y8485380D1*
X3269541Y8477760D1*
X3277129Y8470140D1*
X3284737Y8462520D1*
X3292352Y8454900D1*
X3299971Y8447280D1*
X3307590Y8439660D1*
X3315210Y8432040D1*
X3322830Y8424420D1*
X3330450Y8416800D1*
X3338070Y8409180D1*
X3345690Y8401560D1*
X3353310Y8393940D1*
X3360930Y8386320D1*
X3368550Y8378700D1*
X3376170Y8371080D1*
X3383790Y8363460D1*
X3391410Y8355840D1*
X3399030Y8348220D1*
X3406650Y8340600D1*
X3414270Y8332980D1*
X3421890Y8325360D1*
X3429510Y8317740D1*
X3437130Y8310120D1*
X3444750Y8302500D1*
X3452370Y8294880D1*
X3459990Y8287260D1*
X3467610Y8279640D1*
X3475230Y8272020D1*
X3482850Y8264400D1*
X3490470Y8256780D1*
X3498090Y8249160D1*
X3505710Y8241540D1*
X3513330Y8233920D1*
X3520950Y8226300D1*
X3528570Y8218680D1*
X3536190Y8211060D1*
X3543810Y8203440D1*
X3551430Y8195820D1*
X3559050Y8188200D1*
X3566670Y8180580D1*
X3574290Y8172960D1*
X3581910Y8165340D1*
X3589530Y8157720D1*
X3597120Y8150100D1*
X3604502Y8142480D1*
X3611419Y8134860D1*
X3618189Y8127240D1*
X3625725Y8119620D1*
X3634169Y8112000D1*
X3642870Y8104380D1*
X3638822Y8096760D1*
X3635250Y8089140D1*
X3147570Y8866380D2*
X3133731Y8858760D1*
X3121165Y8851140D1*
X3109470Y8843520D1*
X3132330Y8866380D2*
X3144575Y8858760D1*
X3154877Y8851140D1*
X3159229Y8843520D1*
X3162426Y8835900D1*
X3165323Y8828280D1*
X3168014Y8820660D1*
X3170430Y8813040D1*
X3223770Y8858760D2*
X3223740Y8851140D1*
X3223472Y8843520D1*
X3222496Y8835900D1*
X3220606Y8828280D1*
X3218338Y8820660D1*
X3216150Y8813040D1*
X3246630Y8858760D2*
X3261870Y8851140D1*
X3277110Y8843520D1*
X2720850Y8698740D2*
X2717623Y8691120D1*
X2715650Y8683500D1*
X2716940Y8675880D1*
X2718575Y8668260D1*
X2720039Y8660640D1*
X2721918Y8653020D1*
X2725042Y8645400D1*
X2729213Y8637780D1*
X2733545Y8630160D1*
X2737721Y8622540D1*
X2741950Y8614920D1*
X2746564Y8607300D1*
X2751533Y8599680D1*
X2756448Y8592060D1*
X2761439Y8584440D1*
X2766278Y8576820D1*
X2770498Y8569200D1*
X2771693Y8561580D1*
X2769271Y8553960D1*
X2765712Y8546340D1*
X2762154Y8538720D1*
X2758950Y8531100D1*
X2728470Y8691120D2*
Y8683500D1*
Y8675880D1*
Y8668260D1*
Y8660640D1*
Y8653020D1*
X2758950Y8683500D2*
X2754249Y8675880D1*
X2750099Y8668260D1*
X2746648Y8660640D1*
X2743710Y8653020D1*
X2819910Y8683500D2*
Y8675880D1*
Y8668260D1*
X2827530Y8683500D2*
X2827240Y8675880D1*
X2826233Y8668260D1*
X2824115Y8660640D1*
X2820964Y8653020D1*
X2816915Y8645400D1*
X2812290Y8637780D1*
X2758950Y8675880D2*
X2760446Y8668260D1*
X2763582Y8660640D1*
X2768476Y8653020D1*
X2774190Y8645400D1*
X2736090Y8637780D1*
Y8630160D1*
Y8622540D1*
X2697990Y8668260D2*
X2690370Y8660640D1*
X2696492Y8653020D1*
X2700949Y8645400D1*
X2703509Y8637780D1*
X2704806Y8630160D1*
X2705610Y8622540D1*
X2797050Y8668260D2*
X2798518Y8660640D1*
X2801384Y8653020D1*
X2805153Y8645400D1*
X2808144Y8637780D1*
X2809855Y8630160D1*
X2807375Y8622540D1*
X2803590Y8614920D1*
X2799248Y8607300D1*
X2794513Y8599680D1*
X2789430Y8592060D1*
X2705610Y8660640D2*
X2705640Y8653020D1*
X2705908Y8645400D1*
X2706879Y8637780D1*
X2708704Y8630160D1*
X2710657Y8622540D1*
X2711987Y8614920D1*
X2712695Y8607300D1*
X2713031Y8599680D1*
X2713230Y8592060D1*
X2850390Y8653020D2*
X2842294Y8645400D1*
X2835150Y8637780D1*
X2858010Y8645400D2*
X2849492Y8637780D1*
X2838710Y8630160D1*
X2827349Y8622540D1*
X2817624Y8614920D1*
X2809583Y8607300D1*
X2803301Y8599680D1*
X2798519Y8592060D1*
X2793953Y8584440D1*
X2789314Y8576820D1*
X2785279Y8569200D1*
X2781810Y8561580D1*
X3589530Y8645400D2*
X3583406Y8637780D1*
X3578922Y8630160D1*
X3576196Y8622540D1*
X3574290Y8614920D1*
X3543810D1*
X3547593Y8607300D1*
X3551780Y8599680D1*
X3555465Y8592060D1*
X3558547Y8584440D1*
X3561684Y8576820D1*
X3565070Y8569200D1*
X3568411Y8561580D1*
X3571142Y8553960D1*
X3572820Y8546340D1*
X3573639Y8538720D1*
X3573749Y8531100D1*
X3572901Y8523480D1*
X3570867Y8515860D1*
X3567963Y8508240D1*
X3564786Y8500620D1*
X3561831Y8493000D1*
X3558912Y8485380D1*
X3555004Y8477760D1*
X3549742Y8470140D1*
X3543810Y8462520D1*
X3553804Y8454900D1*
X3563291Y8447280D1*
X3572825Y8439660D1*
X3584174Y8432040D1*
X3597150Y8424420D1*
X3620010Y8645400D2*
X3631342Y8637780D1*
X3641586Y8630160D1*
X3646705Y8622540D1*
X3648197Y8614920D1*
X3646570Y8607300D1*
X3643949Y8599680D1*
X3640934Y8592060D1*
X3638329Y8584440D1*
X3636697Y8576820D1*
X3635863Y8569200D1*
X3635491Y8561580D1*
X3635340Y8553960D1*
X3635282Y8546340D1*
X3635261Y8538720D1*
X3635254Y8531100D1*
X3635251Y8523480D1*
X3635250Y8515860D1*
Y8508240D1*
X3635280Y8500620D1*
X3635577Y8493000D1*
X3636816Y8485380D1*
X3639613Y8477760D1*
X3643391Y8470140D1*
X3646614Y8462520D1*
X3648859Y8454900D1*
X3647886Y8447280D1*
X3641209Y8439660D1*
X3631403Y8432040D1*
X3620010Y8424420D1*
X2621790Y8622540D2*
X2624425Y8614920D1*
X2626990Y8607300D1*
X2629674Y8599680D1*
X2633216Y8592060D1*
X2637361Y8584440D1*
X2641072Y8576820D1*
X2644346Y8569200D1*
X2648053Y8561580D1*
X2652270Y8553960D1*
X2644650Y8622540D2*
Y8614920D1*
Y8607300D1*
Y8599680D1*
X2675130Y8622540D2*
X2682695Y8614920D1*
X2691009Y8607300D1*
X2697844Y8599680D1*
X2702808Y8592060D1*
X2704300Y8584440D1*
X2705108Y8576820D1*
X2705610Y8569200D1*
X2682750Y8622540D2*
X3719070D2*
X3701218Y8614920D1*
X3688277Y8607300D1*
X3678880Y8599680D1*
X3674825Y8592060D1*
X3671400Y8584440D1*
X3668743Y8576820D1*
X3667134Y8569200D1*
X3666323Y8561580D1*
X3665963Y8553960D1*
X3665816Y8546340D1*
X3665761Y8538720D1*
X3665740Y8531100D1*
X3665733Y8523480D1*
X3665731Y8515860D1*
X3665760Y8508240D1*
X3666028Y8500620D1*
X3667029Y8493000D1*
X3669151Y8485380D1*
X3672403Y8477760D1*
X3677116Y8470140D1*
X3684042Y8462520D1*
X3693300Y8454900D1*
X3703830Y8447280D1*
X3741930Y8622540D2*
X3751570Y8614920D1*
X3759326Y8607300D1*
X3762152Y8599680D1*
X3763672Y8592060D1*
X3764354Y8584440D1*
X3764600Y8576820D1*
X3764436Y8569200D1*
X3763502Y8561580D1*
X3761690Y8553960D1*
X3759770Y8546340D1*
X3758711Y8538720D1*
X3758975Y8531100D1*
X3760477Y8523480D1*
X3762297Y8515860D1*
X3763575Y8508240D1*
X3764263Y8500620D1*
X3764580Y8493000D1*
X3764652Y8485380D1*
X3764137Y8477760D1*
X3762821Y8470140D1*
X3757189Y8462520D1*
X3749880Y8454900D1*
X3741930Y8447280D1*
X2652270Y8614920D2*
X2651957Y8607300D1*
X2650774Y8599680D1*
X2648168Y8592060D1*
X2644650Y8584440D1*
X2650802Y8576820D1*
X2655527Y8569200D1*
X2659050Y8561580D1*
X2662142Y8553960D1*
X2664929Y8546340D1*
X2667710Y8538720D1*
X2671299Y8531100D1*
X2675514Y8523480D1*
X2679374Y8515860D1*
X2682750Y8508240D1*
X2873250Y8614920D2*
X2869673Y8607300D1*
X2866919Y8599680D1*
X2863568Y8592060D1*
X2858120Y8584440D1*
X2850774Y8576820D1*
X2842770Y8569200D1*
X2751330Y8607300D2*
X2758950Y8599680D1*
X2766570Y8592060D1*
X2873250Y8607300D2*
Y8599680D1*
X2903730D2*
X3513330D2*
X3502193Y8592060D1*
X3492354Y8584440D1*
X3483389Y8576820D1*
X3474574Y8569200D1*
X3465931Y8561580D1*
X3458435Y8553960D1*
X3452949Y8546340D1*
X3449024Y8538720D1*
X3449269Y8531100D1*
X3452894Y8523480D1*
X3458164Y8515860D1*
X3464882Y8508240D1*
X3472726Y8500620D1*
X3481253Y8493000D1*
X3489653Y8485380D1*
X3497755Y8477760D1*
X3505710Y8470140D1*
X2736090Y8592060D2*
X2903730D2*
X2865630Y8584440D1*
X2871233Y8576820D1*
X2882800Y8569200D1*
X2896110Y8561580D1*
X3520950Y8592060D2*
X3526160Y8584440D1*
X3530696Y8576820D1*
X3533585Y8569200D1*
X3535078Y8561580D1*
X3535750Y8553960D1*
X3536026Y8546340D1*
X3536132Y8538720D1*
X3536170Y8531100D1*
X3536154Y8523480D1*
X3535890Y8515860D1*
X3534891Y8508240D1*
X3532769Y8500620D1*
X3529548Y8493000D1*
X3525146Y8485380D1*
X3519527Y8477760D1*
X3513330Y8470140D1*
X2736090Y8584440D2*
X2727098Y8576820D1*
X2718404Y8569200D1*
X2711097Y8561580D1*
X2708274Y8553960D1*
X2706741Y8546340D1*
X2706025Y8538720D1*
X2705610Y8531100D1*
X2819910Y8584440D2*
X2818509Y8576820D1*
X2815835Y8569200D1*
X2812290Y8561580D1*
X2827530Y8584440D2*
X2823958Y8576820D1*
X2819910Y8569200D1*
X3833370Y8584440D2*
X3816945Y8576820D1*
X3804413Y8569200D1*
X3794643Y8561580D1*
X3791055Y8553960D1*
X3789104Y8546340D1*
X3788251Y8538720D1*
X3788159Y8531100D1*
X3789023Y8523480D1*
X3791126Y8515860D1*
X3794621Y8508240D1*
X3800194Y8500620D1*
X3808416Y8493000D1*
X3818130Y8485380D1*
X3840990Y8584440D2*
X3851807Y8576820D1*
X3860371Y8569200D1*
X3866272Y8561580D1*
X3870306Y8553960D1*
X3873544Y8546340D1*
X3875842Y8538720D1*
X3877085Y8531100D1*
X3875513Y8523480D1*
X3873198Y8515860D1*
X3870347Y8508240D1*
X3862880Y8500620D1*
X3852648Y8493000D1*
X3840990Y8485380D1*
X2682750Y8576820D2*
X2685105Y8569200D1*
X2688913Y8561580D1*
X2693150Y8553960D1*
X2697008Y8546340D1*
X2701109Y8538720D1*
X2705610Y8531100D1*
X2736090Y8561580D2*
X2728470Y8553960D1*
X2732206Y8546340D1*
X2732570Y8538720D1*
X2727489Y8531100D1*
X2720850Y8523480D1*
X2729063Y8515860D1*
X2735329Y8508240D1*
X2739517Y8500620D1*
X2741841Y8493000D1*
X2742998Y8485380D1*
X2743710Y8477760D1*
X2873250Y8569200D2*
X2847588Y8561580D1*
X2819381Y8553960D1*
X2789430Y8546340D1*
X2797050Y8538720D1*
X2873250Y8561580D2*
X2629410Y8553960D2*
X2635578Y8546340D1*
X2643781Y8538720D1*
X2652175Y8531100D1*
X2659286Y8523480D1*
X2665702Y8515860D1*
X2672356Y8508240D1*
X2679693Y8500620D1*
X2688058Y8493000D1*
X2697862Y8485380D1*
X2708976Y8477760D1*
X2720850Y8470140D1*
X2637030Y8553960D2*
X2736090D2*
X2738764Y8546340D1*
X2741354Y8538720D1*
X2743710Y8531100D1*
X3475230Y8561580D2*
X3476631Y8553960D1*
X3479305Y8546340D1*
X3482850Y8538720D1*
X3505710Y8561580D2*
X3504309Y8553960D1*
X3501635Y8546340D1*
X3498090Y8538720D1*
X2774190Y8546340D2*
X2768068Y8538720D1*
X2763611Y8531100D1*
X2761059Y8523480D1*
X2759822Y8515860D1*
X2759286Y8508240D1*
X2759073Y8500620D1*
X2758993Y8493000D1*
X2758964Y8485380D1*
X2758950Y8477760D1*
X2789430Y8538720D2*
X2850390D2*
X2845417Y8531100D1*
X2839223Y8523480D1*
X2833087Y8515860D1*
X2827530Y8508240D1*
X2637030Y8523480D2*
Y8515860D1*
X2797050Y8523480D2*
X2794665Y8515860D1*
X2790619Y8508240D1*
X2785696Y8500620D1*
X2781126Y8493000D1*
X2777362Y8485380D1*
X2774190Y8477760D1*
X2850390Y8523480D2*
X2896110Y8515860D1*
X2888490Y8508240D1*
X2614170Y8515860D2*
X2619480Y8508240D1*
X2627039Y8500620D1*
X2636227Y8493000D1*
X2645541Y8485380D1*
X2653755Y8477760D1*
X2660811Y8470140D1*
X2667510Y8462520D1*
X2659890Y8454900D1*
X2690925Y8447280D1*
X2711677Y8439660D1*
X2725898Y8432040D1*
X2731760Y8424420D1*
X2734025Y8416800D1*
X2735224Y8409180D1*
X2735785Y8401560D1*
X2736265Y8393940D1*
X2737322Y8386320D1*
X2739239Y8378700D1*
X2741517Y8371080D1*
X2743710Y8363460D1*
X2621790Y8515860D2*
X2644650D2*
X2645230Y8508240D1*
X2646495Y8500620D1*
X2651109Y8493000D1*
X2661941Y8485380D1*
X2678105Y8477760D1*
X2697990Y8470140D1*
X2705610Y8515860D2*
Y8508240D1*
X2873250Y8515860D2*
X2880870Y8508240D1*
X3185670Y8515860D2*
X3183285Y8508240D1*
X3179209Y8500620D1*
X3173994Y8493000D1*
X3168202Y8485380D1*
X3161500Y8477760D1*
X3153743Y8470140D1*
X3145300Y8462520D1*
X3136959Y8454900D1*
X3129152Y8447280D1*
X3122042Y8439660D1*
X3115405Y8432040D1*
X3108361Y8424420D1*
X3100504Y8416800D1*
X3092252Y8409180D1*
X3084598Y8401560D1*
X3077640Y8393940D1*
X3070656Y8386320D1*
X3063424Y8378700D1*
X3055996Y8371080D1*
X3048458Y8363460D1*
X3040871Y8355840D1*
X3033263Y8348220D1*
X3025648Y8340600D1*
X3018029Y8332980D1*
X3010410Y8325360D1*
X3002790Y8317740D1*
X2995170Y8310120D1*
X2987550Y8302500D1*
X2979930Y8294880D1*
X2972310Y8287260D1*
X2964690Y8279640D1*
X2957070Y8272020D1*
X2949450Y8264400D1*
X2941830Y8256780D1*
X2934210Y8249160D1*
X2926590Y8241540D1*
X2918970Y8233920D1*
X2911350Y8226300D1*
X2903730Y8218680D1*
X2896110Y8211060D1*
X2888490Y8203440D1*
X2880870Y8195820D1*
X2873250Y8188200D1*
X2865630Y8180580D1*
X2858010Y8172960D1*
X2850390Y8165340D1*
X2842770Y8157720D1*
X2835150Y8150100D1*
X2827560Y8142480D1*
X2820178Y8134860D1*
X2813261Y8127240D1*
X2806495Y8119620D1*
X2799003Y8112000D1*
X2790744Y8104380D1*
X2782426Y8096760D1*
X2774190Y8089140D1*
X3216150Y8515860D2*
X3218055Y8508240D1*
X3223656Y8500620D1*
X3230603Y8493000D1*
X3237653Y8485380D1*
X3244601Y8477760D1*
X3252205Y8470140D1*
X3260474Y8462520D1*
X3268502Y8454900D1*
X3275781Y8447280D1*
X3282502Y8439660D1*
X3289373Y8432040D1*
X3296797Y8424420D1*
X3304923Y8416800D1*
X3313526Y8409180D1*
X3321721Y8401560D1*
X3329074Y8393940D1*
X3335825Y8386320D1*
X3342707Y8378700D1*
X3350105Y8371080D1*
X3357994Y8363460D1*
X3365894Y8355840D1*
X3373236Y8348220D1*
X3380460Y8340600D1*
X3387806Y8332980D1*
X3395073Y8325360D1*
X3402151Y8317740D1*
X3409376Y8310120D1*
X3417229Y8302500D1*
X3425199Y8294880D1*
X3432849Y8287260D1*
X3440117Y8279640D1*
X3447424Y8272020D1*
X3455311Y8264400D1*
X3463322Y8256780D1*
X3471185Y8249160D1*
X3478920Y8241540D1*
X3486378Y8233920D1*
X3493539Y8226300D1*
X3500797Y8218680D1*
X3508663Y8211060D1*
X3516636Y8203440D1*
X3524259Y8195820D1*
X3531289Y8188200D1*
X3537893Y8180580D1*
X3544926Y8172960D1*
X3552778Y8165340D1*
X3561028Y8157720D1*
X3568682Y8150100D1*
X3575640Y8142480D1*
X3582624Y8134860D1*
X3589856Y8127240D1*
X3597284Y8119620D1*
X3604822Y8112000D1*
X3612409Y8104380D1*
X3620016Y8096760D1*
X3627630Y8089140D1*
X2705610Y8500620D2*
X2712358Y8493000D1*
X2720214Y8485380D1*
X2728470Y8477760D1*
X2819910Y8500620D2*
X2806990Y8493000D1*
X2796495Y8485380D1*
X2788427Y8477760D1*
X2781810Y8470140D1*
X2797050Y8462520D1*
X2789750Y8454900D1*
X2783434Y8447280D1*
X2778283Y8439660D1*
X2776709Y8432040D1*
X2777941Y8424420D1*
X2779520Y8416800D1*
X2780676Y8409180D1*
X2781313Y8401560D1*
X2781610Y8393940D1*
X2781735Y8386320D1*
X2781783Y8378700D1*
X2781801Y8371080D1*
X2781810Y8363460D1*
X2873250Y8493000D2*
X2857651Y8485380D1*
X2842066Y8477760D1*
X2826817Y8470140D1*
X2812290Y8462520D1*
X2831578Y8454900D1*
X2850390Y8447280D1*
X2880870Y8485380D2*
X2867031Y8477760D1*
X2854465Y8470140D1*
X2842770Y8462520D1*
X2858963Y8454900D1*
X2873250Y8447280D1*
X2736090D2*
X2743710Y8439660D1*
X2751330Y8432040D2*
Y8424420D1*
Y8416800D1*
Y8409180D1*
Y8401560D1*
X3178050Y8142480D2*
X3165570Y8134860D1*
X3154468Y8127240D1*
X3144966Y8119620D1*
X3145667Y8112000D1*
X3149183Y8104380D1*
X3153286Y8096760D1*
X3157940Y8089140D1*
X3162959Y8081520D1*
X3167934Y8073900D1*
X3173237Y8066280D1*
X3179380Y8058660D1*
X3186208Y8051040D1*
X3193194Y8043420D1*
X3199496Y8035800D1*
X3204456Y8028180D1*
X3208530Y8020560D1*
X3246630Y8142480D2*
X3260052Y8134860D1*
X3270825Y8127240D1*
X3279043Y8119620D1*
X3281505Y8112000D1*
X3279966Y8104380D1*
X3275077Y8096760D1*
X3269520Y8089140D1*
X3263615Y8081520D1*
X3257334Y8073900D1*
X3251004Y8066280D1*
X3244777Y8058660D1*
X3238382Y8051040D1*
X3232259Y8043420D1*
X3226771Y8035800D1*
X3221524Y8028180D1*
X3216150Y8020560D1*
X3147570Y7700520D2*
X3178050Y7677660D2*
X3185670Y7670040D1*
X3254250Y7677660D2*
X3246630Y7670040D1*
X2229837Y9963062D2*
D87*
X2217764Y9969098D1*
X2205550Y9981312D1*
X2199514Y9993385D1*
Y10017671D1*
X2205550Y10029885D1*
X2217764Y10041958D1*
X2229837Y10048135D1*
X2248087Y10054171D1*
X2278550D1*
X2296660Y10048135D1*
X2308873Y10041958D1*
X2320946Y10029885D1*
X2327123Y10017671D1*
Y9993385D1*
X2320946Y9981312D1*
X2308873Y9969098D1*
X2296660Y9963062D1*
X2223940Y9923846D2*
X2217763Y9911633D1*
X2199654Y9893383D1*
X2327123D1*
X2261587Y6402616D2*
X2249514Y6408653D1*
X2237300Y6420866D1*
X2231264Y6432940D1*
Y6457226D1*
X2237300Y6469439D1*
X2249514Y6481513D1*
X2261587Y6487689D1*
X2279837Y6493726D1*
X2310300D1*
X2328410Y6487689D1*
X2340623Y6481512D1*
X2352696Y6469439D1*
X2358873Y6457226D1*
Y6432939D1*
X2352696Y6420866D1*
X2340623Y6408653D1*
X2328410Y6402616D1*
X2261727Y6357224D2*
X2255690D1*
X2243477Y6351187D1*
X2237440Y6345151D1*
X2231404Y6332937D1*
Y6308651D1*
X2237440Y6296578D1*
X2243477Y6290541D1*
X2255690Y6284364D1*
X2267763D1*
X2279977Y6290541D1*
X2298087Y6302614D1*
X2358873Y6363401D1*
Y6278328D1*
X5754087Y9187813D2*
X5742014Y9193850D1*
X5729800Y9206063D1*
X5723764Y9218136D1*
Y9242423D1*
X5729800Y9254636D1*
X5742014Y9266709D1*
X5754087Y9272886D1*
X5772337Y9278923D1*
X5802800D1*
X5820910Y9272886D1*
X5833123Y9266709D1*
X5845196Y9254636D1*
X5851373Y9242423D1*
Y9218136D1*
X5845196Y9206063D1*
X5833123Y9193850D1*
X5820910Y9187813D1*
X5723904Y9136384D2*
Y9069701D1*
X5772477Y9106061D1*
Y9087811D1*
X5778513Y9075738D1*
X5784550Y9069701D1*
X5802800Y9063524D1*
X5814873D1*
X5833123Y9069701D1*
X5845337Y9081774D1*
X5851373Y9100024D1*
Y9118274D1*
X5845337Y9136384D1*
X5839160Y9142420D1*
X5827087Y9148597D1*
X3100091Y7031237D2*
Y6934090D1*
X3106127Y6915840D1*
X3112304Y6909804D1*
X3124377Y6903627D1*
X3136591D1*
X3148664Y6909804D1*
X3154700Y6915840D1*
X3160877Y6934090D1*
Y6946164D1*
X3060875Y6964414D2*
X3006125D1*
X2988015Y6970450D1*
X2981838Y6976627D1*
X2975802Y6988700D1*
Y7006950D1*
X2981838Y7019023D1*
X2988015Y7025200D1*
X3006125Y7031237D1*
X3060875D1*
Y6903627D1*
X2936586Y7006810D2*
X2924373Y7012987D1*
X2906123Y7031096D1*
Y6903627D1*
X6599067Y8851646D2*
X6604963Y8863719D1*
X6617177Y8875933D1*
X6629390Y8881969D1*
X6647640Y8888146D1*
X6677963D1*
X6696213Y8881969D1*
X6708286Y8875933D1*
X6720500Y8863719D1*
X6726536Y8851646D1*
Y8827360D1*
X6720500Y8815146D1*
X6708286Y8803073D1*
X6696213Y8797037D1*
X6677963Y8790860D1*
X6647640D1*
X6629390Y8797037D1*
X6617176Y8803073D1*
X6604963Y8815146D1*
X6599067Y8827360D1*
Y8851646D1*
X6702250Y8833396D2*
X6738750Y8797037D1*
X6623494Y8751644D2*
X6617317Y8739431D1*
X6599207Y8721181D1*
X6726676D1*
X5424317Y8704328D2*
X5430213Y8716401D1*
X5442426Y8728614D1*
X5454640Y8734651D1*
X5472890Y8740828D1*
X5503213D1*
X5521463Y8734651D1*
X5533536Y8728614D1*
X5545749Y8716401D1*
X5551786Y8704328D1*
Y8680041D1*
X5545750Y8667828D1*
X5533536Y8655755D1*
X5521463Y8649718D1*
X5503213Y8643541D1*
X5472890D1*
X5454640Y8649718D1*
X5442426Y8655755D1*
X5430213Y8667828D1*
X5424317Y8680041D1*
Y8704328D1*
X5527500Y8686078D2*
X5563999Y8649718D1*
X5424457Y8592112D2*
Y8525430D1*
X5473030Y8561789D1*
Y8543539D1*
X5479067Y8531466D1*
X5485103Y8525430D1*
X5503353Y8519253D1*
X5515426D1*
X5533676Y8525430D1*
X5545890Y8537503D1*
X5551926Y8555753D1*
X5551927Y8574002D1*
X5545890Y8592112D1*
X5539713Y8598149D1*
X5527640Y8604326D1*
X6789567Y7167469D2*
X6795463Y7179542D1*
X6807676Y7191756D1*
X6819890Y7197792D1*
X6838140Y7203969D1*
X6868463D1*
X6886713Y7197792D1*
X6898786Y7191756D1*
X6910999Y7179542D1*
X6917036Y7167469D1*
Y7143183D1*
X6911000Y7130969D1*
X6898786Y7118896D1*
X6886713Y7112860D1*
X6868463Y7106683D1*
X6838140D1*
X6819890Y7112860D1*
X6807677Y7118896D1*
X6795463Y7130969D1*
X6789567Y7143183D1*
Y7167469D1*
X6892750Y7149219D2*
X6929249Y7112860D1*
X6917176Y7006681D2*
X6789707D1*
X6874640Y7067467D1*
Y6976358D1*
X6789567Y5449951D2*
X6795463Y5462024D1*
X6807676Y5474238D1*
X6819890Y5480274D1*
X6838140Y5486451D1*
X6868463D1*
X6886713Y5480274D1*
X6898786Y5474238D1*
X6910999Y5462024D1*
X6917036Y5449951D1*
Y5425664D1*
X6911000Y5413451D1*
X6898786Y5401378D1*
X6886713Y5395341D1*
X6868463Y5389165D1*
X6838140D1*
X6819890Y5395342D1*
X6807676Y5401378D1*
X6795463Y5413451D1*
X6789567Y5425665D1*
Y5449951D1*
X6892750Y5431701D2*
X6929249Y5395341D1*
X6917176Y5325662D2*
X6789707Y5264876D1*
Y5349949D1*
X6821317Y3802041D2*
X6827213Y3814114D1*
X6839426Y3826327D1*
X6851640Y3832364D1*
X6869890Y3838541D1*
X6900213D1*
X6918463Y3832364D1*
X6930536Y3826327D1*
X6942749Y3814114D1*
X6948786Y3802041D1*
Y3777754D1*
X6942749Y3765541D1*
X6930536Y3753468D1*
X6918463Y3747431D1*
X6900213Y3741254D1*
X6869890D1*
X6851640Y3747431D1*
X6839426Y3753468D1*
X6827213Y3765541D1*
X6821317Y3777754D1*
Y3802041D1*
X6924500Y3783791D2*
X6960999Y3747431D1*
X6845744Y3702038D2*
X6839567Y3689825D1*
X6821457Y3671575D1*
X6948926D1*
X6821457Y3595859D2*
X6827494Y3614109D1*
X6845744Y3626323D1*
X6876067Y3632359D1*
X6894317D1*
X6924640Y3626323D1*
X6942890Y3614109D1*
X6948927Y3595859D1*
X6948926Y3583786D1*
X6942890Y3565536D1*
X6924640Y3553463D1*
X6894317Y3547286D1*
X6876067D1*
X6845744Y3553463D1*
X6827494Y3565536D1*
X6821457Y3583786D1*
Y3595859D1*
X6845744Y3553463D2*
X6924640Y3626323D1*
X6789567Y2071667D2*
X6795463Y2083740D1*
X6807676Y2095954D1*
X6819890Y2101990D1*
X6838140Y2108167D1*
X6868463D1*
X6886713Y2101990D1*
X6898786Y2095954D1*
X6910999Y2083740D1*
X6917036Y2071667D1*
Y2047381D1*
X6910999Y2035167D1*
X6898786Y2023094D1*
X6886713Y2017058D1*
X6868463Y2010881D1*
X6838140D1*
X6819890Y2017058D1*
X6807676Y2023094D1*
X6795463Y2035167D1*
X6789567Y2047381D1*
Y2071667D1*
X6892750Y2053417D2*
X6929249Y2017058D1*
X6813994Y1971665D2*
X6807817Y1959452D1*
X6789707Y1941202D1*
X6917176D1*
X6789707Y1889773D2*
Y1823090D1*
X6838280Y1859450D1*
Y1841200D1*
X6844317Y1829127D1*
X6850353Y1823090D1*
X6868603Y1816913D1*
X6880676D1*
X6898926Y1823090D1*
X6911140Y1835163D1*
X6917176Y1853413D1*
X6917177Y1871663D1*
X6911140Y1889773D1*
X6904963Y1895809D1*
X6892890Y1901986D1*
X4608579Y5529183D2*
X4620652Y5523287D1*
X4632865Y5511074D1*
X4638902Y5498860D1*
X4645079Y5480610D1*
Y5450287D1*
X4638902Y5432037D1*
X4632865Y5419964D1*
X4620652Y5407751D1*
X4608579Y5401714D1*
X4584292D1*
X4572079Y5407751D1*
X4560006Y5419964D1*
X4553969Y5432037D1*
X4547792Y5450287D1*
Y5480610D1*
X4553969Y5498860D1*
X4560006Y5511074D1*
X4572079Y5523287D1*
X4584292Y5529183D1*
X4608579D1*
X4590329Y5426001D2*
X4553969Y5389501D1*
X4508577Y5504756D2*
X4496363Y5510933D1*
X4478113Y5529043D1*
Y5401574D1*
X4366038Y5510933D2*
X4372074Y5523006D1*
X4390324Y5529043D1*
X4402397D1*
X4420647Y5523006D1*
X4432861Y5504756D1*
X4438897Y5474433D1*
Y5444110D1*
X4432861Y5419824D1*
X4420647Y5407610D1*
X4402397Y5401574D1*
X4396361D1*
X4378251Y5407610D1*
X4366038Y5419824D1*
X4360001Y5438074D1*
Y5444110D1*
X4366038Y5462360D1*
X4378251Y5474433D1*
X4396361Y5480470D1*
X4402397D1*
X4420647Y5474433D1*
X4432861Y5462360D1*
X4438897Y5444110D1*
X4421167Y3624183D2*
X4433240Y3618287D1*
X4445454Y3606074D1*
X4451490Y3593860D1*
X4457667Y3575610D1*
Y3545287D1*
X4451490Y3527037D1*
X4445454Y3514964D1*
X4433240Y3502751D1*
X4421167Y3496714D1*
X4396881D1*
X4384667Y3502751D1*
X4372594Y3514964D1*
X4366558Y3527037D1*
X4360381Y3545287D1*
Y3575610D1*
X4366558Y3593860D1*
X4372594Y3606074D1*
X4384667Y3618287D1*
X4396881Y3624183D1*
X4421167D1*
X4402917Y3521001D2*
X4366558Y3484501D1*
X4321165Y3599756D2*
X4308952Y3605933D1*
X4290702Y3624043D1*
Y3496574D1*
X4227199D2*
X4166413Y3624043D1*
X4251486D1*
X2514300Y10063376D2*
Y10008767D1*
X2508123Y9990517D1*
X2502087Y9984340D1*
X2490014Y9978303D1*
X2477800D1*
X2465727Y9984340D1*
X2459550Y9990517D1*
X2453514Y10008767D1*
Y10063376D1*
X2581123D1*
X2514300Y10020840D2*
X2581123Y9978303D1*
X2477940Y9939088D2*
X2471763Y9926874D1*
X2453654Y9908624D1*
X2581123D1*
X6895800Y9867431D2*
Y9812821D1*
X6889623Y9794571D1*
X6883587Y9788395D1*
X6871514Y9782358D1*
X6859300D1*
X6847227Y9788395D1*
X6841050Y9794572D1*
X6835014Y9812821D1*
Y9867431D1*
X6962623D1*
X6895800Y9824894D2*
X6962623Y9782358D1*
X6865477Y9736965D2*
X6859440D1*
X6847227Y9730929D1*
X6841190Y9724892D1*
X6835154Y9712679D1*
Y9688392D1*
X6841190Y9676319D1*
X6847227Y9670283D1*
X6859440Y9664106D1*
X6871513D1*
X6883727Y9670283D1*
X6901837Y9682356D1*
X6962623Y9743142D1*
Y9658069D1*
X6895800Y8152931D2*
Y8098321D1*
X6889623Y8080071D1*
X6883587Y8073895D1*
X6871514Y8067858D1*
X6859300D1*
X6847227Y8073895D1*
X6841050Y8080072D1*
X6835014Y8098321D1*
Y8152931D1*
X6962623D1*
X6895800Y8110394D2*
X6962623Y8067858D1*
X6835154Y8016429D2*
Y7949746D1*
X6883727Y7986106D1*
Y7967856D1*
X6889763Y7955783D1*
X6895800Y7949746D1*
X6914050Y7943569D1*
X6926123D1*
X6944373Y7949746D1*
X6956587Y7961819D1*
X6962623Y7980069D1*
Y7998319D1*
X6956587Y8016429D1*
X6950410Y8022465D1*
X6938337Y8028642D1*
X6927550Y6473199D2*
Y6418590D1*
X6921373Y6400340D1*
X6915337Y6394163D1*
X6903264Y6388126D1*
X6891050D1*
X6878977Y6394163D1*
X6872800Y6400340D1*
X6866764Y6418590D1*
Y6473199D1*
X6994373D1*
X6927550Y6430663D2*
X6994373Y6388126D1*
Y6288124D2*
X6866904D1*
X6951837Y6348911D1*
X6951836Y6257801D1*
X6927300Y4787681D2*
Y4733071D1*
X6921123Y4714821D1*
X6915087Y4708645D1*
X6903014Y4702608D1*
X6890800D1*
X6878727Y4708645D1*
X6872550Y4714822D1*
X6866514Y4733071D1*
Y4787681D1*
X6994123D1*
X6927300Y4745144D2*
X6994123Y4702608D1*
X6866654Y4590533D2*
Y4651179D1*
X6921264Y4657215D1*
X6915227Y4651179D1*
X6909050Y4632929D1*
Y4614819D1*
X6915227Y4596569D1*
X6927300Y4584356D1*
X6945550Y4578319D1*
X6957623D1*
X6975873Y4584356D1*
X6988087Y4596569D1*
X6994123Y4614819D1*
Y4632929D1*
X6988087Y4651179D1*
X6981910Y4657215D1*
X6969837Y4663392D1*
X6927300Y3038343D2*
Y2983733D1*
X6921123Y2965483D1*
X6915087Y2959306D1*
X6903014Y2953270D1*
X6890800D1*
X6878727Y2959306D1*
X6872550Y2965483D1*
X6866514Y2983733D1*
Y3038343D1*
X6994123Y3038342D1*
X6927300Y2995806D2*
X6994123Y2953269D1*
X6884763Y2841194D2*
X6872690Y2847231D1*
X6866654Y2865481D1*
Y2877554D1*
X6872690Y2895804D1*
X6890940Y2908017D1*
X6921264Y2914054D1*
X6951587D1*
X6975873Y2908017D1*
X6988087Y2895804D1*
X6994123Y2877554D1*
Y2871517D1*
X6988087Y2853408D1*
X6975873Y2841194D1*
X6957623Y2835158D1*
X6951586D1*
X6933336Y2841194D1*
X6921263Y2853408D1*
X6915227Y2871517D1*
Y2877554D1*
X6921264Y2895804D1*
X6933337Y2908017D1*
X6951587Y2914054D1*
X5644681Y10375950D2*
X5590071D1*
X5571821Y10382127D1*
X5565644Y10388164D1*
X5559608Y10400237D1*
Y10412450D1*
X5565644Y10424523D1*
X5571821Y10430700D1*
X5590071Y10436737D1*
X5644681D1*
Y10309127D1*
X5602144Y10375950D2*
X5559608Y10309127D1*
X5496106D2*
X5435319Y10436596D1*
X5520392D1*
X6089111Y7248573D2*
X6034501D1*
X6016251Y7254750D1*
X6010074Y7260787D1*
X6004038Y7272860D1*
Y7285073D1*
X6010074Y7297146D1*
X6016251Y7303323D1*
X6034501Y7309360D1*
X6089111D1*
Y7181750D1*
X6046574Y7248573D2*
X6004038Y7181750D1*
X5934499Y7309220D2*
X5952609Y7303183D1*
X5958785Y7291110D1*
Y7278896D1*
X5952609Y7266823D1*
X5940535Y7260646D1*
X5916249Y7254610D1*
X5897999Y7248573D1*
X5885926Y7236360D1*
X5879889Y7224287D1*
Y7206037D1*
X5885926Y7193964D1*
X5891962Y7187787D1*
X5910212Y7181750D1*
X5934499D1*
X5952609Y7187787D1*
X5958785Y7193964D1*
X5964822Y7206037D1*
Y7224287D1*
X5958785Y7236360D1*
X5946572Y7248573D1*
X5928462Y7254610D1*
X5904176Y7260646D1*
X5891962Y7266823D1*
X5885926Y7278896D1*
Y7291110D1*
X5891962Y7303183D1*
X5910212Y7309220D1*
X5934499D1*
X6117913Y5534073D2*
X6063303D1*
X6045053Y5540250D1*
X6038876Y5546287D1*
X6032840Y5558360D1*
Y5570573D1*
X6038876Y5582646D1*
X6045053Y5588823D1*
X6063303Y5594860D1*
X6117913D1*
Y5467250D1*
X6075376Y5534073D2*
X6032840Y5467250D1*
X5914587Y5552323D2*
X5920764Y5534073D1*
X5932837Y5521860D1*
X5951087Y5515823D1*
X5957124D1*
X5975374Y5521860D1*
X5987447Y5534073D1*
X5993624Y5552323D1*
Y5558360D1*
X5987447Y5576610D1*
X5975374Y5588683D1*
X5957124Y5594720D1*
X5951087D1*
X5932837Y5588683D1*
X5920764Y5576610D1*
X5914587Y5552323D1*
Y5521860D1*
X5920764Y5491537D1*
X5932837Y5473287D1*
X5951087Y5467250D1*
X5963160D1*
X5981410Y5473287D1*
X5987447Y5485500D1*
X6124020Y3883073D2*
X6069411D1*
X6051161Y3889250D1*
X6044984Y3895287D1*
X6038947Y3907360D1*
Y3919573D1*
X6044984Y3931646D1*
X6051161Y3937823D1*
X6069411Y3943860D1*
X6124020D1*
Y3816250D1*
X6081484Y3883073D2*
X6038947Y3816250D1*
X5999732Y3919433D2*
X5987518Y3925610D1*
X5969268Y3943720D1*
Y3816250D1*
X5893553Y3943720D2*
X5911803Y3937683D1*
X5924016Y3919433D1*
X5930053Y3889110D1*
Y3870860D1*
X5924016Y3840537D1*
X5911803Y3822287D1*
X5893553Y3816250D1*
X5881480D1*
X5863230Y3822287D1*
X5851156Y3840537D1*
X5844980Y3870860D1*
Y3889110D1*
X5851156Y3919433D1*
X5863230Y3937683D1*
X5881480Y3943720D1*
X5893553D1*
X5851156Y3919433D2*
X5924016Y3840537D1*
X6128466Y2120950D2*
X6073856D1*
X6055606Y2127127D1*
X6049429Y2133164D1*
X6043393Y2145237D1*
Y2157450D1*
X6049429Y2169523D1*
X6055606Y2175700D1*
X6073856Y2181737D1*
X6128466D1*
Y2054127D1*
X6085929Y2120950D2*
X6043393Y2054127D1*
X6004177Y2157310D2*
X5991963Y2163487D1*
X5973713Y2181596D1*
Y2054127D1*
X5934498Y2157310D2*
X5922284Y2163487D1*
X5904034Y2181596D1*
Y2054127D1*
X5711270Y10121950D2*
X5656661D1*
X5638411Y10128127D1*
X5632234Y10134164D1*
X5626197Y10146237D1*
Y10158450D1*
X5632234Y10170523D1*
X5638411Y10176700D1*
X5656661Y10182737D1*
X5711270D1*
Y10055127D1*
X5668734Y10121950D2*
X5626197Y10055127D1*
X5586982Y10158310D2*
X5574768Y10164487D1*
X5556518Y10182596D1*
Y10055127D1*
X5511126Y10152273D2*
Y10158310D1*
X5505089Y10170523D1*
X5499053Y10176560D1*
X5486839Y10182596D1*
X5462553D1*
X5450480Y10176560D1*
X5444443Y10170523D1*
X5438266Y10158310D1*
Y10146237D1*
X5444443Y10134023D1*
X5456516Y10115914D1*
X5517303Y10055127D1*
X5432230D1*
X2627958Y6055987D2*
Y5964877D1*
X2621921Y5946627D1*
X2609708Y5934554D1*
X2591458Y5928377D1*
X2579385D1*
X2561135Y5934554D1*
X2548921Y5946627D1*
X2542885Y5964877D1*
Y6055987D1*
X2497492Y6025523D2*
Y6031560D1*
X2491455Y6043773D1*
X2485419Y6049810D1*
X2473205Y6055846D1*
X2448919D1*
X2436846Y6049810D1*
X2430809Y6043773D1*
X2424632Y6031560D1*
Y6019487D1*
X2430809Y6007273D1*
X2442882Y5989164D1*
X2503669Y5928377D1*
X2418596D1*
M02*
