M48
METRIC,0000.00
T01C0.5
T02C0.8
T03C0.9
T04C1.016
T05C1.1
T06C1.2
T07C1.27
T08C1.321
T09C1.803
T10C3.4
%
T01
X+002270Y+009858
X+005254Y+008556
X+005413Y+008747
X+005985Y+009572
X+004619Y+005572
X+004429Y+003635
T02
X+002460Y+004738G85X+002460Y+004818
X+002460Y+003788G85X+002460Y+003868
X+002460Y+002838G85X+002460Y+002918
X+002460Y+001888G85X+002460Y+001968
X+010303Y+002039G85X+010303Y+002119
X+010303Y+002989G85X+010303Y+003069
X+010303Y+003939G85X+010303Y+004019
X+010303Y+004889G85X+010303Y+004969
X+010303Y+005839G85X+010303Y+005919
X+010303Y+006789G85X+010303Y+006869
X+010303Y+007739G85X+010303Y+007819
X+010303Y+008689G85X+010303Y+008769
X+010303Y+009639G85X+010303Y+009719
X+010303Y+010589G85X+010303Y+010669
T03
X+005953Y+006270
X+005445Y+006270
X+005350Y+006810
X+005350Y+007064
X+005826Y+002968
X+006080Y+002968
T04
X+005318Y+008334
X+005318Y+008080
X+005318Y+007826
X+005318Y+007572
X+004746Y+007572
X+004746Y+007826
X+004746Y+008080
X+004746Y+008334
X+004746Y+008588
X+004746Y+008842
X+004746Y+009096
X+004746Y+009350
X+004746Y+009604
X+004746Y+009858
X+004746Y+010112
X+004746Y+010366
X+005318Y+009858
X+005318Y+009604
X+005318Y+009350
X+005318Y+009096
X+005699Y+009096
X+005699Y+009350
X+005699Y+009604
X+005699Y+009858
X+005889Y+008334
X+005889Y+008080
X+004746Y+007318
X+004746Y+007064
X+004746Y+006810
X+001952Y+006810
X+001952Y+007064
X+001952Y+007318
X+001952Y+007572
X+001952Y+007826
X+001952Y+008080
X+001952Y+008334
X+001952Y+008588
X+001952Y+008842
X+001952Y+009096
X+001952Y+009350
X+001952Y+009604
X+001952Y+009858
X+001952Y+010112
X+001952Y+010366
X+001952Y+010715
X+001952Y+010969
T05
X+006620Y+009430
X+006620Y+009684
X+006620Y+009938
X+006620Y+008223
X+006620Y+007969
X+006620Y+007715
X+006651Y+006509
X+006651Y+006255
X+006651Y+006001
X+006651Y+004794
X+006651Y+004540
X+006651Y+004286
X+006651Y+003080
X+006651Y+002826
X+006651Y+002572
T06
X+007159Y+010176
X+007159Y+009071
X+007159Y+008461
X+007159Y+007356
X+007159Y+006778
X+007159Y+005673
X+007159Y+005096
X+007159Y+003991
X+007191Y+003349
X+007191Y+002244
X+005540Y+002048
X+005540Y+003153
X+005540Y+003953
X+005540Y+005058
T07
X+007032Y+001540
X+006535Y+001540
X+006034Y+001540
X+008461Y+002349
X+008461Y+002849
X+008461Y+004064
X+008461Y+004564
X+008461Y+005778
X+008461Y+006278
X+008461Y+007493
X+008461Y+007993
X+008461Y+009207
X+008461Y+009707
X+006683Y+010811
X+005921Y+010811
X+010842Y+010612
X+010842Y+010112
X+010842Y+008739
X+010842Y+008239
X+010842Y+006834
X+010842Y+006334
X+010811Y+004929
X+010811Y+004429
X+010842Y+003024
X+010842Y+002524
X+001794Y+002619
X+001794Y+003119
X+001794Y+003635
X+001794Y+004135
T08
X+009064Y+010287
X+009064Y+009088
X+009064Y+008572
X+009064Y+007373
X+009064Y+006858
X+009064Y+005659
X+009064Y+005143
X+009064Y+003944
X+009064Y+003429
X+009064Y+002230
X+007845Y+002230
X+007845Y+003429
X+007845Y+003945
X+007845Y+005143
X+007845Y+005659
X+007845Y+006858
X+007845Y+007374
X+007845Y+008572
X+007845Y+009088
X+007845Y+010287
X+004918Y+005056
X+004918Y+003858
X+004918Y+003151
X+004918Y+001953
X+003699Y+001952
X+003699Y+003151
X+003699Y+003857
X+003699Y+005056
T09
X+007634Y+009687
X+007634Y+007973
X+007634Y+006258
X+007634Y+004544
X+007634Y+002829
X+005129Y+002552
X+005129Y+004457
T10
X+001350Y+011500
X+009000Y+011500
X+003500Y+001350
T00
M30
