G04 DipTrace 3.3.1.3*
G04 TopSilk.gbr*
%MOMM*%
G04 #@! TF.FileFunction,Legend,Top*
G04 #@! TF.Part,Single*
%ADD10C,0.25*%
%ADD87C,0.19608*%
%FSLAX35Y35*%
G04*
G71*
G90*
G75*
G01*
G04 TopSilk*
%LPD*%
X7282500Y1039750D2*
D10*
X5782500D1*
Y2039750D1*
X7282500D1*
Y1039750D1*
X5238979Y6240477D2*
Y6300523D1*
X5209017Y6270500D2*
X5269029D1*
X5317979D2*
X5318907Y6297077D1*
X5321687Y6323525D1*
X5326305Y6349714D1*
X5332739Y6375518D1*
X5340957Y6400810D1*
X5350920Y6425467D1*
X5362578Y6449369D1*
X5375875Y6472399D1*
X5390747Y6494446D1*
X5407120Y6515402D1*
X5424916Y6535165D1*
X5444046Y6553638D1*
X5464419Y6570732D1*
X5485935Y6586363D1*
X5508488Y6600456D1*
X5531970Y6612941D1*
X5556266Y6623757D1*
X5581256Y6632853D1*
X5606821Y6640183D1*
X5632834Y6645712D1*
X5659170Y6649413D1*
X5685700Y6651268D1*
X5712295D1*
X5738825Y6649413D1*
X5765161Y6645712D1*
X5791175Y6640183D1*
X5816739Y6632853D1*
X5841730Y6623757D1*
X5866025Y6612941D1*
X5889507Y6600456D1*
X5912061Y6586363D1*
X5933576Y6570732D1*
X5953949Y6553638D1*
X5973080Y6535165D1*
X5990875Y6515402D1*
X6007249Y6494446D1*
X6022120Y6472399D1*
X6035417Y6449369D1*
X6047076Y6425467D1*
X6057038Y6400810D1*
X6065257Y6375518D1*
X6071690Y6349714D1*
X6076309Y6323525D1*
X6079089Y6297077D1*
X6080017Y6270500D1*
X6079089Y6243923D1*
X6076309Y6217475D1*
X6071690Y6191286D1*
X6065257Y6165482D1*
X6057038Y6140190D1*
X6047076Y6115533D1*
X6035417Y6091631D1*
X6022120Y6068601D1*
X6007249Y6046554D1*
X5990875Y6025598D1*
X5973080Y6005835D1*
X5953949Y5987362D1*
X5933576Y5970268D1*
X5912061Y5954637D1*
X5889507Y5940544D1*
X5866025Y5928059D1*
X5841730Y5917243D1*
X5816739Y5908147D1*
X5791175Y5900817D1*
X5765161Y5895288D1*
X5738825Y5891587D1*
X5712295Y5889732D1*
X5685700D1*
X5659170Y5891587D1*
X5632834Y5895288D1*
X5606821Y5900817D1*
X5581256Y5908147D1*
X5556266Y5917243D1*
X5531970Y5928059D1*
X5508488Y5940544D1*
X5485935Y5954637D1*
X5464419Y5970268D1*
X5444046Y5987362D1*
X5424916Y6005835D1*
X5407120Y6025598D1*
X5390747Y6046554D1*
X5375875Y6068601D1*
X5362578Y6091631D1*
X5350920Y6115533D1*
X5340957Y6140190D1*
X5332739Y6165482D1*
X5326305Y6191286D1*
X5321687Y6217475D1*
X5318907Y6243923D1*
X5317979Y6270500D1*
X5379773Y6607352D2*
X5319727D1*
X5349750Y6577332D2*
Y6637310D1*
X5095750Y6937325D2*
X5096369Y6955036D1*
X5098222Y6972662D1*
X5101301Y6990116D1*
X5105590Y7007312D1*
X5111068Y7024167D1*
X5117709Y7040599D1*
X5125481Y7056528D1*
X5134346Y7071877D1*
X5144260Y7086569D1*
X5155175Y7100535D1*
X5167038Y7113706D1*
X5179791Y7126017D1*
X5193372Y7137409D1*
X5207715Y7147826D1*
X5222750Y7157217D1*
X5238404Y7165538D1*
X5254600Y7172746D1*
X5271260Y7178808D1*
X5288302Y7183693D1*
X5305643Y7187378D1*
X5323200Y7189844D1*
X5340886Y7191080D1*
X5358614D1*
X5376300Y7189844D1*
X5393857Y7187378D1*
X5411198Y7183693D1*
X5428240Y7178808D1*
X5444900Y7172746D1*
X5461096Y7165538D1*
X5476750Y7157217D1*
X5491785Y7147826D1*
X5506128Y7137409D1*
X5519709Y7126017D1*
X5532462Y7113706D1*
X5544325Y7100535D1*
X5555240Y7086569D1*
X5565154Y7071877D1*
X5574019Y7056528D1*
X5581791Y7040599D1*
X5588432Y7024167D1*
X5593910Y7007312D1*
X5598199Y6990116D1*
X5601278Y6972662D1*
X5603131Y6955036D1*
X5603750Y6937325D1*
X5603131Y6919613D1*
X5601278Y6901987D1*
X5598199Y6884534D1*
X5593910Y6867337D1*
X5588432Y6850482D1*
X5581791Y6834050D1*
X5574019Y6818121D1*
X5565154Y6802773D1*
X5555240Y6788080D1*
X5544325Y6774114D1*
X5532462Y6760944D1*
X5519709Y6748632D1*
X5506128Y6737240D1*
X5491785Y6726823D1*
X5476750Y6717432D1*
X5461096Y6709111D1*
X5444900Y6701903D1*
X5428240Y6695841D1*
X5411198Y6690956D1*
X5393857Y6687272D1*
X5376300Y6684805D1*
X5358614Y6683569D1*
X5340886D1*
X5323200Y6684805D1*
X5305643Y6687272D1*
X5288302Y6690956D1*
X5271260Y6695841D1*
X5254600Y6701903D1*
X5238404Y6709111D1*
X5222750Y6717432D1*
X5207715Y6726823D1*
X5193372Y6737240D1*
X5179791Y6748632D1*
X5167038Y6760944D1*
X5155175Y6774114D1*
X5144260Y6788080D1*
X5134346Y6802773D1*
X5125481Y6818121D1*
X5117709Y6834050D1*
X5111068Y6850482D1*
X5105590Y6867337D1*
X5101301Y6884534D1*
X5098222Y6901987D1*
X5096369Y6919613D1*
X5095750Y6937325D1*
X5623102Y2938477D2*
Y2998523D1*
X5593082Y2968500D2*
X5653060D1*
X5699164D2*
X5699783Y2986218D1*
X5701635Y3003850D1*
X5704713Y3021310D1*
X5709000Y3038512D1*
X5714477Y3055373D1*
X5721116Y3071811D1*
X5728885Y3087746D1*
X5737746Y3103099D1*
X5747657Y3117797D1*
X5758568Y3131768D1*
X5770427Y3144943D1*
X5783175Y3157259D1*
X5796752Y3168655D1*
X5811090Y3179076D1*
X5826119Y3188470D1*
X5841768Y3196794D1*
X5857958Y3204005D1*
X5874612Y3210068D1*
X5891648Y3214955D1*
X5908983Y3218641D1*
X5926534Y3221109D1*
X5944213Y3222345D1*
X5961936D1*
X5979615Y3221109D1*
X5997166Y3218641D1*
X6014501Y3214955D1*
X6031537Y3210068D1*
X6048191Y3204005D1*
X6064382Y3196794D1*
X6080030Y3188470D1*
X6095059Y3179076D1*
X6109397Y3168655D1*
X6122974Y3157259D1*
X6135722Y3144943D1*
X6147581Y3131768D1*
X6158492Y3117797D1*
X6168403Y3103099D1*
X6177264Y3087746D1*
X6185033Y3071811D1*
X6191672Y3055373D1*
X6197149Y3038512D1*
X6201436Y3021310D1*
X6204514Y3003850D1*
X6206366Y2986218D1*
X6206985Y2968500D1*
X6206366Y2950782D1*
X6204514Y2933150D1*
X6201436Y2915690D1*
X6197149Y2898488D1*
X6191672Y2881627D1*
X6185033Y2865189D1*
X6177264Y2849254D1*
X6168403Y2833901D1*
X6158492Y2819203D1*
X6147581Y2805232D1*
X6135722Y2792057D1*
X6122974Y2779741D1*
X6109397Y2768345D1*
X6095059Y2757924D1*
X6080030Y2748530D1*
X6064382Y2740206D1*
X6048191Y2732995D1*
X6031537Y2726932D1*
X6014501Y2722045D1*
X5997166Y2718359D1*
X5979615Y2715891D1*
X5961936Y2714655D1*
X5944213D1*
X5926534Y2715891D1*
X5908983Y2718359D1*
X5891648Y2722045D1*
X5874612Y2726932D1*
X5857958Y2732995D1*
X5841768Y2740206D1*
X5826119Y2748530D1*
X5811090Y2757924D1*
X5796752Y2768345D1*
X5783175Y2779741D1*
X5770427Y2792057D1*
X5758568Y2805232D1*
X5747657Y2819203D1*
X5737746Y2833901D1*
X5728885Y2849254D1*
X5721116Y2865189D1*
X5714477Y2881627D1*
X5709000Y2898488D1*
X5704713Y2915690D1*
X5701635Y2933150D1*
X5699783Y2950782D1*
X5699164Y2968500D1*
X7019500Y9863545D2*
X7299500D1*
Y9858405D2*
Y9388095D1*
X7019500Y9787730D2*
X7299500D1*
X7019500Y9388095D2*
X7299500D1*
X7019500Y9858405D2*
Y9388095D1*
Y8149045D2*
X7299500D1*
Y8143905D2*
Y7673595D1*
X7019500Y8073230D2*
X7299500D1*
X7019500Y7673595D2*
X7299500D1*
X7019500Y8143905D2*
Y7673595D1*
Y6466295D2*
X7299500D1*
Y6461155D2*
Y5990845D1*
X7019500Y6390480D2*
X7299500D1*
X7019500Y5990845D2*
X7299500D1*
X7019500Y6461155D2*
Y5990845D1*
Y4783545D2*
X7299500D1*
Y4778405D2*
Y4308095D1*
X7019500Y4707730D2*
X7299500D1*
X7019500Y4308095D2*
X7299500D1*
X7019500Y4778405D2*
Y4308095D1*
X7051250Y3037295D2*
X7331250D1*
Y3032155D2*
Y2561845D1*
X7051250Y2961480D2*
X7331250D1*
X7051250Y2561845D2*
X7331250D1*
X7051250Y3032155D2*
Y2561845D1*
X5680250Y4264955D2*
X5400250D1*
Y4270095D2*
Y4740405D1*
X5680250Y4340770D2*
X5400250D1*
X5680250Y4740405D2*
X5400250D1*
X5680250Y4270095D2*
Y4740405D1*
Y2359955D2*
X5400250D1*
Y2365095D2*
Y2835405D1*
X5680250Y2435770D2*
X5400250D1*
X5680250Y2835405D2*
X5400250D1*
X5680250Y2365095D2*
Y2835405D1*
X5445000Y8461250D2*
X5191000D1*
Y7445250D1*
X5445000D1*
Y8461250D1*
X5826000Y9985250D2*
X5572000D1*
Y8969250D1*
X5826000D1*
Y9985250D1*
X9483743Y10512933D2*
X7431630D1*
Y9812414D2*
Y10512933D1*
Y8861933D2*
X9483743D1*
Y10512933D2*
Y8861933D1*
X7431630D2*
Y9562453D1*
X9483743Y8798433D2*
X7431630D1*
Y8097914D2*
Y8798433D1*
Y7147433D2*
X9483743D1*
Y8798433D2*
Y7147433D1*
X7431630D2*
Y7847953D1*
X9483743Y7083933D2*
X7431630D1*
Y6383414D2*
Y7083933D1*
Y5432933D2*
X9483743D1*
Y7083933D2*
Y5432933D1*
X7431630D2*
Y6133453D1*
X9483743Y5369437D2*
X7431630D1*
Y4668917D2*
Y5369437D1*
Y3718437D2*
X9483743D1*
Y5369437D2*
Y3718437D1*
X7431630D2*
Y4418956D1*
X9483743Y3654937D2*
X7431630D1*
Y2954417D2*
Y3654937D1*
Y2003937D2*
X9483743D1*
Y3654937D2*
Y2003937D1*
X7431630D2*
Y2704456D1*
X3279507Y3631440D2*
X5331620D1*
Y4331959D2*
Y3631440D1*
Y5282440D2*
X3279507D1*
Y3631440D2*
Y5282440D1*
X5331620D2*
Y4581921D1*
X3279507Y1726440D2*
X5331620D1*
Y2426959D2*
Y1726440D1*
Y3377440D2*
X3279507D1*
Y1726440D2*
Y3377440D1*
X5331620D2*
Y2676921D1*
X5445000Y9985250D2*
X5191000D1*
Y8969250D1*
X5445000D1*
Y9985250D1*
X7064250Y10610750D2*
X5540250D1*
Y11810750D1*
X7064250D1*
Y10610750D1*
X6349750Y9183623D2*
X6799750D1*
Y10183623D1*
X6349750D1*
Y9183623D1*
X6439750D2*
Y10183623D1*
X6349750Y7469123D2*
X6799750D1*
Y8469123D1*
X6349750D1*
Y7469123D1*
X6439750D2*
Y8469123D1*
X6381500Y5754623D2*
X6831500D1*
Y6754623D1*
X6381500D1*
Y5754623D1*
X6471500D2*
Y6754623D1*
X6381500Y4040127D2*
X6831500D1*
Y5040127D1*
X6381500D1*
Y4040127D1*
X6471500D2*
Y5040127D1*
X6381500Y2325627D2*
X6831500D1*
Y3325627D1*
X6381500D1*
Y2325627D1*
X6471500D2*
Y3325627D1*
X2860500Y5278250D2*
X1260500D1*
Y1428250D1*
X2860500D1*
Y5278250D1*
X2079500Y11096500D2*
X1825500D1*
Y10588500D1*
X2079500D1*
Y11096500D1*
X1698500Y11382250D2*
X5000500D1*
Y5794250D1*
X1698500D1*
Y11382250D1*
X2714525Y6175352D2*
X3857348D1*
Y5794250D1*
X2714525D1*
Y6175352D1*
X9902750Y1579500D2*
X11502750D1*
Y11129500D1*
X9902750D1*
Y1579500D1*
X10461500Y9858250D2*
X11223500D1*
Y10874250D1*
X10461500D1*
Y9858250D1*
Y7985000D2*
X11223500D1*
Y9001000D1*
X10461500D1*
Y7985000D1*
Y6080000D2*
X11223500D1*
Y7096000D1*
X10461500D1*
Y6080000D1*
X5762500Y7953250D2*
X6016500D1*
Y8461250D1*
X5762500D1*
Y7953250D1*
X10429750Y4175000D2*
X11191750D1*
Y5191000D1*
X10429750D1*
Y4175000D1*
X10461500Y2270000D2*
X11223500D1*
Y3286000D1*
X10461500D1*
Y2270000D1*
X8080250Y8953373D2*
X8842250D1*
Y9969373D1*
X8080250D1*
Y8953373D1*
Y7238877D2*
X8842250D1*
Y8254877D1*
X8080250D1*
Y7238877D1*
Y5524377D2*
X8842250D1*
Y6540377D1*
X8080250D1*
Y5524377D1*
Y3809877D2*
X8842250D1*
Y4825877D1*
X8080250D1*
Y3809877D1*
Y2095373D2*
X8842250D1*
Y3111373D1*
X8080250D1*
Y2095373D1*
X1412750Y3381250D2*
X2174750D1*
Y4397250D1*
X1412750D1*
Y3381250D1*
Y2365250D2*
X2174750D1*
Y3381250D1*
X1412750D1*
Y2365250D1*
X6327817Y1368487D2*
D87*
Y1240877D1*
X6382567D1*
X6400817Y1247054D1*
X6406853Y1253090D1*
X6412890Y1265164D1*
Y1283414D1*
X6406853Y1295627D1*
X6400817Y1301664D1*
X6382567Y1307700D1*
X6400817Y1313877D1*
X6406853Y1319914D1*
X6412890Y1331987D1*
Y1344200D1*
X6406853Y1356273D1*
X6400817Y1362450D1*
X6382567Y1368487D1*
X6327817D1*
Y1307700D2*
X6382567D1*
X6452106Y1325950D2*
Y1265164D1*
X6458142Y1247054D1*
X6470356Y1240877D1*
X6488606D1*
X6500679Y1247054D1*
X6518929Y1265164D1*
Y1325950D2*
Y1240877D1*
X6631144Y1307700D2*
X6618931Y1319914D1*
X6606717Y1325950D1*
X6588608D1*
X6576394Y1319914D1*
X6564321Y1307700D1*
X6558144Y1289450D1*
Y1277377D1*
X6564321Y1259127D1*
X6576394Y1247054D1*
X6588608Y1240877D1*
X6606717D1*
X6618931Y1247054D1*
X6631144Y1259127D1*
X6670360Y1368487D2*
Y1240877D1*
X6731147Y1325950D2*
X6670360Y1265164D1*
X6694647Y1289450D2*
X6737183Y1240877D1*
X5180409Y5981664D2*
X5174372Y5993737D1*
X5162159Y6005950D1*
X5150086Y6011987D1*
X5125799D1*
X5113586Y6005950D1*
X5101513Y5993737D1*
X5095336Y5981664D1*
X5089299Y5963414D1*
Y5932950D1*
X5095336Y5914840D1*
X5101513Y5902627D1*
X5113586Y5890554D1*
X5125799Y5884377D1*
X5150086D1*
X5162159Y5890554D1*
X5174372Y5902627D1*
X5180409Y5914840D1*
X5280411Y5884377D2*
Y6011846D1*
X5219625Y5926914D1*
X5310734D1*
X5333160Y7346899D2*
X5327124Y7358972D1*
X5314910Y7371185D1*
X5302837Y7377222D1*
X5278551D1*
X5266337Y7371185D1*
X5254264Y7358972D1*
X5248087Y7346899D1*
X5242051Y7328649D1*
Y7298185D1*
X5248087Y7280075D1*
X5254264Y7267862D1*
X5266337Y7255789D1*
X5278551Y7249612D1*
X5302837D1*
X5314910Y7255789D1*
X5327124Y7267862D1*
X5333160Y7280075D1*
X5445236Y7377081D2*
X5384590D1*
X5378553Y7322472D1*
X5384590Y7328508D1*
X5402840Y7334685D1*
X5420949D1*
X5439199Y7328508D1*
X5451413Y7316435D1*
X5457449Y7298185D1*
Y7286112D1*
X5451413Y7267862D1*
X5439199Y7255649D1*
X5420949Y7249612D1*
X5402840D1*
X5384590Y7255649D1*
X5378553Y7261825D1*
X5372376Y7273899D1*
X5886532Y3378164D2*
X5880496Y3390237D1*
X5868282Y3402450D1*
X5856209Y3408487D1*
X5831923D1*
X5819709Y3402450D1*
X5807636Y3390237D1*
X5801459Y3378164D1*
X5795423Y3359914D1*
Y3329450D1*
X5801459Y3311340D1*
X5807636Y3299127D1*
X5819709Y3287054D1*
X5831923Y3280877D1*
X5856209D1*
X5868282Y3287054D1*
X5880496Y3299127D1*
X5886532Y3311340D1*
X5998608Y3390237D2*
X5992571Y3402310D1*
X5974321Y3408346D1*
X5962248D1*
X5943998Y3402310D1*
X5931784Y3384060D1*
X5925748Y3353737D1*
Y3323414D1*
X5931784Y3299127D1*
X5943998Y3286914D1*
X5962248Y3280877D1*
X5968284D1*
X5986394Y3286914D1*
X5998608Y3299127D1*
X6004644Y3317377D1*
Y3323414D1*
X5998608Y3341664D1*
X5986394Y3353737D1*
X5968284Y3359773D1*
X5962248D1*
X5943998Y3353737D1*
X5931784Y3341664D1*
X5925748Y3323414D1*
X7087513Y9514124D2*
X7215123D1*
Y9556661D1*
X7208946Y9574911D1*
X7196873Y9587124D1*
X7184660Y9593161D1*
X7166550Y9599197D1*
X7136087D1*
X7117837Y9593161D1*
X7105764Y9587124D1*
X7093550Y9574911D1*
X7087513Y9556661D1*
Y9514124D1*
X7111940Y9638413D2*
X7105764Y9650626D1*
X7087654Y9668876D1*
X7215123D1*
X7087513Y7772319D2*
X7215123D1*
Y7814856D1*
X7208946Y7833106D1*
X7196873Y7845319D1*
X7184660Y7851356D1*
X7166550Y7857392D1*
X7136087D1*
X7117837Y7851356D1*
X7105764Y7845319D1*
X7093550Y7833106D1*
X7087513Y7814856D1*
Y7772319D1*
X7117977Y7902785D2*
X7111940D1*
X7099727Y7908822D1*
X7093690Y7914858D1*
X7087654Y7927071D1*
Y7951358D1*
X7093690Y7963431D1*
X7099727Y7969468D1*
X7111940Y7975645D1*
X7124014Y7975644D1*
X7136227Y7969468D1*
X7154337Y7957394D1*
X7215123Y7896608D1*
Y7981681D1*
X7087513Y6121319D2*
X7215123D1*
Y6163856D1*
X7208946Y6182106D1*
X7196873Y6194319D1*
X7184660Y6200356D1*
X7166550Y6206392D1*
X7136087D1*
X7117837Y6200356D1*
X7105764Y6194319D1*
X7093550Y6182106D1*
X7087513Y6163856D1*
Y6121319D1*
X7087654Y6257822D2*
Y6324504D1*
X7136227Y6288145D1*
Y6306394D1*
X7142264Y6318468D1*
X7148300Y6324504D1*
X7166550Y6330681D1*
X7178623D1*
X7196873Y6324504D1*
X7209087Y6312431D1*
X7215123Y6294181D1*
Y6275931D1*
X7209087Y6257821D1*
X7202910Y6251785D1*
X7190837Y6245608D1*
X7087513Y4403801D2*
X7215123D1*
Y4446338D1*
X7208946Y4464587D1*
X7196873Y4476801D1*
X7184660Y4482838D1*
X7166550Y4488874D1*
X7136087D1*
X7117837Y4482838D1*
X7105764Y4476801D1*
X7093550Y4464588D1*
X7087513Y4446338D1*
Y4403801D1*
X7215123Y4588876D2*
X7087654D1*
X7172587Y4528090D1*
Y4619199D1*
X7119263Y2660569D2*
X7246873D1*
Y2703106D1*
X7240696Y2721356D1*
X7228623Y2733569D1*
X7216410Y2739606D1*
X7198300Y2745642D1*
X7167837D1*
X7149587Y2739606D1*
X7137514Y2733569D1*
X7125300Y2721356D1*
X7119263Y2703106D1*
Y2660569D1*
X7119404Y2857718D2*
Y2797072D1*
X7174014Y2791035D1*
X7167977Y2797071D1*
X7161800Y2815321D1*
Y2833431D1*
X7167977Y2851681D1*
X7180050Y2863894D1*
X7198300Y2869931D1*
X7210373D1*
X7228623Y2863894D1*
X7240837Y2851681D1*
X7246873Y2833431D1*
Y2815321D1*
X7240837Y2797071D1*
X7234660Y2791035D1*
X7222587Y2784858D1*
X5468263Y4403658D2*
X5595873D1*
Y4446194D1*
X5589696Y4464444D1*
X5577623Y4476658D1*
X5565410Y4482694D1*
X5547300Y4488731D1*
X5516837D1*
X5498587Y4482694D1*
X5486514Y4476658D1*
X5474300Y4464444D1*
X5468263Y4446194D1*
Y4403658D1*
X5486514Y4600806D2*
X5474440Y4594770D1*
X5468404Y4576520D1*
Y4564446D1*
X5474440Y4546197D1*
X5492690Y4533983D1*
X5523014Y4527946D1*
X5553337D1*
X5577623Y4533983D1*
X5589837Y4546196D1*
X5595873Y4564446D1*
Y4570483D1*
X5589837Y4588592D1*
X5577623Y4600806D1*
X5559373Y4606843D1*
X5553337D1*
X5535087Y4600806D1*
X5523014Y4588593D1*
X5516977Y4570483D1*
Y4564446D1*
X5523014Y4546196D1*
X5535087Y4533983D1*
X5553337Y4527946D1*
X5468263Y2463819D2*
X5595873D1*
Y2506356D1*
X5589696Y2524606D1*
X5577623Y2536819D1*
X5565410Y2542856D1*
X5547300Y2548892D1*
X5516837D1*
X5498587Y2542856D1*
X5486514Y2536819D1*
X5474300Y2524606D1*
X5468263Y2506356D1*
Y2463819D1*
X5595873Y2612394D2*
X5468404Y2673181D1*
Y2588108D1*
X5259014Y8595641D2*
X5259013Y8516745D1*
X5386623D1*
Y8595641D1*
X5319800Y8516745D2*
Y8565318D1*
X5259014Y8719930D2*
X5386623D1*
X5259014Y8634857D1*
X5386623D1*
X5289337Y8850255D2*
X5277264Y8844219D1*
X5265050Y8832005D1*
X5259014Y8819932D1*
Y8795646D1*
X5265050Y8783432D1*
X5277264Y8771359D1*
X5289337Y8765182D1*
X5307587Y8759146D1*
X5338050D1*
X5356160Y8765182D1*
X5368373Y8771359D1*
X5380446Y8783432D1*
X5386623Y8795646D1*
Y8819932D1*
X5380446Y8832005D1*
X5368373Y8844219D1*
X5356160Y8850255D1*
X5894013Y9667443D2*
X6021623D1*
X5894014Y9752516D2*
X6021623D1*
X5954800Y9667443D2*
Y9752516D1*
X5894014Y9791732D2*
X6021623D1*
X5924337Y9922057D2*
X5912264Y9916021D1*
X5900050Y9903807D1*
X5894014Y9891734D1*
Y9867448D1*
X5900050Y9855234D1*
X5912264Y9843161D1*
X5924337Y9836984D1*
X5942587Y9830948D1*
X5973050D1*
X5991160Y9836984D1*
X6003373Y9843161D1*
X6015446Y9855234D1*
X6021623Y9867447D1*
Y9891734D1*
X6015446Y9903807D1*
X6003373Y9916021D1*
X5991160Y9922057D1*
X5973050D1*
Y9891734D1*
X7516867Y10730670D2*
Y10603060D1*
X7601940Y10730670D2*
X7516867Y10645597D1*
X7547190Y10676060D2*
X7601940Y10603060D1*
X7641156Y10706243D2*
X7653369Y10712420D1*
X7671619Y10730530D1*
Y10603060D1*
X7172062Y8762170D2*
Y8634560D1*
X7257135Y8762170D2*
X7172062Y8677097D1*
X7202385Y8707560D2*
X7257135Y8634560D1*
X7302528Y8731706D2*
Y8737743D1*
X7308565Y8749956D1*
X7314601Y8755993D1*
X7326815Y8762030D1*
X7351101D1*
X7363174Y8755993D1*
X7369211Y8749956D1*
X7375388Y8737743D1*
Y8725670D1*
X7369211Y8713456D1*
X7357138Y8695347D1*
X7296351Y8634560D1*
X7381424D1*
X7172062Y7047670D2*
Y6920060D1*
X7257135Y7047670D2*
X7172062Y6962597D1*
X7202385Y6993060D2*
X7257135Y6920060D1*
X7308565Y7047530D2*
X7375247D1*
X7338888Y6998956D1*
X7357138D1*
X7369211Y6992920D1*
X7375247Y6986883D1*
X7381424Y6968633D1*
Y6956560D1*
X7375247Y6938310D1*
X7363174Y6926097D1*
X7344924Y6920060D1*
X7326674D1*
X7308565Y6926097D1*
X7302528Y6932274D1*
X7296351Y6944347D1*
X7169044Y5333173D2*
Y5205564D1*
X7254117Y5333173D2*
X7169044Y5248100D1*
X7199367Y5278564D2*
X7254117Y5205564D1*
X7354119D2*
Y5333033D1*
X7293333Y5248100D1*
X7384443D1*
X7172062Y3618673D2*
Y3491064D1*
X7257135Y3618673D2*
X7172062Y3533600D1*
X7202385Y3564064D2*
X7257135Y3491064D1*
X7369211Y3618533D2*
X7308565D1*
X7302528Y3563923D1*
X7308565Y3569960D1*
X7326815Y3576137D1*
X7344924D1*
X7363174Y3569960D1*
X7375388Y3557887D1*
X7381424Y3539637D1*
Y3527564D1*
X7375388Y3509314D1*
X7363174Y3497100D1*
X7344924Y3491064D1*
X7326815D1*
X7308565Y3497100D1*
X7302528Y3503277D1*
X7296351Y3515350D1*
X3479914Y5436677D2*
Y5309067D1*
X3564987Y5436677D2*
X3479914Y5351604D1*
X3510237Y5382067D2*
X3564987Y5309067D1*
X3677063Y5418427D2*
X3671026Y5430500D1*
X3652776Y5436536D1*
X3640703D1*
X3622453Y5430500D1*
X3610240Y5412250D1*
X3604203Y5381927D1*
Y5351604D1*
X3610240Y5327317D1*
X3622453Y5315104D1*
X3640703Y5309067D1*
X3646740D1*
X3664849Y5315104D1*
X3677063Y5327317D1*
X3683099Y5345567D1*
Y5351604D1*
X3677063Y5369854D1*
X3664849Y5381927D1*
X3646740Y5387963D1*
X3640703D1*
X3622453Y5381927D1*
X3610240Y5369854D1*
X3604203Y5351604D1*
X3476826Y3531677D2*
Y3404067D1*
X3561899Y3531677D2*
X3476826Y3446604D1*
X3507149Y3477067D2*
X3561899Y3404067D1*
X3625401D2*
X3686188Y3531536D1*
X3601115D1*
X5090763Y10202987D2*
Y10075377D1*
X5163623D1*
X5293948Y10172664D2*
X5287912Y10184737D1*
X5275698Y10196950D1*
X5263625Y10202987D1*
X5239338D1*
X5227125Y10196950D1*
X5215052Y10184737D1*
X5208875Y10172664D1*
X5202838Y10154414D1*
Y10123950D1*
X5208875Y10105840D1*
X5215052Y10093627D1*
X5227125Y10081554D1*
X5239338Y10075377D1*
X5263625D1*
X5275698Y10081554D1*
X5287912Y10093627D1*
X5293948Y10105840D1*
X5333164Y10202987D2*
Y10075377D1*
X5375700D1*
X5393950Y10081554D1*
X5406164Y10093627D1*
X5412200Y10105840D1*
X5418237Y10123950D1*
Y10154414D1*
X5412200Y10172664D1*
X5406164Y10184737D1*
X5393950Y10196950D1*
X5375700Y10202987D1*
X5333164D1*
X5668299Y10469414D2*
X5723049D1*
X5741158Y10475450D1*
X5747335Y10481627D1*
X5753372Y10493700D1*
Y10511950D1*
X5747335Y10524023D1*
X5741158Y10530200D1*
X5723049Y10536237D1*
X5668299D1*
Y10408627D1*
X5792587Y10536237D2*
X5841160Y10408627D1*
X5889734Y10536237D1*
X5928949D2*
X5934986Y10530200D1*
X5941163Y10536237D1*
X5934986Y10542414D1*
X5928949Y10536237D1*
X5934986Y10493700D2*
Y10408627D1*
X5980378Y10493700D2*
Y10408627D1*
Y10469414D2*
X5998628Y10487664D1*
X6010842Y10493700D1*
X6028951D1*
X6041165Y10487664D1*
X6047201Y10469414D1*
Y10408627D1*
X6087712Y10115610D2*
X6075639Y10109714D1*
X6063426Y10097500D1*
X6057389Y10085287D1*
X6051212Y10067037D1*
Y10036714D1*
X6057389Y10018464D1*
X6063426Y10006391D1*
X6075639Y9994177D1*
X6087712Y9988141D1*
X6111999D1*
X6124212Y9994177D1*
X6136285Y10006391D1*
X6142322Y10018464D1*
X6148499Y10036714D1*
Y10067037D1*
X6142322Y10085287D1*
X6136285Y10097500D1*
X6124212Y10109714D1*
X6111999Y10115610D1*
X6087712D1*
X6105962Y10012427D2*
X6142322Y9975927D1*
X6193891Y10085146D2*
Y10091183D1*
X6199928Y10103396D1*
X6205965Y10109433D1*
X6218178Y10115470D1*
X6242465D1*
X6254538Y10109433D1*
X6260574Y10103396D1*
X6266751Y10091183D1*
Y10079110D1*
X6260574Y10066896D1*
X6248501Y10048787D1*
X6187715Y9988000D1*
X6272788D1*
X6500462Y8655110D2*
X6488389Y8649214D1*
X6476176Y8637000D1*
X6470139Y8624787D1*
X6463962Y8606537D1*
Y8576214D1*
X6470139Y8557964D1*
X6476176Y8545891D1*
X6488389Y8533677D1*
X6500462Y8527641D1*
X6524749D1*
X6536962Y8533677D1*
X6549035Y8545891D1*
X6555072Y8557964D1*
X6561249Y8576214D1*
Y8606537D1*
X6555072Y8624787D1*
X6549035Y8637000D1*
X6536962Y8649214D1*
X6524749Y8655110D1*
X6500462D1*
X6518712Y8551927D2*
X6555072Y8515427D1*
X6673324Y8654970D2*
X6612678D1*
X6606641Y8600360D1*
X6612678Y8606396D1*
X6630928Y8612573D1*
X6649038D1*
X6667288Y8606396D1*
X6679501Y8594323D1*
X6685538Y8576073D1*
Y8564000D1*
X6679501Y8545750D1*
X6667288Y8533537D1*
X6649038Y8527500D1*
X6630928D1*
X6612678Y8533537D1*
X6606641Y8539714D1*
X6600465Y8551787D1*
X6532283Y6940610D2*
X6520209Y6934714D1*
X6507996Y6922500D1*
X6501959Y6910287D1*
X6495783Y6892037D1*
Y6861714D1*
X6501959Y6843464D1*
X6507996Y6831391D1*
X6520209Y6819177D1*
X6532283Y6813141D1*
X6556569D1*
X6568783Y6819177D1*
X6580856Y6831391D1*
X6586892Y6843464D1*
X6593069Y6861714D1*
Y6892037D1*
X6586892Y6910287D1*
X6580856Y6922500D1*
X6568783Y6934714D1*
X6556569Y6940610D1*
X6532283D1*
X6550533Y6837427D2*
X6586892Y6800927D1*
X6662608Y6940470D2*
X6644498Y6934433D1*
X6638321Y6922360D1*
Y6910146D1*
X6644498Y6898073D1*
X6656571Y6891896D1*
X6680858Y6885860D1*
X6699108Y6879823D1*
X6711181Y6867610D1*
X6717217Y6855537D1*
Y6837287D1*
X6711181Y6825214D1*
X6705144Y6819037D1*
X6686894Y6813000D1*
X6662608D1*
X6644498Y6819037D1*
X6638321Y6825214D1*
X6632285Y6837287D1*
Y6855537D1*
X6638321Y6867610D1*
X6650535Y6879823D1*
X6668644Y6885860D1*
X6692931Y6891896D1*
X6705144Y6898073D1*
X6711181Y6910146D1*
Y6922360D1*
X6705144Y6934433D1*
X6686894Y6940470D1*
X6662608D1*
X6195513Y4458305D2*
X6201410Y4446231D1*
X6213623Y4434018D1*
X6225836Y4427982D1*
X6244086Y4421805D1*
X6274410D1*
X6292660Y4427982D1*
X6304733Y4434018D1*
X6316946Y4446231D1*
X6322983Y4458304D1*
Y4482591D1*
X6316946Y4494804D1*
X6304733Y4506877D1*
X6292660Y4512914D1*
X6274410Y4519091D1*
X6244087D1*
X6225837Y4512914D1*
X6213623Y4506878D1*
X6201410Y4494805D1*
X6195513Y4482591D1*
Y4458305D1*
X6298696Y4476554D2*
X6335196Y4512914D1*
X6219940Y4558307D2*
X6213764Y4570520D1*
X6195654Y4588770D1*
X6323123D1*
X6219940Y4627986D2*
X6213764Y4640199D1*
X6195654Y4658449D1*
X6323123D1*
X6195513Y2713481D2*
X6201410Y2701408D1*
X6213623Y2689195D1*
X6225836Y2683158D1*
X6244086Y2676982D1*
X6274410D1*
X6292660Y2683158D1*
X6304733Y2689195D1*
X6316946Y2701408D1*
X6322983Y2713481D1*
Y2737768D1*
X6316946Y2749981D1*
X6304733Y2762054D1*
X6292660Y2768091D1*
X6274410Y2774268D1*
X6244087D1*
X6225837Y2768091D1*
X6213623Y2762055D1*
X6201410Y2749981D1*
X6195513Y2737768D1*
Y2713481D1*
X6298696Y2731731D2*
X6335196Y2768091D1*
X6219940Y2813484D2*
X6213764Y2825697D1*
X6195654Y2843947D1*
X6323123D1*
Y2943949D2*
X6195654D1*
X6280587Y2883163D1*
Y2974272D1*
X1141550Y4603188D2*
Y4657798D1*
X1135373Y4676048D1*
X1129337Y4682225D1*
X1117264Y4688261D1*
X1105050D1*
X1092977Y4682225D1*
X1086800Y4676048D1*
X1080763Y4657798D1*
Y4603188D1*
X1208373D1*
X1141550Y4645725D2*
X1208373Y4688261D1*
X1080764Y4806373D2*
Y4727477D1*
X1208373D1*
Y4806373D1*
X1141550Y4727477D2*
Y4776050D1*
X1080764Y4845589D2*
X1208373Y4845588D1*
Y4918448D1*
Y5054950D2*
X1080764Y5006237D1*
X1208373Y4957664D1*
X1165837Y4975914D2*
Y5036700D1*
X1080763Y5094166D2*
X1141550Y5142739D1*
X1208373D1*
X1080763Y5191312D2*
X1141550Y5142739D1*
X2147513Y10780356D2*
X2275123D1*
X2147513Y10737819D2*
X2147514Y10822892D1*
Y10862108D2*
X2275123D1*
X2147514Y10947181D2*
X2275123D1*
X2208300Y10862108D2*
Y10947181D1*
X3272124Y11568237D2*
Y11477127D1*
X3278160Y11458877D1*
X3290374Y11446804D1*
X3308624Y11440627D1*
X3320697D1*
X3338947Y11446804D1*
X3351160Y11458877D1*
X3357197Y11477127D1*
Y11568237D1*
X3396413Y11543810D2*
X3408626Y11549987D1*
X3426876Y11568096D1*
Y11440627D1*
X9963069Y11061487D2*
Y10970377D1*
X9969106Y10952127D1*
X9981319Y10940054D1*
X9999569Y10933877D1*
X10011642D1*
X10029892Y10940054D1*
X10042106Y10952127D1*
X10048142Y10970377D1*
Y11061487D1*
X10099571Y11061346D2*
X10166254D1*
X10129894Y11012773D1*
X10148144D1*
X10160217Y11006737D1*
X10166254Y11000700D1*
X10172431Y10982450D1*
Y10970377D1*
X10166254Y10952127D1*
X10154181Y10939914D1*
X10135931Y10933877D1*
X10117681D1*
X10099571Y10939914D1*
X10093535Y10946090D1*
X10087358Y10958164D1*
X11037513Y10258551D2*
X11128623D1*
X11146873Y10264588D1*
X11158946Y10276801D1*
X11165123Y10295051D1*
Y10307124D1*
X11158946Y10325374D1*
X11146873Y10337587D1*
X11128623Y10343624D1*
X11037514D1*
X11165123Y10443626D2*
X11037654D1*
X11122587Y10382840D1*
Y10473949D1*
X11037513Y8388319D2*
X11128623D1*
X11146873Y8394356D1*
X11158946Y8406569D1*
X11165123Y8424819D1*
Y8436892D1*
X11158946Y8455142D1*
X11146873Y8467356D1*
X11128623Y8473392D1*
X11037514D1*
X11037654Y8585468D2*
Y8524822D1*
X11092264Y8518785D1*
X11086227Y8524821D1*
X11080050Y8543071D1*
Y8561181D1*
X11086227Y8579431D1*
X11098300Y8591644D1*
X11116550Y8597681D1*
X11128623D1*
X11146873Y8591644D1*
X11159087Y8579431D1*
X11165123Y8561181D1*
Y8543071D1*
X11159087Y8524821D1*
X11152910Y8518785D1*
X11140837Y8512608D1*
X11037513Y6486408D2*
X11128623D1*
X11146873Y6492444D1*
X11158946Y6504658D1*
X11165123Y6522908D1*
Y6534981D1*
X11158946Y6553231D1*
X11146873Y6565444D1*
X11128623Y6571481D1*
X11037514D1*
X11055764Y6683556D2*
X11043690Y6677520D1*
X11037654Y6659270D1*
Y6647196D1*
X11043690Y6628947D1*
X11061940Y6616733D1*
X11092264Y6610696D1*
X11122587D1*
X11146873Y6616733D1*
X11159087Y6628946D1*
X11165123Y6647196D1*
Y6653233D1*
X11159087Y6671342D1*
X11146873Y6683556D1*
X11128623Y6689593D1*
X11122587D1*
X11104337Y6683556D1*
X11092264Y6671343D1*
X11086227Y6653233D1*
Y6647196D1*
X11092264Y6628946D1*
X11104337Y6616733D1*
X11122587Y6610696D1*
X5576513Y8102569D2*
X5667623D1*
X5685873Y8108606D1*
X5697946Y8120819D1*
X5704123Y8139069D1*
Y8151142D1*
X5697946Y8169392D1*
X5685873Y8181606D1*
X5667623Y8187642D1*
X5576514D1*
X5704123Y8251144D2*
X5576654Y8311931D1*
Y8226858D1*
X11005763Y4543480D2*
X11096873D1*
X11115123Y4549516D1*
X11127196Y4561730D1*
X11133373Y4579980D1*
Y4592053D1*
X11127196Y4610303D1*
X11115123Y4622516D1*
X11096873Y4628553D1*
X11005764D1*
X11030190Y4667768D2*
X11024014Y4679982D1*
X11005904Y4698232D1*
X11133373D1*
X11005904Y4773948D2*
X11011940Y4755698D1*
X11030190Y4743484D1*
X11060514Y4737448D1*
X11078764Y4737447D1*
X11109087Y4743484D1*
X11127337Y4755697D1*
X11133373Y4773947D1*
Y4786021D1*
X11127337Y4804271D1*
X11109087Y4816344D1*
X11078763Y4822521D1*
X11060514D1*
X11030190Y4816344D1*
X11011940Y4804271D1*
X11005904Y4786021D1*
Y4773948D1*
X11030190Y4816344D2*
X11109087Y4743484D1*
X11037513Y2665785D2*
X11128623D1*
X11146873Y2671821D1*
X11158946Y2684035D1*
X11165123Y2702285D1*
Y2714358D1*
X11158946Y2732608D1*
X11146873Y2744821D1*
X11128623Y2750858D1*
X11037514D1*
X11061940Y2790073D2*
X11055764Y2802287D1*
X11037654Y2820537D1*
X11165123D1*
X11061940Y2859752D2*
X11055764Y2871966D1*
X11037654Y2890216D1*
X11165123D1*
X8321730Y10155360D2*
Y10064250D1*
X8327766Y10046000D1*
X8339980Y10033927D1*
X8358230Y10027750D1*
X8370303D1*
X8388553Y10033927D1*
X8400766Y10046000D1*
X8406803Y10064250D1*
Y10155360D1*
X8446018Y10130933D2*
X8458232Y10137110D1*
X8476482Y10155220D1*
Y10027750D1*
X8521874Y10124896D2*
Y10130933D1*
X8527911Y10143146D1*
X8533947Y10149183D1*
X8546161Y10155220D1*
X8570447D1*
X8582520Y10149183D1*
X8588557Y10143146D1*
X8594734Y10130933D1*
Y10118860D1*
X8588557Y10106646D1*
X8576484Y10088537D1*
X8515697Y10027750D1*
X8600770D1*
X8321730Y8440863D2*
Y8349754D1*
X8327766Y8331504D1*
X8339980Y8319431D1*
X8358230Y8313254D1*
X8370303D1*
X8388553Y8319431D1*
X8400766Y8331504D1*
X8406803Y8349754D1*
Y8440863D1*
X8446018Y8416436D2*
X8458232Y8422613D1*
X8476482Y8440723D1*
Y8313254D1*
X8527911Y8440723D2*
X8594594D1*
X8558234Y8392150D1*
X8576484D1*
X8588557Y8386113D1*
X8594594Y8380077D1*
X8600770Y8361827D1*
Y8349754D1*
X8594594Y8331504D1*
X8582520Y8319290D1*
X8564270Y8313254D1*
X8546020D1*
X8527911Y8319290D1*
X8521874Y8325467D1*
X8515697Y8337540D1*
X8318711Y6726363D2*
Y6635254D1*
X8324748Y6617004D1*
X8336961Y6604931D1*
X8355211Y6598754D1*
X8367284D1*
X8385534Y6604931D1*
X8397748Y6617004D1*
X8403784Y6635254D1*
Y6726363D1*
X8443000Y6701936D2*
X8455213Y6708113D1*
X8473463Y6726223D1*
Y6598754D1*
X8573466D2*
Y6726223D1*
X8512679Y6641290D1*
X8603789D1*
X8321730Y5011863D2*
Y4920754D1*
X8327766Y4902504D1*
X8339980Y4890431D1*
X8358230Y4884254D1*
X8370303D1*
X8388553Y4890431D1*
X8400766Y4902504D1*
X8406803Y4920754D1*
Y5011863D1*
X8446018Y4987436D2*
X8458232Y4993613D1*
X8476482Y5011723D1*
Y4884254D1*
X8588557Y5011723D2*
X8527911D1*
X8521874Y4957113D1*
X8527911Y4963150D1*
X8546161Y4969327D1*
X8564270D1*
X8582520Y4963150D1*
X8594734Y4951077D1*
X8600770Y4932827D1*
Y4920754D1*
X8594734Y4902504D1*
X8582520Y4890290D1*
X8564270Y4884254D1*
X8546161D1*
X8527911Y4890290D1*
X8521874Y4896467D1*
X8515697Y4908540D1*
X8324818Y3297360D2*
Y3206250D1*
X8330855Y3188000D1*
X8343068Y3175927D1*
X8361318Y3169750D1*
X8373391D1*
X8391641Y3175927D1*
X8403855Y3188000D1*
X8409891Y3206250D1*
Y3297360D1*
X8449107Y3272933D2*
X8461320Y3279110D1*
X8479570Y3297220D1*
Y3169750D1*
X8591645Y3279110D2*
X8585609Y3291183D1*
X8567359Y3297220D1*
X8555286D1*
X8537036Y3291183D1*
X8524822Y3272933D1*
X8518786Y3242610D1*
Y3212287D1*
X8524822Y3188000D1*
X8537036Y3175787D1*
X8555286Y3169750D1*
X8561322D1*
X8579432Y3175787D1*
X8591645Y3188000D1*
X8597682Y3206250D1*
Y3212287D1*
X8591645Y3230537D1*
X8579432Y3242610D1*
X8561322Y3248646D1*
X8555286D1*
X8537036Y3242610D1*
X8524822Y3230537D1*
X8518786Y3212287D1*
X2242763Y4098980D2*
X2333873D1*
X2352123Y4105016D1*
X2364196Y4117230D1*
X2370373Y4135480D1*
Y4147553D1*
X2364196Y4165803D1*
X2352123Y4178016D1*
X2333873Y4184053D1*
X2242764D1*
X2267190Y4223268D2*
X2261014Y4235482D1*
X2242904Y4253732D1*
X2370373D1*
Y4317234D2*
X2242904Y4378021D1*
Y4292948D1*
X2242763Y3083050D2*
X2333873D1*
X2352123Y3089087D1*
X2364196Y3101300D1*
X2370373Y3119550D1*
Y3131623D1*
X2364196Y3149873D1*
X2352123Y3162086D1*
X2333873Y3168123D1*
X2242764D1*
X2267190Y3207339D2*
X2261014Y3219552D1*
X2242904Y3237802D1*
X2370373D1*
X2242904Y3307341D2*
X2248940Y3289231D1*
X2261014Y3283054D1*
X2273227D1*
X2285300Y3289231D1*
X2291477Y3301304D1*
X2297514Y3325591D1*
X2303550Y3343841D1*
X2315763Y3355914D1*
X2327837Y3361950D1*
X2346087D1*
X2358160Y3355914D1*
X2364337Y3349877D1*
X2370373Y3331627D1*
Y3307341D1*
X2364337Y3289231D1*
X2358160Y3283054D1*
X2346087Y3277018D1*
X2327837D1*
X2315764Y3283054D1*
X2303550Y3295268D1*
X2297514Y3313377D1*
X2291477Y3337664D1*
X2285300Y3349877D1*
X2273227Y3355914D1*
X2261014D1*
X2248940Y3349877D1*
X2242904Y3331627D1*
Y3307341D1*
M02*
